G04 DipTrace 2.3.0.1*
%IN58742_R2_ONYX_Bottom.gbr*%
%MOIN*%
%ADD13C,0.1*%
%ADD14C,0.55*%
%ADD15C,0.03*%
%ADD16C,0.013*%
%ADD18C,0.05*%
%ADD19C,0.5*%
%ADD20C,0.025*%
%ADD22O,0.175X0.1*%
%ADD26O,0.199X0.186*%
%ADD27R,0.0591X0.0591*%
%ADD28C,0.09*%
%ADD29C,0.0591*%
%ADD31C,0.09*%
%ADD32C,0.04*%
%ADD33C,0.093*%
%FSLAX44Y44*%
G04*
G70*
G90*
G75*
G01*
%LNBottom*%
%LPD*%
X27971Y90724D2*
D14*
X55531D1*
X63646Y82609D1*
X18701Y120964D2*
D15*
X20201D1*
X21201Y121964D1*
Y122964D1*
X22701Y120964D2*
D16*
X25201D1*
Y119964D1*
X10701Y121214D2*
D18*
Y67714D1*
X15451Y62964D1*
X17201D1*
X10701Y121214D2*
D13*
Y122214D1*
X9201Y121214D2*
D18*
Y67214D1*
X14701Y61714D1*
X18701D1*
X9201Y121214D2*
D13*
Y122214D1*
X13701Y119964D2*
D16*
Y121964D1*
Y122964D2*
Y121964D1*
X15701Y119964D1*
X14701Y120964D2*
D19*
Y91754D1*
Y70964D1*
X20701Y64964D1*
X22041Y91754D2*
D14*
X14701D1*
X20201Y122964D2*
D15*
X13701D1*
D32*
X27201D3*
X26201D3*
X25201D3*
Y121964D3*
X26201D3*
X27201D3*
Y120964D3*
X26201D3*
X25201D3*
Y119964D3*
D15*
X24441Y91494D3*
X23831Y91574D3*
X22621Y91714D3*
X23211Y91654D3*
X22041Y91754D3*
X25561Y91314D3*
X26141Y91184D3*
X27366Y90899D3*
X26751Y91044D3*
X27971Y90724D3*
X63646Y82609D3*
X63866Y82049D3*
X64306Y80869D3*
X64106Y81469D3*
X64496Y80299D3*
X64881Y79214D3*
X65051Y78644D3*
X65401Y77444D3*
X65231Y78064D3*
X65561Y76854D3*
X-28139Y42914D3*
X-27859Y42344D3*
X-27361Y41214D3*
X-27609Y41774D3*
X-27049Y40651D3*
D33*
X20701Y64964D3*
D32*
X21139Y64089D3*
X21701Y64589D3*
X21826Y65339D3*
X26201Y119964D3*
X27201D3*
X21301Y65934D3*
X4535Y123245D2*
D20*
X7306D1*
X23157D2*
X36868D1*
X3762Y122996D2*
X7189D1*
X23157D2*
X37642D1*
X3125Y122748D2*
X7110D1*
X23157D2*
X38275D1*
X2493Y122499D2*
X7060D1*
X23157D2*
X38911D1*
X1860Y122250D2*
X7040D1*
X23157D2*
X39544D1*
X1223Y122002D2*
X7040D1*
X23157D2*
X40177D1*
X590Y121753D2*
X7040D1*
X23157D2*
X40814D1*
X-43Y121504D2*
X7040D1*
X23157D2*
X41446D1*
X-679Y121256D2*
X7040D1*
X23157D2*
X42079D1*
X-1312Y121007D2*
X7052D1*
X22633D2*
X42716D1*
X-1949Y120758D2*
X7091D1*
X22426D2*
X43349D1*
X-2582Y120509D2*
X7161D1*
X22176D2*
X43985D1*
X-3215Y120261D2*
X7267D1*
X21926D2*
X44618D1*
X-3851Y120012D2*
X7290D1*
X21680D2*
X45251D1*
X-4484Y119763D2*
X7290D1*
X21430D2*
X45888D1*
X-5117Y119515D2*
X7290D1*
X21114D2*
X46521D1*
X-5754Y119266D2*
X7290D1*
X20313D2*
X47153D1*
X-6386Y119017D2*
X7290D1*
X19473D2*
X47790D1*
X-6871Y118769D2*
X7290D1*
X18860D2*
X48271D1*
X-7261Y118520D2*
X7290D1*
X18860D2*
X48665D1*
X-7656Y118271D2*
X7290D1*
X18860D2*
X49060D1*
X-7609Y118023D2*
X7290D1*
X18860D2*
X49013D1*
X-7281Y117774D2*
X7290D1*
X18860D2*
X48685D1*
X-7047Y117525D2*
X7290D1*
X18860D2*
X48450D1*
X-6871Y117277D2*
X7290D1*
X18860D2*
X48275D1*
X-6742Y117028D2*
X7290D1*
X18860D2*
X48146D1*
X-6648Y116779D2*
X7290D1*
X18860D2*
X48048D1*
X-6586Y116530D2*
X7290D1*
X18860D2*
X47985D1*
X-6550Y116282D2*
X7290D1*
X18860D2*
X47954D1*
X-11191Y116033D2*
X-11109D1*
X-6547D2*
X7290D1*
X18860D2*
X47946D1*
X52516D2*
X52592D1*
X-11582Y115784D2*
X-11093D1*
X-6566D2*
X7290D1*
X18860D2*
X47970D1*
X52493D2*
X52985D1*
X-11976Y115536D2*
X-11042D1*
X-6617D2*
X7290D1*
X18860D2*
X48021D1*
X52446D2*
X53376D1*
X-12367Y115287D2*
X-10960D1*
X-6695D2*
X7290D1*
X18860D2*
X48099D1*
X52364D2*
X53771D1*
X-12761Y115038D2*
X-10847D1*
X-6812D2*
X7290D1*
X18860D2*
X48212D1*
X52250D2*
X54161D1*
X-13152Y114790D2*
X-10690D1*
X-6965D2*
X7290D1*
X18860D2*
X48368D1*
X52094D2*
X54556D1*
X-13547Y114541D2*
X-10487D1*
X-7172D2*
X7290D1*
X18860D2*
X48575D1*
X51887D2*
X54946D1*
X-13937Y114292D2*
X-10206D1*
X-7453D2*
X7290D1*
X18860D2*
X48857D1*
X51606D2*
X55341D1*
X-14332Y114044D2*
X-9784D1*
X-7875D2*
X7290D1*
X18860D2*
X49278D1*
X51184D2*
X55732D1*
X-14722Y113795D2*
X7290D1*
X18860D2*
X56126D1*
X-15117Y113546D2*
X7290D1*
X18860D2*
X56517D1*
X-15507Y113298D2*
X7290D1*
X18860D2*
X56911D1*
X-15902Y113049D2*
X7290D1*
X18860D2*
X57302D1*
X-16293Y112800D2*
X7290D1*
X18860D2*
X57696D1*
X-16582Y112551D2*
X7290D1*
X18860D2*
X57985D1*
X-16847Y112303D2*
X7290D1*
X18860D2*
X58247D1*
X-17109Y112054D2*
X7290D1*
X18860D2*
X58513D1*
X-17375Y111805D2*
X7290D1*
X18860D2*
X58775D1*
X-17636Y111557D2*
X7290D1*
X18860D2*
X59040D1*
X-17902Y111308D2*
X7290D1*
X18860D2*
X59306D1*
X-18168Y111059D2*
X7290D1*
X18860D2*
X59568D1*
X-18429Y110811D2*
X7290D1*
X18860D2*
X59833D1*
X-18695Y110562D2*
X7290D1*
X18860D2*
X60095D1*
X-18957Y110313D2*
X7290D1*
X18860D2*
X60360D1*
X-19222Y110065D2*
X7290D1*
X18860D2*
X60626D1*
X-19484Y109816D2*
X7290D1*
X18860D2*
X60888D1*
X-19750Y109567D2*
X7290D1*
X18860D2*
X61153D1*
X-20015Y109319D2*
X7290D1*
X18860D2*
X61415D1*
X-20277Y109070D2*
X7290D1*
X18860D2*
X61681D1*
X-20543Y108821D2*
X7290D1*
X18860D2*
X61946D1*
X-20804Y108572D2*
X7290D1*
X18860D2*
X62208D1*
X-21070Y108324D2*
X7290D1*
X18860D2*
X62474D1*
X-21336Y108075D2*
X7290D1*
X18860D2*
X62735D1*
X-21597Y107826D2*
X7290D1*
X18860D2*
X63001D1*
X-21863Y107578D2*
X7290D1*
X18860D2*
X63267D1*
X-22125Y107329D2*
X7290D1*
X18860D2*
X63528D1*
X-22390Y107080D2*
X7290D1*
X18860D2*
X63794D1*
X-22656Y106832D2*
X7290D1*
X18860D2*
X64056D1*
X-22918Y106583D2*
X7290D1*
X18860D2*
X64321D1*
X-23183Y106334D2*
X7290D1*
X18860D2*
X64583D1*
X-23445Y106086D2*
X7290D1*
X18860D2*
X64849D1*
X-23711Y105837D2*
X7290D1*
X18860D2*
X65114D1*
X-23976Y105588D2*
X7290D1*
X18860D2*
X65376D1*
X-24238Y105340D2*
X7290D1*
X18860D2*
X65642D1*
X-24504Y105091D2*
X7290D1*
X18860D2*
X65903D1*
X-24765Y104842D2*
X7290D1*
X18860D2*
X66165D1*
X-24945Y104593D2*
X7290D1*
X18860D2*
X66345D1*
X-25125Y104345D2*
X7290D1*
X18860D2*
X66525D1*
X-25300Y104096D2*
X7290D1*
X18860D2*
X66704D1*
X-25480Y103847D2*
X7290D1*
X18860D2*
X66884D1*
X-25660Y103599D2*
X7290D1*
X18860D2*
X67064D1*
X-25840Y103350D2*
X7290D1*
X18860D2*
X67243D1*
X-26019Y103101D2*
X7290D1*
X18860D2*
X67423D1*
X-26199Y102853D2*
X7290D1*
X18860D2*
X67603D1*
X-26379Y102604D2*
X7290D1*
X18860D2*
X67778D1*
X-26558Y102355D2*
X7290D1*
X18860D2*
X67958D1*
X-26734Y102107D2*
X7290D1*
X18860D2*
X68138D1*
X-26914Y101858D2*
X7290D1*
X18860D2*
X68318D1*
X-27093Y101609D2*
X7290D1*
X18860D2*
X68497D1*
X-27273Y101361D2*
X7290D1*
X18860D2*
X68677D1*
X-27453Y101112D2*
X7290D1*
X18860D2*
X68857D1*
X-27632Y100863D2*
X7290D1*
X18860D2*
X69036D1*
X-27812Y100614D2*
X7290D1*
X18860D2*
X69212D1*
X-27992Y100366D2*
X7290D1*
X18860D2*
X69392D1*
X-28168Y100117D2*
X7290D1*
X18860D2*
X69571D1*
X-28347Y99868D2*
X7290D1*
X18860D2*
X69751D1*
X-28527Y99620D2*
X7290D1*
X18860D2*
X69931D1*
X-28707Y99371D2*
X7290D1*
X18860D2*
X70110D1*
X-28886Y99122D2*
X7290D1*
X18860D2*
X70290D1*
X-29066Y98874D2*
X7290D1*
X18860D2*
X70470D1*
X-29246Y98625D2*
X7290D1*
X18860D2*
X70646D1*
X-29425Y98376D2*
X7290D1*
X18860D2*
X70825D1*
X-29601Y98128D2*
X7290D1*
X18860D2*
X71005D1*
X-29781Y97879D2*
X7290D1*
X18860D2*
X71185D1*
X-29961Y97630D2*
X7290D1*
X18860D2*
X71364D1*
X-30140Y97382D2*
X7290D1*
X18860D2*
X71544D1*
X-30320Y97133D2*
X7290D1*
X18860D2*
X71724D1*
X-30500Y96884D2*
X7290D1*
X18860D2*
X71903D1*
X-30679Y96635D2*
X7290D1*
X18860D2*
X72079D1*
X-30859Y96387D2*
X7290D1*
X18860D2*
X72259D1*
X-31039Y96138D2*
X7290D1*
X22125D2*
X72439D1*
X-31215Y95889D2*
X7290D1*
X23524D2*
X72618D1*
X-31394Y95641D2*
X7290D1*
X24094D2*
X72798D1*
X-31547Y95392D2*
X7290D1*
X24512D2*
X72950D1*
X-31664Y95143D2*
X7290D1*
X24848D2*
X73068D1*
X-31777Y94895D2*
X7290D1*
X25125D2*
X26595D1*
X56910D2*
X73181D1*
X-31894Y94646D2*
X7290D1*
X25364D2*
X25985D1*
X57516D2*
X73298D1*
X-32007Y94397D2*
X7290D1*
X57950D2*
X73411D1*
X-32125Y94149D2*
X7290D1*
X58293D2*
X73525D1*
X-32238Y93900D2*
X7290D1*
X58578D2*
X73642D1*
X-32355Y93651D2*
X7290D1*
X58828D2*
X73755D1*
X-32468Y93403D2*
X7290D1*
X59078D2*
X73872D1*
X-32586Y93154D2*
X7290D1*
X59328D2*
X73985D1*
X-32699Y92905D2*
X7290D1*
X59575D2*
X74103D1*
X-32816Y92656D2*
X7290D1*
X59825D2*
X74216D1*
X-32929Y92408D2*
X7290D1*
X60075D2*
X74333D1*
X-33047Y92159D2*
X7290D1*
X60321D2*
X74446D1*
X-33160Y91910D2*
X7290D1*
X60571D2*
X74564D1*
X-33277Y91662D2*
X7290D1*
X60821D2*
X74677D1*
X-33390Y91413D2*
X7290D1*
X61067D2*
X74794D1*
X-33504Y91164D2*
X7290D1*
X61317D2*
X74907D1*
X-33621Y90916D2*
X7290D1*
X61567D2*
X75025D1*
X-33734Y90667D2*
X7290D1*
X61813D2*
X75138D1*
X-33851Y90418D2*
X7290D1*
X62063D2*
X75255D1*
X-33965Y90170D2*
X7290D1*
X62313D2*
X75368D1*
X-34082Y89921D2*
X7290D1*
X62559D2*
X75485D1*
X-34195Y89672D2*
X7290D1*
X62809D2*
X75599D1*
X-34312Y89424D2*
X7290D1*
X63059D2*
X75712D1*
X-34425Y89175D2*
X7290D1*
X63305D2*
X75829D1*
X-34543Y88926D2*
X7290D1*
X63555D2*
X75943D1*
X-34656Y88677D2*
X7290D1*
X63805D2*
X76060D1*
X-34773Y88429D2*
X7290D1*
X64051D2*
X76173D1*
X-34886Y88180D2*
X7290D1*
X64301D2*
X76290D1*
X-35004Y87931D2*
X7290D1*
X24215D2*
X24564D1*
X64551D2*
X76403D1*
X-35117Y87683D2*
X7290D1*
X23696D2*
X24786D1*
X64797D2*
X76521D1*
X-35234Y87434D2*
X7290D1*
X22821D2*
X25048D1*
X65047D2*
X76634D1*
X-35347Y87185D2*
X7290D1*
X18860D2*
X25357D1*
X65297D2*
X76751D1*
X-35461Y86937D2*
X7290D1*
X18860D2*
X25735D1*
X65543D2*
X76864D1*
X-35578Y86688D2*
X7290D1*
X18860D2*
X26232D1*
X65793D2*
X76982D1*
X-35691Y86439D2*
X7290D1*
X18860D2*
X27013D1*
X66043D2*
X77095D1*
X-35808Y86191D2*
X7290D1*
X18860D2*
X53837D1*
X66289D2*
X77212D1*
X-35922Y85942D2*
X7290D1*
X18860D2*
X54087D1*
X66539D2*
X77325D1*
X-36039Y85693D2*
X7290D1*
X18860D2*
X54337D1*
X66789D2*
X77443D1*
X-36152Y85445D2*
X7290D1*
X18860D2*
X54583D1*
X67016D2*
X77556D1*
X-36269Y85196D2*
X7290D1*
X18860D2*
X54833D1*
X67211D2*
X77669D1*
X-36367Y84947D2*
X7290D1*
X18860D2*
X55083D1*
X67379D2*
X77767D1*
X-36425Y84698D2*
X7290D1*
X18860D2*
X55329D1*
X67528D2*
X77829D1*
X-36488Y84450D2*
X7290D1*
X18860D2*
X55579D1*
X67653D2*
X77892D1*
X-36550Y84201D2*
X7290D1*
X18860D2*
X55829D1*
X67758D2*
X77954D1*
X-36613Y83952D2*
X7290D1*
X18860D2*
X56075D1*
X67844D2*
X78013D1*
X-36672Y83704D2*
X7290D1*
X18860D2*
X56325D1*
X67918D2*
X78075D1*
X-36734Y83455D2*
X7290D1*
X18860D2*
X56575D1*
X67973D2*
X78138D1*
X-36797Y83206D2*
X7290D1*
X18860D2*
X56821D1*
X68016D2*
X78200D1*
X-36859Y82958D2*
X7290D1*
X18860D2*
X57071D1*
X68043D2*
X78259D1*
X-36918Y82709D2*
X7290D1*
X18860D2*
X57321D1*
X68055D2*
X78321D1*
X-36980Y82460D2*
X7290D1*
X18860D2*
X57568D1*
X68055D2*
X78384D1*
X-37043Y82212D2*
X7290D1*
X18860D2*
X57818D1*
X68039D2*
X78446D1*
X-37105Y81963D2*
X7290D1*
X18860D2*
X58068D1*
X68008D2*
X78505D1*
X-37168Y81714D2*
X7290D1*
X18860D2*
X58314D1*
X67965D2*
X78568D1*
X-37226Y81466D2*
X7290D1*
X18860D2*
X58564D1*
X67907D2*
X78630D1*
X-37289Y81217D2*
X7290D1*
X18860D2*
X58814D1*
X67828D2*
X78693D1*
X-37351Y80968D2*
X7290D1*
X18860D2*
X59060D1*
X67739D2*
X78755D1*
X-37414Y80719D2*
X7290D1*
X18860D2*
X59310D1*
X67629D2*
X78814D1*
X-37472Y80471D2*
X7290D1*
X18860D2*
X59560D1*
X67500D2*
X78876D1*
X-37535Y80222D2*
X7290D1*
X18860D2*
X59806D1*
X67348D2*
X78939D1*
X-37597Y79973D2*
X7290D1*
X18860D2*
X60056D1*
X67176D2*
X79001D1*
X-37660Y79725D2*
X7290D1*
X18860D2*
X60306D1*
X66973D2*
X79060D1*
X-37718Y79476D2*
X7290D1*
X18860D2*
X60552D1*
X66739D2*
X79122D1*
X-37781Y79227D2*
X7290D1*
X18860D2*
X60829D1*
X66461D2*
X79185D1*
X-37843Y78979D2*
X7290D1*
X18860D2*
X61161D1*
X66129D2*
X79247D1*
X-37906Y78730D2*
X7290D1*
X18860D2*
X61575D1*
X65715D2*
X79306D1*
X-37965Y78481D2*
X7290D1*
X18860D2*
X62142D1*
X65153D2*
X79368D1*
X-38027Y78233D2*
X7290D1*
X18860D2*
X63345D1*
X63950D2*
X79431D1*
X-38090Y77984D2*
X7290D1*
X18860D2*
X79493D1*
X-38152Y77735D2*
X7290D1*
X18860D2*
X79552D1*
X-38211Y77487D2*
X7290D1*
X18860D2*
X79614D1*
X-38273Y77238D2*
X7290D1*
X18860D2*
X79677D1*
X-38336Y76989D2*
X7290D1*
X18860D2*
X79739D1*
X-38398Y76740D2*
X7290D1*
X18860D2*
X79798D1*
X-38457Y76492D2*
X7290D1*
X18860D2*
X79860D1*
X-38519Y76243D2*
X7290D1*
X18860D2*
X79923D1*
X-38582Y75994D2*
X7290D1*
X18860D2*
X79985D1*
X-38644Y75746D2*
X7290D1*
X18860D2*
X80044D1*
X-38707Y75497D2*
X7290D1*
X18860D2*
X80107D1*
X-38765Y75248D2*
X7290D1*
X18860D2*
X80169D1*
X-38828Y75000D2*
X7290D1*
X18860D2*
X80232D1*
X-38890Y74751D2*
X7290D1*
X18860D2*
X80290D1*
X-38953Y74502D2*
X7290D1*
X18860D2*
X80353D1*
X-39011Y74254D2*
X7290D1*
X18860D2*
X80415D1*
X-39074Y74005D2*
X7290D1*
X18860D2*
X80478D1*
X-39121Y73756D2*
X7290D1*
X18860D2*
X80521D1*
X-39132Y73508D2*
X7290D1*
X18860D2*
X80536D1*
X-39144Y73259D2*
X7290D1*
X18860D2*
X80548D1*
X-39160Y73010D2*
X7290D1*
X18860D2*
X80560D1*
X-39172Y72761D2*
X7290D1*
X18860D2*
X80575D1*
X-39183Y72513D2*
X7290D1*
X19024D2*
X80587D1*
X-39199Y72264D2*
X7290D1*
X19274D2*
X80599D1*
X-39211Y72015D2*
X7290D1*
X19524D2*
X80614D1*
X-39222Y71767D2*
X7290D1*
X19770D2*
X80626D1*
X-39234Y71518D2*
X7290D1*
X20020D2*
X80638D1*
X-39250Y71269D2*
X7290D1*
X20270D2*
X80650D1*
X-39261Y71021D2*
X7290D1*
X20516D2*
X80665D1*
X-39273Y70772D2*
X7290D1*
X20766D2*
X80677D1*
X-39289Y70523D2*
X7290D1*
X21016D2*
X80689D1*
X-39300Y70275D2*
X7290D1*
X21262D2*
X80704D1*
X-39312Y70026D2*
X7290D1*
X21512D2*
X80716D1*
X-39328Y69777D2*
X7290D1*
X21762D2*
X80728D1*
X-39340Y69529D2*
X7290D1*
X22008D2*
X80743D1*
X-39351Y69280D2*
X7290D1*
X22258D2*
X80755D1*
X-39363Y69031D2*
X7290D1*
X22508D2*
X80767D1*
X-39379Y68782D2*
X7290D1*
X22754D2*
X80778D1*
X-39390Y68534D2*
X7290D1*
X23004D2*
X80794D1*
X-39402Y68285D2*
X7290D1*
X23254D2*
X80806D1*
X-39418Y68036D2*
X7290D1*
X23500D2*
X80818D1*
X-39429Y67788D2*
X7290D1*
X23746D2*
X80833D1*
X-39441Y67539D2*
X7290D1*
X23961D2*
X80845D1*
X-39457Y67290D2*
X7290D1*
X24145D2*
X79212D1*
X80309D2*
X80857D1*
X-39468Y67042D2*
X-39272D1*
X-37445D2*
X7298D1*
X24301D2*
X78568D1*
X-37007Y66793D2*
X7341D1*
X24434D2*
X78208D1*
X-36718Y66544D2*
X7415D1*
X24547D2*
X77950D1*
X-36507Y66296D2*
X7528D1*
X24641D2*
X77759D1*
X-36351Y66047D2*
X7696D1*
X24715D2*
X77610D1*
X-36234Y65798D2*
X7927D1*
X24778D2*
X77501D1*
X-36152Y65550D2*
X8173D1*
X24821D2*
X77423D1*
X-36097Y65301D2*
X8423D1*
X24848D2*
X77376D1*
X-36074Y65052D2*
X8673D1*
X24860D2*
X77353D1*
X-36078Y64803D2*
X8919D1*
X24860D2*
X77357D1*
X-36113Y64555D2*
X9169D1*
X24840D2*
X77388D1*
X-36172Y64306D2*
X9419D1*
X24809D2*
X77443D1*
X-36265Y64057D2*
X9665D1*
X24762D2*
X77532D1*
X-36390Y63809D2*
X9915D1*
X24696D2*
X77650D1*
X-36562Y63560D2*
X10165D1*
X24618D2*
X77810D1*
X-36793Y63311D2*
X10411D1*
X24516D2*
X78017D1*
X-37113Y63063D2*
X10661D1*
X24399D2*
X78298D1*
X-39687Y62814D2*
X-39081D1*
X-37636D2*
X10911D1*
X24258D2*
X78704D1*
X80821D2*
X81091D1*
X-39699Y62565D2*
X11157D1*
X24094D2*
X81103D1*
X-39711Y62317D2*
X11407D1*
X23903D2*
X81114D1*
X-39675Y62068D2*
X11657D1*
X23676D2*
X81079D1*
X-39640Y61819D2*
X11903D1*
X23410D2*
X81044D1*
X-39605Y61571D2*
X12153D1*
X23090D2*
X81009D1*
X-39574Y61322D2*
X12403D1*
X22684D2*
X80974D1*
X-39539Y61073D2*
X12650D1*
X22125D2*
X80939D1*
X-39504Y60824D2*
X12900D1*
X20895D2*
X80903D1*
X-39468Y60576D2*
X13150D1*
X20739D2*
X80872D1*
X-39433Y60327D2*
X13400D1*
X20524D2*
X80837D1*
X-39398Y60078D2*
X13739D1*
X20243D2*
X80802D1*
X-39363Y59830D2*
X14618D1*
X19813D2*
X80767D1*
X-39328Y59581D2*
X18466D1*
X18688D2*
X80732D1*
X-39293Y59332D2*
X80696D1*
X-39257Y59084D2*
X80661D1*
X-39222Y58835D2*
X80626D1*
X-39191Y58586D2*
X80591D1*
X-39156Y58338D2*
X80556D1*
X-39121Y58089D2*
X80521D1*
X-39086Y57840D2*
X80485D1*
X-39050Y57592D2*
X80454D1*
X-39015Y57343D2*
X80419D1*
X-38980Y57094D2*
X80384D1*
X-38945Y56845D2*
X80349D1*
X-38910Y56597D2*
X80314D1*
X-38875Y56348D2*
X80278D1*
X-38840Y56099D2*
X80243D1*
X-38804Y55851D2*
X80208D1*
X-38773Y55602D2*
X80173D1*
X-38738Y55353D2*
X80138D1*
X-38703Y55105D2*
X80103D1*
X-38668Y54856D2*
X80068D1*
X-38632Y54607D2*
X80036D1*
X-38597Y54359D2*
X80001D1*
X-38562Y54110D2*
X79966D1*
X-38527Y53861D2*
X79931D1*
X-38492Y53613D2*
X79896D1*
X-38457Y53364D2*
X79860D1*
X-38422Y53115D2*
X79825D1*
X-38386Y52866D2*
X79790D1*
X-38355Y52618D2*
X79755D1*
X-38320Y52369D2*
X79720D1*
X-38285Y52120D2*
X79685D1*
X-38250Y51872D2*
X79653D1*
X-38215Y51623D2*
X79618D1*
X-38179Y51374D2*
X79583D1*
X-38144Y51126D2*
X79548D1*
X-38105Y50877D2*
X79509D1*
X-38019Y50628D2*
X79423D1*
X-37933Y50380D2*
X79337D1*
X-37847Y50131D2*
X79251D1*
X-37765Y49882D2*
X79165D1*
X-37679Y49634D2*
X79079D1*
X-37593Y49385D2*
X78997D1*
X-37507Y49136D2*
X78911D1*
X-37422Y48887D2*
X78825D1*
X-37336Y48639D2*
X78739D1*
X-37254Y48390D2*
X78653D1*
X-37168Y48141D2*
X78571D1*
X-37082Y47893D2*
X78485D1*
X-36996Y47644D2*
X78400D1*
X-36910Y47395D2*
X78314D1*
X-36828Y47147D2*
X78228D1*
X-36742Y46898D2*
X78146D1*
X-36656Y46649D2*
X78060D1*
X-36570Y46401D2*
X77974D1*
X-36484Y46152D2*
X77888D1*
X-36402Y45903D2*
X77802D1*
X-36316Y45655D2*
X77720D1*
X-36230Y45406D2*
X77634D1*
X-36144Y45157D2*
X77548D1*
X-36058Y44908D2*
X77462D1*
X-35976Y44660D2*
X77376D1*
X-35890Y44411D2*
X77294D1*
X-35804Y44162D2*
X77208D1*
X-35718Y43914D2*
X77122D1*
X-35632Y43665D2*
X77036D1*
X-35550Y43416D2*
X76950D1*
X-35465Y43168D2*
X76864D1*
X-35379Y42919D2*
X76782D1*
X-35293Y42670D2*
X76696D1*
X-35207Y42422D2*
X76610D1*
X-35125Y42173D2*
X76525D1*
X-35039Y41924D2*
X76439D1*
X-34953Y41675D2*
X76357D1*
X-34867Y41427D2*
X76271D1*
X-34781Y41178D2*
X76185D1*
X-34699Y40929D2*
X76099D1*
X-34613Y40681D2*
X76013D1*
X-34527Y40432D2*
X75931D1*
X-34441Y40183D2*
X75845D1*
X-34343Y39935D2*
X75743D1*
X-34199Y39686D2*
X75603D1*
X-34058Y39437D2*
X75458D1*
X-33914Y39189D2*
X75318D1*
X-33773Y38940D2*
X75173D1*
X-33629Y38691D2*
X75032D1*
X-33488Y38443D2*
X74888D1*
X-33343Y38194D2*
X74747D1*
X-33203Y37945D2*
X74603D1*
X-33058Y37696D2*
X74462D1*
X-32914Y37448D2*
X74318D1*
X-32773Y37199D2*
X74177D1*
X-32629Y36950D2*
X74032D1*
X-32488Y36702D2*
X73892D1*
X-32343Y36453D2*
X73747D1*
X-32203Y36204D2*
X73607D1*
X-32058Y35956D2*
X73462D1*
X-31918Y35707D2*
X73318D1*
X-31773Y35458D2*
X73177D1*
X-31632Y35210D2*
X73032D1*
X-31488Y34961D2*
X72892D1*
X-31347Y34712D2*
X72747D1*
X-31203Y34464D2*
X72607D1*
X-31062Y34215D2*
X72462D1*
X-30918Y33966D2*
X72321D1*
X-30777Y33717D2*
X72177D1*
X-30632Y33469D2*
X72036D1*
X-30488Y33220D2*
X71892D1*
X-30347Y32971D2*
X71751D1*
X-30203Y32723D2*
X71607D1*
X-30062Y32474D2*
X71466D1*
X-29918Y32225D2*
X71321D1*
X-29777Y31977D2*
X71181D1*
X-29632Y31728D2*
X71036D1*
X-29492Y31479D2*
X70892D1*
X-29347Y31231D2*
X70751D1*
X-29207Y30982D2*
X70607D1*
X-29062Y30733D2*
X70466D1*
X-28922Y30485D2*
X70321D1*
X-28777Y30236D2*
X70181D1*
X-28632Y29987D2*
X70036D1*
X-28418Y29738D2*
X69821D1*
X-28203Y29490D2*
X69607D1*
X-27988Y29241D2*
X69392D1*
X-27773Y28992D2*
X69177D1*
X-27562Y28744D2*
X68962D1*
X-27347Y28495D2*
X68747D1*
X-27132Y28246D2*
X68532D1*
X-26918Y27998D2*
X68321D1*
X-26703Y27749D2*
X68107D1*
X-26488Y27500D2*
X67892D1*
X-26273Y27252D2*
X67677D1*
X-26058Y27003D2*
X67462D1*
X-25843Y26754D2*
X67247D1*
X-25629Y26506D2*
X67032D1*
X-25414Y26257D2*
X66818D1*
X-25199Y26008D2*
X66603D1*
X-24988Y25759D2*
X66388D1*
X-24773Y25511D2*
X66173D1*
X-24558Y25262D2*
X65958D1*
X-24343Y25013D2*
X65743D1*
X-24129Y24765D2*
X65532D1*
X-23914Y24516D2*
X65318D1*
X-23699Y24267D2*
X65103D1*
X-23484Y24019D2*
X64888D1*
X-23269Y23770D2*
X64673D1*
X-23054Y23521D2*
X64458D1*
X-22840Y23273D2*
X64243D1*
X-22625Y23024D2*
X64028D1*
X-22410Y22775D2*
X63814D1*
X-22199Y22527D2*
X63599D1*
X-21984Y22278D2*
X63384D1*
X-21769Y22029D2*
X63169D1*
X-21554Y21780D2*
X62958D1*
X-21340Y21532D2*
X62743D1*
X-21125Y21283D2*
X62528D1*
X-20816Y21034D2*
X62220D1*
X-20504Y20786D2*
X61903D1*
X-20187Y20537D2*
X61591D1*
X-19871Y20288D2*
X61275D1*
X-19558Y20040D2*
X60958D1*
X-19242Y19791D2*
X60646D1*
X-18925Y19542D2*
X60329D1*
X-18613Y19294D2*
X60013D1*
X-18297Y19045D2*
X59700D1*
X-17980Y18796D2*
X59384D1*
X-17668Y18548D2*
X59068D1*
X-17351Y18299D2*
X58755D1*
X-17035Y18050D2*
X58439D1*
X-16722Y17801D2*
X58122D1*
X-16406Y17553D2*
X57810D1*
X-16090Y17304D2*
X57493D1*
X-15777Y17055D2*
X57177D1*
X-15461Y16807D2*
X56864D1*
X-15144Y16558D2*
X56548D1*
X-14832Y16309D2*
X56232D1*
X-14515Y16061D2*
X-9679D1*
X-7976D2*
X49380D1*
X51082D2*
X55919D1*
X-14199Y15812D2*
X-10171D1*
X-7488D2*
X48888D1*
X51575D2*
X55603D1*
X-13886Y15563D2*
X-10483D1*
X-7172D2*
X48575D1*
X51887D2*
X55286D1*
X-13570Y15315D2*
X-10714D1*
X-6941D2*
X48345D1*
X52118D2*
X54974D1*
X-13254Y15066D2*
X-10890D1*
X-6769D2*
X48169D1*
X52293D2*
X54657D1*
X-12941Y14817D2*
X-11022D1*
X-6636D2*
X48040D1*
X52426D2*
X54341D1*
X-12625Y14569D2*
X-11120D1*
X-6539D2*
X47943D1*
X52524D2*
X54028D1*
X-12308Y14320D2*
X-11186D1*
X-6472D2*
X47872D1*
X52590D2*
X53712D1*
X-11961Y14071D2*
X-11225D1*
X-6433D2*
X47833D1*
X52629D2*
X53364D1*
X-11480Y13822D2*
X-11237D1*
X-6418D2*
X47821D1*
X52641D2*
X52884D1*
X-6433Y13574D2*
X47833D1*
X-6472Y13325D2*
X47876D1*
X-6539Y13076D2*
X47943D1*
X-6636Y12828D2*
X48040D1*
X-6769Y12579D2*
X48173D1*
X-6945Y12330D2*
X48349D1*
X-7175Y12082D2*
X48579D1*
X-7492Y11833D2*
X48892D1*
X-7152Y11584D2*
X48556D1*
X-6672Y11336D2*
X48075D1*
X-6191Y11087D2*
X47595D1*
X-5711Y10838D2*
X47114D1*
X-5230Y10590D2*
X46634D1*
X-4750Y10341D2*
X46150D1*
X-4269Y10092D2*
X45669D1*
X-3785Y9843D2*
X45189D1*
X-3304Y9595D2*
X44708D1*
X-2824Y9346D2*
X44228D1*
X-2343Y9097D2*
X43747D1*
X-1863Y8849D2*
X43267D1*
X-1054Y8600D2*
X42458D1*
X-211Y8351D2*
X41614D1*
X633Y8103D2*
X40771D1*
X1477Y7854D2*
X39923D1*
X2321Y7605D2*
X39079D1*
X3168Y7357D2*
X38235D1*
X4012Y7108D2*
X37392D1*
X4856Y6859D2*
X36544D1*
X5700Y6611D2*
X35700D1*
X6547Y6362D2*
X34857D1*
X7391Y6113D2*
X34013D1*
X8235Y5864D2*
X33169D1*
X9078Y5616D2*
X32321D1*
X11328Y5367D2*
X30075D1*
X13926Y5118D2*
X27478D1*
X16524Y4870D2*
X24880D1*
X19121Y4621D2*
X22282D1*
X23132Y123492D2*
Y121033D1*
X22628D1*
X22466Y120827D1*
X21403Y119762D1*
X21214Y119598D1*
X21003Y119465D1*
X20775Y119363D1*
X20534Y119297D1*
X20292Y119266D1*
X19908Y119264D1*
X19686Y119126D1*
X19459Y119021D1*
X19221Y118944D1*
X18976Y118897D1*
X18840Y118884D1*
X18836Y118214D1*
Y96139D1*
X22166Y96137D1*
X22540Y96110D1*
X22911Y96052D1*
X23275Y95962D1*
X23629Y95841D1*
X23973Y95690D1*
X24302Y95511D1*
X24615Y95304D1*
X24909Y95071D1*
X25181Y94814D1*
X25431Y94535D1*
X25554Y94378D1*
X25689Y94468D1*
X26017Y94649D1*
X26359Y94802D1*
X26713Y94924D1*
X27077Y95016D1*
X27447Y95077D1*
X27821Y95106D1*
X29721Y95109D1*
X55656Y95107D1*
X56030Y95080D1*
X56401Y95022D1*
X56765Y94932D1*
X57119Y94811D1*
X57463Y94660D1*
X57792Y94481D1*
X58105Y94274D1*
X58399Y94041D1*
X58632Y93824D1*
X66834Y85620D1*
X67080Y85336D1*
X67300Y85033D1*
X67494Y84712D1*
X67660Y84376D1*
X67796Y84027D1*
X67902Y83667D1*
X67977Y83300D1*
X68020Y82927D1*
X68031Y82553D1*
X68010Y82178D1*
X67958Y81807D1*
X67873Y81442D1*
X67758Y81085D1*
X67613Y80739D1*
X67439Y80407D1*
X67237Y80092D1*
X67009Y79794D1*
X66756Y79517D1*
X66481Y79263D1*
X66185Y79033D1*
X65870Y78829D1*
X65539Y78653D1*
X65194Y78506D1*
X64838Y78389D1*
X64473Y78302D1*
X64103Y78247D1*
X63728Y78224D1*
X63354Y78233D1*
X62981Y78274D1*
X62613Y78347D1*
X62253Y78451D1*
X61903Y78585D1*
X61566Y78749D1*
X61244Y78941D1*
X60939Y79159D1*
X60654Y79403D1*
X59308Y80745D1*
X53715Y86339D1*
X27846Y86340D1*
X27473Y86367D1*
X27102Y86426D1*
X26738Y86516D1*
X26383Y86636D1*
X26040Y86787D1*
X25711Y86966D1*
X25398Y87173D1*
X25104Y87406D1*
X24831Y87663D1*
X24581Y87942D1*
X24459Y88099D1*
X24324Y88010D1*
X23996Y87828D1*
X23654Y87676D1*
X23299Y87553D1*
X22936Y87461D1*
X22566Y87400D1*
X22192Y87371D1*
X20291Y87369D1*
X18834D1*
X18836Y83629D1*
Y72679D1*
X20189Y71324D1*
X23712Y67798D1*
X23957Y67513D1*
X24174Y67208D1*
X24363Y66884D1*
X24522Y66545D1*
X24650Y66192D1*
X24745Y65830D1*
X24807Y65460D1*
X24835Y65086D1*
X24829Y64711D1*
X24789Y64339D1*
X24716Y63971D1*
X24609Y63612D1*
X24471Y63263D1*
X24301Y62929D1*
X24102Y62611D1*
X23875Y62313D1*
X23622Y62036D1*
X23345Y61784D1*
X23046Y61558D1*
X22728Y61359D1*
X22393Y61191D1*
X22044Y61053D1*
X21685Y60947D1*
X21317Y60875D1*
X20944Y60836D1*
X20870Y60833D1*
X20818Y60730D1*
X20698Y60553D1*
X20505Y60332D1*
X20325Y60159D1*
X20105Y60006D1*
X19791Y59832D1*
X19559Y59743D1*
X19183Y59638D1*
X18994Y59610D1*
X18599Y59579D1*
X18305Y59597D1*
X18035Y59626D1*
X17849Y59668D1*
X17486Y59779D1*
X17369Y59829D1*
X14577Y59833D1*
X14329Y59866D1*
X14088Y59931D1*
X13858Y60028D1*
X13642Y60154D1*
X13445Y60308D1*
X12838Y60911D1*
X7783Y65972D1*
X7631Y66170D1*
X7507Y66387D1*
X7413Y66619D1*
X7350Y66860D1*
X7319Y67108D1*
X7316Y67964D1*
Y120210D1*
X7227Y120402D1*
X7145Y120639D1*
X7092Y120883D1*
X7068Y121131D1*
X7066Y122214D1*
X7081Y122463D1*
X7125Y122709D1*
X7197Y122948D1*
X7296Y123177D1*
X7422Y123393D1*
X7492Y123492D1*
X6647Y123494D1*
X6317Y123488D1*
X5998Y123471D1*
X5675Y123443D1*
X5354Y123404D1*
X5033Y123353D1*
X4715Y123292D1*
X4399Y123219D1*
X4103Y123140D1*
X-6651Y118923D1*
X-7871Y118151D1*
X-7663Y118040D1*
X-7456Y117899D1*
X-7266Y117737D1*
X-7096Y117554D1*
X-6946Y117354D1*
X-6819Y117139D1*
X-6717Y116910D1*
X-6641Y116672D1*
X-6592Y116428D1*
X-6570Y116179D1*
X-6572Y115979D1*
X-6600Y115730D1*
X-6654Y115487D1*
X-6736Y115250D1*
X-6843Y115025D1*
X-6974Y114812D1*
X-7128Y114615D1*
X-7303Y114436D1*
X-7496Y114278D1*
X-7706Y114142D1*
X-7929Y114030D1*
X-8164Y113944D1*
X-8406Y113883D1*
X-8654Y113850D1*
X-8904Y113845D1*
X-9152Y113867D1*
X-9397Y113916D1*
X-9635Y113993D1*
X-9864Y114095D1*
X-10079Y114221D1*
X-10279Y114371D1*
X-10462Y114541D1*
X-10624Y114731D1*
X-10765Y114938D1*
X-10882Y115159D1*
X-10973Y115391D1*
X-11039Y115632D1*
X-11077Y115879D1*
X-11088Y116109D1*
X-12026Y115519D1*
X-16391Y112754D1*
X-24785Y104848D1*
X-31526Y95494D1*
X-36370Y85030D1*
X-39140Y73837D1*
X-39499Y66917D1*
X-39235Y67047D1*
X-39000Y67131D1*
X-38756Y67188D1*
X-38508Y67219D1*
X-38259Y67221D1*
X-38010Y67197D1*
X-37766Y67144D1*
X-37528Y67066D1*
X-37302Y66961D1*
X-37087Y66832D1*
X-36889Y66681D1*
X-36708Y66508D1*
X-36548Y66316D1*
X-36410Y66108D1*
X-36295Y65886D1*
X-36206Y65652D1*
X-36143Y65411D1*
X-36107Y65163D1*
X-36099Y64964D1*
X-36112Y64714D1*
X-36154Y64468D1*
X-36222Y64227D1*
X-36316Y63996D1*
X-36436Y63776D1*
X-36578Y63571D1*
X-36743Y63383D1*
X-36927Y63215D1*
X-37129Y63067D1*
X-37346Y62943D1*
X-37575Y62844D1*
X-37814Y62770D1*
X-38059Y62724D1*
X-38309Y62704D1*
X-38558Y62712D1*
X-38806Y62748D1*
X-39047Y62811D1*
X-39281Y62900D1*
X-39503Y63015D1*
X-39695Y63142D1*
X-39737Y62322D1*
X-38138Y50903D1*
X-34402Y39994D1*
X-28663Y29993D1*
X-21131Y21262D1*
X-12080Y14119D1*
X-11206Y13667D1*
X-11214Y13831D1*
X-11200Y14080D1*
X-11160Y14327D1*
X-11094Y14568D1*
X-11004Y14801D1*
X-10890Y15023D1*
X-10753Y15233D1*
X-10595Y15426D1*
X-10418Y15602D1*
X-10223Y15759D1*
X-10013Y15894D1*
X-9790Y16006D1*
X-9556Y16095D1*
X-9314Y16159D1*
X-9067Y16197D1*
X-8818Y16209D1*
X-8568Y16194D1*
X-8322Y16154D1*
X-8080Y16088D1*
X-7848Y15998D1*
X-7626Y15883D1*
X-7417Y15746D1*
X-7223Y15588D1*
X-7048Y15410D1*
X-6891Y15215D1*
X-6756Y15005D1*
X-6644Y14781D1*
X-6556Y14547D1*
X-6493Y14306D1*
X-6455Y14059D1*
X-6444Y13824D1*
X-6457Y13574D1*
X-6496Y13327D1*
X-6561Y13086D1*
X-6650Y12853D1*
X-6764Y12630D1*
X-6900Y12421D1*
X-7057Y12226D1*
X-7234Y12050D1*
X-7428Y11893D1*
X-7582Y11792D1*
X-1838Y8823D1*
X9223Y5566D1*
X20701Y4467D1*
X32180Y5566D1*
X43241Y8823D1*
X48979Y11790D1*
X48726Y11973D1*
X48541Y12141D1*
X48374Y12327D1*
X48228Y12530D1*
X48104Y12746D1*
X48003Y12975D1*
X47926Y13213D1*
X47875Y13457D1*
X47849Y13706D1*
X47850Y13956D1*
X47877Y14204D1*
X47930Y14449D1*
X48008Y14686D1*
X48110Y14914D1*
X48236Y15130D1*
X48384Y15331D1*
X48551Y15517D1*
X48738Y15683D1*
X48941Y15829D1*
X49157Y15953D1*
X49386Y16054D1*
X49624Y16130D1*
X49869Y16181D1*
X50117Y16206D1*
X50367Y16205D1*
X50616Y16177D1*
X50860Y16124D1*
X51097Y16046D1*
X51325Y15943D1*
X51541Y15817D1*
X51742Y15669D1*
X51927Y15501D1*
X52093Y15314D1*
X52239Y15111D1*
X52363Y14894D1*
X52463Y14665D1*
X52539Y14427D1*
X52589Y14183D1*
X52614Y13934D1*
X52611Y13671D1*
X53483Y14119D1*
X62534Y21262D1*
X70066Y29993D1*
X75804Y39995D1*
X79541Y50903D1*
X81140Y62322D1*
X81105Y62993D1*
X80842Y62837D1*
X80614Y62736D1*
X80376Y62659D1*
X80131Y62607D1*
X79883Y62582D1*
X79633D1*
X79384Y62609D1*
X79140Y62661D1*
X78903Y62739D1*
X78674Y62841D1*
X78458Y62966D1*
X78256Y63113D1*
X78071Y63281D1*
X77904Y63467D1*
X77758Y63670D1*
X77634Y63886D1*
X77533Y64115D1*
X77456Y64353D1*
X77405Y64597D1*
X77379Y64846D1*
X77380Y65096D1*
X77407Y65344D1*
X77460Y65589D1*
X77538Y65826D1*
X77640Y66054D1*
X77766Y66270D1*
X77914Y66471D1*
X78081Y66657D1*
X78268Y66823D1*
X78471Y66969D1*
X78687Y67093D1*
X78916Y67194D1*
X79154Y67270D1*
X79399Y67321D1*
X79647Y67346D1*
X79897Y67345D1*
X80146Y67317D1*
X80390Y67264D1*
X80627Y67186D1*
X80893Y67062D1*
X80552Y73670D1*
X80543Y73837D1*
X77773Y85030D1*
X72929Y95494D1*
X66188Y104848D1*
X57794Y112754D1*
X52494Y116111D1*
X52478Y115854D1*
X52436Y115608D1*
X52368Y115367D1*
X52274Y115136D1*
X52154Y114916D1*
X52012Y114711D1*
X51847Y114523D1*
X51663Y114355D1*
X51461Y114207D1*
X51244Y114083D1*
X51015Y113984D1*
X50776Y113910D1*
X50531Y113864D1*
X50281Y113844D1*
X50032Y113852D1*
X49784Y113888D1*
X49543Y113951D1*
X49309Y114040D1*
X49087Y114155D1*
X48879Y114293D1*
X48687Y114453D1*
X48515Y114634D1*
X48363Y114832D1*
X48234Y115047D1*
X48129Y115274D1*
X48051Y115511D1*
X47998Y115755D1*
X47974Y116004D1*
X47976Y116254D1*
X48007Y116502D1*
X48064Y116745D1*
X48148Y116980D1*
X48258Y117205D1*
X48391Y117416D1*
X48547Y117611D1*
X48724Y117788D1*
X48919Y117944D1*
X49130Y118077D1*
X49273Y118150D1*
X48053Y118924D1*
X37298Y123141D1*
X37008Y123218D1*
X36692Y123291D1*
X36374Y123353D1*
X36054Y123403D1*
X35732Y123443D1*
X35409Y123471D1*
X35085Y123488D1*
X34631Y123494D1*
X23135D1*
D27*
X21201Y122964D3*
D28*
X20201D3*
D29*
X14701Y119964D3*
X13701Y122964D3*
X14701D3*
X15701D3*
Y121964D3*
X14701D3*
X13701D3*
Y120964D3*
X14701D3*
X15701D3*
Y119964D3*
X9201Y121214D3*
X13701Y119964D3*
X10701Y121214D3*
D31*
X18701Y120964D3*
D28*
X22701D3*
G36*
X12701Y123714D2*
X16701D1*
Y119714D1*
X12701D1*
Y123714D1*
G37*
G36*
X24201D2*
X28201D1*
Y119714D1*
X24201D1*
Y123714D1*
G37*
D22*
X17076Y62964D3*
X18576Y61714D3*
D26*
X65066Y78684D3*
G36*
X20831Y123354D2*
X21601D1*
Y122594D1*
X20831D1*
Y123354D1*
G37*
M02*
