G04 DipTrace 2.3.1.0*
%INTop_58742 rev 7 ONYX HB.gbr*%
%MOIN*%
%ADD15C,0.2*%
%ADD16C,0.025*%
%ADD17C,0.1535*%
%ADD30C,0.0*%
%ADD32C,0.189*%
%ADD33C,0.06*%
%FSLAX44Y44*%
G04*
G70*
G90*
G75*
G01*
%LNTop*%
%LPD*%
X64714Y120589D2*
D15*
X64895Y120669D1*
X65329Y120830D1*
G02X72496Y120186I2231J-15370D01*
G01*
D33*
X65589Y120651D3*
X69964Y120339D3*
X68214Y120464D3*
X69089D3*
X66464Y120589D3*
X67276D3*
X64714D3*
X66072Y68279D3*
X60744Y66295D3*
X61244Y67236D3*
X62067Y68023D3*
X63074Y68574D3*
X64229Y68861D3*
X65220Y68699D3*
X60248Y125339D2*
D16*
X63097D1*
X66830D2*
X69686D1*
X57623Y125090D2*
X62944D1*
X66982D2*
X72315D1*
X56053Y124841D2*
X62827D1*
X67100D2*
X73886D1*
X54482Y124593D2*
X62749D1*
X67178D2*
X75456D1*
X52912Y124344D2*
X62698D1*
X67229D2*
X77026D1*
X51779Y124095D2*
X62675D1*
X67252D2*
X78155D1*
X50854Y123846D2*
X62679D1*
X67248D2*
X79085D1*
X49924Y123598D2*
X62714D1*
X68592D2*
X80015D1*
X48998Y123349D2*
X62776D1*
X70740D2*
X80940D1*
X48068Y123100D2*
X62870D1*
X71920D2*
X81870D1*
X47143Y122852D2*
X62999D1*
X72830D2*
X82796D1*
X46240Y122603D2*
X62991D1*
X73568D2*
X83698D1*
X45592Y122354D2*
X62733D1*
X74018D2*
X84347D1*
X44943Y122106D2*
X62534D1*
X74357D2*
X84995D1*
X44295Y121857D2*
X62378D1*
X75693D2*
X85643D1*
X43647Y121608D2*
X62261D1*
X76881D2*
X86292D1*
X42998Y121360D2*
X62171D1*
X77963D2*
X86940D1*
X42354Y121111D2*
X62104D1*
X78959D2*
X87585D1*
X41705Y120862D2*
X62069D1*
X79881D2*
X88233D1*
X41057Y120614D2*
X62054D1*
X80748D2*
X88882D1*
X40408Y120365D2*
X59475D1*
X81572D2*
X89530D1*
X39916Y120116D2*
X57194D1*
X82354D2*
X90022D1*
X39428Y119867D2*
X55487D1*
X83100D2*
X90511D1*
X38940Y119619D2*
X54073D1*
X83815D2*
X90999D1*
X38451Y119370D2*
X52831D1*
X84498D2*
X91487D1*
X37963Y119121D2*
X51710D1*
X85158D2*
X91975D1*
X37475Y118873D2*
X50694D1*
X85791D2*
X92464D1*
X36986Y118624D2*
X49749D1*
X86408D2*
X92952D1*
X36498Y118375D2*
X48866D1*
X87002D2*
X93440D1*
X36486Y118127D2*
X48034D1*
X87584D2*
X93440D1*
X36873Y117878D2*
X47249D1*
X88139D2*
X93054D1*
X37139Y117629D2*
X46499D1*
X88686D2*
X92788D1*
X37334Y117381D2*
X45780D1*
X89221D2*
X92593D1*
X37482Y117132D2*
X45093D1*
X89736D2*
X92448D1*
X37588Y116883D2*
X44436D1*
X90236D2*
X92339D1*
X37662Y116635D2*
X43800D1*
X90732D2*
X92265D1*
X33057Y116386D2*
X33164D1*
X37709D2*
X43186D1*
X91213D2*
X92218D1*
X96764D2*
X96884D1*
X32674Y116137D2*
X33147D1*
X37725D2*
X42589D1*
X91682D2*
X92202D1*
X96779D2*
X97265D1*
X32291Y115888D2*
X33155D1*
X37717D2*
X42018D1*
X96772D2*
X97647D1*
X31908Y115640D2*
X33194D1*
X37678D2*
X41456D1*
X96732D2*
X98030D1*
X31525Y115391D2*
X33261D1*
X37611D2*
X40917D1*
X96666D2*
X98413D1*
X31143Y115142D2*
X33362D1*
X37510D2*
X40386D1*
X96565D2*
X98796D1*
X30760Y114894D2*
X33499D1*
X37373D2*
X39874D1*
X96428D2*
X99179D1*
X30377Y114645D2*
X33682D1*
X37190D2*
X39378D1*
X96244D2*
X99561D1*
X29994Y114396D2*
X33925D1*
X36947D2*
X38886D1*
X96002D2*
X99944D1*
X29611Y114148D2*
X34276D1*
X36596D2*
X38409D1*
X95654D2*
X100327D1*
X29268Y113899D2*
X34905D1*
X35967D2*
X37944D1*
X95506D2*
X100671D1*
X28963Y113650D2*
X37487D1*
X95893D2*
X100975D1*
X28654Y113402D2*
X37042D1*
X96272D2*
X101284D1*
X28346Y113153D2*
X36608D1*
X96647D2*
X101593D1*
X28041Y112904D2*
X36179D1*
X97014D2*
X101897D1*
X27732Y112656D2*
X35761D1*
X97373D2*
X102206D1*
X27428Y112407D2*
X35350D1*
X97729D2*
X102511D1*
X27119Y112158D2*
X34948D1*
X98080D2*
X102819D1*
X26811Y111909D2*
X34554D1*
X98424D2*
X103128D1*
X26506Y111661D2*
X34163D1*
X98760D2*
X103432D1*
X26197Y111412D2*
X33784D1*
X99096D2*
X103741D1*
X25889Y111163D2*
X33409D1*
X99424D2*
X104046D1*
X25584Y110915D2*
X33038D1*
X99748D2*
X104354D1*
X25275Y110666D2*
X32679D1*
X100068D2*
X104663D1*
X24971Y110417D2*
X32323D1*
X100385D2*
X104968D1*
X24662Y110169D2*
X31972D1*
X100693D2*
X105276D1*
X24385Y109920D2*
X31628D1*
X100998D2*
X105554D1*
X24135Y109671D2*
X31288D1*
X101303D2*
X105804D1*
X23889Y109423D2*
X30956D1*
X101600D2*
X106050D1*
X23639Y109174D2*
X30628D1*
X101897D2*
X106300D1*
X23389Y108925D2*
X30304D1*
X102186D2*
X106550D1*
X23143Y108677D2*
X29983D1*
X102471D2*
X106796D1*
X22893Y108428D2*
X29671D1*
X102752D2*
X107046D1*
X22643Y108179D2*
X29358D1*
X103033D2*
X107296D1*
X22397Y107930D2*
X29057D1*
X103303D2*
X107542D1*
X22147Y107682D2*
X28757D1*
X103576D2*
X107792D1*
X21897Y107433D2*
X28460D1*
X103846D2*
X108042D1*
X21650Y107184D2*
X28167D1*
X104107D2*
X108288D1*
X21400Y106936D2*
X27878D1*
X104369D2*
X108538D1*
X21150Y106687D2*
X27593D1*
X104627D2*
X108788D1*
X20904Y106438D2*
X27315D1*
X104885D2*
X109034D1*
X20654Y106190D2*
X27038D1*
X105135D2*
X109284D1*
X20404Y105941D2*
X26765D1*
X105385D2*
X109534D1*
X20158Y105692D2*
X26495D1*
X105631D2*
X109780D1*
X19932Y105444D2*
X26229D1*
X105873D2*
X110007D1*
X19732Y105195D2*
X25968D1*
X106111D2*
X110206D1*
X19529Y104946D2*
X25706D1*
X106350D2*
X110409D1*
X19330Y104698D2*
X25452D1*
X106584D2*
X110608D1*
X19127Y104449D2*
X25198D1*
X106815D2*
X110811D1*
X18928Y104200D2*
X24948D1*
X107041D2*
X111011D1*
X18725Y103951D2*
X24702D1*
X107272D2*
X111214D1*
X18522Y103703D2*
X24460D1*
X107490D2*
X111417D1*
X18322Y103454D2*
X24218D1*
X107713D2*
X111616D1*
X18119Y103205D2*
X23983D1*
X107932D2*
X111819D1*
X17920Y102957D2*
X23749D1*
X108147D2*
X112018D1*
X17717Y102708D2*
X23515D1*
X108361D2*
X112222D1*
X17518Y102459D2*
X23288D1*
X108572D2*
X112421D1*
X17315Y102211D2*
X23061D1*
X108779D2*
X112624D1*
X17115Y101962D2*
X22839D1*
X108986D2*
X112823D1*
X16912Y101713D2*
X22616D1*
X109190D2*
X113026D1*
X16709Y101465D2*
X22397D1*
X109393D2*
X113229D1*
X16510Y101216D2*
X22182D1*
X109588D2*
X113429D1*
X16307Y100967D2*
X21968D1*
X109787D2*
X113632D1*
X16107Y100719D2*
X21761D1*
X109982D2*
X113831D1*
X15936Y100470D2*
X21554D1*
X110174D2*
X114003D1*
X15772Y100221D2*
X21347D1*
X110365D2*
X114167D1*
X15611Y99972D2*
X21143D1*
X110553D2*
X114327D1*
X15451Y99724D2*
X20944D1*
X110736D2*
X114487D1*
X15287Y99475D2*
X20745D1*
X110924D2*
X114651D1*
X15127Y99226D2*
X20550D1*
X111104D2*
X114811D1*
X14963Y98978D2*
X20354D1*
X111283D2*
X114972D1*
X14803Y98729D2*
X20163D1*
X111463D2*
X115136D1*
X14643Y98480D2*
X19975D1*
X111639D2*
X115296D1*
X14479Y98232D2*
X19788D1*
X111811D2*
X115460D1*
X14318Y97983D2*
X19604D1*
X111986D2*
X115620D1*
X14158Y97734D2*
X19421D1*
X112154D2*
X115780D1*
X13994Y97486D2*
X19237D1*
X112322D2*
X115944D1*
X13834Y97237D2*
X19057D1*
X112486D2*
X116104D1*
X13674Y96988D2*
X18882D1*
X112654D2*
X116265D1*
X14119Y96740D2*
X18710D1*
X112818D2*
X115807D1*
X14908Y96491D2*
X18534D1*
X112975D2*
X115018D1*
X15283Y96242D2*
X18366D1*
X113135D2*
X114643D1*
X15541Y95993D2*
X18198D1*
X113295D2*
X114386D1*
X15732Y95745D2*
X18030D1*
X113447D2*
X114194D1*
X15877Y95496D2*
X17866D1*
X113604D2*
X114054D1*
X15979Y95247D2*
X17702D1*
X113756D2*
X113948D1*
X16053Y94999D2*
X17542D1*
X16096Y94750D2*
X17382D1*
X16111Y94501D2*
X17225D1*
X16096Y94253D2*
X17069D1*
X16057Y94004D2*
X16917D1*
X15986Y93755D2*
X16765D1*
X11670Y93507D2*
X11755D1*
X15885D2*
X16612D1*
X118170D2*
X118268D1*
X11541Y93258D2*
X11897D1*
X15744D2*
X16464D1*
X118033D2*
X118397D1*
X11416Y93009D2*
X12081D1*
X15557D2*
X16319D1*
X117846D2*
X118522D1*
X11287Y92761D2*
X12335D1*
X15307D2*
X16175D1*
X117592D2*
X118651D1*
X11162Y92512D2*
X12694D1*
X14947D2*
X16030D1*
X117232D2*
X118776D1*
X11033Y92263D2*
X13390D1*
X14252D2*
X15890D1*
X115447D2*
X115675D1*
X116537D2*
X118905D1*
X10908Y92014D2*
X15749D1*
X115576D2*
X119030D1*
X10779Y91766D2*
X15612D1*
X115705D2*
X119159D1*
X10654Y91517D2*
X15475D1*
X115834D2*
X119284D1*
X10529Y91268D2*
X15343D1*
X115959D2*
X119409D1*
X10400Y91020D2*
X15206D1*
X116084D2*
X119538D1*
X10275Y90771D2*
X15073D1*
X116209D2*
X119663D1*
X10147Y90522D2*
X14944D1*
X116330D2*
X119792D1*
X10022Y90274D2*
X14819D1*
X116451D2*
X119917D1*
X9893Y90025D2*
X14690D1*
X116568D2*
X120046D1*
X9768Y89776D2*
X14565D1*
X116686D2*
X120171D1*
X9662Y89528D2*
X14440D1*
X116799D2*
X120276D1*
X9565Y89279D2*
X14319D1*
X116916D2*
X120370D1*
X9471Y89030D2*
X14198D1*
X117029D2*
X120468D1*
X9377Y88782D2*
X14077D1*
X117139D2*
X120561D1*
X9279Y88533D2*
X13960D1*
X117248D2*
X120659D1*
X9186Y88284D2*
X13847D1*
X117357D2*
X120753D1*
X9088Y88035D2*
X13729D1*
X117467D2*
X120850D1*
X8994Y87787D2*
X13616D1*
X117572D2*
X120944D1*
X8897Y87538D2*
X13507D1*
X117674D2*
X121042D1*
X8803Y87289D2*
X13393D1*
X117779D2*
X121136D1*
X8709Y87041D2*
X13284D1*
X117881D2*
X121229D1*
X8611Y86792D2*
X13179D1*
X117979D2*
X121327D1*
X8518Y86543D2*
X13073D1*
X118080D2*
X121421D1*
X8420Y86295D2*
X12968D1*
X118178D2*
X121518D1*
X8326Y86046D2*
X12866D1*
X118272D2*
X121612D1*
X8229Y85797D2*
X12765D1*
X118369D2*
X121710D1*
X8135Y85549D2*
X12663D1*
X118463D2*
X121804D1*
X8037Y85300D2*
X12565D1*
X118553D2*
X121901D1*
X7943Y85051D2*
X12468D1*
X118647D2*
X121995D1*
X7850Y84803D2*
X12370D1*
X118736D2*
X122089D1*
X7752Y84554D2*
X12272D1*
X118822D2*
X122186D1*
X7658Y84305D2*
X12179D1*
X118912D2*
X122280D1*
X7561Y84056D2*
X12089D1*
X118998D2*
X122378D1*
X7467Y83808D2*
X11999D1*
X119080D2*
X122472D1*
X7397Y83559D2*
X11909D1*
X119166D2*
X122542D1*
X7330Y83310D2*
X11819D1*
X119248D2*
X122608D1*
X7264Y83062D2*
X11733D1*
X119326D2*
X122675D1*
X7197Y82813D2*
X11647D1*
X119408D2*
X122741D1*
X7131Y82564D2*
X11561D1*
X119486D2*
X122807D1*
X7065Y82316D2*
X11479D1*
X119565D2*
X122874D1*
X6998Y82067D2*
X11397D1*
X119639D2*
X122940D1*
X6932Y81818D2*
X11315D1*
X119713D2*
X123007D1*
X6865Y81570D2*
X11237D1*
X119787D2*
X123073D1*
X6799Y81321D2*
X11163D1*
X119857D2*
X123140D1*
X6729Y81072D2*
X11085D1*
X119932D2*
X123206D1*
X6662Y80824D2*
X11007D1*
X120002D2*
X123276D1*
X6596Y80575D2*
X10936D1*
X120068D2*
X123343D1*
X6529Y80326D2*
X10862D1*
X120135D2*
X123409D1*
X6463Y80077D2*
X10788D1*
X120201D2*
X123475D1*
X6397Y79829D2*
X10718D1*
X120268D2*
X123542D1*
X6330Y79580D2*
X10651D1*
X120330D2*
X123608D1*
X6264Y79331D2*
X10581D1*
X120393D2*
X123675D1*
X6197Y79083D2*
X10515D1*
X120455D2*
X123741D1*
X6131Y78834D2*
X10448D1*
X120514D2*
X123807D1*
X6065Y78585D2*
X10386D1*
X120576D2*
X123874D1*
X5998Y78337D2*
X10323D1*
X120631D2*
X123940D1*
X5932Y78088D2*
X10261D1*
X120690D2*
X124007D1*
X5865Y77839D2*
X10202D1*
X120744D2*
X124073D1*
X5807Y77591D2*
X10143D1*
X120799D2*
X124132D1*
X5768Y77342D2*
X10085D1*
X120850D2*
X124171D1*
X5729Y77093D2*
X10026D1*
X120904D2*
X124210D1*
X5690Y76845D2*
X9972D1*
X120955D2*
X124249D1*
X5647Y76596D2*
X9917D1*
X121006D2*
X124288D1*
X5607Y76347D2*
X9862D1*
X121053D2*
X124331D1*
X5568Y76098D2*
X9811D1*
X121100D2*
X124370D1*
X5529Y75850D2*
X9761D1*
X121147D2*
X124409D1*
X5490Y75601D2*
X9710D1*
X121193D2*
X124448D1*
X5451Y75352D2*
X9659D1*
X121236D2*
X124487D1*
X5412Y75104D2*
X9612D1*
X121283D2*
X124526D1*
X5373Y74855D2*
X9565D1*
X121322D2*
X124565D1*
X5334Y74606D2*
X9522D1*
X121365D2*
X124604D1*
X5295Y74358D2*
X9475D1*
X121404D2*
X124643D1*
X5256Y74109D2*
X9432D1*
X121443D2*
X124682D1*
X5217Y73860D2*
X9393D1*
X121482D2*
X124722D1*
X5174Y73612D2*
X9350D1*
X121518D2*
X124761D1*
X5135Y73363D2*
X9311D1*
X121557D2*
X124804D1*
X5096Y73114D2*
X9272D1*
X121588D2*
X124843D1*
X5057Y72866D2*
X9237D1*
X121623D2*
X124882D1*
X5018Y72617D2*
X9202D1*
X121654D2*
X124921D1*
X4979Y72368D2*
X9163D1*
X121686D2*
X124960D1*
X4940Y72119D2*
X9132D1*
X121717D2*
X124999D1*
X4900Y71871D2*
X9100D1*
X121744D2*
X125038D1*
X4861Y71622D2*
X9069D1*
X121772D2*
X125077D1*
X4826Y71373D2*
X9038D1*
X121799D2*
X125112D1*
X4811Y71125D2*
X9007D1*
X121822D2*
X125124D1*
X4799Y70876D2*
X8979D1*
X121846D2*
X125140D1*
X4787Y70627D2*
X8952D1*
X121869D2*
X125151D1*
X4772Y70379D2*
X8925D1*
X121889D2*
X125167D1*
X4760Y70130D2*
X8901D1*
X121908D2*
X125179D1*
X4748Y69881D2*
X8878D1*
X121928D2*
X125190D1*
X4732Y69633D2*
X8854D1*
X121943D2*
X125206D1*
X4721Y69384D2*
X8835D1*
X121959D2*
X125218D1*
X4709Y69135D2*
X8811D1*
X121975D2*
X125229D1*
X4693Y68887D2*
X8796D1*
X121986D2*
X125245D1*
X4682Y68638D2*
X8776D1*
X122002D2*
X125257D1*
X4670Y68389D2*
X8761D1*
X122010D2*
X125268D1*
X4654Y68140D2*
X8745D1*
X122022D2*
X125284D1*
X4643Y67892D2*
X8729D1*
X122029D2*
X125296D1*
X4631Y67643D2*
X8714D1*
X122041D2*
X125307D1*
X4615Y67394D2*
X8702D1*
X122049D2*
X125323D1*
X4604Y67146D2*
X5276D1*
X6541D2*
X8690D1*
X122053D2*
X123386D1*
X124650D2*
X125335D1*
X4592Y66897D2*
X4702D1*
X7111D2*
X8682D1*
X122061D2*
X122815D1*
X125225D2*
X125347D1*
X7447Y66648D2*
X8671D1*
X122068D2*
X122479D1*
X7686Y66400D2*
X8663D1*
X122072D2*
X122241D1*
X7861Y66151D2*
X8655D1*
X7994Y65902D2*
X8651D1*
X8092Y65654D2*
X8643D1*
X8154Y65405D2*
X8643D1*
X8190Y65156D2*
X8640D1*
X8197Y64908D2*
X8640D1*
X8178Y64659D2*
X8640D1*
X8131Y64410D2*
X8640D1*
X8053Y64161D2*
X8640D1*
X7940Y63913D2*
X8643D1*
X7787Y63664D2*
X8647D1*
X122053D2*
X122139D1*
X7588Y63415D2*
X8651D1*
X122045D2*
X122343D1*
X7311Y63167D2*
X8659D1*
X122033D2*
X122616D1*
X4611Y62918D2*
X4913D1*
X6904D2*
X8667D1*
X122025D2*
X123022D1*
X125018D2*
X125327D1*
X4623Y62669D2*
X8675D1*
X122014D2*
X125315D1*
X4635Y62421D2*
X8682D1*
X122002D2*
X125304D1*
X4650Y62172D2*
X8694D1*
X121990D2*
X125288D1*
X4662Y61923D2*
X8706D1*
X121975D2*
X125276D1*
X4674Y61675D2*
X8718D1*
X121963D2*
X125265D1*
X4690Y61426D2*
X8733D1*
X121947D2*
X125249D1*
X4701Y61177D2*
X8749D1*
X121932D2*
X125237D1*
X4713Y60929D2*
X8765D1*
X121916D2*
X125225D1*
X4729Y60680D2*
X8780D1*
X121897D2*
X125210D1*
X4740Y60431D2*
X8800D1*
X121877D2*
X125198D1*
X4752Y60182D2*
X8819D1*
X121857D2*
X125186D1*
X4768Y59934D2*
X8839D1*
X121834D2*
X125171D1*
X4779Y59685D2*
X8862D1*
X121811D2*
X125159D1*
X4791Y59436D2*
X8882D1*
X121787D2*
X125147D1*
X4807Y59188D2*
X8909D1*
X121760D2*
X125132D1*
X4818Y58939D2*
X8932D1*
X121732D2*
X125120D1*
X4838Y58690D2*
X8960D1*
X121705D2*
X125100D1*
X4877Y58442D2*
X8987D1*
X121678D2*
X125057D1*
X4920Y58193D2*
X9015D1*
X121643D2*
X125018D1*
X4959Y57944D2*
X9046D1*
X121611D2*
X124979D1*
X4998Y57696D2*
X9073D1*
X121580D2*
X124940D1*
X5037Y57447D2*
X9108D1*
X121545D2*
X124901D1*
X5076Y57198D2*
X9140D1*
X121506D2*
X124862D1*
X5115Y56950D2*
X9175D1*
X121471D2*
X124823D1*
X5154Y56701D2*
X9210D1*
X121432D2*
X124784D1*
X5193Y56452D2*
X9245D1*
X121393D2*
X124745D1*
X5232Y56203D2*
X9284D1*
X121350D2*
X124706D1*
X5272Y55955D2*
X9319D1*
X121311D2*
X124667D1*
X5311Y55706D2*
X9362D1*
X121268D2*
X124628D1*
X5350Y55457D2*
X9401D1*
X121221D2*
X124585D1*
X5393Y55209D2*
X9444D1*
X121178D2*
X124546D1*
X5432Y54960D2*
X9487D1*
X121131D2*
X124507D1*
X5471Y54711D2*
X9530D1*
X121084D2*
X124468D1*
X5510Y54463D2*
X9577D1*
X121037D2*
X124429D1*
X5549Y54214D2*
X9624D1*
X120986D2*
X124390D1*
X5588Y53965D2*
X9671D1*
X120936D2*
X124350D1*
X5627Y53717D2*
X9722D1*
X120885D2*
X124311D1*
X5666Y53468D2*
X9772D1*
X120830D2*
X124272D1*
X5705Y53219D2*
X9823D1*
X120775D2*
X124233D1*
X5744Y52970D2*
X9874D1*
X120721D2*
X124194D1*
X5783Y52722D2*
X9929D1*
X120666D2*
X124155D1*
X5830Y52473D2*
X9983D1*
X120607D2*
X124108D1*
X5897Y52224D2*
X10038D1*
X120549D2*
X124042D1*
X5963Y51976D2*
X10097D1*
X120490D2*
X123975D1*
X6029Y51727D2*
X10155D1*
X120432D2*
X123909D1*
X6096Y51478D2*
X10214D1*
X120369D2*
X123843D1*
X6162Y51230D2*
X10276D1*
X120307D2*
X123776D1*
X6229Y50981D2*
X10335D1*
X120240D2*
X123710D1*
X6295Y50732D2*
X10401D1*
X120174D2*
X123643D1*
X6361Y50484D2*
X10464D1*
X120107D2*
X123577D1*
X6428Y50235D2*
X10530D1*
X120041D2*
X123511D1*
X6494Y49986D2*
X10597D1*
X119975D2*
X123444D1*
X6561Y49738D2*
X10663D1*
X119904D2*
X123378D1*
X6627Y49489D2*
X10733D1*
X119830D2*
X123311D1*
X6693Y49240D2*
X10807D1*
X119756D2*
X123245D1*
X6760Y48991D2*
X10878D1*
X119686D2*
X123179D1*
X6826Y48743D2*
X10948D1*
X119611D2*
X123112D1*
X6893Y48494D2*
X11026D1*
X119533D2*
X123042D1*
X6963Y48245D2*
X11100D1*
X119455D2*
X122975D1*
X7029Y47997D2*
X11175D1*
X119377D2*
X122909D1*
X7096Y47748D2*
X11257D1*
X119295D2*
X122843D1*
X7162Y47499D2*
X11335D1*
X119213D2*
X122776D1*
X7229Y47251D2*
X11413D1*
X119131D2*
X122710D1*
X7295Y47002D2*
X11495D1*
X119049D2*
X122643D1*
X7361Y46753D2*
X11581D1*
X118959D2*
X122577D1*
X7428Y46505D2*
X11663D1*
X118873D2*
X122511D1*
X7510Y46256D2*
X11749D1*
X118787D2*
X122429D1*
X7607Y46007D2*
X11835D1*
X118697D2*
X122331D1*
X7701Y45759D2*
X11925D1*
X118607D2*
X122237D1*
X7795Y45510D2*
X12015D1*
X118518D2*
X122143D1*
X7893Y45261D2*
X12104D1*
X118424D2*
X122046D1*
X7986Y45012D2*
X12198D1*
X118330D2*
X121952D1*
X8084Y44764D2*
X12292D1*
X118232D2*
X121854D1*
X8178Y44515D2*
X12386D1*
X118135D2*
X121761D1*
X8275Y44266D2*
X12483D1*
X118037D2*
X121663D1*
X8369Y44018D2*
X12581D1*
X117936D2*
X121569D1*
X8467Y43769D2*
X12679D1*
X117834D2*
X121472D1*
X8561Y43520D2*
X12780D1*
X117732D2*
X121378D1*
X8654Y43272D2*
X12882D1*
X117631D2*
X121284D1*
X8752Y43023D2*
X12987D1*
X117525D2*
X121186D1*
X8846Y42774D2*
X13089D1*
X117416D2*
X121093D1*
X8943Y42526D2*
X13194D1*
X117311D2*
X120995D1*
X9037Y42277D2*
X13304D1*
X117201D2*
X120901D1*
X9135Y42028D2*
X13413D1*
X117088D2*
X120804D1*
X9229Y41780D2*
X13522D1*
X116979D2*
X120710D1*
X9322Y41531D2*
X13636D1*
X116861D2*
X120616D1*
X9420Y41282D2*
X13745D1*
X116748D2*
X120518D1*
X9514Y41033D2*
X13862D1*
X116631D2*
X120425D1*
X9611Y40785D2*
X13979D1*
X116514D2*
X120327D1*
X9705Y40536D2*
X14097D1*
X116393D2*
X120233D1*
X9826Y40287D2*
X14218D1*
X116275D2*
X120112D1*
X9951Y40039D2*
X14335D1*
X116150D2*
X119987D1*
X10080Y39790D2*
X14456D1*
X116025D2*
X119858D1*
X10205Y39541D2*
X14581D1*
X115900D2*
X119733D1*
X10334Y39293D2*
X14706D1*
X115772D2*
X119604D1*
X10459Y39044D2*
X14835D1*
X115647D2*
X119479D1*
X10588Y38795D2*
X14964D1*
X115518D2*
X119350D1*
X10713Y38547D2*
X15093D1*
X115381D2*
X119225D1*
X10838Y38298D2*
X15222D1*
X115248D2*
X119100D1*
X10967Y38049D2*
X15358D1*
X115115D2*
X118972D1*
X11092Y37801D2*
X15491D1*
X114979D2*
X118847D1*
X11221Y37552D2*
X12987D1*
X14654D2*
X15628D1*
X114838D2*
X115272D1*
X116940D2*
X118718D1*
X11346Y37303D2*
X12515D1*
X15127D2*
X15765D1*
X114701D2*
X114797D1*
X117412D2*
X118593D1*
X11475Y37054D2*
X12210D1*
X15432D2*
X15905D1*
X117717D2*
X118464D1*
X11600Y36806D2*
X11991D1*
X15650D2*
X16046D1*
X117936D2*
X118339D1*
X11725Y36557D2*
X11827D1*
X15815D2*
X16190D1*
X118100D2*
X118210D1*
X15936Y36308D2*
X16335D1*
X16022Y36060D2*
X16479D1*
X16080Y35811D2*
X16628D1*
X16107Y35562D2*
X16780D1*
X113674D2*
X113818D1*
X16107Y35314D2*
X16929D1*
X113522D2*
X113819D1*
X16080Y35065D2*
X17085D1*
X113369D2*
X113847D1*
X16025Y34816D2*
X17237D1*
X113209D2*
X113905D1*
X15936Y34568D2*
X17397D1*
X113053D2*
X113991D1*
X15815Y34319D2*
X17554D1*
X112893D2*
X114112D1*
X15650Y34070D2*
X17714D1*
X112729D2*
X114276D1*
X15436Y33822D2*
X17878D1*
X112565D2*
X114495D1*
X15135Y33573D2*
X18042D1*
X112400D2*
X114796D1*
X14662Y33324D2*
X18206D1*
X112232D2*
X115265D1*
X13748Y33075D2*
X18374D1*
X112061D2*
X116190D1*
X13908Y32827D2*
X18546D1*
X111889D2*
X116030D1*
X14072Y32578D2*
X18718D1*
X111717D2*
X115866D1*
X14232Y32329D2*
X18893D1*
X111541D2*
X115706D1*
X14393Y32081D2*
X19065D1*
X111361D2*
X115546D1*
X14557Y31832D2*
X19245D1*
X111186D2*
X115382D1*
X14717Y31583D2*
X19429D1*
X111002D2*
X115222D1*
X14877Y31335D2*
X19608D1*
X110818D2*
X115061D1*
X15041Y31086D2*
X19792D1*
X110631D2*
X114897D1*
X15201Y30837D2*
X19979D1*
X110443D2*
X114737D1*
X15361Y30589D2*
X20167D1*
X110252D2*
X114577D1*
X15525Y30340D2*
X20358D1*
X110061D2*
X114413D1*
X15686Y30091D2*
X20550D1*
X109865D2*
X114253D1*
X15846Y29843D2*
X20749D1*
X109670D2*
X114093D1*
X16010Y29594D2*
X20944D1*
X109471D2*
X113929D1*
X16201Y29345D2*
X21143D1*
X109268D2*
X113737D1*
X16400Y29096D2*
X21347D1*
X109065D2*
X113538D1*
X16604Y28848D2*
X21550D1*
X108857D2*
X113335D1*
X16803Y28599D2*
X21757D1*
X108650D2*
X113136D1*
X17006Y28350D2*
X21968D1*
X108440D2*
X112932D1*
X17205Y28102D2*
X22179D1*
X108229D2*
X112733D1*
X17408Y27853D2*
X22393D1*
X108010D2*
X112530D1*
X17607Y27604D2*
X22608D1*
X107791D2*
X112331D1*
X17811Y27356D2*
X22831D1*
X107572D2*
X112128D1*
X18014Y27107D2*
X23054D1*
X107350D2*
X111925D1*
X18213Y26858D2*
X23276D1*
X107119D2*
X111725D1*
X18416Y26610D2*
X23507D1*
X106893D2*
X111522D1*
X18615Y26361D2*
X23733D1*
X106662D2*
X111323D1*
X18818Y26112D2*
X23968D1*
X106428D2*
X111120D1*
X19018Y25864D2*
X24202D1*
X106190D2*
X110921D1*
X19221Y25615D2*
X24440D1*
X105947D2*
X110718D1*
X19420Y25366D2*
X24682D1*
X105709D2*
X110518D1*
X19623Y25117D2*
X24929D1*
X105459D2*
X110315D1*
X19826Y24869D2*
X25175D1*
X105209D2*
X110112D1*
X20025Y24620D2*
X25425D1*
X104959D2*
X109913D1*
X20272Y24371D2*
X25682D1*
X104705D2*
X109667D1*
X20522Y24123D2*
X25936D1*
X104443D2*
X109417D1*
X20768Y23874D2*
X26198D1*
X104182D2*
X109167D1*
X21018Y23625D2*
X26464D1*
X103916D2*
X108921D1*
X21268Y23377D2*
X26729D1*
X103647D2*
X108671D1*
X21514Y23128D2*
X27003D1*
X103377D2*
X108421D1*
X21764Y22879D2*
X27276D1*
X103100D2*
X108175D1*
X22014Y22631D2*
X27554D1*
X102822D2*
X107925D1*
X22260Y22382D2*
X27835D1*
X102537D2*
X107675D1*
X22510Y22133D2*
X28120D1*
X102252D2*
X107429D1*
X22760Y21885D2*
X28409D1*
X101959D2*
X107179D1*
X23006Y21636D2*
X28706D1*
X101666D2*
X106932D1*
X23256Y21387D2*
X29003D1*
X101365D2*
X106682D1*
X23506Y21138D2*
X29304D1*
X101065D2*
X106432D1*
X23752Y20890D2*
X29608D1*
X100756D2*
X106186D1*
X24002Y20641D2*
X29921D1*
X100443D2*
X105936D1*
X24252Y20392D2*
X30237D1*
X100127D2*
X105686D1*
X24498Y20144D2*
X30554D1*
X99803D2*
X105440D1*
X24803Y19895D2*
X30882D1*
X99479D2*
X105136D1*
X25111Y19646D2*
X31210D1*
X99147D2*
X104827D1*
X25416Y19398D2*
X31546D1*
X98815D2*
X104518D1*
X25725Y19149D2*
X31882D1*
X98471D2*
X104214D1*
X26033Y18900D2*
X32229D1*
X98127D2*
X103905D1*
X26338Y18652D2*
X32581D1*
X97772D2*
X103600D1*
X26647Y18403D2*
X32936D1*
X97416D2*
X103292D1*
X26955Y18154D2*
X33300D1*
X97053D2*
X102983D1*
X27260Y17906D2*
X33667D1*
X96678D2*
X102679D1*
X27568Y17657D2*
X34046D1*
X96303D2*
X102370D1*
X27873Y17408D2*
X34425D1*
X95920D2*
X102065D1*
X28182Y17159D2*
X34815D1*
X95533D2*
X101757D1*
X28490Y16911D2*
X35210D1*
X95131D2*
X101448D1*
X28795Y16662D2*
X35616D1*
X94732D2*
X101143D1*
X29104Y16413D2*
X36022D1*
X94315D2*
X100835D1*
X29412Y16165D2*
X36440D1*
X93897D2*
X100526D1*
X29787Y15916D2*
X34554D1*
X36318D2*
X36870D1*
X93467D2*
X93608D1*
X95377D2*
X100151D1*
X30170Y15667D2*
X34100D1*
X36772D2*
X37307D1*
X93033D2*
X93153D1*
X95826D2*
X99768D1*
X30553Y15419D2*
X33807D1*
X37065D2*
X37753D1*
X92584D2*
X92862D1*
X96119D2*
X99386D1*
X30936Y15170D2*
X33593D1*
X37279D2*
X38206D1*
X92127D2*
X92647D1*
X96334D2*
X99003D1*
X31318Y14921D2*
X33432D1*
X37440D2*
X38671D1*
X91662D2*
X92487D1*
X96494D2*
X98620D1*
X31701Y14673D2*
X33311D1*
X37561D2*
X39151D1*
X91186D2*
X92366D1*
X96615D2*
X98237D1*
X32084Y14424D2*
X33229D1*
X37643D2*
X39636D1*
X90693D2*
X92284D1*
X96697D2*
X97854D1*
X32467Y14175D2*
X33175D1*
X37697D2*
X40136D1*
X90193D2*
X92229D1*
X96752D2*
X97472D1*
X32850Y13927D2*
X33147D1*
X37725D2*
X40647D1*
X89682D2*
X92202D1*
X96779D2*
X97089D1*
X37721Y13678D2*
X41175D1*
X89154D2*
X92206D1*
X37693Y13429D2*
X41714D1*
X88615D2*
X92237D1*
X37635Y13180D2*
X42268D1*
X88057D2*
X92292D1*
X37545Y12932D2*
X42843D1*
X87486D2*
X92382D1*
X37420Y12683D2*
X43432D1*
X86893D2*
X92507D1*
X37252Y12434D2*
X44038D1*
X86279D2*
X92675D1*
X37029Y12186D2*
X44671D1*
X85650D2*
X92897D1*
X36721Y11937D2*
X45323D1*
X84998D2*
X93210D1*
X36725Y11688D2*
X46007D1*
X84315D2*
X93214D1*
X37213Y11440D2*
X46714D1*
X83607D2*
X92725D1*
X37701Y11191D2*
X47456D1*
X82865D2*
X92237D1*
X38190Y10942D2*
X48229D1*
X82088D2*
X91749D1*
X38678Y10694D2*
X49050D1*
X81268D2*
X91261D1*
X39162Y10445D2*
X49909D1*
X80400D2*
X90772D1*
X39650Y10196D2*
X50831D1*
X79482D2*
X90288D1*
X40139Y9948D2*
X51823D1*
X78482D2*
X89800D1*
X40705Y9699D2*
X52901D1*
X77408D2*
X89229D1*
X41354Y9450D2*
X54085D1*
X76225D2*
X88585D1*
X42002Y9201D2*
X55425D1*
X74885D2*
X87936D1*
X42650Y8953D2*
X56983D1*
X73326D2*
X87288D1*
X43299Y8704D2*
X58932D1*
X73107D2*
X86640D1*
X43947Y8455D2*
X61925D1*
X68389D2*
X68741D1*
X73186D2*
X85991D1*
X44596Y8207D2*
X68694D1*
X73232D2*
X85343D1*
X45240Y7958D2*
X63975D1*
X65951D2*
X68675D1*
X73252D2*
X84694D1*
X45889Y7709D2*
X63565D1*
X66361D2*
X68682D1*
X73244D2*
X84050D1*
X46643Y7461D2*
X63288D1*
X66639D2*
X68718D1*
X73209D2*
X83296D1*
X47568Y7212D2*
X63085D1*
X66842D2*
X68784D1*
X73143D2*
X82370D1*
X48498Y6963D2*
X62932D1*
X66994D2*
X68882D1*
X73045D2*
X81440D1*
X49424Y6715D2*
X62823D1*
X67104D2*
X69015D1*
X72912D2*
X80515D1*
X50354Y6466D2*
X62745D1*
X67186D2*
X69194D1*
X72736D2*
X79585D1*
X51283Y6217D2*
X62694D1*
X67232D2*
X69432D1*
X72494D2*
X78655D1*
X52209Y5969D2*
X62675D1*
X67252D2*
X69768D1*
X72158D2*
X77729D1*
X53639Y5720D2*
X62682D1*
X67244D2*
X70354D1*
X71572D2*
X76300D1*
X55205Y5471D2*
X62718D1*
X67209D2*
X74729D1*
X56775Y5222D2*
X62780D1*
X67147D2*
X73159D1*
X58346Y4974D2*
X62874D1*
X67053D2*
X71589D1*
X62440Y4725D2*
X63007D1*
X66920D2*
X67495D1*
X8170Y64839D2*
X8143Y64590D1*
X8088Y64347D1*
X8007Y64110D1*
X7900Y63884D1*
X7769Y63672D1*
X7615Y63474D1*
X7441Y63296D1*
X7248Y63137D1*
X7038Y63001D1*
X6815Y62888D1*
X6581Y62801D1*
X6339Y62740D1*
X6091Y62706D1*
X5841Y62700D1*
X5592Y62721D1*
X5347Y62769D1*
X5109Y62844D1*
X4880Y62945D1*
X4664Y63071D1*
X4571Y63136D1*
X4654Y61601D1*
X4803Y58762D1*
X5794Y52507D1*
X7433Y46391D1*
X9703Y40479D1*
X11777Y36412D1*
X11897Y36631D1*
X12040Y36836D1*
X12205Y37024D1*
X12390Y37192D1*
X12592Y37339D1*
X12809Y37463D1*
X13038Y37562D1*
X13277Y37635D1*
X13523Y37681D1*
X13772Y37701D1*
X14022Y37692D1*
X14269Y37656D1*
X14511Y37593D1*
X14744Y37504D1*
X14966Y37390D1*
X15175Y37252D1*
X15366Y37092D1*
X15539Y36911D1*
X15691Y36713D1*
X15820Y36499D1*
X15925Y36272D1*
X16005Y36035D1*
X16057Y35791D1*
X16083Y35542D1*
X16082Y35311D1*
X16054Y35063D1*
X16000Y34819D1*
X15918Y34583D1*
X15812Y34357D1*
X15681Y34144D1*
X15527Y33947D1*
X15353Y33768D1*
X15160Y33609D1*
X14950Y33473D1*
X14727Y33360D1*
X14493Y33273D1*
X14251Y33212D1*
X14003Y33178D1*
X13753Y33172D1*
X13656Y33178D1*
X16027Y29526D1*
X20013Y24605D1*
X24491Y20128D1*
X29412Y16143D1*
X33174Y13705D1*
X33175Y13955D1*
X33204Y14203D1*
X33259Y14446D1*
X33341Y14682D1*
X33449Y14908D1*
X33581Y15120D1*
X33736Y15317D1*
X33911Y15495D1*
X34104Y15653D1*
X34314Y15788D1*
X34538Y15900D1*
X34772Y15986D1*
X35015Y16046D1*
X35263Y16079D1*
X35512Y16084D1*
X35761Y16062D1*
X36006Y16012D1*
X36244Y15936D1*
X36472Y15834D1*
X36688Y15708D1*
X36888Y15559D1*
X37071Y15388D1*
X37234Y15198D1*
X37374Y14992D1*
X37492Y14771D1*
X37584Y14539D1*
X37650Y14298D1*
X37689Y14051D1*
X37701Y13820D1*
X37687Y13571D1*
X37646Y13324D1*
X37578Y13084D1*
X37484Y12853D1*
X37365Y12633D1*
X37222Y12428D1*
X37058Y12239D1*
X36874Y12070D1*
X36672Y11923D1*
X36466Y11804D1*
X37053Y11508D1*
X40366Y9820D1*
X46278Y7551D1*
X52394Y5912D1*
X58649Y4922D1*
X63051Y4692D1*
X62912Y4949D1*
X62819Y5181D1*
X62752Y5422D1*
X62711Y5668D1*
X62699Y5918D1*
X62713Y6167D1*
X62756Y6414D1*
X62825Y6654D1*
X62920Y6885D1*
X63040Y7104D1*
X63183Y7309D1*
X63348Y7496D1*
X63533Y7664D1*
X63735Y7811D1*
X63952Y7935D1*
X64181Y8034D1*
X64420Y8107D1*
X64666Y8154D1*
X64915Y8173D1*
X65165Y8165D1*
X65412Y8129D1*
X65654Y8066D1*
X65887Y7977D1*
X66110Y7862D1*
X66318Y7724D1*
X66510Y7564D1*
X66682Y7384D1*
X66834Y7185D1*
X66964Y6971D1*
X67069Y6745D1*
X67148Y6508D1*
X67201Y6263D1*
X67226Y6015D1*
X67225Y5784D1*
X67198Y5535D1*
X67143Y5291D1*
X67062Y5055D1*
X66955Y4829D1*
X66873Y4692D1*
X71297Y4923D1*
X77551Y5914D1*
X83668Y7553D1*
X89579Y9823D1*
X93463Y11802D1*
X93247Y11928D1*
X93046Y12076D1*
X92863Y12246D1*
X92699Y12435D1*
X92558Y12641D1*
X92439Y12861D1*
X92346Y13093D1*
X92279Y13334D1*
X92239Y13580D1*
X92226Y13830D1*
X92241Y14079D1*
X92283Y14325D1*
X92352Y14566D1*
X92447Y14797D1*
X92567Y15016D1*
X92711Y15220D1*
X92876Y15408D1*
X93060Y15576D1*
X93263Y15723D1*
X93480Y15847D1*
X93709Y15946D1*
X93948Y16019D1*
X94193Y16066D1*
X94443Y16085D1*
X94692Y16076D1*
X94940Y16041D1*
X95181Y15978D1*
X95415Y15888D1*
X95637Y15774D1*
X95845Y15636D1*
X96037Y15476D1*
X96210Y15295D1*
X96362Y15097D1*
X96491Y14883D1*
X96596Y14657D1*
X96675Y14420D1*
X96728Y14175D1*
X96754Y13927D1*
X96752Y13692D1*
X100532Y16147D1*
X105453Y20133D1*
X109930Y24611D1*
X113915Y29532D1*
X116282Y33177D1*
X116040Y33172D1*
X115791Y33193D1*
X115546Y33242D1*
X115307Y33317D1*
X115079Y33418D1*
X114863Y33543D1*
X114662Y33692D1*
X114478Y33862D1*
X114315Y34051D1*
X114173Y34256D1*
X114055Y34477D1*
X113962Y34708D1*
X113895Y34949D1*
X113855Y35196D1*
X113842Y35445D1*
X113857Y35695D1*
X113899Y35941D1*
X113912Y35990D1*
X113223Y34877D1*
X112617Y33938D1*
X111997Y33016D1*
X111143Y31809D1*
X110381Y30789D1*
X109695Y29907D1*
X108998Y29043D1*
X108043Y27917D1*
X107196Y26967D1*
X106436Y26148D1*
X105666Y25349D1*
X104618Y24312D1*
X103691Y23440D1*
X102863Y22690D1*
X102027Y21961D1*
X100894Y21020D1*
X99895Y20232D1*
X99004Y19558D1*
X98108Y18905D1*
X96899Y18068D1*
X95836Y17370D1*
X94890Y16776D1*
X93941Y16204D1*
X92665Y15476D1*
X91545Y14874D1*
X90552Y14364D1*
X89557Y13878D1*
X88191Y13250D1*
X87019Y12746D1*
X85906Y12295D1*
X84871Y11900D1*
X83581Y11439D1*
X82284Y11013D1*
X81139Y10662D1*
X79910Y10318D1*
X78828Y10037D1*
X77499Y9725D1*
X76329Y9475D1*
X75075Y9240D1*
X73974Y9054D1*
X72998Y8910D1*
X73112Y8627D1*
X73178Y8386D1*
X73217Y8140D1*
X73229Y7909D1*
X73215Y7659D1*
X73174Y7413D1*
X73106Y7172D1*
X73011Y6941D1*
X72892Y6721D1*
X72750Y6516D1*
X72586Y6327D1*
X72402Y6158D1*
X72200Y6011D1*
X71983Y5886D1*
X71754Y5786D1*
X71516Y5712D1*
X71271Y5664D1*
X71021Y5644D1*
X70772Y5652D1*
X70524Y5687D1*
X70282Y5748D1*
X70048Y5837D1*
X69826Y5950D1*
X69617Y6087D1*
X69425Y6247D1*
X69251Y6426D1*
X69098Y6624D1*
X68968Y6837D1*
X68862Y7064D1*
X68782Y7300D1*
X68728Y7544D1*
X68702Y7793D1*
X68703Y8043D1*
X68731Y8291D1*
X68772Y8478D1*
X67942Y8433D1*
X66703Y8386D1*
X65598Y8365D1*
X64111Y8373D1*
X62746Y8416D1*
X61553Y8478D1*
X60281Y8574D1*
X59176Y8679D1*
X57821Y8841D1*
X56638Y9006D1*
X55380Y9213D1*
X54290Y9414D1*
X52954Y9693D1*
X51791Y9961D1*
X50556Y10277D1*
X49489Y10571D1*
X48183Y10965D1*
X47048Y11333D1*
X45845Y11755D1*
X44810Y12141D1*
X43544Y12647D1*
X42445Y13113D1*
X41284Y13638D1*
X40289Y14111D1*
X39071Y14726D1*
X38018Y15285D1*
X36908Y15910D1*
X35958Y16467D1*
X34799Y17185D1*
X33799Y17834D1*
X32748Y18552D1*
X31852Y19189D1*
X30760Y20006D1*
X29821Y20738D1*
X28836Y21546D1*
X28001Y22257D1*
X26985Y23165D1*
X26114Y23977D1*
X25203Y24867D1*
X24434Y25647D1*
X23501Y26640D1*
X22704Y27524D1*
X21875Y28490D1*
X21178Y29333D1*
X20335Y30403D1*
X19619Y31353D1*
X18877Y32387D1*
X18258Y33286D1*
X17511Y34425D1*
X16881Y35434D1*
X16232Y36529D1*
X15694Y37476D1*
X15050Y38676D1*
X14510Y39735D1*
X13959Y40882D1*
X13506Y41870D1*
X12970Y43122D1*
X12524Y44224D1*
X12075Y45414D1*
X11711Y46436D1*
X11286Y47730D1*
X10938Y48866D1*
X10594Y50091D1*
X10321Y51139D1*
X10010Y52464D1*
X9763Y53625D1*
X9528Y54875D1*
X9347Y55942D1*
X9153Y57289D1*
X9007Y58467D1*
X8882Y59732D1*
X8796Y60808D1*
X8719Y62167D1*
X8677Y63352D1*
X8663Y64624D1*
X8670Y65701D1*
X8713Y67061D1*
X8774Y68245D1*
X8870Y69513D1*
X8972Y70584D1*
X9132Y71934D1*
X9297Y73108D1*
X9503Y74362D1*
X9697Y75418D1*
X9975Y76750D1*
X10240Y77905D1*
X10555Y79136D1*
X10840Y80169D1*
X11233Y81471D1*
X11598Y82597D1*
X12019Y83796D1*
X12392Y84799D1*
X12896Y86061D1*
X13358Y87151D1*
X13882Y88309D1*
X14340Y89273D1*
X14952Y90487D1*
X15507Y91532D1*
X16130Y92639D1*
X16669Y93559D1*
X17385Y94714D1*
X18028Y95706D1*
X18745Y96755D1*
X19361Y97622D1*
X20175Y98711D1*
X20902Y99643D1*
X21707Y100624D1*
X22395Y101433D1*
X23301Y102446D1*
X24106Y103311D1*
X24993Y104219D1*
X25748Y104964D1*
X26738Y105894D1*
X27615Y106685D1*
X28578Y107512D1*
X29393Y108186D1*
X30461Y109027D1*
X31403Y109738D1*
X32434Y110477D1*
X33303Y111077D1*
X34440Y111821D1*
X35440Y112448D1*
X36531Y113094D1*
X37448Y113615D1*
X38645Y114257D1*
X39695Y114794D1*
X40839Y115343D1*
X41796Y115781D1*
X43043Y116316D1*
X44136Y116759D1*
X45323Y117206D1*
X46312Y117559D1*
X47602Y117983D1*
X48729Y118329D1*
X49950Y118671D1*
X50964Y118935D1*
X52285Y119246D1*
X53438Y119492D1*
X54684Y119726D1*
X55716Y119901D1*
X57058Y120095D1*
X58227Y120239D1*
X59489Y120364D1*
X60530Y120448D1*
X61884Y120524D1*
X62076Y120533D1*
X62091Y120847D1*
X62128Y121094D1*
X62187Y121337D1*
X62269Y121573D1*
X62374Y121800D1*
X62499Y122016D1*
X62644Y122220D1*
X62808Y122409D1*
X62989Y122581D1*
X63126Y122691D1*
X62968Y122948D1*
X62862Y123174D1*
X62782Y123411D1*
X62728Y123655D1*
X62702Y123903D1*
X62703Y124153D1*
X62731Y124401D1*
X62787Y124645D1*
X62869Y124881D1*
X62977Y125106D1*
X63109Y125318D1*
X63251Y125500D1*
X62479Y125457D1*
X58642Y125256D1*
X52387Y124265D1*
X46271Y122625D1*
X40359Y120356D1*
X36202Y118237D1*
X36360Y118175D1*
X36582Y118061D1*
X36790Y117922D1*
X36982Y117762D1*
X37155Y117582D1*
X37307Y117384D1*
X37436Y117170D1*
X37541Y116943D1*
X37620Y116706D1*
X37673Y116462D1*
X37699Y116213D1*
X37698Y115982D1*
X37670Y115734D1*
X37615Y115490D1*
X37534Y115253D1*
X37427Y115028D1*
X37296Y114815D1*
X37143Y114618D1*
X36968Y114439D1*
X36775Y114280D1*
X36566Y114144D1*
X36343Y114031D1*
X36109Y113944D1*
X35866Y113883D1*
X35619Y113849D1*
X35369Y113843D1*
X35120Y113864D1*
X34875Y113912D1*
X34637Y113988D1*
X34408Y114089D1*
X34192Y114214D1*
X33991Y114363D1*
X33808Y114533D1*
X33644Y114721D1*
X33502Y114927D1*
X33384Y115147D1*
X33291Y115379D1*
X33224Y115620D1*
X33184Y115867D1*
X33171Y116116D1*
X33186Y116366D1*
X33206Y116501D1*
X30532Y114762D1*
X29406Y114031D1*
X24485Y110046D1*
X20008Y105568D1*
X16023Y100646D1*
X13482Y96733D1*
X13772Y96756D1*
X14022Y96747D1*
X14269Y96711D1*
X14511Y96648D1*
X14744Y96559D1*
X14966Y96445D1*
X15175Y96307D1*
X15366Y96147D1*
X15539Y95966D1*
X15691Y95768D1*
X15820Y95554D1*
X15925Y95327D1*
X16005Y95090D1*
X16057Y94846D1*
X16083Y94598D1*
X16082Y94366D1*
X16054Y94118D1*
X16000Y93874D1*
X15918Y93638D1*
X15812Y93412D1*
X15681Y93199D1*
X15527Y93002D1*
X15353Y92823D1*
X15160Y92664D1*
X14950Y92528D1*
X14727Y92416D1*
X14493Y92328D1*
X14251Y92267D1*
X14003Y92234D1*
X13753Y92227D1*
X13504Y92248D1*
X13259Y92297D1*
X13021Y92372D1*
X12792Y92473D1*
X12576Y92598D1*
X12375Y92747D1*
X12192Y92917D1*
X12028Y93106D1*
X11887Y93312D1*
X11769Y93532D1*
X11717Y93650D1*
X9700Y89693D1*
X7431Y83781D1*
X5792Y77664D1*
X4802Y71409D1*
X4560Y66781D1*
X4680Y66866D1*
X4897Y66990D1*
X5126Y67089D1*
X5365Y67163D1*
X5611Y67209D1*
X5860Y67228D1*
X6110Y67220D1*
X6357Y67184D1*
X6599Y67121D1*
X6832Y67032D1*
X7054Y66917D1*
X7263Y66779D1*
X7454Y66619D1*
X7627Y66439D1*
X7779Y66240D1*
X7909Y66027D1*
X8014Y65800D1*
X8093Y65563D1*
X8146Y65319D1*
X8171Y65070D1*
X8170Y64839D1*
X125367Y63144D2*
X125149Y63001D1*
X124925Y62888D1*
X124691Y62801D1*
X124449Y62740D1*
X124201Y62706D1*
X123952Y62700D1*
X123703Y62721D1*
X123458Y62769D1*
X123219Y62844D1*
X122991Y62945D1*
X122775Y63071D1*
X122574Y63219D1*
X122390Y63389D1*
X122227Y63578D1*
X122085Y63784D1*
X122036Y63860D1*
X121967Y62226D1*
X121887Y60869D1*
X121790Y59723D1*
X121670Y58603D1*
X121546Y57634D1*
X121342Y56298D1*
X121133Y55097D1*
X120866Y53747D1*
X120621Y52632D1*
X120328Y51418D1*
X120026Y50264D1*
X119685Y49079D1*
X119333Y47938D1*
X118941Y46766D1*
X118565Y45712D1*
X118207Y44763D1*
X117744Y43608D1*
X117275Y42500D1*
X116748Y41336D1*
X116259Y40308D1*
X115642Y39088D1*
X115079Y38027D1*
X114548Y37079D1*
X114676Y37192D1*
X114878Y37339D1*
X115095Y37463D1*
X115325Y37562D1*
X115564Y37635D1*
X115809Y37681D1*
X116058Y37701D1*
X116308Y37692D1*
X116555Y37656D1*
X116797Y37593D1*
X117031Y37504D1*
X117253Y37390D1*
X117461Y37252D1*
X117653Y37092D1*
X117826Y36911D1*
X117978Y36713D1*
X118107Y36499D1*
X118157Y36398D1*
X120238Y40486D1*
X122507Y46398D1*
X124146Y52514D1*
X125136Y58769D1*
X125365Y63140D1*
X122054Y66088D2*
X122164Y66263D1*
X122318Y66460D1*
X122493Y66638D1*
X122687Y66796D1*
X122897Y66931D1*
X123121Y67043D1*
X123355Y67129D1*
X123598Y67189D1*
X123845Y67222D1*
X124095Y67227D1*
X124344Y67205D1*
X124589Y67156D1*
X124827Y67080D1*
X125055Y66978D1*
X125271Y66851D1*
X125376Y66777D1*
X125324Y67829D1*
X125136Y71417D1*
X124145Y77671D1*
X122505Y83788D1*
X120236Y89699D1*
X118216Y93661D1*
X118098Y93412D1*
X117967Y93199D1*
X117814Y93002D1*
X117639Y92823D1*
X117446Y92664D1*
X117237Y92528D1*
X117014Y92416D1*
X116779Y92328D1*
X116537Y92267D1*
X116290Y92234D1*
X116040Y92227D1*
X115791Y92248D1*
X115546Y92297D1*
X115377Y92348D1*
X115956Y91226D1*
X116487Y90144D1*
X117074Y88873D1*
X117535Y87813D1*
X118008Y86660D1*
X118444Y85533D1*
X118919Y84212D1*
X119293Y83093D1*
X119662Y81906D1*
X119995Y80758D1*
X120361Y79365D1*
X120655Y78123D1*
X120894Y77019D1*
X121117Y75887D1*
X121349Y74545D1*
X121519Y73436D1*
X121660Y72389D1*
X121802Y71084D1*
X121894Y70016D1*
X121970Y68756D1*
X122020Y67495D1*
X122055Y66096D1*
X96753Y115982D2*
X96725Y115734D1*
X96670Y115490D1*
X96589Y115253D1*
X96482Y115028D1*
X96351Y114815D1*
X96198Y114618D1*
X96023Y114439D1*
X95830Y114280D1*
X95621Y114144D1*
X95398Y114031D1*
X95322Y114000D1*
X96233Y113411D1*
X97162Y112786D1*
X98393Y111914D1*
X99420Y111147D1*
X100306Y110459D1*
X101177Y109756D1*
X102326Y108782D1*
X103282Y107928D1*
X104104Y107165D1*
X104910Y106389D1*
X105968Y105320D1*
X106846Y104387D1*
X107599Y103555D1*
X108333Y102713D1*
X109293Y101556D1*
X110086Y100551D1*
X110763Y99657D1*
X111421Y98754D1*
X112278Y97517D1*
X112978Y96449D1*
X113574Y95500D1*
X113894Y94972D1*
X113968Y95236D1*
X114063Y95467D1*
X114183Y95687D1*
X114326Y95891D1*
X114491Y96079D1*
X114676Y96247D1*
X114878Y96394D1*
X115095Y96518D1*
X115325Y96617D1*
X115564Y96690D1*
X115809Y96737D1*
X116058Y96756D1*
X116308Y96747D1*
X116459Y96728D1*
X113911Y100652D1*
X109926Y105573D1*
X105448Y110050D1*
X100526Y114035D1*
X96718Y116508D1*
X96744Y116338D1*
X96756Y116107D1*
X96753Y115982D1*
X92246Y115816D2*
X92229Y115991D1*
X92230Y116241D1*
X92259Y116489D1*
X92314Y116733D1*
X92397Y116969D1*
X92504Y117194D1*
X92636Y117407D1*
X92791Y117603D1*
X92966Y117781D1*
X93160Y117939D1*
X93369Y118075D1*
X93593Y118186D1*
X93728Y118239D1*
X92105Y119068D1*
X89573Y120358D1*
X83661Y122627D1*
X77544Y124266D1*
X71289Y125256D1*
X66682Y125494D1*
X66834Y125296D1*
X66964Y125082D1*
X67069Y124855D1*
X67148Y124618D1*
X67201Y124374D1*
X67226Y124125D1*
X67225Y123894D1*
X67192Y123619D1*
X67227Y123623D1*
X67918Y123622D1*
X68614Y123596D1*
X69331Y123539D1*
X70022Y123458D1*
X70733Y123346D1*
X71416Y123212D1*
X72116Y123045D1*
X72786Y122858D1*
X73431Y122649D1*
X73661Y122549D1*
X73879Y122428D1*
X74085Y122287D1*
X74291Y122114D1*
X75517Y121888D1*
X76861Y121607D1*
X78041Y121335D1*
X79285Y121017D1*
X80418Y120704D1*
X81732Y120307D1*
X82884Y119933D1*
X84094Y119508D1*
X85194Y119099D1*
X86469Y118588D1*
X87583Y118116D1*
X88752Y117587D1*
X89810Y117084D1*
X91035Y116465D1*
X92103Y115897D1*
X92247Y115818D1*
X65769Y120380D2*
D17*
X64923Y120407D1*
X64966Y120468D2*
D15*
X72113Y120005D1*
X71885Y119410D2*
D30*
X71064Y119513D1*
X70211Y119605D1*
X69748Y119647D1*
X68925Y119711D1*
X68020Y119767D1*
X66987Y119815D1*
X65717Y119861D1*
X64964Y119885D1*
X86031Y65071D2*
D32*
X86028Y65465D1*
X86021Y66056D1*
X86006Y66567D1*
X85988Y66927D1*
X85954Y67386D1*
X85907Y67860D1*
X85846Y68351D1*
X85783Y68776D1*
X85693Y69306D1*
X85592Y69827D1*
X85480Y70339D1*
X85417Y70603D1*
X85288Y71101D1*
X85147Y71597D1*
X84993Y72091D1*
X84892Y72395D1*
X84718Y72885D1*
X84533Y73371D1*
X84335Y73852D1*
X84212Y74137D1*
X83997Y74609D1*
X83770Y75077D1*
X83531Y75539D1*
X83381Y75816D1*
X83125Y76268D1*
X82857Y76715D1*
X82579Y77155D1*
X82405Y77419D1*
X82110Y77848D1*
X81805Y78270D1*
X81489Y78684D1*
X81291Y78933D1*
X80960Y79335D1*
X80618Y79729D1*
X80267Y80115D1*
X80047Y80348D1*
X79682Y80719D1*
X79307Y81082D1*
X78923Y81436D1*
X78682Y81650D1*
X78285Y81989D1*
X77880Y82318D1*
X77467Y82638D1*
X77206Y82831D1*
X76781Y83134D1*
X76348Y83427D1*
X75908Y83710D1*
X75630Y83880D1*
X75180Y84145D1*
X74722Y84400D1*
X74259Y84643D1*
X73966Y84790D1*
X73493Y85015D1*
X73015Y85229D1*
X72532Y85431D1*
X72225Y85552D1*
X71735Y85735D1*
X71239Y85907D1*
X70740Y86066D1*
X70422Y86161D1*
X69917Y86301D1*
X69408Y86428D1*
X68896Y86544D1*
X68569Y86611D1*
X68053Y86706D1*
X67534Y86789D1*
X67014Y86860D1*
X66680Y86898D1*
X66158Y86948D1*
X65633Y86986D1*
X65108Y87010D1*
X64771Y87020D1*
X64245Y87024D1*
X63719Y87016D1*
X63194Y86995D1*
X62854Y86974D1*
X62330Y86933D1*
X61806Y86878D1*
X61284Y86812D1*
X60946Y86762D1*
X60427Y86674D1*
X59909Y86575D1*
X59395Y86463D1*
X59060Y86383D1*
X58550Y86250D1*
X58043Y86106D1*
X57539Y85949D1*
X57211Y85840D1*
X56714Y85664D1*
X56221Y85475D1*
X55733Y85275D1*
X55414Y85137D1*
X54934Y84917D1*
X54459Y84687D1*
X53989Y84444D1*
X53681Y84278D1*
X53222Y84018D1*
X52768Y83746D1*
X52321Y83463D1*
X52028Y83270D1*
X51592Y82970D1*
X51164Y82660D1*
X50742Y82339D1*
X50465Y82119D1*
X50057Y81782D1*
X49657Y81435D1*
X49265Y81079D1*
X49007Y80835D1*
X48629Y80463D1*
X48261Y80082D1*
X47901Y79693D1*
X47664Y79425D1*
X47320Y79022D1*
X46985Y78610D1*
X46661Y78190D1*
X46446Y77902D1*
X46139Y77469D1*
X45841Y77030D1*
X45554Y76583D1*
X45365Y76275D1*
X45096Y75817D1*
X44837Y75353D1*
X44590Y74882D1*
X44427Y74557D1*
X44199Y74077D1*
X43982Y73592D1*
X43776Y73101D1*
X43642Y72761D1*
X43456Y72263D1*
X43282Y71760D1*
X43120Y71252D1*
X43015Y70900D1*
X42873Y70387D1*
X42744Y69870D1*
X42626Y69350D1*
X42552Y68989D1*
X42456Y68465D1*
X42372Y67938D1*
X42300Y67409D1*
X42257Y67041D1*
X42207Y66510D1*
X42169Y65977D1*
X42143Y65444D1*
X42133Y65071D1*
X42129Y64537D1*
X42137Y64003D1*
X42159Y63469D1*
X42181Y63095D1*
X42223Y62562D1*
X42279Y62030D1*
X42346Y61500D1*
X42401Y61127D1*
X42490Y60599D1*
X42592Y60074D1*
X42705Y59551D1*
X42793Y59182D1*
X42928Y58664D1*
X43075Y58149D1*
X43234Y57638D1*
X43354Y57276D1*
X43534Y56771D1*
X43725Y56271D1*
X43928Y55775D1*
X44080Y55423D1*
X44303Y54935D1*
X44538Y54453D1*
X44784Y53976D1*
X44967Y53637D1*
X45232Y53171D1*
X45508Y52710D1*
X45794Y52256D1*
X46007Y51933D1*
X46312Y51491D1*
X46627Y51056D1*
X46953Y50628D1*
X47195Y50323D1*
X47537Y49909D1*
X47889Y49502D1*
X48251Y49104D1*
X48520Y48820D1*
X48897Y48437D1*
X49284Y48063D1*
X49679Y47697D1*
X49973Y47436D1*
X50383Y47087D1*
X50801Y46748D1*
X51227Y46418D1*
X51545Y46182D1*
X51984Y45870D1*
X52430Y45568D1*
X52884Y45276D1*
X53222Y45068D1*
X53687Y44795D1*
X54159Y44533D1*
X54636Y44282D1*
X54993Y44103D1*
X55481Y43872D1*
X55974Y43651D1*
X56472Y43442D1*
X56845Y43295D1*
X57351Y43106D1*
X57862Y42930D1*
X58377Y42765D1*
X58763Y42650D1*
X59284Y42506D1*
X59809Y42375D1*
X60336Y42255D1*
X60733Y42174D1*
X61265Y42076D1*
X61800Y41991D1*
X62336Y41918D1*
X62741Y41871D1*
X63280Y41820D1*
X63820Y41781D1*
X64362Y41755D1*
X64771Y41744D1*
X65313Y41740D1*
X65855Y41749D1*
X66397Y41770D1*
X66807Y41795D1*
X67348Y41838D1*
X67887Y41894D1*
X68426Y41963D1*
X68835Y42023D1*
X69370Y42114D1*
X69903Y42216D1*
X70434Y42332D1*
X70838Y42428D1*
X71364Y42565D1*
X71886Y42714D1*
X72405Y42875D1*
X72801Y43007D1*
X73313Y43189D1*
X73822Y43384D1*
X74325Y43590D1*
X74710Y43756D1*
X75205Y43983D1*
X75694Y44221D1*
X76178Y44470D1*
X76549Y44670D1*
X77022Y44939D1*
X77490Y45219D1*
X77951Y45510D1*
X78304Y45743D1*
X78753Y46053D1*
X79194Y46373D1*
X79629Y46703D1*
X79962Y46967D1*
X80382Y47315D1*
X80794Y47672D1*
X81198Y48039D1*
X81509Y48333D1*
X81898Y48716D1*
X82277Y49108D1*
X82648Y49510D1*
X82933Y49831D1*
X83287Y50247D1*
X83632Y50671D1*
X83967Y51103D1*
X84224Y51450D1*
X84540Y51895D1*
X84847Y52349D1*
X85143Y52809D1*
X85370Y53178D1*
X85647Y53650D1*
X85913Y54128D1*
X86168Y54613D1*
X86363Y55002D1*
X86598Y55497D1*
X86821Y55997D1*
X87033Y56503D1*
X87194Y56909D1*
X87386Y57424D1*
X87565Y57942D1*
X87732Y58463D1*
X87857Y58885D1*
X88001Y59409D1*
X88135Y59942D1*
X88258Y60485D1*
X88346Y60914D1*
X88440Y61417D1*
X88528Y61957D1*
X88594Y62425D1*
X88652Y62928D1*
X88657Y62981D1*
X88699Y63467D1*
X88736Y64023D1*
X88771Y64712D1*
X88786Y65071D1*
X88783Y65465D1*
X88774Y66134D1*
X88757Y66685D1*
X88733Y67157D1*
Y67167D1*
X88696Y67655D1*
X88646Y68157D1*
X88582Y68677D1*
X88502Y69216D1*
X88496Y69254D1*
X88400Y69818D1*
X88292Y70371D1*
X88184Y70872D1*
X88078Y71316D1*
X87940Y71844D1*
X87790Y72371D1*
X87627Y72897D1*
X87480Y73337D1*
X87295Y73857D1*
X87097Y74374D1*
X86888Y74885D1*
X86708Y75300D1*
X86478Y75802D1*
X86237Y76298D1*
X85984Y76790D1*
X85766Y77192D1*
X85493Y77673D1*
X85208Y78147D1*
X84913Y78615D1*
X84660Y78998D1*
X84346Y79453D1*
X84022Y79901D1*
X83687Y80341D1*
X83400Y80703D1*
X83047Y81129D1*
X82684Y81547D1*
X82312Y81957D1*
X81993Y82294D1*
X81604Y82688D1*
X81206Y83073D1*
X80799Y83449D1*
X80451Y83758D1*
X80029Y84117D1*
X79598Y84466D1*
X79160Y84806D1*
X78784Y85085D1*
X78332Y85406D1*
X77873Y85716D1*
X77406Y86017D1*
X77006Y86263D1*
X76527Y86543D1*
X76041Y86813D1*
X75550Y87072D1*
X75128Y87283D1*
X74626Y87521D1*
X74119Y87747D1*
X73606Y87962D1*
X73166Y88136D1*
X72645Y88330D1*
X72119Y88511D1*
X71589Y88681D1*
X71133Y88817D1*
X70597Y88964D1*
X70057Y89100D1*
X69514Y89223D1*
X69046Y89318D1*
X68499Y89418D1*
X67948Y89506D1*
X67396Y89582D1*
X66920Y89636D1*
X66365Y89688D1*
X65809Y89728D1*
X65252Y89755D1*
X64771Y89768D1*
X64213Y89772D1*
X63655Y89763D1*
X63098Y89741D1*
X62615Y89712D1*
X62059Y89667D1*
X61503Y89609D1*
X60949Y89539D1*
X60469Y89467D1*
X59918Y89374D1*
X59370Y89268D1*
X58824Y89150D1*
X58349Y89036D1*
X57809Y88895D1*
X57271Y88741D1*
X56737Y88576D1*
X56272Y88421D1*
X55745Y88233D1*
X55223Y88033D1*
X54704Y87821D1*
X54253Y87626D1*
X53745Y87392D1*
X53241Y87147D1*
X52743Y86891D1*
X52309Y86656D1*
X51822Y86379D1*
X51341Y86091D1*
X50867Y85792D1*
X50453Y85519D1*
X49992Y85200D1*
X49538Y84871D1*
X49091Y84532D1*
X48701Y84222D1*
X48269Y83864D1*
X47845Y83496D1*
X47429Y83119D1*
X47066Y82775D1*
X46667Y82381D1*
X46276Y81977D1*
X45895Y81565D1*
X45562Y81189D1*
X45198Y80761D1*
X44844Y80325D1*
X44499Y79880D1*
X44199Y79476D1*
X43874Y79017D1*
X43558Y78551D1*
X43254Y78078D1*
X42989Y77647D1*
X42705Y77161D1*
X42431Y76669D1*
X42169Y76171D1*
X41941Y75716D1*
X41700Y75208D1*
X41471Y74693D1*
X41252Y74173D1*
X41065Y73699D1*
X40869Y73171D1*
X40685Y72638D1*
X40513Y72101D1*
X40367Y71610D1*
X40217Y71066D1*
X40080Y70519D1*
X39955Y69968D1*
X39852Y69465D1*
X39751Y68910D1*
X39662Y68352D1*
X39585Y67792D1*
X39526Y67280D1*
X39474Y66717D1*
X39434Y66154D1*
X39406Y65589D1*
X39392Y65071D1*
X39389Y64506D1*
X39398Y63940D1*
X39420Y63375D1*
X39451Y62856D1*
X39497Y62292D1*
X39555Y61729D1*
X39627Y61167D1*
X39703Y60651D1*
X39798Y60093D1*
X39906Y59537D1*
X40025Y58983D1*
X40147Y58473D1*
X40291Y57925D1*
X40446Y57380D1*
X40614Y56838D1*
X40780Y56339D1*
X40971Y55805D1*
X41174Y55276D1*
X41388Y54750D1*
X41598Y54266D1*
X41835Y53750D1*
X42083Y53240D1*
X42343Y52735D1*
X42596Y52268D1*
X42877Y51775D1*
X43169Y51288D1*
X43471Y50807D1*
X43765Y50362D1*
X44088Y49895D1*
X44422Y49435D1*
X44765Y48982D1*
X45098Y48563D1*
X45461Y48126D1*
X45833Y47696D1*
X46216Y47274D1*
X46584Y46885D1*
X46984Y46480D1*
X47394Y46084D1*
X47811Y45697D1*
X48214Y45340D1*
X48648Y44971D1*
X49091Y44612D1*
X49541Y44263D1*
X49975Y43941D1*
X50440Y43611D1*
X50913Y43292D1*
X51392Y42983D1*
X51854Y42699D1*
X52347Y42411D1*
X52845Y42134D1*
X53350Y41868D1*
X53837Y41624D1*
X54353Y41380D1*
X54874Y41147D1*
X55401Y40926D1*
X55909Y40725D1*
X56445Y40527D1*
X56985Y40340D1*
X57529Y40165D1*
X58055Y40009D1*
X58606Y39858D1*
X59161Y39719D1*
X59719Y39592D1*
X60259Y39481D1*
X60821Y39379D1*
X61386Y39289D1*
X61953Y39211D1*
X62503Y39148D1*
X63073Y39095D1*
X63644Y39054D1*
X64216Y39026D1*
X64771Y39011D1*
X65343Y39008D1*
X65916Y39017D1*
X66489Y39039D1*
X67045Y39072D1*
X67617Y39119D1*
X68187Y39178D1*
X68756Y39250D1*
X69309Y39332D1*
X69875Y39429D1*
X70438Y39538D1*
X70999Y39659D1*
X71545Y39789D1*
X72100Y39935D1*
X72652Y40092D1*
X73201Y40262D1*
X73736Y40440D1*
X74276Y40634D1*
X74813Y40839D1*
X75346Y41056D1*
X75864Y41281D1*
X76386Y41521D1*
X76904Y41773D1*
X77415Y42036D1*
X77914Y42306D1*
X78414Y42591D1*
X78908Y42886D1*
X79395Y43193D1*
X79870Y43507D1*
X80343Y43834D1*
X80810Y44172D1*
X81269Y44521D1*
X81716Y44876D1*
X82160Y45244D1*
X82595Y45621D1*
X83022Y46009D1*
X83439Y46403D1*
X83849Y46808D1*
X84250Y47223D1*
X84642Y47646D1*
X85024Y48077D1*
X85397Y48516D1*
X85761Y48965D1*
X86115Y49421D1*
X86459Y49885D1*
X86793Y50356D1*
X87116Y50834D1*
X87429Y51320D1*
X87733Y51814D1*
X88024Y52313D1*
X88305Y52818D1*
X88575Y53329D1*
X88833Y53846D1*
X88835Y53850D1*
X89082Y54372D1*
X89318Y54900D1*
X89543Y55434D1*
X89756Y55973D1*
X89757Y55977D1*
X89958Y56521D1*
X90148Y57067D1*
X90324Y57617D1*
X90488Y58168D1*
X90491Y58179D1*
X90642Y58732D1*
X90783Y59295D1*
X90913Y59868D1*
X91031Y60441D1*
X91131Y60983D1*
X91224Y61553D1*
X91295Y62060D1*
X91357Y62593D1*
X91373Y62744D1*
X91417Y63257D1*
X91455Y63839D1*
X91490Y64546D1*
X91512Y65071D1*
X91508Y65465D1*
X91497Y66174D1*
X91480Y66764D1*
X91456Y67275D1*
X91448Y67405D1*
X91408Y67919D1*
X91355Y68448D1*
X91288Y68994D1*
X91206Y69560D1*
X91180Y69728D1*
X91077Y70322D1*
X90972Y70863D1*
X90848Y71439D1*
X90713Y72006D1*
X90709Y72021D1*
X90563Y72578D1*
X90405Y73134D1*
X90234Y73688D1*
X90050Y74240D1*
X90040Y74268D1*
X89843Y74817D1*
X89635Y75362D1*
X89415Y75902D1*
X89183Y76436D1*
X89176Y76451D1*
X88933Y76980D1*
X88678Y77504D1*
X88412Y78022D1*
X88135Y78534D1*
X88124Y78554D1*
X87835Y79060D1*
X87535Y79560D1*
X87225Y80054D1*
X86904Y80540D1*
X86891Y80559D1*
X86559Y81039D1*
X86216Y81511D1*
X85864Y81976D1*
X85501Y82433D1*
X85485Y82452D1*
X85112Y82901D1*
X84730Y83342D1*
X84338Y83775D1*
X83936Y84199D1*
X83918Y84218D1*
X83507Y84633D1*
X83087Y85039D1*
X82659Y85436D1*
X82222Y85824D1*
X82200Y85843D1*
X81755Y86221D1*
X81301Y86589D1*
X80839Y86947D1*
X80369Y87296D1*
X80345Y87314D1*
X79868Y87651D1*
X79383Y87979D1*
X78892Y88296D1*
X78393Y88602D1*
X78366Y88619D1*
X77861Y88914D1*
X77349Y89198D1*
X76831Y89471D1*
X76308Y89733D1*
X76278Y89748D1*
X75748Y89998D1*
X75214Y90237D1*
X74673Y90464D1*
X74129Y90680D1*
X74096Y90692D1*
X73547Y90895D1*
X72992Y91087D1*
X72434Y91266D1*
X71872Y91434D1*
X71837Y91444D1*
X71272Y91598D1*
X70703Y91741D1*
X70131Y91871D1*
X69556Y91989D1*
X69518Y91996D1*
X68941Y92101D1*
X68361Y92193D1*
X67780Y92273D1*
X67196Y92340D1*
X67157Y92345D1*
X66572Y92399D1*
X65986Y92440D1*
X65400Y92469D1*
X64812Y92485D1*
X64771Y92486D1*
X64183Y92489D1*
X63596Y92479D1*
X63008Y92457D1*
X62421Y92422D1*
X62378Y92419D1*
X61792Y92371D1*
X61207Y92310D1*
X60623Y92236D1*
X60041Y92150D1*
X59997Y92143D1*
X59417Y92044D1*
X58839Y91932D1*
X58264Y91808D1*
X57691Y91672D1*
X57646Y91660D1*
X57077Y91511D1*
X56510Y91349D1*
X55948Y91175D1*
X55388Y90989D1*
X55343Y90974D1*
X54788Y90775D1*
X54238Y90564D1*
X53692Y90342D1*
X53151Y90108D1*
X53105Y90087D1*
X52570Y89841D1*
X52040Y89583D1*
X51515Y89313D1*
X50996Y89033D1*
X50951Y89008D1*
X50439Y88715D1*
X49932Y88412D1*
X49433Y88098D1*
X48940Y87773D1*
X48896Y87743D1*
X48411Y87407D1*
X47932Y87060D1*
X47462Y86703D1*
X47029Y86361D1*
X46956Y86302D1*
X46502Y85924D1*
X46055Y85537D1*
X45617Y85140D1*
X45188Y84734D1*
X45147Y84695D1*
X44727Y84279D1*
X44316Y83854D1*
X43914Y83420D1*
X43521Y82978D1*
X43483Y82934D1*
X43100Y82482D1*
X42727Y82023D1*
X42364Y81555D1*
X42011Y81080D1*
X41976Y81032D1*
X41634Y80549D1*
X41303Y80058D1*
X40982Y79560D1*
X40671Y79056D1*
X40639Y79003D1*
X40341Y78492D1*
X40053Y77974D1*
X39776Y77450D1*
X39511Y76920D1*
X39483Y76863D1*
X39230Y76327D1*
X38988Y75785D1*
X38758Y75239D1*
X38540Y74687D1*
X38516Y74627D1*
X38311Y74070D1*
X38117Y73510D1*
X37935Y72945D1*
X37766Y72376D1*
X37747Y72312D1*
X37591Y71739D1*
X37447Y71163D1*
X37315Y70584D1*
X37195Y70003D1*
X37182Y69936D1*
X37076Y69351D1*
X36983Y68764D1*
X36902Y68176D1*
X36833Y67585D1*
X36826Y67516D1*
X36771Y66924D1*
X36729Y66331D1*
X36700Y65737D1*
X36683Y65143D1*
X36682Y65071D1*
X36679Y64476D1*
X36689Y63881D1*
X36711Y63287D1*
X36746Y62693D1*
X36751Y62620D1*
X36800Y62027D1*
X36862Y61434D1*
X36936Y60844D1*
X37023Y60254D1*
X37035Y60180D1*
X37135Y59593D1*
X37248Y59009D1*
X37374Y58426D1*
X37512Y57846D1*
X37530Y57772D1*
X37682Y57196D1*
X37846Y56622D1*
X38021Y56053D1*
X38209Y55487D1*
X38235Y55413D1*
X38436Y54852D1*
X38650Y54294D1*
X38875Y53742D1*
X39111Y53194D1*
X39144Y53121D1*
X39393Y52579D1*
X39655Y52042D1*
X39927Y51511D1*
X40211Y50986D1*
X40250Y50914D1*
X40547Y50396D1*
X40854Y49883D1*
X41172Y49378D1*
X41500Y48879D1*
X41547Y48809D1*
X41887Y48319D1*
X42238Y47835D1*
X42599Y47358D1*
X42970Y46889D1*
X43024Y46823D1*
X43406Y46363D1*
X43798Y45912D1*
X44199Y45468D1*
X44610Y45033D1*
X44671Y44971D1*
X45092Y44546D1*
X45522Y44130D1*
X45961Y43723D1*
X46408Y43325D1*
X46475Y43267D1*
X46932Y42880D1*
X47397Y42503D1*
X47870Y42135D1*
X48350Y41777D1*
X48423Y41724D1*
X48912Y41379D1*
X49409Y41043D1*
X49913Y40718D1*
X50423Y40403D1*
X50502Y40356D1*
X51019Y40054D1*
X51544Y39763D1*
X52074Y39483D1*
X52610Y39214D1*
X52694Y39173D1*
X53237Y38917D1*
X53785Y38672D1*
X54338Y38439D1*
X54896Y38217D1*
X54984Y38183D1*
X55547Y37976D1*
X56115Y37780D1*
X56687Y37595D1*
X57262Y37423D1*
X57355Y37397D1*
X57935Y37239D1*
X58518Y37093D1*
X59104Y36959D1*
X59692Y36838D1*
X59789Y36819D1*
X60380Y36712D1*
X60974Y36617D1*
X61570Y36535D1*
X62167Y36465D1*
X62267Y36455D1*
X62866Y36400D1*
X63466Y36357D1*
X64067Y36327D1*
X64669Y36310D1*
X64771Y36308D1*
X65372Y36305D1*
X65974Y36315D1*
X66576Y36338D1*
X67177Y36373D1*
X67281Y36380D1*
X67881Y36430D1*
X68480Y36492D1*
X69078Y36567D1*
X69674Y36655D1*
X69778Y36671D1*
X70372Y36773D1*
X70964Y36888D1*
X71554Y37015D1*
X72140Y37154D1*
X72244Y37180D1*
X72827Y37333D1*
X73407Y37499D1*
X73984Y37677D1*
X74557Y37866D1*
X74659Y37902D1*
X75227Y38106D1*
X75791Y38322D1*
X76350Y38549D1*
X76905Y38788D1*
X77006Y38833D1*
X77554Y39086D1*
X78097Y39350D1*
X78635Y39626D1*
X79166Y39913D1*
X79264Y39967D1*
X79789Y40267D1*
X80307Y40578D1*
X80819Y40899D1*
X81324Y41231D1*
X81419Y41295D1*
X81915Y41640D1*
X82405Y41995D1*
X82887Y42360D1*
X83362Y42735D1*
X83452Y42808D1*
X83917Y43195D1*
X84374Y43591D1*
X84823Y43997D1*
X85263Y44413D1*
X85347Y44494D1*
X85777Y44920D1*
X86198Y45356D1*
X86610Y45800D1*
X87013Y46252D1*
X87091Y46342D1*
X87482Y46804D1*
X87864Y47275D1*
X88236Y47753D1*
X88598Y48239D1*
X88669Y48337D1*
X89019Y48832D1*
X89358Y49334D1*
X89688Y49844D1*
X90006Y50360D1*
X90069Y50465D1*
X90375Y50989D1*
X90669Y51519D1*
X90953Y52056D1*
X91225Y52598D1*
X91280Y52710D1*
X91538Y53258D1*
X91786Y53812D1*
X92022Y54372D1*
X92247Y54938D1*
X92291Y55054D1*
X92502Y55625D1*
X92701Y56199D1*
X92886Y56776D1*
X93060Y57355D1*
X93096Y57481D1*
X93254Y58062D1*
X93401Y58652D1*
X93538Y59252D1*
X93665Y59861D1*
X93686Y59972D1*
X93793Y60554D1*
X93882Y61098D1*
X93964Y61678D1*
X94025Y62186D1*
X94058Y62509D1*
X94104Y63047D1*
X94143Y63654D1*
X94179Y64380D1*
X94207Y65071D1*
X94203Y65465D1*
X94190Y66252D1*
X94171Y66882D1*
X94145Y67433D1*
X94132Y67640D1*
X94090Y68179D1*
X94035Y68733D1*
X93965Y69305D1*
X93881Y69895D1*
X93833Y70195D1*
X93732Y70778D1*
X93614Y71392D1*
X93484Y71997D1*
X93343Y72593D1*
X93312Y72718D1*
X93158Y73303D1*
X92991Y73886D1*
X92812Y74467D1*
X92621Y75046D1*
X92571Y75190D1*
X92364Y75765D1*
X92146Y76336D1*
X91915Y76903D1*
X91673Y77464D1*
X91617Y77590D1*
X91361Y78144D1*
X91094Y78693D1*
X90816Y79237D1*
X90526Y79775D1*
X90456Y79900D1*
X90153Y80431D1*
X89838Y80955D1*
X89513Y81473D1*
X89177Y81984D1*
X89096Y82104D1*
X88747Y82606D1*
X88388Y83101D1*
X88019Y83589D1*
X87640Y84069D1*
X87547Y84183D1*
X87156Y84653D1*
X86755Y85115D1*
X86344Y85569D1*
X85924Y86015D1*
X85821Y86121D1*
X85390Y86556D1*
X84950Y86982D1*
X84501Y87399D1*
X84043Y87806D1*
X83930Y87904D1*
X83463Y88300D1*
X82987Y88686D1*
X82503Y89062D1*
X82011Y89429D1*
X81888Y89518D1*
X81388Y89871D1*
X80880Y90215D1*
X80364Y90547D1*
X79843Y90870D1*
X79711Y90949D1*
X79181Y91257D1*
X78645Y91555D1*
X78102Y91842D1*
X77554Y92118D1*
X77415Y92186D1*
X76859Y92447D1*
X76299Y92698D1*
X75733Y92936D1*
X75162Y93163D1*
X75016Y93219D1*
X74440Y93432D1*
X73859Y93632D1*
X73274Y93821D1*
X72685Y93997D1*
X72533Y94041D1*
X71940Y94202D1*
X71344Y94352D1*
X70744Y94489D1*
X70142Y94613D1*
X69985Y94644D1*
X69380Y94753D1*
X68773Y94850D1*
X68163Y94934D1*
X67552Y95006D1*
X67391Y95023D1*
X66778Y95078D1*
X66165Y95122D1*
X65550Y95153D1*
X64934Y95171D1*
X64771Y95174D1*
X64155Y95176D1*
X63539Y95166D1*
X62924Y95143D1*
X62309Y95108D1*
X62144Y95096D1*
X61530Y95045D1*
X60917Y94981D1*
X60305Y94905D1*
X59695Y94816D1*
X59531Y94790D1*
X58923Y94685D1*
X58318Y94568D1*
X57715Y94438D1*
X57114Y94296D1*
X56951Y94255D1*
X56354Y94098D1*
X55761Y93929D1*
X55171Y93747D1*
X54585Y93553D1*
X54424Y93498D1*
X53844Y93289D1*
X53267Y93068D1*
X52695Y92835D1*
X52128Y92591D1*
X51970Y92521D1*
X51410Y92262D1*
X50854Y91992D1*
X50304Y91710D1*
X49760Y91418D1*
X49608Y91333D1*
X49072Y91026D1*
X48542Y90708D1*
X48018Y90380D1*
X47501Y90040D1*
X47356Y89942D1*
X46848Y89589D1*
X46347Y89226D1*
X45854Y88853D1*
X45368Y88470D1*
X45231Y88358D1*
X44755Y87962D1*
X44288Y87557D1*
X43828Y87141D1*
X43378Y86717D1*
X43249Y86593D1*
X42810Y86156D1*
X42379Y85711D1*
X41958Y85257D1*
X41545Y84795D1*
X41427Y84659D1*
X41027Y84186D1*
X40637Y83705D1*
X40256Y83215D1*
X39885Y82718D1*
X39778Y82571D1*
X39421Y82065D1*
X39074Y81551D1*
X38737Y81030D1*
X38411Y80502D1*
X38316Y80345D1*
X38004Y79809D1*
X37703Y79266D1*
X37413Y78718D1*
X37133Y78163D1*
X37052Y77996D1*
X36788Y77435D1*
X36535Y76868D1*
X36293Y76296D1*
X36063Y75719D1*
X35996Y75544D1*
X35782Y74961D1*
X35579Y74374D1*
X35388Y73783D1*
X35209Y73188D1*
X35157Y73006D1*
X34994Y72406D1*
X34843Y71803D1*
X34705Y71197D1*
X34578Y70589D1*
X34542Y70401D1*
X34432Y69789D1*
X34334Y69175D1*
X34248Y68559D1*
X34175Y67941D1*
X34155Y67749D1*
X34099Y67130D1*
X34055Y66509D1*
X34024Y65888D1*
X34005Y65265D1*
X34001Y65071D1*
X33999Y64449D1*
X34010Y63826D1*
X34032Y63204D1*
X34068Y62582D1*
X34082Y62386D1*
X34134Y61765D1*
X34198Y61146D1*
X34275Y60527D1*
X34365Y59911D1*
X34396Y59715D1*
X34502Y59101D1*
X34620Y58489D1*
X34751Y57879D1*
X34894Y57272D1*
X34943Y57079D1*
X35102Y56476D1*
X35273Y55876D1*
X35457Y55280D1*
X35652Y54687D1*
X35718Y54497D1*
X35929Y53910D1*
X36152Y53327D1*
X36387Y52748D1*
X36634Y52175D1*
X36717Y51989D1*
X36978Y51422D1*
X37252Y50861D1*
X37536Y50305D1*
X37832Y49754D1*
X37931Y49575D1*
X38242Y49033D1*
X38563Y48497D1*
X38895Y47968D1*
X39238Y47445D1*
X39354Y47274D1*
X39710Y46761D1*
X40078Y46254D1*
X40455Y45756D1*
X40842Y45264D1*
X40973Y45103D1*
X41374Y44622D1*
X41784Y44149D1*
X42203Y43685D1*
X42632Y43229D1*
X42778Y43078D1*
X43219Y42634D1*
X43669Y42199D1*
X44128Y41773D1*
X44595Y41356D1*
X44755Y41217D1*
X45233Y40813D1*
X45719Y40418D1*
X46214Y40033D1*
X46716Y39658D1*
X46889Y39533D1*
X47401Y39172D1*
X47920Y38821D1*
X48446Y38480D1*
X48979Y38150D1*
X49164Y38039D1*
X49706Y37724D1*
X50254Y37419D1*
X50808Y37126D1*
X51369Y36844D1*
X51564Y36748D1*
X52131Y36481D1*
X52704Y36226D1*
X53282Y35981D1*
X53866Y35749D1*
X54070Y35670D1*
X54659Y35454D1*
X55252Y35249D1*
X55850Y35056D1*
X56451Y34875D1*
X56663Y34814D1*
X57269Y34649D1*
X57879Y34497D1*
X58491Y34356D1*
X59107Y34228D1*
X59325Y34186D1*
X59943Y34075D1*
X60564Y33976D1*
X61187Y33889D1*
X61811Y33815D1*
X62034Y33792D1*
X62660Y33735D1*
X63288Y33691D1*
X63916Y33659D1*
X64545Y33639D1*
X64771Y33635D1*
X65400Y33633D1*
X66029Y33644D1*
X66658Y33667D1*
X67287Y33702D1*
X67514Y33718D1*
X68141Y33771D1*
X68767Y33836D1*
X69392Y33914D1*
X70016Y34004D1*
X70242Y34040D1*
X70863Y34147D1*
X71482Y34267D1*
X72098Y34399D1*
X72711Y34543D1*
X72936Y34599D1*
X73545Y34760D1*
X74151Y34934D1*
X74754Y35119D1*
X75353Y35316D1*
X75573Y35392D1*
X76166Y35606D1*
X76755Y35831D1*
X77340Y36069D1*
X77920Y36318D1*
X78134Y36413D1*
X78707Y36678D1*
X79274Y36954D1*
X79837Y37241D1*
X80393Y37540D1*
X80600Y37655D1*
X81147Y37968D1*
X81689Y38293D1*
X82224Y38629D1*
X82753Y38975D1*
X82950Y39108D1*
X83469Y39469D1*
X83980Y39840D1*
X84485Y40221D1*
X84981Y40612D1*
X85167Y40763D1*
X85653Y41168D1*
X86131Y41582D1*
X86600Y42006D1*
X87061Y42439D1*
X87235Y42607D1*
X87683Y43053D1*
X88123Y43508D1*
X88554Y43971D1*
X88976Y44443D1*
X89135Y44627D1*
X89544Y45110D1*
X89942Y45602D1*
X90332Y46101D1*
X90711Y46608D1*
X90855Y46807D1*
X91220Y47324D1*
X91574Y47849D1*
X91919Y48381D1*
X92252Y48920D1*
X92379Y49131D1*
X92698Y49679D1*
X93006Y50233D1*
X93303Y50793D1*
X93588Y51359D1*
X93697Y51582D1*
X93967Y52156D1*
X94225Y52735D1*
X94472Y53319D1*
X94708Y53909D1*
X94797Y54142D1*
X95017Y54739D1*
X95224Y55339D1*
X95419Y55941D1*
X95590Y56506D1*
X95671Y56791D1*
X95836Y57398D1*
X95990Y58014D1*
X96133Y58640D1*
X96266Y59275D1*
X96312Y59509D1*
X96430Y60158D1*
X96524Y60741D1*
X96609Y61347D1*
X96675Y61894D1*
X96713Y62276D1*
X96760Y62838D1*
X96801Y63469D1*
X96838Y64214D1*
X96872Y65071D1*
X96868Y65465D1*
X96853Y66292D1*
X96834Y66961D1*
X96807Y67551D1*
X96787Y67872D1*
X96743Y68435D1*
X96685Y69013D1*
X96613Y69608D1*
X96526Y70222D1*
X96457Y70658D1*
X96343Y71309D1*
X96218Y71950D1*
X96083Y72581D1*
X95936Y73204D1*
X95885Y73408D1*
X95724Y74018D1*
X95550Y74626D1*
X95363Y75233D1*
X95165Y75838D1*
X95074Y76100D1*
X94857Y76701D1*
X94629Y77298D1*
X94389Y77889D1*
X94137Y78475D1*
X94031Y78715D1*
X93763Y79293D1*
X93484Y79867D1*
X93194Y80434D1*
X92892Y80997D1*
X92762Y81232D1*
X92445Y81785D1*
X92116Y82332D1*
X91777Y82873D1*
X91427Y83407D1*
X91277Y83631D1*
X90912Y84155D1*
X90537Y84671D1*
X90152Y85181D1*
X89757Y85683D1*
X89586Y85894D1*
X89177Y86384D1*
X88759Y86867D1*
X88330Y87341D1*
X87893Y87807D1*
X87703Y88003D1*
X87253Y88456D1*
X86793Y88901D1*
X86325Y89336D1*
X85848Y89762D1*
X85641Y89943D1*
X85152Y90355D1*
X84655Y90758D1*
X84151Y91151D1*
X83638Y91534D1*
X83414Y91697D1*
X82892Y92065D1*
X82361Y92424D1*
X81824Y92772D1*
X81280Y93109D1*
X81041Y93252D1*
X80488Y93574D1*
X79928Y93885D1*
X79362Y94185D1*
X78790Y94473D1*
X78539Y94596D1*
X77959Y94869D1*
X77374Y95130D1*
X76784Y95379D1*
X76189Y95617D1*
X75925Y95718D1*
X75324Y95939D1*
X74718Y96148D1*
X74108Y96346D1*
X73494Y96531D1*
X73221Y96609D1*
X72603Y96777D1*
X71980Y96933D1*
X71355Y97076D1*
X70727Y97207D1*
X70447Y97262D1*
X69815Y97375D1*
X69182Y97476D1*
X68546Y97564D1*
X67908Y97640D1*
X67623Y97670D1*
X66984Y97728D1*
X66343Y97773D1*
X65702Y97806D1*
X65060Y97826D1*
X64771Y97831D1*
X64129Y97833D1*
X63486Y97823D1*
X62844Y97799D1*
X62202Y97764D1*
X61912Y97743D1*
X61272Y97689D1*
X60633Y97622D1*
X59994Y97543D1*
X59358Y97452D1*
X59069Y97406D1*
X58436Y97296D1*
X57804Y97174D1*
X57175Y97039D1*
X56549Y96892D1*
X56263Y96821D1*
X55641Y96657D1*
X55023Y96480D1*
X54407Y96291D1*
X53796Y96090D1*
X53516Y95993D1*
X52910Y95775D1*
X52309Y95545D1*
X51712Y95303D1*
X51120Y95049D1*
X50848Y94928D1*
X50264Y94657D1*
X49684Y94375D1*
X49111Y94082D1*
X48543Y93778D1*
X48281Y93632D1*
X47722Y93312D1*
X47169Y92980D1*
X46622Y92638D1*
X46083Y92285D1*
X45833Y92117D1*
X45304Y91748D1*
X44782Y91370D1*
X44267Y90981D1*
X43760Y90582D1*
X43525Y90391D1*
X43029Y89978D1*
X42542Y89555D1*
X42063Y89122D1*
X41592Y88681D1*
X41373Y88469D1*
X40915Y88014D1*
X40466Y87550D1*
X40026Y87077D1*
X39595Y86596D1*
X39394Y86364D1*
X38978Y85871D1*
X38571Y85369D1*
X38174Y84859D1*
X37786Y84342D1*
X37605Y84092D1*
X37233Y83564D1*
X36871Y83029D1*
X36520Y82486D1*
X36179Y81936D1*
X36019Y81671D1*
X35694Y81112D1*
X35380Y80546D1*
X35077Y79975D1*
X34785Y79397D1*
X34649Y79117D1*
X34373Y78532D1*
X34110Y77941D1*
X33857Y77345D1*
X33617Y76744D1*
X33505Y76451D1*
X33281Y75843D1*
X33070Y75231D1*
X32871Y74615D1*
X32683Y73995D1*
X32596Y73692D1*
X32427Y73067D1*
X32270Y72439D1*
X32125Y71807D1*
X31992Y71173D1*
X31931Y70861D1*
X31817Y70224D1*
X31715Y69584D1*
X31626Y68941D1*
X31549Y68298D1*
X31515Y67980D1*
X31457Y67335D1*
X31411Y66688D1*
X31378Y66040D1*
X31357Y65392D1*
X31352Y65071D1*
X31350Y64422D1*
X31360Y63774D1*
X31384Y63125D1*
X31420Y62477D1*
X31442Y62155D1*
X31497Y61508D1*
X31564Y60863D1*
X31644Y60218D1*
X31736Y59575D1*
X31787Y59255D1*
X31898Y58615D1*
X32022Y57977D1*
X32157Y57342D1*
X32305Y56709D1*
X32384Y56393D1*
X32551Y55765D1*
X32729Y55140D1*
X32920Y54519D1*
X33123Y53901D1*
X33229Y53591D1*
X33450Y52979D1*
X33683Y52372D1*
X33927Y51769D1*
X34183Y51171D1*
X34317Y50870D1*
X34590Y50280D1*
X34875Y49695D1*
X35171Y49115D1*
X35478Y48541D1*
X35639Y48252D1*
X35963Y47687D1*
X36297Y47129D1*
X36643Y46577D1*
X36999Y46032D1*
X37186Y45756D1*
X37558Y45221D1*
X37940Y44694D1*
X38333Y44174D1*
X38735Y43662D1*
X38946Y43401D1*
X39363Y42901D1*
X39790Y42409D1*
X40227Y41925D1*
X40673Y41449D1*
X40907Y41207D1*
X41367Y40745D1*
X41835Y40292D1*
X42313Y39847D1*
X42799Y39412D1*
X43054Y39190D1*
X43553Y38770D1*
X44059Y38358D1*
X44574Y37957D1*
X45096Y37566D1*
X45371Y37366D1*
X45905Y36990D1*
X46446Y36625D1*
X46994Y36269D1*
X47548Y35925D1*
X47842Y35749D1*
X48406Y35421D1*
X48977Y35104D1*
X49554Y34797D1*
X50137Y34502D1*
X50446Y34352D1*
X51037Y34074D1*
X51634Y33808D1*
X52236Y33553D1*
X52843Y33310D1*
X53165Y33186D1*
X53779Y32961D1*
X54397Y32747D1*
X55019Y32546D1*
X55645Y32356D1*
X55979Y32260D1*
X56610Y32089D1*
X57245Y31931D1*
X57883Y31784D1*
X58523Y31650D1*
X58866Y31583D1*
X59510Y31468D1*
X60156Y31365D1*
X60805Y31274D1*
X61455Y31196D1*
X61804Y31159D1*
X62456Y31100D1*
X63109Y31054D1*
X63763Y31020D1*
X64418Y30999D1*
X64771Y30993D1*
X65426Y30991D1*
X66081Y31002D1*
X66736Y31026D1*
X67390Y31062D1*
X67744Y31086D1*
X68397Y31142D1*
X69049Y31210D1*
X69700Y31290D1*
X70349Y31383D1*
X70701Y31439D1*
X71347Y31551D1*
X71991Y31675D1*
X72633Y31812D1*
X73272Y31962D1*
X73619Y32048D1*
X74253Y32216D1*
X74884Y32397D1*
X75512Y32589D1*
X76136Y32794D1*
X76476Y32911D1*
X77093Y33134D1*
X77707Y33368D1*
X78316Y33615D1*
X78920Y33873D1*
X79250Y34020D1*
X79846Y34296D1*
X80437Y34584D1*
X81022Y34882D1*
X81602Y35192D1*
X81919Y35369D1*
X82489Y35696D1*
X83053Y36034D1*
X83611Y36383D1*
X84161Y36742D1*
X84464Y36946D1*
X85003Y37322D1*
X85536Y37708D1*
X86061Y38104D1*
X86579Y38511D1*
X86864Y38742D1*
X87369Y39163D1*
X87866Y39594D1*
X88355Y40035D1*
X88835Y40485D1*
X89100Y40741D1*
X89567Y41206D1*
X90025Y41679D1*
X90474Y42161D1*
X90913Y42651D1*
X91156Y42931D1*
X91581Y43434D1*
X91996Y43946D1*
X92401Y44465D1*
X92796Y44993D1*
X93015Y45294D1*
X93395Y45833D1*
X93764Y46379D1*
X94122Y46932D1*
X94471Y47492D1*
X94663Y47812D1*
X94994Y48383D1*
X95315Y48959D1*
X95624Y49542D1*
X95922Y50130D1*
X96087Y50468D1*
X96367Y51065D1*
X96636Y51667D1*
X96894Y52275D1*
X97140Y52889D1*
X97275Y53240D1*
X97503Y53861D1*
X97718Y54485D1*
X97921Y55112D1*
X98112Y55741D1*
X98218Y56109D1*
X98388Y56740D1*
X98548Y57381D1*
X98698Y58032D1*
X98837Y58691D1*
X98907Y59052D1*
X99020Y59672D1*
X99126Y60325D1*
X99210Y60910D1*
X99285Y61525D1*
X99339Y62047D1*
X99387Y62631D1*
X99429Y63284D1*
X99467Y64047D1*
X99507Y65071D1*
X99502Y65465D1*
X99486Y66331D1*
X99466Y67040D1*
X99438Y67669D1*
X99411Y68102D1*
X99365Y68687D1*
X99305Y69288D1*
X99230Y69905D1*
X99141Y70541D1*
X99051Y71115D1*
X98932Y71792D1*
X98802Y72459D1*
X98671Y73075D1*
X98519Y73724D1*
X98428Y74090D1*
X98260Y74724D1*
X98080Y75357D1*
X97886Y75988D1*
X97681Y76617D1*
X97548Y77001D1*
X97323Y77626D1*
X97085Y78246D1*
X96836Y78861D1*
X96575Y79471D1*
X96417Y79828D1*
X96138Y80429D1*
X95848Y81025D1*
X95546Y81616D1*
X95234Y82201D1*
X95041Y82548D1*
X94711Y83123D1*
X94370Y83692D1*
X94017Y84255D1*
X93655Y84811D1*
X93433Y85140D1*
X93053Y85685D1*
X92663Y86222D1*
X92263Y86752D1*
X91853Y87275D1*
X91602Y87585D1*
X91176Y88095D1*
X90741Y88597D1*
X90296Y89090D1*
X89842Y89575D1*
X89563Y89864D1*
X89095Y90334D1*
X88617Y90797D1*
X88130Y91250D1*
X87635Y91694D1*
X87331Y91958D1*
X86823Y92386D1*
X86307Y92805D1*
X85782Y93214D1*
X85250Y93614D1*
X84923Y93851D1*
X84379Y94234D1*
X83828Y94607D1*
X83269Y94969D1*
X82704Y95320D1*
X82356Y95530D1*
X81781Y95864D1*
X81199Y96187D1*
X80610Y96499D1*
X80016Y96800D1*
X79650Y96979D1*
X79047Y97262D1*
X78439Y97533D1*
X77825Y97793D1*
X77207Y98042D1*
X76825Y98189D1*
X76199Y98418D1*
X75569Y98635D1*
X74935Y98841D1*
X74297Y99034D1*
X73902Y99148D1*
X73258Y99322D1*
X72612Y99484D1*
X71962Y99633D1*
X71309Y99771D1*
X70903Y99850D1*
X70247Y99967D1*
X69588Y100072D1*
X68927Y100164D1*
X68265Y100244D1*
X67852Y100288D1*
X67187Y100348D1*
X66522Y100395D1*
X65855Y100429D1*
X65188Y100451D1*
X64771Y100459D1*
X64103Y100460D1*
X63436Y100449D1*
X62768Y100425D1*
X62101Y100389D1*
X61683Y100360D1*
X61018Y100303D1*
X60353Y100234D1*
X59690Y100152D1*
X59029Y100058D1*
X58613Y99992D1*
X57955Y99878D1*
X57299Y99751D1*
X56645Y99611D1*
X55994Y99460D1*
X55584Y99358D1*
X54938Y99186D1*
X54295Y99002D1*
X53655Y98806D1*
X53019Y98598D1*
X52618Y98460D1*
X51989Y98233D1*
X51364Y97994D1*
X50744Y97743D1*
X50128Y97480D1*
X49739Y97307D1*
X49132Y97026D1*
X48530Y96733D1*
X47933Y96428D1*
X47343Y96113D1*
X46968Y95906D1*
X46388Y95572D1*
X45813Y95228D1*
X45245Y94872D1*
X44684Y94506D1*
X44328Y94266D1*
X43778Y93883D1*
X43236Y93490D1*
X42701Y93086D1*
X42173Y92673D1*
X41838Y92401D1*
X41324Y91972D1*
X40817Y91532D1*
X40319Y91083D1*
X39829Y90625D1*
X39518Y90324D1*
X39042Y89851D1*
X38576Y89369D1*
X38119Y88878D1*
X37671Y88378D1*
X37385Y88050D1*
X36953Y87537D1*
X36530Y87016D1*
X36117Y86487D1*
X35714Y85950D1*
X35457Y85597D1*
X35071Y85048D1*
X34695Y84491D1*
X34329Y83928D1*
X33974Y83358D1*
X33748Y82982D1*
X33411Y82401D1*
X33085Y81814D1*
X32770Y81220D1*
X32466Y80621D1*
X32272Y80225D1*
X31987Y79617D1*
X31713Y79003D1*
X31451Y78384D1*
X31200Y77760D1*
X31041Y77347D1*
X30810Y76716D1*
X30591Y76081D1*
X30383Y75441D1*
X30187Y74797D1*
X30065Y74370D1*
X29889Y73721D1*
X29726Y73068D1*
X29575Y72413D1*
X29436Y71754D1*
X29351Y71316D1*
X29232Y70654D1*
X29127Y69989D1*
X29033Y69322D1*
X28952Y68654D1*
X28905Y68209D1*
X28845Y67538D1*
X28797Y66866D1*
X28762Y66194D1*
X28740Y65520D1*
X28732Y65071D1*
X28731Y64397D1*
X28742Y63724D1*
X28765Y63050D1*
X28802Y62377D1*
X28833Y61927D1*
X28890Y61255D1*
X28960Y60585D1*
X29043Y59915D1*
X29137Y59248D1*
X29208Y58800D1*
X29324Y58136D1*
X29452Y57474D1*
X29592Y56814D1*
X29745Y56157D1*
X29855Y55715D1*
X30028Y55063D1*
X30214Y54414D1*
X30411Y53769D1*
X30621Y53127D1*
X30769Y52695D1*
X30999Y52061D1*
X31240Y51430D1*
X31493Y50804D1*
X31758Y50183D1*
X31945Y49764D1*
X32229Y49151D1*
X32524Y48544D1*
X32831Y47942D1*
X33149Y47346D1*
X33372Y46943D1*
X33709Y46357D1*
X34056Y45778D1*
X34415Y45204D1*
X34784Y44638D1*
X35042Y44255D1*
X35429Y43700D1*
X35826Y43153D1*
X36233Y42613D1*
X36650Y42080D1*
X36942Y41720D1*
X37375Y41201D1*
X37819Y40690D1*
X38272Y40187D1*
X38734Y39693D1*
X39057Y39357D1*
X39535Y38878D1*
X40021Y38407D1*
X40516Y37946D1*
X41020Y37493D1*
X41373Y37187D1*
X41891Y36750D1*
X42417Y36324D1*
X42950Y35907D1*
X43492Y35500D1*
X43872Y35224D1*
X44425Y34834D1*
X44987Y34455D1*
X45555Y34086D1*
X46131Y33727D1*
X46534Y33485D1*
X47120Y33145D1*
X47713Y32815D1*
X48312Y32497D1*
X48916Y32190D1*
X49341Y31983D1*
X49955Y31695D1*
X50575Y31418D1*
X51199Y31153D1*
X51828Y30900D1*
X52272Y30730D1*
X52908Y30496D1*
X53550Y30275D1*
X54195Y30065D1*
X54845Y29868D1*
X55303Y29736D1*
X55958Y29559D1*
X56616Y29394D1*
X57278Y29242D1*
X57943Y29101D1*
X58412Y29010D1*
X59081Y28890D1*
X59751Y28784D1*
X60424Y28689D1*
X61099Y28607D1*
X61576Y28557D1*
X62253Y28496D1*
X62931Y28448D1*
X63609Y28413D1*
X64289Y28390D1*
X64771Y28381D1*
X65450Y28380D1*
X66130Y28391D1*
X66810Y28415D1*
X67489Y28451D1*
X67972Y28485D1*
X68649Y28543D1*
X69326Y28613D1*
X70001Y28696D1*
X70675Y28791D1*
X71154Y28867D1*
X71825Y28984D1*
X72493Y29113D1*
X73159Y29255D1*
X73822Y29409D1*
X74295Y29526D1*
X74953Y29701D1*
X75607Y29888D1*
X76259Y30088D1*
X76906Y30299D1*
X77369Y30458D1*
X78009Y30689D1*
X78645Y30933D1*
X79277Y31188D1*
X79904Y31455D1*
X80353Y31655D1*
X80971Y31941D1*
X81584Y32240D1*
X82191Y32549D1*
X82793Y32870D1*
X83224Y33109D1*
X83815Y33448D1*
X84400Y33799D1*
X84978Y34160D1*
X85550Y34533D1*
X85960Y34809D1*
X86520Y35199D1*
X87072Y35599D1*
X87617Y36010D1*
X88155Y36431D1*
X88541Y36743D1*
X89064Y37181D1*
X89580Y37628D1*
X90087Y38085D1*
X90586Y38551D1*
X90945Y38897D1*
X91428Y39379D1*
X91903Y39870D1*
X92369Y40369D1*
X92826Y40877D1*
X93154Y41255D1*
X93594Y41777D1*
X94024Y42308D1*
X94445Y42846D1*
X94856Y43392D1*
X95151Y43798D1*
X95544Y44357D1*
X95927Y44924D1*
X96300Y45497D1*
X96661Y46077D1*
X96921Y46509D1*
X97264Y47100D1*
X97596Y47698D1*
X97917Y48302D1*
X98227Y48912D1*
X98449Y49366D1*
X98739Y49985D1*
X99018Y50610D1*
X99286Y51241D1*
X99542Y51876D1*
X99724Y52349D1*
X99960Y52993D1*
X100183Y53640D1*
X100395Y54290D1*
X100593Y54942D1*
X100735Y55434D1*
X100911Y56089D1*
X101077Y56754D1*
X101233Y57427D1*
X101377Y58111D1*
X101473Y58599D1*
X101592Y59258D1*
X101694Y59881D1*
X101788Y60539D1*
X101862Y61125D1*
X101927Y61748D1*
X101934Y61820D1*
X101983Y62426D1*
X102027Y63100D1*
X102066Y63881D1*
X102105Y64887D1*
X102112Y65071D1*
X102106Y65465D1*
X102088Y66410D1*
X102066Y67158D1*
X102038Y67787D1*
X102005Y68329D1*
X101957Y68936D1*
X101895Y69558D1*
X101818Y70197D1*
X101727Y70854D1*
X101621Y71531D1*
X101615Y71568D1*
X101499Y72227D1*
X101365Y72920D1*
X101220Y73603D1*
X101064Y74276D1*
X100943Y74763D1*
X100768Y75421D1*
X100581Y76077D1*
X100381Y76731D1*
X100169Y77383D1*
X99994Y77891D1*
X99760Y78539D1*
X99514Y79182D1*
X99256Y79820D1*
X98986Y80453D1*
X98775Y80927D1*
X98486Y81550D1*
X98185Y82168D1*
X97873Y82781D1*
X97550Y83388D1*
X97295Y83849D1*
X96952Y84445D1*
X96598Y85035D1*
X96234Y85618D1*
X95858Y86195D1*
X95564Y86632D1*
X95170Y87197D1*
X94766Y87754D1*
X94352Y88304D1*
X93928Y88846D1*
X93595Y89257D1*
X93153Y89785D1*
X92702Y90305D1*
X92241Y90817D1*
X91771Y91320D1*
X91402Y91703D1*
X90916Y92190D1*
X90421Y92669D1*
X89917Y93139D1*
X89405Y93600D1*
X89003Y93950D1*
X88476Y94393D1*
X87941Y94828D1*
X87397Y95252D1*
X86847Y95667D1*
X86414Y95981D1*
X85850Y96377D1*
X85279Y96763D1*
X84701Y97139D1*
X84115Y97504D1*
X83656Y97781D1*
X83059Y98127D1*
X82456Y98462D1*
X81847Y98786D1*
X81232Y99098D1*
X80748Y99335D1*
X80123Y99627D1*
X79493Y99909D1*
X78858Y100178D1*
X78217Y100437D1*
X77713Y100630D1*
X77065Y100868D1*
X76412Y101093D1*
X75756Y101306D1*
X75095Y101508D1*
X74574Y101658D1*
X73907Y101837D1*
X73237Y102005D1*
X72564Y102161D1*
X71888Y102304D1*
X71354Y102408D1*
X70674Y102529D1*
X69992Y102638D1*
X69307Y102734D1*
X68621Y102818D1*
X68078Y102875D1*
X67390Y102937D1*
X66700Y102986D1*
X66009Y103022D1*
X65318Y103046D1*
X64771Y103056D1*
X64079Y103057D1*
X63387Y103045D1*
X62696Y103021D1*
X62005Y102985D1*
X61457Y102947D1*
X60768Y102887D1*
X60079Y102816D1*
X59392Y102731D1*
X58707Y102635D1*
X58162Y102549D1*
X57480Y102430D1*
X56801Y102298D1*
X56123Y102154D1*
X55448Y101998D1*
X54912Y101865D1*
X54243Y101687D1*
X53577Y101496D1*
X52914Y101294D1*
X52255Y101079D1*
X51730Y100899D1*
X51079Y100663D1*
X50432Y100415D1*
X49789Y100156D1*
X49151Y99885D1*
X48642Y99659D1*
X48014Y99367D1*
X47390Y99063D1*
X46772Y98749D1*
X46160Y98423D1*
X45671Y98152D1*
X45070Y97807D1*
X44475Y97450D1*
X43886Y97082D1*
X43305Y96704D1*
X42840Y96391D1*
X42271Y95994D1*
X41709Y95587D1*
X41155Y95169D1*
X40608Y94741D1*
X40171Y94388D1*
X39638Y93943D1*
X39114Y93488D1*
X38598Y93023D1*
X38090Y92549D1*
X37684Y92158D1*
X37192Y91667D1*
X36709Y91168D1*
X36235Y90660D1*
X35770Y90143D1*
X35399Y89717D1*
X34952Y89185D1*
X34514Y88646D1*
X34085Y88098D1*
X33667Y87542D1*
X33333Y87084D1*
X32934Y86515D1*
X32544Y85939D1*
X32165Y85355D1*
X31797Y84765D1*
X31504Y84278D1*
X31155Y83676D1*
X30817Y83068D1*
X30490Y82454D1*
X30174Y81833D1*
X29924Y81320D1*
X29629Y80690D1*
X29345Y80055D1*
X29073Y79414D1*
X28812Y78768D1*
X28607Y78234D1*
X28367Y77580D1*
X28140Y76922D1*
X27925Y76259D1*
X27721Y75593D1*
X27562Y75041D1*
X27381Y74369D1*
X27212Y73693D1*
X27055Y73014D1*
X26910Y72332D1*
X26800Y71766D1*
X26678Y71080D1*
X26568Y70392D1*
X26471Y69702D1*
X26386Y69010D1*
X26325Y68435D1*
X26263Y67740D1*
X26214Y67045D1*
X26177Y66348D1*
X26153Y65651D1*
X26143Y65071D1*
X26142Y64374D1*
X26153Y63676D1*
X26177Y62979D1*
X26214Y62282D1*
X26254Y61701D1*
X26314Y61006D1*
X26386Y60312D1*
X26471Y59619D1*
X26568Y58928D1*
X26659Y58351D1*
X26779Y57663D1*
X26912Y56978D1*
X27057Y56294D1*
X27214Y55614D1*
X27355Y55046D1*
X27535Y54371D1*
X27727Y53699D1*
X27931Y53031D1*
X28147Y52366D1*
X28338Y51810D1*
X28576Y51154D1*
X28826Y50501D1*
X29087Y49853D1*
X29360Y49209D1*
X29600Y48670D1*
X29894Y48037D1*
X30200Y47408D1*
X30517Y46784D1*
X30846Y46167D1*
X31132Y45650D1*
X31481Y45044D1*
X31840Y44444D1*
X32211Y43850D1*
X32592Y43263D1*
X32923Y42771D1*
X33324Y42198D1*
X33735Y41631D1*
X34156Y41072D1*
X34587Y40520D1*
X34961Y40057D1*
X35410Y39521D1*
X35869Y38992D1*
X36337Y38471D1*
X36815Y37959D1*
X37229Y37529D1*
X37723Y37033D1*
X38227Y36546D1*
X38739Y36068D1*
X39260Y35599D1*
X39711Y35206D1*
X40247Y34755D1*
X40791Y34313D1*
X41344Y33882D1*
X41904Y33460D1*
X42389Y33107D1*
X42963Y32704D1*
X43543Y32311D1*
X44131Y31929D1*
X44726Y31557D1*
X45242Y31246D1*
X45849Y30895D1*
X46462Y30554D1*
X47081Y30225D1*
X47707Y29906D1*
X48249Y29641D1*
X48885Y29343D1*
X49526Y29057D1*
X50172Y28783D1*
X50823Y28520D1*
X51388Y28302D1*
X52047Y28061D1*
X52711Y27832D1*
X53379Y27614D1*
X54050Y27409D1*
X54634Y27241D1*
X55312Y27058D1*
X55994Y26888D1*
X56678Y26729D1*
X57366Y26583D1*
X57964Y26466D1*
X58655Y26343D1*
X59349Y26233D1*
X60045Y26134D1*
X60743Y26049D1*
X61351Y25984D1*
X62051Y25922D1*
X62752Y25872D1*
X63455Y25835D1*
X64158Y25810D1*
X64771Y25799D1*
X65474Y25798D1*
X66177Y25810D1*
X66880Y25834D1*
X67583Y25871D1*
X68197Y25913D1*
X68897Y25973D1*
X69597Y26046D1*
X70296Y26132D1*
X70993Y26230D1*
X71603Y26326D1*
X72296Y26447D1*
X72987Y26580D1*
X73676Y26726D1*
X74362Y26885D1*
X74963Y27034D1*
X75643Y27215D1*
X76320Y27409D1*
X76994Y27614D1*
X77664Y27832D1*
X78251Y28033D1*
X78914Y28273D1*
X79572Y28525D1*
X80225Y28789D1*
X80874Y29064D1*
X81443Y29317D1*
X82082Y29614D1*
X82716Y29922D1*
X83345Y30242D1*
X83968Y30573D1*
X84514Y30875D1*
X85125Y31227D1*
X85730Y31589D1*
X86328Y31963D1*
X86920Y32347D1*
X87440Y32696D1*
X88018Y33100D1*
X88589Y33514D1*
X89153Y33939D1*
X89710Y34373D1*
X90198Y34768D1*
X90739Y35221D1*
X91272Y35683D1*
X91798Y36156D1*
X92314Y36637D1*
X92768Y37074D1*
X93267Y37573D1*
X93759Y38080D1*
X94241Y38597D1*
X94714Y39122D1*
X95128Y39598D1*
X95583Y40138D1*
X96029Y40687D1*
X96464Y41244D1*
X96890Y41808D1*
X97262Y42320D1*
X97668Y42898D1*
X98064Y43484D1*
X98450Y44077D1*
X98825Y44676D1*
X99153Y45221D1*
X99507Y45832D1*
X99850Y46451D1*
X100183Y47075D1*
X100504Y47705D1*
X100784Y48278D1*
X101084Y48918D1*
X101372Y49564D1*
X101649Y50216D1*
X101915Y50873D1*
X102144Y51468D1*
X102375Y52097D1*
X102607Y52766D1*
X102826Y53437D1*
X103033Y54111D1*
X103222Y54768D1*
X103404Y55445D1*
X103576Y56132D1*
X103737Y56828D1*
X103888Y57534D1*
X104009Y58152D1*
X104139Y58876D1*
X104252Y59575D1*
X104341Y60199D1*
X104423Y60861D1*
X104490Y61505D1*
X104498Y61595D1*
X104550Y62222D1*
X104594Y62916D1*
X104634Y63715D1*
X104674Y64723D1*
X104686Y65071D1*
X104680Y65465D1*
X104661Y66449D1*
X104638Y67237D1*
X104609Y67905D1*
X104571Y68534D1*
X104569Y68553D1*
X104519Y69181D1*
X104455Y69823D1*
X104376Y70483D1*
X104283Y71160D1*
X104175Y71857D1*
X104149Y72014D1*
X104021Y72739D1*
X103882Y73455D1*
X103732Y74161D1*
X103581Y74813D1*
X103428Y75429D1*
X103247Y76109D1*
X103054Y76787D1*
X102848Y77463D1*
X102629Y78138D1*
X102412Y78771D1*
X102169Y79440D1*
X101914Y80105D1*
X101648Y80765D1*
X101371Y81419D1*
X101106Y82015D1*
X100807Y82658D1*
X100496Y83297D1*
X100174Y83931D1*
X99841Y84558D1*
X99522Y85135D1*
X99167Y85751D1*
X98802Y86361D1*
X98425Y86964D1*
X98038Y87561D1*
X97670Y88107D1*
X97263Y88690D1*
X96845Y89266D1*
X96417Y89835D1*
X95980Y90396D1*
X95564Y90910D1*
X95107Y91455D1*
X94641Y91993D1*
X94165Y92522D1*
X93680Y93043D1*
X93220Y93520D1*
X92717Y94024D1*
X92206Y94519D1*
X91685Y95005D1*
X91156Y95482D1*
X90655Y95918D1*
X90110Y96377D1*
X89557Y96826D1*
X88996Y97265D1*
X88427Y97694D1*
X87888Y98086D1*
X87305Y98495D1*
X86715Y98894D1*
X86117Y99283D1*
X85513Y99661D1*
X84940Y100006D1*
X84324Y100363D1*
X83700Y100709D1*
X83071Y101044D1*
X82436Y101368D1*
X81834Y101663D1*
X81188Y101965D1*
X80537Y102256D1*
X79880Y102535D1*
X79219Y102802D1*
X78592Y103044D1*
X77922Y103289D1*
X77247Y103522D1*
X76569Y103743D1*
X75886Y103952D1*
X75239Y104138D1*
X74550Y104324D1*
X73857Y104497D1*
X73162Y104658D1*
X72463Y104807D1*
X71800Y104936D1*
X71097Y105061D1*
X70392Y105174D1*
X69685Y105274D1*
X68976Y105361D1*
X68302Y105433D1*
X67591Y105496D1*
X66878Y105546D1*
X66164Y105584D1*
X65450Y105610D1*
X64771Y105622D1*
X64056Y105623D1*
X63342Y105611D1*
X62627Y105587D1*
X61913Y105550D1*
X61233Y105503D1*
X60521Y105442D1*
X59810Y105368D1*
X59100Y105281D1*
X58391Y105182D1*
X57717Y105076D1*
X57012Y104952D1*
X56310Y104817D1*
X55610Y104668D1*
X54913Y104508D1*
X54248Y104343D1*
X53557Y104158D1*
X52868Y103962D1*
X52184Y103753D1*
X51503Y103532D1*
X50853Y103309D1*
X50180Y103065D1*
X49511Y102809D1*
X48847Y102542D1*
X48188Y102262D1*
X47558Y101983D1*
X46909Y101681D1*
X46265Y101368D1*
X45626Y101043D1*
X44993Y100707D1*
X44389Y100373D1*
X43768Y100015D1*
X43154Y99647D1*
X42545Y99268D1*
X41944Y98878D1*
X41370Y98491D1*
X40782Y98081D1*
X40202Y97660D1*
X39629Y97229D1*
X39063Y96788D1*
X38523Y96351D1*
X37973Y95891D1*
X37432Y95421D1*
X36898Y94942D1*
X36373Y94453D1*
X35872Y93970D1*
X35364Y93463D1*
X34865Y92948D1*
X34375Y92423D1*
X33894Y91890D1*
X33436Y91364D1*
X32974Y90815D1*
X32522Y90257D1*
X32079Y89692D1*
X31647Y89119D1*
X31235Y88553D1*
X30822Y87965D1*
X30420Y87370D1*
X30028Y86768D1*
X29647Y86159D1*
X29285Y85559D1*
X28925Y84937D1*
X28576Y84309D1*
X28238Y83675D1*
X27912Y83035D1*
X27603Y82403D1*
X27298Y81752D1*
X27005Y81095D1*
X26724Y80434D1*
X26454Y79767D1*
X26200Y79109D1*
X25954Y78434D1*
X25719Y77755D1*
X25496Y77071D1*
X25285Y76383D1*
X25089Y75704D1*
X24902Y75009D1*
X24728Y74311D1*
X24565Y73610D1*
X24415Y72906D1*
X24279Y72211D1*
X24153Y71502D1*
X24040Y70792D1*
X23939Y70079D1*
X23850Y69364D1*
X23775Y68658D1*
X23712Y67941D1*
X23661Y67222D1*
X23623Y66503D1*
X23597Y65783D1*
X23584Y65071D1*
X23583Y64351D1*
X23595Y63631D1*
X23619Y62910D1*
X23656Y62191D1*
X23705Y61478D1*
X23767Y60760D1*
X23842Y60044D1*
X23929Y59328D1*
X24028Y58614D1*
X24140Y57907D1*
X24264Y57197D1*
X24401Y56489D1*
X24550Y55783D1*
X24712Y55080D1*
X24885Y54384D1*
X25070Y53687D1*
X25269Y52993D1*
X25479Y52303D1*
X25701Y51617D1*
X25935Y50936D1*
X26181Y50258D1*
X26439Y49584D1*
X26708Y48914D1*
X26990Y48249D1*
X27282Y47590D1*
X27587Y46936D1*
X27902Y46286D1*
X28230Y45643D1*
X28568Y45005D1*
X28918Y44371D1*
X29278Y43746D1*
X29650Y43126D1*
X30032Y42513D1*
X30425Y41907D1*
X30830Y41305D1*
X31243Y40713D1*
X31667Y40128D1*
X32102Y39550D1*
X32546Y38980D1*
X33000Y38418D1*
X33003Y38415D1*
X33467Y37861D1*
X33940Y37315D1*
X34424Y36777D1*
X34916Y36247D1*
X35418Y35727D1*
X35422Y35722D1*
X35933Y35211D1*
X36452Y34708D1*
X36981Y34214D1*
X37518Y33729D1*
X38063Y33254D1*
X38069Y33249D1*
X38623Y32784D1*
X39184Y32328D1*
X39754Y31882D1*
X40331Y31445D1*
X40916Y31019D1*
X40924Y31014D1*
X41516Y30598D1*
X42116Y30193D1*
X42722Y29798D1*
X43336Y29414D1*
X43956Y29040D1*
X43965Y29035D1*
X44592Y28672D1*
X45224Y28320D1*
X45864Y27980D1*
X46509Y27650D1*
X47159Y27332D1*
X47170Y27326D1*
X47826Y27020D1*
X48488Y26724D1*
X49154Y26441D1*
X49826Y26168D1*
X50502Y25908D1*
X50515Y25903D1*
X51195Y25654D1*
X51880Y25418D1*
X52569Y25193D1*
X53262Y24980D1*
X53959Y24779D1*
X53974Y24775D1*
X54673Y24587D1*
X55377Y24411D1*
X56083Y24247D1*
X56792Y24095D1*
X57504Y23956D1*
X57520Y23953D1*
X58234Y23826D1*
X58951Y23712D1*
X59669Y23610D1*
X60389Y23521D1*
X61110Y23444D1*
X61129Y23442D1*
X61851Y23378D1*
X62575Y23327D1*
X63300Y23288D1*
X64025Y23262D1*
X64751Y23248D1*
X64771D1*
X65496Y23247D1*
X66222Y23259D1*
X66948Y23283D1*
X67673Y23320D1*
X68397Y23370D1*
X68419Y23372D1*
X69142Y23434D1*
X69864Y23509D1*
X70586Y23597D1*
X71305Y23697D1*
X72023Y23810D1*
X72045Y23814D1*
X72761Y23939D1*
X73474Y24077D1*
X74185Y24227D1*
X74894Y24390D1*
X75599Y24564D1*
X75623Y24571D1*
X76325Y24758D1*
X77024Y24957D1*
X77719Y25169D1*
X78411Y25393D1*
X79099Y25629D1*
X79123Y25637D1*
X79807Y25885D1*
X80486Y26145D1*
X81160Y26417D1*
X81830Y26700D1*
X82495Y26995D1*
X82521Y27006D1*
X83180Y27313D1*
X83834Y27631D1*
X84483Y27961D1*
X85126Y28301D1*
X85763Y28653D1*
X85788Y28667D1*
X86419Y29031D1*
X87043Y29405D1*
X87661Y29790D1*
X88272Y30185D1*
X88876Y30591D1*
X88901Y30609D1*
X89498Y31026D1*
X90087Y31453D1*
X90670Y31890D1*
X91244Y32338D1*
X91811Y32795D1*
X91836Y32816D1*
X92394Y33284D1*
X92944Y33761D1*
X93486Y34248D1*
X94020Y34744D1*
X94545Y35249D1*
X94569Y35273D1*
X95085Y35787D1*
X95591Y36311D1*
X96089Y36843D1*
X96578Y37384D1*
X97057Y37933D1*
X97080Y37960D1*
X97549Y38518D1*
X98008Y39084D1*
X98458Y39658D1*
X98897Y40240D1*
X99327Y40829D1*
X99349Y40859D1*
X99767Y41456D1*
X100176Y42060D1*
X100574Y42671D1*
X100961Y43290D1*
X101338Y43914D1*
X101358Y43947D1*
X101723Y44579D1*
X102078Y45216D1*
X102421Y45860D1*
X102753Y46510D1*
X103074Y47165D1*
X103092Y47202D1*
X103400Y47862D1*
X103698Y48529D1*
X103984Y49201D1*
X104259Y49878D1*
X104522Y50560D1*
X104536Y50597D1*
X104787Y51285D1*
X105026Y51975D1*
X105252Y52668D1*
X105466Y53363D1*
X105667Y54060D1*
X105681Y54109D1*
X105868Y54808D1*
X106045Y55516D1*
X106212Y56233D1*
X106368Y56960D1*
X106513Y57697D1*
X106515Y57710D1*
X106641Y58408D1*
X106758Y59132D1*
X106854Y59795D1*
X106940Y60480D1*
X107008Y61106D1*
X107033Y61373D1*
X107086Y62020D1*
X107131Y62733D1*
X107172Y63549D1*
X107212Y64561D1*
X107230Y65071D1*
X107224Y65465D1*
X107204Y66489D1*
X107179Y67315D1*
X107149Y68023D1*
X107112Y68652D1*
X107103Y68775D1*
X107051Y69422D1*
X106985Y70084D1*
X106905Y70763D1*
X106810Y71460D1*
X106700Y72176D1*
X106654Y72456D1*
X106521Y73204D1*
X106386Y73900D1*
X106232Y74629D1*
X106067Y75349D1*
X105891Y76059D1*
X105884Y76087D1*
X105697Y76788D1*
X105498Y77487D1*
X105286Y78185D1*
X105061Y78880D1*
X104824Y79574D1*
X104800Y79641D1*
X104550Y80331D1*
X104287Y81016D1*
X104014Y81697D1*
X103728Y82372D1*
X103431Y83042D1*
X103410Y83089D1*
X103101Y83753D1*
X102781Y84411D1*
X102449Y85065D1*
X102106Y85713D1*
X101752Y86354D1*
X101723Y86405D1*
X101357Y87040D1*
X100980Y87669D1*
X100592Y88292D1*
X100193Y88908D1*
X99784Y89516D1*
X99751Y89565D1*
X99331Y90166D1*
X98901Y90759D1*
X98460Y91346D1*
X98009Y91925D1*
X97549Y92496D1*
X97510Y92543D1*
X97039Y93105D1*
X96558Y93659D1*
X96068Y94205D1*
X95568Y94743D1*
X95059Y95272D1*
X95016Y95316D1*
X94498Y95836D1*
X93970Y96346D1*
X93434Y96848D1*
X92889Y97340D1*
X92336Y97823D1*
X92287Y97864D1*
X91725Y98336D1*
X91155Y98799D1*
X90577Y99252D1*
X89991Y99695D1*
X89397Y100128D1*
X89345Y100166D1*
X88743Y100588D1*
X88135Y100999D1*
X87519Y101400D1*
X86896Y101791D1*
X86267Y102171D1*
X86210Y102204D1*
X85574Y102572D1*
X84931Y102929D1*
X84283Y103275D1*
X83628Y103610D1*
X82968Y103934D1*
X82907Y103963D1*
X82241Y104274D1*
X81569Y104574D1*
X80893Y104863D1*
X80211Y105139D1*
X79525Y105404D1*
X79460Y105429D1*
X78769Y105681D1*
X78074Y105921D1*
X77374Y106149D1*
X76671Y106366D1*
X75964Y106570D1*
X75895Y106589D1*
X75185Y106780D1*
X74471Y106959D1*
X73754Y107125D1*
X73034Y107280D1*
X72312Y107422D1*
X72241Y107435D1*
X71516Y107563D1*
X70789Y107679D1*
X70060Y107783D1*
X69329Y107874D1*
X68597Y107953D1*
X68523Y107960D1*
X67790Y108024D1*
X67055Y108077D1*
X66319Y108116D1*
X65583Y108143D1*
X64847Y108158D1*
X64771D1*
X64034Y108159D1*
X63298Y108147D1*
X62561Y108122D1*
X61825Y108085D1*
X61090Y108035D1*
X61012Y108029D1*
X60278Y107966D1*
X59545Y107889D1*
X58813Y107801D1*
X58083Y107699D1*
X57354Y107586D1*
X57277Y107573D1*
X56551Y107445D1*
X55827Y107305D1*
X55105Y107153D1*
X54386Y106988D1*
X53670Y106812D1*
X53592Y106791D1*
X52879Y106601D1*
X52170Y106399D1*
X51464Y106184D1*
X50762Y105957D1*
X50064Y105719D1*
X49986Y105691D1*
X49293Y105439D1*
X48604Y105176D1*
X47919Y104900D1*
X47239Y104613D1*
X46564Y104314D1*
X46487Y104280D1*
X45818Y103968D1*
X45154Y103645D1*
X44496Y103311D1*
X43843Y102966D1*
X43196Y102609D1*
X43122Y102567D1*
X42483Y102199D1*
X41849Y101819D1*
X41222Y101428D1*
X40602Y101027D1*
X39988Y100615D1*
X39917Y100566D1*
X39311Y100143D1*
X38713Y99710D1*
X38122Y99266D1*
X37539Y98812D1*
X36963Y98348D1*
X36895Y98292D1*
X36329Y97817D1*
X35770Y97333D1*
X35220Y96839D1*
X34678Y96336D1*
X34145Y95824D1*
X34081Y95761D1*
X33558Y95238D1*
X33044Y94707D1*
X32538Y94167D1*
X32042Y93618D1*
X31556Y93061D1*
X31496Y92991D1*
X31021Y92425D1*
X30554Y91851D1*
X30098Y91269D1*
X29651Y90678D1*
X29215Y90081D1*
X29161Y90005D1*
X28736Y89400D1*
X28322Y88786D1*
X27918Y88166D1*
X27524Y87539D1*
X27141Y86906D1*
X27093Y86824D1*
X26723Y86184D1*
X26363Y85536D1*
X26014Y84883D1*
X25677Y84224D1*
X25350Y83559D1*
X25309Y83472D1*
X24995Y82802D1*
X24693Y82125D1*
X24403Y81444D1*
X24124Y80757D1*
X23857Y80066D1*
X23822Y79975D1*
X23569Y79279D1*
X23327Y78579D1*
X23096Y77874D1*
X22878Y77166D1*
X22672Y76454D1*
X22646Y76358D1*
X22453Y75643D1*
X22273Y74924D1*
X22105Y74202D1*
X21950Y73477D1*
X21806Y72749D1*
X21788Y72650D1*
X21658Y71920D1*
X21542Y71188D1*
X21437Y70453D1*
X21345Y69717D1*
X21266Y68980D1*
X21256Y68878D1*
X21191Y68139D1*
X21138Y67399D1*
X21098Y66658D1*
X21071Y65917D1*
X21056Y65175D1*
X21055Y65071D1*
X21054Y64329D1*
X21066Y63587D1*
X21091Y62845D1*
X21128Y62104D1*
X21178Y61363D1*
X21186Y61258D1*
X21251Y60518D1*
X21327Y59780D1*
X21417Y59043D1*
X21518Y58307D1*
X21633Y57573D1*
X21650Y57468D1*
X21779Y56736D1*
X21920Y56007D1*
X22073Y55280D1*
X22238Y54556D1*
X22416Y53835D1*
X22443Y53729D1*
X22635Y53012D1*
X22839Y52297D1*
X23055Y51586D1*
X23283Y50879D1*
X23523Y50175D1*
X23560Y50071D1*
X23814Y49373D1*
X24079Y48679D1*
X24357Y47989D1*
X24646Y47304D1*
X24946Y46624D1*
X24992Y46522D1*
X25306Y45848D1*
X25631Y45179D1*
X25968Y44516D1*
X26316Y43859D1*
X26675Y43207D1*
X26730Y43108D1*
X27102Y42464D1*
X27484Y41826D1*
X27877Y41194D1*
X28281Y40569D1*
X28696Y39951D1*
X28761Y39856D1*
X29187Y39247D1*
X29624Y38644D1*
X30071Y38049D1*
X30528Y37461D1*
X30994Y36881D1*
X31068Y36791D1*
X31546Y36221D1*
X32034Y35659D1*
X32532Y35104D1*
X33038Y34558D1*
X33554Y34021D1*
X33637Y33937D1*
X34163Y33410D1*
X34698Y32892D1*
X35242Y32383D1*
X35795Y31883D1*
X36355Y31393D1*
X36446Y31315D1*
X37017Y30836D1*
X37595Y30366D1*
X38182Y29907D1*
X38776Y29457D1*
X39377Y29017D1*
X39476Y28946D1*
X40086Y28519D1*
X40704Y28101D1*
X41328Y27694D1*
X41960Y27297D1*
X42598Y26912D1*
X42703Y26849D1*
X43349Y26476D1*
X44000Y26114D1*
X44658Y25762D1*
X45322Y25422D1*
X45992Y25093D1*
X46104Y25040D1*
X46779Y24724D1*
X47461Y24420D1*
X48147Y24127D1*
X48838Y23846D1*
X49534Y23576D1*
X49652Y23532D1*
X50353Y23277D1*
X51058Y23033D1*
X51768Y22801D1*
X52481Y22581D1*
X53198Y22373D1*
X53321Y22339D1*
X54041Y22145D1*
X54766Y21964D1*
X55493Y21794D1*
X56223Y21637D1*
X56956Y21493D1*
X57083Y21469D1*
X57818Y21339D1*
X58555Y21221D1*
X59295Y21116D1*
X60036Y21023D1*
X60779Y20943D1*
X60909Y20930D1*
X61653Y20865D1*
X62398Y20812D1*
X63144Y20771D1*
X63891Y20743D1*
X64639Y20728D1*
X64771Y20727D1*
X65518Y20726D1*
X66265Y20738D1*
X67012Y20763D1*
X67759Y20800D1*
X68505Y20850D1*
X68639Y20861D1*
X69383Y20925D1*
X70127Y21003D1*
X70870Y21092D1*
X71611Y21195D1*
X72350Y21309D1*
X72483Y21332D1*
X73220Y21461D1*
X73954Y21603D1*
X74686Y21757D1*
X75377Y21915D1*
X76104Y22093D1*
X76275Y22136D1*
X76998Y22330D1*
X77717Y22535D1*
X78433Y22753D1*
X79146Y22982D1*
X79854Y23224D1*
X79985Y23270D1*
X80689Y23525D1*
X81388Y23793D1*
X82083Y24072D1*
X82773Y24363D1*
X83458Y24665D1*
X83585Y24723D1*
X84264Y25039D1*
X84937Y25367D1*
X85606Y25705D1*
X86268Y26056D1*
X86924Y26417D1*
X87048Y26486D1*
X87696Y26860D1*
X88339Y27245D1*
X88975Y27641D1*
X89605Y28048D1*
X90228Y28465D1*
X90346Y28546D1*
X90960Y28975D1*
X91567Y29415D1*
X92166Y29865D1*
X92758Y30325D1*
X93342Y30795D1*
X93454Y30887D1*
X94029Y31369D1*
X94595Y31860D1*
X95153Y32361D1*
X95703Y32871D1*
X96244Y33390D1*
X96349Y33493D1*
X96880Y34023D1*
X97401Y34561D1*
X97914Y35109D1*
X98418Y35666D1*
X98912Y36230D1*
X99008Y36343D1*
X99490Y36917D1*
X99963Y37500D1*
X100427Y38090D1*
X100880Y38688D1*
X101323Y39294D1*
X101410Y39416D1*
X101841Y40030D1*
X102261Y40652D1*
X102671Y41281D1*
X103071Y41917D1*
X103460Y42559D1*
X103537Y42689D1*
X103913Y43339D1*
X104278Y43996D1*
X104631Y44658D1*
X104974Y45326D1*
X105305Y46000D1*
X105372Y46138D1*
X105689Y46818D1*
X105996Y47504D1*
X106291Y48196D1*
X106574Y48893D1*
X106846Y49595D1*
X106900Y49737D1*
X107158Y50445D1*
X107404Y51155D1*
X107637Y51868D1*
X107846Y52546D1*
X108055Y53263D1*
X108110Y53458D1*
X108303Y54177D1*
X108485Y54906D1*
X108657Y55644D1*
X108818Y56392D1*
X108968Y57148D1*
X108991Y57274D1*
X109129Y58042D1*
X109242Y58742D1*
X109347Y59466D1*
X109431Y60130D1*
X109506Y60819D1*
X109538Y61154D1*
X109591Y61820D1*
X109638Y62552D1*
X109680Y63384D1*
X109720Y64403D1*
X109743Y65071D1*
X109737Y65465D1*
X109716Y66528D1*
X109690Y67394D1*
X109658Y68141D1*
X109619Y68809D1*
X109607Y68994D1*
X109553Y69660D1*
X109485Y70341D1*
X109403Y71039D1*
X109306Y71754D1*
X109195Y72489D1*
X109128Y72892D1*
X108992Y73662D1*
X108844Y74422D1*
X108685Y75172D1*
X108515Y75913D1*
X108346Y76601D1*
X108311Y76738D1*
X108118Y77459D1*
X107913Y78178D1*
X107695Y78896D1*
X107465Y79612D1*
X107222Y80325D1*
X107161Y80500D1*
X106903Y81210D1*
X106633Y81915D1*
X106351Y82616D1*
X106058Y83311D1*
X105754Y84001D1*
X105686Y84150D1*
X105368Y84833D1*
X105038Y85511D1*
X104697Y86184D1*
X104345Y86851D1*
X103982Y87512D1*
X103897Y87661D1*
X103521Y88314D1*
X103133Y88961D1*
X102734Y89602D1*
X102325Y90236D1*
X101905Y90863D1*
X101808Y91005D1*
X101376Y91623D1*
X100933Y92234D1*
X100479Y92838D1*
X100016Y93434D1*
X99543Y94022D1*
X99433Y94156D1*
X98948Y94735D1*
X98454Y95305D1*
X97949Y95867D1*
X97436Y96421D1*
X96913Y96966D1*
X96791Y97091D1*
X96257Y97625D1*
X95714Y98150D1*
X95163Y98667D1*
X94603Y99174D1*
X94034Y99672D1*
X93900Y99786D1*
X93322Y100272D1*
X92735Y100748D1*
X92141Y101215D1*
X91538Y101671D1*
X90928Y102118D1*
X90784Y102221D1*
X90165Y102655D1*
X89539Y103078D1*
X88905Y103491D1*
X88265Y103894D1*
X87619Y104286D1*
X87464Y104377D1*
X86810Y104755D1*
X86149Y105123D1*
X85481Y105479D1*
X84808Y105824D1*
X84130Y106158D1*
X83967Y106236D1*
X83281Y106556D1*
X82591Y106865D1*
X81895Y107162D1*
X81194Y107447D1*
X80488Y107721D1*
X80317Y107785D1*
X79607Y108044D1*
X78891Y108291D1*
X78172Y108527D1*
X77449Y108750D1*
X76722Y108961D1*
X76544Y109011D1*
X75814Y109207D1*
X75079Y109391D1*
X74342Y109563D1*
X73601Y109723D1*
X72859Y109870D1*
X72676Y109904D1*
X71930Y110036D1*
X71183Y110155D1*
X70433Y110262D1*
X69681Y110356D1*
X68928Y110438D1*
X68741Y110457D1*
X67987Y110523D1*
X67231Y110577D1*
X66475Y110618D1*
X65717Y110646D1*
X64960Y110663D1*
X64771Y110665D1*
X64013D1*
X63255Y110652D1*
X62498Y110628D1*
X61740Y110590D1*
X60984Y110540D1*
X60794Y110525D1*
X60039Y110460D1*
X59285Y110381D1*
X58532Y110290D1*
X57781Y110187D1*
X57031Y110071D1*
X56841Y110040D1*
X56095Y109908D1*
X55350Y109765D1*
X54608Y109608D1*
X53868Y109440D1*
X53131Y109259D1*
X52943Y109211D1*
X52211Y109015D1*
X51481Y108807D1*
X50755Y108586D1*
X50032Y108354D1*
X49314Y108109D1*
X49130Y108045D1*
X48417Y107785D1*
X47708Y107514D1*
X47003Y107231D1*
X46303Y106937D1*
X45608Y106630D1*
X45429Y106549D1*
X44741Y106229D1*
X44058Y105896D1*
X43381Y105553D1*
X42709Y105198D1*
X42043Y104833D1*
X41870Y104735D1*
X41213Y104356D1*
X40561Y103965D1*
X39916Y103564D1*
X39277Y103152D1*
X38646Y102730D1*
X38481Y102617D1*
X37858Y102181D1*
X37243Y101735D1*
X36635Y101279D1*
X36035Y100813D1*
X35442Y100337D1*
X35286Y100209D1*
X34704Y99721D1*
X34130Y99223D1*
X33564Y98715D1*
X33006Y98198D1*
X32457Y97672D1*
X32312Y97530D1*
X31774Y96993D1*
X31245Y96446D1*
X30725Y95891D1*
X30214Y95327D1*
X29713Y94755D1*
X29580Y94600D1*
X29091Y94017D1*
X28611Y93427D1*
X28142Y92828D1*
X27682Y92222D1*
X27232Y91608D1*
X27112Y91440D1*
X26675Y90817D1*
X26249Y90186D1*
X25833Y89549D1*
X25428Y88905D1*
X25033Y88254D1*
X24927Y88075D1*
X24546Y87416D1*
X24176Y86750D1*
X23817Y86079D1*
X23470Y85401D1*
X23133Y84718D1*
X23043Y84529D1*
X22721Y83839D1*
X22410Y83144D1*
X22111Y82443D1*
X21823Y81738D1*
X21547Y81028D1*
X21473Y80830D1*
X21212Y80114D1*
X20963Y79394D1*
X20726Y78670D1*
X20501Y77942D1*
X20288Y77210D1*
X20231Y77005D1*
X20034Y76269D1*
X19848Y75530D1*
X19675Y74788D1*
X19514Y74042D1*
X19366Y73295D1*
X19326Y73084D1*
X19194Y72333D1*
X19074Y71580D1*
X18966Y70825D1*
X18870Y70069D1*
X18788Y69311D1*
X18767Y69096D1*
X18700Y68336D1*
X18646Y67575D1*
X18604Y66814D1*
X18575Y66051D1*
X18559Y65288D1*
X18556Y65071D1*
Y64308D1*
X18568Y63545D1*
X18593Y62782D1*
X18631Y62020D1*
X18681Y61258D1*
X18698Y61040D1*
X18764Y60280D1*
X18843Y59521D1*
X18934Y58763D1*
X19038Y58006D1*
X19155Y57252D1*
X19190Y57034D1*
X19323Y56282D1*
X19468Y55532D1*
X19625Y54785D1*
X19794Y54040D1*
X19976Y53298D1*
X20031Y53083D1*
X20229Y52345D1*
X20438Y51611D1*
X20660Y50880D1*
X20894Y50152D1*
X21140Y49429D1*
X21214Y49218D1*
X21475Y48500D1*
X21748Y47786D1*
X22033Y47076D1*
X22329Y46372D1*
X22637Y45672D1*
X22730Y45467D1*
X23053Y44774D1*
X23387Y44087D1*
X23733Y43405D1*
X24089Y42728D1*
X24457Y42058D1*
X24569Y41860D1*
X24951Y41198D1*
X25344Y40542D1*
X25748Y39892D1*
X26162Y39250D1*
X26587Y38614D1*
X26716Y38425D1*
X27155Y37798D1*
X27604Y37179D1*
X28063Y36567D1*
X28532Y35962D1*
X29011Y35365D1*
X29157Y35188D1*
X29649Y34601D1*
X30150Y34023D1*
X30661Y33453D1*
X31181Y32891D1*
X31711Y32339D1*
X31873Y32173D1*
X32414Y31632D1*
X32964Y31099D1*
X33523Y30576D1*
X34090Y30061D1*
X34666Y29556D1*
X34843Y29404D1*
X35429Y28912D1*
X36024Y28429D1*
X36627Y27956D1*
X37237Y27493D1*
X37855Y27040D1*
X38046Y26904D1*
X38673Y26464D1*
X39308Y26035D1*
X39949Y25616D1*
X40598Y25208D1*
X41253Y24810D1*
X41457Y24690D1*
X42120Y24306D1*
X42790Y23934D1*
X43466Y23572D1*
X44148Y23222D1*
X44836Y22883D1*
X45050Y22780D1*
X45745Y22456D1*
X46445Y22143D1*
X47150Y21842D1*
X47860Y21552D1*
X48575Y21274D1*
X48799Y21190D1*
X49520Y20927D1*
X50245Y20677D1*
X50974Y20438D1*
X51707Y20211D1*
X52443Y19997D1*
X52676Y19932D1*
X53416Y19733D1*
X54161Y19546D1*
X54908Y19372D1*
X55658Y19210D1*
X56411Y19060D1*
X56650Y19015D1*
X57405Y18882D1*
X58163Y18761D1*
X58924Y18652D1*
X59685Y18556D1*
X60449Y18472D1*
X60692Y18448D1*
X61456Y18381D1*
X62222Y18327D1*
X62989Y18285D1*
X63757Y18255D1*
X64525Y18238D1*
X64771Y18236D1*
X65539D1*
X66307Y18248D1*
X67075Y18273D1*
X67842Y18311D1*
X68609Y18361D1*
X68856Y18380D1*
X69621Y18446D1*
X70385Y18526D1*
X71148Y18618D1*
X71910Y18722D1*
X72670Y18839D1*
X72916Y18879D1*
X73672Y19013D1*
X74427Y19158D1*
X75180Y19316D1*
X75929Y19487D1*
X76676Y19669D1*
X76919Y19732D1*
X77662Y19930D1*
X78401Y20141D1*
X79138Y20365D1*
X79870Y20600D1*
X80598Y20847D1*
X80837Y20931D1*
X81559Y21193D1*
X82278Y21468D1*
X82992Y21755D1*
X83701Y22053D1*
X84406Y22363D1*
X84637Y22468D1*
X85334Y22792D1*
X86026Y23129D1*
X86713Y23477D1*
X87394Y23836D1*
X88069Y24206D1*
X88292Y24331D1*
X88958Y24716D1*
X89619Y25111D1*
X90273Y25518D1*
X90920Y25935D1*
X91560Y26363D1*
X91773Y26508D1*
X92404Y26949D1*
X93027Y27401D1*
X93643Y27863D1*
X94252Y28336D1*
X94853Y28818D1*
X95053Y28982D1*
X95643Y29477D1*
X96225Y29981D1*
X96799Y30496D1*
X97365Y31019D1*
X97922Y31552D1*
X98108Y31734D1*
X98653Y32279D1*
X99189Y32832D1*
X99716Y33395D1*
X100234Y33966D1*
X100742Y34545D1*
X100913Y34744D1*
X101408Y35334D1*
X101894Y35933D1*
X102371Y36539D1*
X102837Y37154D1*
X103293Y37775D1*
X103447Y37990D1*
X103889Y38621D1*
X104321Y39260D1*
X104743Y39906D1*
X105154Y40559D1*
X105555Y41218D1*
X105690Y41446D1*
X106076Y42114D1*
X106450Y42789D1*
X106814Y43469D1*
X107167Y44155D1*
X107509Y44847D1*
X107624Y45088D1*
X107950Y45787D1*
X108265Y46491D1*
X108569Y47202D1*
X108861Y47917D1*
X109141Y48638D1*
X109235Y48887D1*
X109500Y49614D1*
X109753Y50344D1*
X109993Y51077D1*
X110220Y51811D1*
X110435Y52548D1*
X110510Y52815D1*
X110708Y53554D1*
X110895Y54302D1*
X111072Y55060D1*
X111238Y55827D1*
X111393Y56604D1*
X111438Y56842D1*
X111570Y57579D1*
X111695Y58346D1*
X111797Y59048D1*
X111890Y59775D1*
X111964Y60440D1*
X112012Y60938D1*
X112067Y61622D1*
X112115Y62371D1*
X112158Y63220D1*
X112199Y64246D1*
X112227Y65071D1*
X112220Y65465D1*
X112198Y66568D1*
X112173Y67433D1*
X112140Y68220D1*
X112100Y68927D1*
X112080Y69210D1*
X112024Y69894D1*
X111955Y70594D1*
X111871Y71309D1*
X111773Y72043D1*
X111660Y72795D1*
X111573Y73323D1*
X111432Y74114D1*
X111281Y74894D1*
X111127Y75627D1*
X110953Y76389D1*
X110769Y77142D1*
X110709Y77380D1*
X110510Y78121D1*
X110300Y78860D1*
X110076Y79597D1*
X109841Y80332D1*
X109592Y81065D1*
X109493Y81349D1*
X109227Y82078D1*
X108950Y82802D1*
X108662Y83522D1*
X108361Y84237D1*
X108050Y84946D1*
X107935Y85199D1*
X107608Y85900D1*
X107269Y86596D1*
X106920Y87287D1*
X106558Y87973D1*
X106186Y88652D1*
X106046Y88901D1*
X105659Y89572D1*
X105260Y90237D1*
X104851Y90895D1*
X104431Y91547D1*
X104001Y92192D1*
X103840Y92427D1*
X103395Y93062D1*
X102941Y93690D1*
X102476Y94310D1*
X102000Y94923D1*
X101515Y95528D1*
X101333Y95750D1*
X100835Y96344D1*
X100327Y96930D1*
X99809Y97508D1*
X99282Y98077D1*
X98746Y98638D1*
X98544Y98844D1*
X97996Y99393D1*
X97438Y99932D1*
X96872Y100463D1*
X96298Y100984D1*
X95714Y101496D1*
X95494Y101685D1*
X94900Y102184D1*
X94297Y102673D1*
X93687Y103153D1*
X93069Y103622D1*
X92443Y104081D1*
X92205Y104252D1*
X91570Y104697D1*
X90927Y105132D1*
X90277Y105556D1*
X89620Y105970D1*
X88956Y106373D1*
X88703Y106523D1*
X88031Y106911D1*
X87352Y107289D1*
X86667Y107655D1*
X85977Y108010D1*
X85280Y108354D1*
X85014Y108482D1*
X84310Y108810D1*
X83601Y109127D1*
X82886Y109433D1*
X82167Y109726D1*
X81443Y110009D1*
X81165Y110113D1*
X80435Y110379D1*
X79700Y110633D1*
X78962Y110875D1*
X78219Y111105D1*
X77473Y111323D1*
X77186Y111404D1*
X76435Y111605D1*
X75681Y111794D1*
X74924Y111971D1*
X74164Y112135D1*
X73401Y112287D1*
X73106Y112343D1*
X72340Y112478D1*
X71573Y112601D1*
X70803Y112711D1*
X70031Y112809D1*
X69258Y112894D1*
X68957Y112923D1*
X68183Y112991D1*
X67407Y113047D1*
X66630Y113089D1*
X65852Y113119D1*
X65074Y113137D1*
X64771Y113140D1*
X63993D1*
X63215Y113128D1*
X62437Y113103D1*
X61659Y113065D1*
X60882Y113014D1*
X60578Y112991D1*
X59803Y112924D1*
X59029Y112843D1*
X58256Y112750D1*
X57484Y112645D1*
X56714Y112527D1*
X56412Y112477D1*
X55645Y112342D1*
X54880Y112194D1*
X54118Y112034D1*
X53358Y111862D1*
X52602Y111678D1*
X52303Y111601D1*
X51551Y111400D1*
X50802Y111186D1*
X50056Y110960D1*
X49314Y110722D1*
X48576Y110472D1*
X48283Y110369D1*
X47551Y110103D1*
X46823Y109825D1*
X46100Y109535D1*
X45381Y109233D1*
X44667Y108919D1*
X44384Y108791D1*
X43677Y108462D1*
X42976Y108121D1*
X42281Y107769D1*
X41591Y107405D1*
X40907Y107031D1*
X40634Y106877D1*
X39959Y106487D1*
X39290Y106087D1*
X38627Y105675D1*
X37971Y105253D1*
X37322Y104820D1*
X37062Y104642D1*
X36424Y104195D1*
X35792Y103737D1*
X35167Y103269D1*
X34551Y102791D1*
X33942Y102304D1*
X33697Y102103D1*
X33100Y101602D1*
X32510Y101090D1*
X31928Y100570D1*
X31355Y100039D1*
X30791Y99500D1*
X30564Y99278D1*
X30012Y98726D1*
X29469Y98165D1*
X28935Y97596D1*
X28410Y97017D1*
X27895Y96431D1*
X27686Y96188D1*
X27185Y95590D1*
X26692Y94984D1*
X26210Y94370D1*
X25737Y93748D1*
X25275Y93118D1*
X25088Y92857D1*
X24640Y92218D1*
X24202Y91571D1*
X23775Y90916D1*
X23358Y90255D1*
X22952Y89588D1*
X22787Y89310D1*
X22397Y88633D1*
X22017Y87950D1*
X21648Y87261D1*
X21290Y86566D1*
X20944Y85865D1*
X20804Y85573D1*
X20473Y84865D1*
X20154Y84151D1*
X19847Y83432D1*
X19551Y82708D1*
X19267Y81980D1*
X19152Y81675D1*
X18885Y80940D1*
X18629Y80201D1*
X18385Y79458D1*
X18154Y78711D1*
X17934Y77960D1*
X17846Y77644D1*
X17643Y76889D1*
X17453Y76130D1*
X17275Y75368D1*
X17109Y74603D1*
X16956Y73836D1*
X16895Y73513D1*
X16759Y72742D1*
X16636Y71970D1*
X16524Y71195D1*
X16426Y70418D1*
X16340Y69640D1*
X16307Y69311D1*
X16239Y68531D1*
X16183Y67750D1*
X16140Y66969D1*
X16110Y66186D1*
X16092Y65403D1*
X16088Y65071D1*
Y64288D1*
X16101Y63505D1*
X16126Y62722D1*
X16164Y61940D1*
X16214Y61158D1*
X16239Y60825D1*
X16308Y60045D1*
X16389Y59266D1*
X16482Y58488D1*
X16588Y57711D1*
X16706Y56936D1*
X16761Y56605D1*
X16897Y55834D1*
X17045Y55064D1*
X17206Y54297D1*
X17379Y53533D1*
X17565Y52771D1*
X17648Y52445D1*
X17851Y51688D1*
X18066Y50934D1*
X18293Y50183D1*
X18533Y49436D1*
X18784Y48693D1*
X18896Y48374D1*
X19164Y47637D1*
X19444Y46905D1*
X19736Y46177D1*
X20040Y45453D1*
X20355Y44735D1*
X20495Y44425D1*
X20826Y43714D1*
X21169Y43008D1*
X21524Y42308D1*
X21889Y41614D1*
X22266Y40925D1*
X22433Y40627D1*
X22826Y39948D1*
X23229Y39275D1*
X23643Y38608D1*
X24068Y37948D1*
X24503Y37295D1*
X24697Y37011D1*
X25147Y36368D1*
X25608Y35732D1*
X26078Y35104D1*
X26559Y34483D1*
X27050Y33870D1*
X27269Y33603D1*
X27774Y33002D1*
X28288Y32408D1*
X28812Y31823D1*
X29345Y31246D1*
X29888Y30678D1*
X30130Y30430D1*
X30685Y29875D1*
X31250Y29329D1*
X31823Y28791D1*
X32405Y28263D1*
X32995Y27744D1*
X33259Y27517D1*
X33861Y27012D1*
X34471Y26517D1*
X35089Y26031D1*
X35715Y25555D1*
X36348Y25089D1*
X36633Y24885D1*
X37276Y24435D1*
X37927Y23994D1*
X38586Y23564D1*
X39251Y23145D1*
X39923Y22736D1*
X40225Y22557D1*
X40906Y22163D1*
X41593Y21781D1*
X42287Y21410D1*
X42986Y21050D1*
X43691Y20701D1*
X44009Y20548D1*
X44722Y20216D1*
X45440Y19895D1*
X46164Y19585D1*
X46892Y19287D1*
X47625Y19001D1*
X47957Y18876D1*
X48696Y18607D1*
X49440Y18350D1*
X50188Y18104D1*
X50940Y17871D1*
X51695Y17650D1*
X52038Y17554D1*
X52799Y17350D1*
X53562Y17158D1*
X54329Y16979D1*
X55099Y16812D1*
X55871Y16657D1*
X56222Y16591D1*
X56998Y16454D1*
X57775Y16330D1*
X58555Y16218D1*
X59337Y16119D1*
X60080Y16036D1*
X60477Y15997D1*
X61262Y15928D1*
X62048Y15872D1*
X62834Y15828D1*
X63622Y15798D1*
X64410Y15779D1*
X64771Y15775D1*
X65559D1*
X66346Y15788D1*
X67134Y15813D1*
X67922Y15851D1*
X68708Y15901D1*
X69070Y15929D1*
X69855Y15997D1*
X70639Y16079D1*
X71422Y16173D1*
X72204Y16279D1*
X72983Y16398D1*
X73343Y16457D1*
X74119Y16594D1*
X74893Y16743D1*
X75665Y16905D1*
X76435Y17079D1*
X77201Y17265D1*
X77556Y17356D1*
X78318Y17560D1*
X79076Y17777D1*
X79831Y18005D1*
X80583Y18246D1*
X81331Y18498D1*
X81678Y18620D1*
X82419Y18890D1*
X83156Y19172D1*
X83889Y19465D1*
X84617Y19770D1*
X85340Y20087D1*
X85676Y20239D1*
X86391Y20573D1*
X87101Y20918D1*
X87806Y21274D1*
X88505Y21642D1*
X89198Y22021D1*
X89521Y22202D1*
X90205Y22597D1*
X90882Y23003D1*
X91553Y23420D1*
X92217Y23847D1*
X92875Y24285D1*
X93182Y24495D1*
X93829Y24948D1*
X94469Y25411D1*
X95101Y25885D1*
X95726Y26369D1*
X96343Y26862D1*
X96633Y27099D1*
X97238Y27607D1*
X97835Y28125D1*
X98424Y28652D1*
X99004Y29188D1*
X99576Y29734D1*
X99845Y29997D1*
X100404Y30556D1*
X100954Y31123D1*
X101495Y31700D1*
X102026Y32285D1*
X102549Y32879D1*
X102795Y33165D1*
X103303Y33771D1*
X103801Y34385D1*
X104290Y35006D1*
X104769Y35636D1*
X105238Y36273D1*
X105459Y36581D1*
X105912Y37229D1*
X106355Y37884D1*
X106788Y38546D1*
X107211Y39216D1*
X107622Y39891D1*
X107816Y40219D1*
X108212Y40904D1*
X108596Y41595D1*
X108970Y42293D1*
X109333Y42997D1*
X109684Y43706D1*
X109849Y44050D1*
X110183Y44767D1*
X110506Y45490D1*
X110818Y46218D1*
X111118Y46952D1*
X111407Y47690D1*
X111542Y48048D1*
X111813Y48793D1*
X112072Y49542D1*
X112319Y50293D1*
X112541Y51008D1*
X112764Y51763D1*
X112881Y52180D1*
X113083Y52938D1*
X113275Y53705D1*
X113457Y54482D1*
X113628Y55268D1*
X113788Y56064D1*
X113855Y56416D1*
X113999Y57225D1*
X114118Y57964D1*
X114230Y58730D1*
X114321Y59433D1*
X114402Y60162D1*
X114456Y60724D1*
X114512Y61425D1*
X114562Y62192D1*
X114605Y63056D1*
X114647Y64090D1*
X114680Y65071D1*
X114673Y65465D1*
X114649Y66607D1*
X114623Y67512D1*
X114591Y68299D1*
X114552Y69006D1*
X114523Y69424D1*
X114466Y70126D1*
X114395Y70842D1*
X114310Y71575D1*
X114210Y72326D1*
X114095Y73096D1*
X113988Y73749D1*
X113844Y74560D1*
X113688Y75360D1*
X113521Y76152D1*
X113344Y76934D1*
X113156Y77706D1*
X113077Y78015D1*
X112873Y78774D1*
X112657Y79532D1*
X112429Y80288D1*
X112188Y81042D1*
X111934Y81794D1*
X111796Y82187D1*
X111524Y82935D1*
X111240Y83678D1*
X110944Y84416D1*
X110637Y85149D1*
X110318Y85876D1*
X110156Y86235D1*
X109821Y86954D1*
X109474Y87668D1*
X109115Y88376D1*
X108746Y89080D1*
X108365Y89777D1*
X108168Y90126D1*
X107771Y90814D1*
X107362Y91496D1*
X106943Y92171D1*
X106513Y92840D1*
X106073Y93502D1*
X105847Y93833D1*
X105391Y94483D1*
X104925Y95127D1*
X104448Y95763D1*
X103962Y96392D1*
X103465Y97013D1*
X103210Y97325D1*
X102699Y97934D1*
X102178Y98535D1*
X101647Y99127D1*
X101108Y99711D1*
X100559Y100287D1*
X100276Y100576D1*
X99714Y101138D1*
X99142Y101692D1*
X98562Y102236D1*
X97973Y102771D1*
X97376Y103297D1*
X97068Y103561D1*
X96459Y104072D1*
X95841Y104574D1*
X95215Y105066D1*
X94582Y105548D1*
X93941Y106020D1*
X93610Y106257D1*
X92958Y106714D1*
X92299Y107160D1*
X91632Y107595D1*
X90959Y108020D1*
X90279Y108434D1*
X89927Y108643D1*
X89238Y109041D1*
X88542Y109428D1*
X87840Y109804D1*
X87132Y110169D1*
X86419Y110522D1*
X86048Y110700D1*
X85326Y111037D1*
X84599Y111362D1*
X83867Y111675D1*
X83130Y111977D1*
X82388Y112267D1*
X82002Y112413D1*
X81253Y112685D1*
X80500Y112946D1*
X79743Y113194D1*
X78982Y113431D1*
X78218Y113655D1*
X77819Y113767D1*
X77049Y113973D1*
X76276Y114167D1*
X75500Y114349D1*
X74721Y114518D1*
X73940Y114675D1*
X73531Y114752D1*
X72746Y114890D1*
X71959Y115016D1*
X71169Y115129D1*
X70378Y115230D1*
X69586Y115319D1*
X69170Y115360D1*
X68376Y115429D1*
X67581Y115486D1*
X66784Y115530D1*
X65987Y115562D1*
X65190Y115581D1*
X64771Y115586D1*
X63973D1*
X63176Y115573D1*
X62378Y115547D1*
X61581Y115509D1*
X60785Y115459D1*
X60365Y115427D1*
X59570Y115357D1*
X58777Y115275D1*
X57984Y115180D1*
X57193Y115073D1*
X56404Y114953D1*
X55987Y114885D1*
X55201Y114746D1*
X54418Y114595D1*
X53636Y114431D1*
X52857Y114255D1*
X52081Y114067D1*
X51670Y113962D1*
X50899Y113755D1*
X50131Y113536D1*
X49367Y113305D1*
X48606Y113062D1*
X47849Y112807D1*
X47448Y112666D1*
X46697Y112393D1*
X45951Y112107D1*
X45209Y111810D1*
X44472Y111502D1*
X43740Y111181D1*
X43351Y111005D1*
X42627Y110668D1*
X41909Y110318D1*
X41195Y109958D1*
X40488Y109586D1*
X39786Y109203D1*
X39412Y108993D1*
X38720Y108593D1*
X38035Y108182D1*
X37355Y107761D1*
X36683Y107329D1*
X36017Y106886D1*
X35661Y106643D1*
X35007Y106185D1*
X34359Y105715D1*
X33719Y105236D1*
X33086Y104747D1*
X32462Y104247D1*
X32127Y103974D1*
X31515Y103460D1*
X30911Y102936D1*
X30314Y102402D1*
X29727Y101859D1*
X29147Y101307D1*
X28837Y101004D1*
X28272Y100439D1*
X27715Y99864D1*
X27167Y99280D1*
X26629Y98688D1*
X26100Y98088D1*
X25816Y97758D1*
X25302Y97144D1*
X24798Y96523D1*
X24303Y95894D1*
X23818Y95257D1*
X23343Y94612D1*
X23088Y94257D1*
X22629Y93602D1*
X22181Y92938D1*
X21742Y92268D1*
X21315Y91591D1*
X20898Y90907D1*
X20674Y90530D1*
X20274Y89837D1*
X19884Y89137D1*
X19506Y88431D1*
X19139Y87719D1*
X18783Y87001D1*
X18592Y86604D1*
X18254Y85878D1*
X17927Y85147D1*
X17612Y84410D1*
X17308Y83669D1*
X17016Y82922D1*
X16860Y82509D1*
X16586Y81756D1*
X16324Y80999D1*
X16074Y80237D1*
X15835Y79472D1*
X15609Y78703D1*
X15490Y78276D1*
X15282Y77502D1*
X15087Y76724D1*
X14904Y75943D1*
X14734Y75160D1*
X14576Y74373D1*
X14493Y73936D1*
X14354Y73147D1*
X14228Y72355D1*
X14113Y71561D1*
X14012Y70765D1*
X13922Y69968D1*
X13878Y69523D1*
X13809Y68725D1*
X13751Y67924D1*
X13707Y67123D1*
X13675Y66321D1*
X13656Y65519D1*
X13650Y65071D1*
Y64269D1*
X13663Y63466D1*
X13689Y62664D1*
X13727Y61862D1*
X13777Y61061D1*
X13811Y60613D1*
X13881Y59813D1*
X13964Y59015D1*
X14059Y58217D1*
X14167Y57422D1*
X14287Y56628D1*
X14361Y56182D1*
X14500Y55392D1*
X14652Y54603D1*
X14817Y53817D1*
X14994Y53033D1*
X15183Y52253D1*
X15295Y51814D1*
X15503Y51038D1*
X15723Y50266D1*
X15955Y49497D1*
X16200Y48731D1*
X16456Y47970D1*
X16607Y47541D1*
X16882Y46786D1*
X17169Y46035D1*
X17467Y45289D1*
X17778Y44548D1*
X18099Y43811D1*
X18287Y43395D1*
X18627Y42667D1*
X18978Y41944D1*
X19341Y41227D1*
X19715Y40515D1*
X20100Y39809D1*
X20324Y39410D1*
X20726Y38714D1*
X21139Y38024D1*
X21563Y37340D1*
X21998Y36664D1*
X22443Y35994D1*
X22702Y35614D1*
X23164Y34956D1*
X23636Y34304D1*
X24118Y33660D1*
X24610Y33024D1*
X25112Y32395D1*
X25404Y32038D1*
X25921Y31422D1*
X26448Y30814D1*
X26985Y30214D1*
X27531Y29623D1*
X28086Y29040D1*
X28409Y28709D1*
X28978Y28140D1*
X29556Y27580D1*
X30143Y27029D1*
X30739Y26488D1*
X31343Y25955D1*
X31695Y25653D1*
X32312Y25135D1*
X32936Y24628D1*
X33569Y24130D1*
X34210Y23642D1*
X34859Y23164D1*
X35237Y22892D1*
X35897Y22431D1*
X36564Y21979D1*
X37238Y21538D1*
X37919Y21108D1*
X38607Y20688D1*
X39009Y20450D1*
X39706Y20047D1*
X40410Y19655D1*
X41121Y19275D1*
X41837Y18905D1*
X42559Y18547D1*
X42981Y18344D1*
X43712Y18003D1*
X44447Y17674D1*
X45188Y17357D1*
X45934Y17051D1*
X46685Y16757D1*
X47125Y16591D1*
X47883Y16315D1*
X48645Y16052D1*
X49411Y15800D1*
X50181Y15560D1*
X50954Y15333D1*
X51409Y15205D1*
X52188Y14996D1*
X52970Y14800D1*
X53755Y14616D1*
X54544Y14444D1*
X55334Y14285D1*
X55800Y14197D1*
X56595Y14057D1*
X57391Y13930D1*
X58190Y13815D1*
X58990Y13712D1*
X59792Y13622D1*
X60265Y13575D1*
X61069Y13505D1*
X61874Y13448D1*
X62680Y13403D1*
X63487Y13370D1*
X64294Y13350D1*
X64771Y13345D1*
X65578D1*
X66385Y13358D1*
X67192Y13383D1*
X67999Y13421D1*
X68804Y13472D1*
X69282Y13508D1*
X70086Y13579D1*
X70889Y13662D1*
X71691Y13758D1*
X72492Y13866D1*
X73290Y13987D1*
X73765Y14064D1*
X74560Y14205D1*
X75353Y14358D1*
X76144Y14523D1*
X76932Y14701D1*
X77717Y14891D1*
X78185Y15010D1*
X78965Y15219D1*
X79742Y15441D1*
X80516Y15674D1*
X81286Y15920D1*
X82052Y16178D1*
X82508Y16338D1*
X83267Y16614D1*
X84022Y16903D1*
X84773Y17203D1*
X85519Y17515D1*
X86260Y17839D1*
X86702Y18039D1*
X87435Y18380D1*
X88162Y18734D1*
X88884Y19099D1*
X89600Y19474D1*
X90310Y19862D1*
X90735Y20100D1*
X91435Y20504D1*
X92129Y20920D1*
X92816Y21346D1*
X93497Y21783D1*
X94171Y22231D1*
X94575Y22506D1*
X95237Y22971D1*
X95892Y23445D1*
X96540Y23930D1*
X97181Y24425D1*
X97813Y24930D1*
X98193Y25240D1*
X98812Y25760D1*
X99424Y26290D1*
X100027Y26830D1*
X100622Y27379D1*
X101209Y27937D1*
X101561Y28281D1*
X102133Y28853D1*
X102696Y29435D1*
X103250Y30025D1*
X103796Y30624D1*
X104331Y31232D1*
X104653Y31606D1*
X105173Y32226D1*
X105684Y32855D1*
X106185Y33491D1*
X106676Y34136D1*
X107157Y34788D1*
X107446Y35190D1*
X107910Y35853D1*
X108364Y36524D1*
X108808Y37202D1*
X109241Y37887D1*
X109663Y38579D1*
X109917Y39006D1*
X110322Y39708D1*
X110716Y40416D1*
X111098Y41130D1*
X111470Y41850D1*
X111831Y42576D1*
X112047Y43026D1*
X112389Y43760D1*
X112720Y44500D1*
X113039Y45245D1*
X113347Y45996D1*
X113644Y46752D1*
X113820Y47218D1*
X114098Y47982D1*
X114363Y48749D1*
X114616Y49518D1*
X114857Y50290D1*
X115085Y51063D1*
X115222Y51553D1*
X115429Y52329D1*
X115626Y53114D1*
X115812Y53909D1*
X115988Y54714D1*
X116152Y55527D1*
X116241Y55995D1*
X116380Y56771D1*
X116511Y57577D1*
X116620Y58318D1*
X116720Y59084D1*
X116800Y59789D1*
X116870Y60513D1*
X116927Y61231D1*
X116978Y62015D1*
X117023Y62894D1*
X117064Y63937D1*
X117103Y65071D1*
X117096Y65465D1*
X117071Y66646D1*
X117043Y67591D1*
X117010Y68417D1*
X116969Y69164D1*
X116937Y69635D1*
X116878Y70353D1*
X116805Y71087D1*
X116718Y71837D1*
X116617Y72604D1*
X116500Y73390D1*
X116373Y74170D1*
X116225Y74999D1*
X116066Y75820D1*
X115904Y76591D1*
X115724Y77392D1*
X115532Y78185D1*
X115416Y78641D1*
X115207Y79419D1*
X114986Y80195D1*
X114753Y80969D1*
X114507Y81741D1*
X114248Y82511D1*
X114072Y83015D1*
X113792Y83780D1*
X113502Y84541D1*
X113199Y85297D1*
X112885Y86048D1*
X112560Y86794D1*
X112350Y87258D1*
X112006Y87994D1*
X111651Y88725D1*
X111285Y89451D1*
X110907Y90171D1*
X110517Y90885D1*
X110264Y91337D1*
X109857Y92041D1*
X109439Y92739D1*
X109010Y93430D1*
X108571Y94115D1*
X108121Y94793D1*
X107829Y95221D1*
X107362Y95887D1*
X106885Y96546D1*
X106397Y97198D1*
X105900Y97842D1*
X105392Y98478D1*
X105063Y98880D1*
X104540Y99503D1*
X104006Y100118D1*
X103464Y100725D1*
X102912Y101324D1*
X102350Y101914D1*
X101986Y102287D1*
X101411Y102862D1*
X100826Y103429D1*
X100232Y103986D1*
X99630Y104534D1*
X99019Y105073D1*
X98623Y105414D1*
X97999Y105937D1*
X97366Y106451D1*
X96726Y106955D1*
X96078Y107448D1*
X95422Y107932D1*
X94997Y108238D1*
X94329Y108705D1*
X93654Y109162D1*
X92973Y109608D1*
X92284Y110044D1*
X91588Y110469D1*
X91136Y110737D1*
X90430Y111144D1*
X89718Y111540D1*
X88999Y111926D1*
X88275Y112300D1*
X87545Y112663D1*
X87070Y112891D1*
X86331Y113235D1*
X85587Y113568D1*
X84837Y113889D1*
X84083Y114199D1*
X83323Y114497D1*
X82828Y114684D1*
X82062Y114962D1*
X81291Y115229D1*
X80516Y115484D1*
X79738Y115727D1*
X78955Y115958D1*
X78444Y116101D1*
X77656Y116312D1*
X76865Y116510D1*
X76071Y116697D1*
X75273Y116871D1*
X74473Y117033D1*
X73950Y117131D1*
X73147Y117273D1*
X72341Y117402D1*
X71533Y117518D1*
X70723Y117622D1*
X69912Y117713D1*
X69381Y117766D1*
X68568Y117837D1*
X67754Y117895D1*
X66938Y117941D1*
X66123Y117974D1*
X65306Y117994D1*
X64771Y118001D1*
X63954D1*
X63138Y117988D1*
X62322Y117962D1*
X61506Y117924D1*
X60690Y117873D1*
X60155Y117833D1*
X59341Y117761D1*
X58529Y117677D1*
X57717Y117580D1*
X56908Y117471D1*
X56100Y117349D1*
X55568Y117262D1*
X54764Y117120D1*
X53961Y116965D1*
X53161Y116798D1*
X52364Y116619D1*
X51569Y116427D1*
X51046Y116294D1*
X50256Y116082D1*
X49470Y115858D1*
X48688Y115622D1*
X47909Y115373D1*
X47134Y115113D1*
X46622Y114934D1*
X45854Y114654D1*
X45090Y114362D1*
X44331Y114058D1*
X43576Y113743D1*
X42827Y113416D1*
X42331Y113192D1*
X41590Y112847D1*
X40855Y112489D1*
X40125Y112120D1*
X39400Y111740D1*
X38682Y111349D1*
X38206Y111082D1*
X37498Y110673D1*
X36796Y110253D1*
X36101Y109822D1*
X35412Y109380D1*
X34730Y108927D1*
X34278Y108619D1*
X33608Y108150D1*
X32945Y107670D1*
X32290Y107179D1*
X31642Y106679D1*
X31002Y106169D1*
X30577Y105821D1*
X29950Y105295D1*
X29332Y104759D1*
X28721Y104213D1*
X28119Y103658D1*
X27526Y103094D1*
X27132Y102710D1*
X26554Y102130D1*
X25984Y101542D1*
X25423Y100945D1*
X24871Y100340D1*
X24329Y99726D1*
X23969Y99307D1*
X23443Y98680D1*
X22927Y98044D1*
X22420Y97400D1*
X21923Y96749D1*
X21437Y96089D1*
X21114Y95640D1*
X20644Y94969D1*
X20185Y94290D1*
X19736Y93604D1*
X19298Y92912D1*
X18870Y92213D1*
X18587Y91735D1*
X18177Y91026D1*
X17779Y90309D1*
X17391Y89587D1*
X17015Y88858D1*
X16650Y88124D1*
X16408Y87623D1*
X16062Y86880D1*
X15728Y86131D1*
X15404Y85377D1*
X15093Y84619D1*
X14793Y83855D1*
X14596Y83333D1*
X14316Y82563D1*
X14047Y81788D1*
X13791Y81008D1*
X13547Y80225D1*
X13314Y79438D1*
X13163Y78899D1*
X12951Y78107D1*
X12751Y77311D1*
X12564Y76512D1*
X12388Y75711D1*
X12226Y74906D1*
X12121Y74354D1*
X11979Y73546D1*
X11850Y72736D1*
X11732Y71924D1*
X11628Y71109D1*
X11535Y70294D1*
X11479Y69733D1*
X11408Y68916D1*
X11350Y68097D1*
X11304Y67277D1*
X11270Y66457D1*
X11250Y65636D1*
X11243Y65071D1*
Y64250D1*
X11256Y63429D1*
X11282Y62608D1*
X11320Y61787D1*
X11371Y60968D1*
X11413Y60403D1*
X11485Y59585D1*
X11570Y58768D1*
X11667Y57952D1*
X11777Y57137D1*
X11899Y56325D1*
X11990Y55764D1*
X12133Y54955D1*
X12289Y54149D1*
X12457Y53344D1*
X12637Y52542D1*
X12830Y51743D1*
X12970Y51191D1*
X13183Y50397D1*
X13409Y49607D1*
X13646Y48820D1*
X13896Y48036D1*
X14157Y47257D1*
X14346Y46718D1*
X14627Y45946D1*
X14921Y45178D1*
X15226Y44414D1*
X15543Y43655D1*
X15872Y42901D1*
X16107Y42379D1*
X16455Y41634D1*
X16814Y40894D1*
X17185Y40160D1*
X17567Y39431D1*
X17960Y38708D1*
X18241Y38207D1*
X18653Y37495D1*
X19076Y36789D1*
X19509Y36090D1*
X19953Y35397D1*
X20408Y34711D1*
X20732Y34235D1*
X21205Y33561D1*
X21687Y32895D1*
X22180Y32236D1*
X22683Y31584D1*
X23196Y30940D1*
X23562Y30493D1*
X24091Y29863D1*
X24631Y29241D1*
X25179Y28627D1*
X25737Y28021D1*
X26305Y27424D1*
X26709Y27009D1*
X27292Y26428D1*
X27883Y25855D1*
X28483Y25291D1*
X29092Y24736D1*
X29709Y24190D1*
X30150Y23811D1*
X30781Y23283D1*
X31420Y22763D1*
X32068Y22253D1*
X32723Y21754D1*
X33385Y21264D1*
X33859Y20924D1*
X34534Y20452D1*
X35216Y19990D1*
X35905Y19538D1*
X36602Y19098D1*
X37305Y18667D1*
X37807Y18369D1*
X38521Y17957D1*
X39241Y17557D1*
X39968Y17167D1*
X40700Y16788D1*
X41438Y16421D1*
X41966Y16166D1*
X42713Y15819D1*
X43466Y15482D1*
X44224Y15157D1*
X44987Y14843D1*
X45754Y14542D1*
X46304Y14334D1*
X47079Y14052D1*
X47858Y13782D1*
X48642Y13525D1*
X49429Y13279D1*
X50220Y13045D1*
X50788Y12885D1*
X51584Y12672D1*
X52385Y12471D1*
X53188Y12283D1*
X53994Y12106D1*
X54803Y11942D1*
X55383Y11832D1*
X56196Y11690D1*
X57011Y11559D1*
X57828Y11441D1*
X58646Y11336D1*
X59467Y11243D1*
X60056Y11184D1*
X60878Y11112D1*
X61702Y11053D1*
X62526Y11007D1*
X63351Y10973D1*
X64177Y10952D1*
X64771Y10945D1*
X65596D1*
X66422Y10958D1*
X67247Y10984D1*
X68073Y11022D1*
X68897Y11073D1*
X69491Y11118D1*
X70314Y11190D1*
X71135Y11275D1*
X71956Y11373D1*
X72775Y11483D1*
X73592Y11605D1*
X74181Y11702D1*
X74995Y11845D1*
X75806Y12002D1*
X76615Y12171D1*
X77421Y12352D1*
X78225Y12545D1*
X78805Y12693D1*
X79603Y12907D1*
X80398Y13134D1*
X81190Y13372D1*
X81978Y13623D1*
X82762Y13886D1*
X83328Y14084D1*
X84105Y14367D1*
X84877Y14662D1*
X85645Y14969D1*
X86372Y15272D1*
X87131Y15602D1*
X87716Y15865D1*
X88465Y16215D1*
X89209Y16577D1*
X89947Y16949D1*
X90680Y17333D1*
X91407Y17728D1*
X91934Y18024D1*
X92650Y18437D1*
X93359Y18862D1*
X94063Y19298D1*
X94760Y19745D1*
X95449Y20202D1*
X95950Y20543D1*
X96627Y21018D1*
X97297Y21503D1*
X97960Y21999D1*
X98616Y22504D1*
X99263Y23020D1*
X99733Y23404D1*
X100367Y23936D1*
X100993Y24479D1*
X101610Y25030D1*
X102219Y25591D1*
X102819Y26161D1*
X103255Y26586D1*
X103840Y27172D1*
X104416Y27767D1*
X104984Y28370D1*
X105542Y28982D1*
X106090Y29603D1*
X106488Y30066D1*
X107020Y30700D1*
X107543Y31343D1*
X108055Y31994D1*
X108558Y32653D1*
X109050Y33319D1*
X109408Y33816D1*
X109882Y34494D1*
X110347Y35181D1*
X110801Y35874D1*
X111244Y36574D1*
X111677Y37281D1*
X111991Y37808D1*
X112405Y38526D1*
X112808Y39251D1*
X113200Y39981D1*
X113581Y40717D1*
X113950Y41459D1*
X114217Y42014D1*
X114567Y42765D1*
X114905Y43521D1*
X115232Y44284D1*
X115548Y45051D1*
X115852Y45824D1*
X116070Y46400D1*
X116354Y47181D1*
X116625Y47965D1*
X116872Y48713D1*
X117119Y49502D1*
X117354Y50292D1*
X117534Y50933D1*
X117746Y51727D1*
X117947Y52530D1*
X118138Y53343D1*
X118318Y54165D1*
X118487Y54996D1*
X118598Y55580D1*
X118749Y56427D1*
X118875Y57205D1*
X118993Y58008D1*
X119090Y58750D1*
X119178Y59517D1*
X119247Y60223D1*
X119254Y60304D1*
X119312Y61039D1*
X119364Y61838D1*
X119410Y62732D1*
X119452Y63785D1*
X119495Y65071D1*
X119488Y65465D1*
X119462Y66686D1*
X119433Y67670D1*
X119400Y68496D1*
X119360Y69242D1*
X119320Y69843D1*
X119259Y70578D1*
X119185Y71328D1*
X119097Y72094D1*
X118994Y72877D1*
X118876Y73679D1*
X118742Y74502D1*
X118728Y74585D1*
X118577Y75433D1*
X118414Y76272D1*
X118240Y77102D1*
X118056Y77922D1*
X117860Y78732D1*
X117726Y79260D1*
X117512Y80055D1*
X117286Y80849D1*
X117048Y81640D1*
X116797Y82430D1*
X116533Y83218D1*
X116318Y83833D1*
X116033Y84615D1*
X115735Y85393D1*
X115426Y86166D1*
X115106Y86935D1*
X114774Y87697D1*
X114517Y88268D1*
X114165Y89020D1*
X113802Y89768D1*
X113427Y90510D1*
X113041Y91247D1*
X112644Y91978D1*
X112334Y92532D1*
X111918Y93252D1*
X111490Y93965D1*
X111052Y94673D1*
X110603Y95373D1*
X110144Y96067D1*
X109786Y96591D1*
X109309Y97272D1*
X108821Y97946D1*
X108323Y98613D1*
X107814Y99272D1*
X107296Y99923D1*
X106893Y100416D1*
X106358Y101053D1*
X105813Y101682D1*
X105258Y102303D1*
X104694Y102915D1*
X104121Y103519D1*
X103676Y103976D1*
X103087Y104564D1*
X102489Y105143D1*
X101882Y105713D1*
X101266Y106275D1*
X100643Y106826D1*
X100158Y107244D1*
X99520Y107778D1*
X98873Y108303D1*
X98219Y108819D1*
X97557Y109324D1*
X96887Y109820D1*
X96366Y110194D1*
X95684Y110671D1*
X94994Y111138D1*
X94297Y111595D1*
X93593Y112041D1*
X92882Y112476D1*
X92330Y112805D1*
X91608Y113221D1*
X90880Y113626D1*
X90146Y114020D1*
X89405Y114403D1*
X88659Y114775D1*
X88079Y115055D1*
X87323Y115406D1*
X86562Y115747D1*
X85796Y116075D1*
X85025Y116392D1*
X84249Y116698D1*
X83645Y116927D1*
X82861Y117211D1*
X82073Y117484D1*
X81281Y117745D1*
X80485Y117994D1*
X79685Y118230D1*
X79062Y118406D1*
X78256Y118621D1*
X77447Y118824D1*
X76635Y119015D1*
X75820Y119194D1*
X75003Y119360D1*
X74365Y119481D1*
X73543Y119625D1*
X72719Y119757D1*
X71894Y119876D1*
X71066Y119983D1*
X70237Y120078D1*
X69589Y120143D1*
X68758Y120215D1*
X67925Y120274D1*
X67092Y120321D1*
X66258Y120356D1*
X65423Y120378D1*
X64771Y120386D1*
X77763Y65071D2*
X77765Y65465D1*
X77763Y65859D1*
X77752Y66207D1*
X77729Y66565D1*
X77692Y66940D1*
X77642Y67333D1*
X77641Y67340D1*
X77575Y67756D1*
X77497Y68162D1*
X77431Y68463D1*
X77334Y68854D1*
X77224Y69243D1*
X77123Y69567D1*
X76991Y69952D1*
X76846Y70334D1*
X76719Y70643D1*
X76554Y71014D1*
X76377Y71382D1*
X76221Y71682D1*
X76023Y72039D1*
X75815Y72390D1*
X75633Y72677D1*
X75404Y73015D1*
X75166Y73347D1*
X74958Y73619D1*
X74700Y73937D1*
X74433Y74247D1*
X74201Y74501D1*
X73917Y74796D1*
X73623Y75082D1*
X73368Y75317D1*
X73058Y75586D1*
X72740Y75846D1*
X72464Y76058D1*
X72132Y76300D1*
X71792Y76531D1*
X71496Y76720D1*
X71144Y76932D1*
X70784Y77133D1*
X70472Y77297D1*
X70101Y77477D1*
X69725Y77647D1*
X69398Y77783D1*
X69012Y77931D1*
X68622Y78067D1*
X68282Y78175D1*
X67885Y78289D1*
X67484Y78390D1*
X67133Y78469D1*
X66727Y78548D1*
X66318Y78614D1*
X65960Y78662D1*
X65548Y78705D1*
X65134Y78736D1*
X64771Y78752D1*
X64356Y78759D1*
X63941Y78753D1*
X63575Y78738D1*
X63161Y78709D1*
X62747Y78667D1*
X62382Y78620D1*
X61971Y78554D1*
X61562Y78476D1*
X61200Y78397D1*
X60796Y78296D1*
X60395Y78182D1*
X60039Y78071D1*
X59645Y77935D1*
X59254Y77787D1*
X58908Y77644D1*
X58526Y77473D1*
X58150Y77292D1*
X57815Y77118D1*
X57450Y76915D1*
X57090Y76701D1*
X56770Y76497D1*
X56423Y76263D1*
X56083Y76018D1*
X55780Y75786D1*
X55454Y75521D1*
X55136Y75247D1*
X54853Y74989D1*
X54551Y74696D1*
X54258Y74395D1*
X53997Y74111D1*
X53722Y73793D1*
X53455Y73467D1*
X53219Y73160D1*
X52972Y72818D1*
X52735Y72470D1*
X52525Y72141D1*
X52308Y71779D1*
X52102Y71411D1*
X51920Y71063D1*
X51736Y70683D1*
X51562Y70298D1*
X51411Y69933D1*
X51260Y69538D1*
X51121Y69139D1*
X51001Y68760D1*
X50885Y68353D1*
X50781Y67942D1*
X50694Y67553D1*
X50614Y67137D1*
X50546Y66718D1*
X50493Y66320D1*
X50450Y65898D1*
X50419Y65474D1*
X50401Y65071D1*
X50394Y64646D1*
X50400Y64220D1*
X50417Y63815D1*
X50448Y63390D1*
X50491Y62966D1*
X50544Y62562D1*
X50611Y62141D1*
X50691Y61722D1*
X50779Y61322D1*
X50883Y60908D1*
X51000Y60497D1*
X51123Y60104D1*
X51263Y59700D1*
X51415Y59300D1*
X51574Y58917D1*
X51748Y58526D1*
X51935Y58141D1*
X52127Y57771D1*
X52336Y57397D1*
X52555Y57028D1*
X52780Y56675D1*
X53021Y56320D1*
X53272Y55971D1*
X53528Y55637D1*
X53799Y55304D1*
X54080Y54978D1*
X54366Y54666D1*
X54666Y54357D1*
X54974Y54057D1*
X55288Y53770D1*
X55614Y53488D1*
X55948Y53215D1*
X56287Y52955D1*
X56637Y52702D1*
X56994Y52459D1*
X57356Y52228D1*
X57727Y52007D1*
X58104Y51796D1*
X58487Y51596D1*
X58877Y51408D1*
X59272Y51230D1*
X59673Y51064D1*
X60077Y50910D1*
X60487Y50767D1*
X60900Y50637D1*
X60903Y50636D1*
X61320Y50518D1*
X61741Y50411D1*
X62165Y50317D1*
X62169Y50316D1*
X62595Y50234D1*
X63025Y50165D1*
X63456Y50108D1*
X63462Y50107D1*
X63894Y50063D1*
X64328Y50031D1*
X64763Y50012D1*
X64771D1*
X65206Y50006D1*
X65642Y50012D1*
X66077Y50031D1*
X66087D1*
X66521Y50063D1*
X66955Y50107D1*
X67388Y50164D1*
X67399Y50165D1*
X67830Y50235D1*
X68259Y50317D1*
X68686Y50411D1*
X68698Y50414D1*
X69122Y50521D1*
X69542Y50640D1*
X69960Y50772D1*
X69974Y50776D1*
X70387Y50920D1*
X70796Y51076D1*
X71201Y51243D1*
X71216Y51249D1*
X71615Y51429D1*
X72010Y51620D1*
X72399Y51822D1*
X72415Y51831D1*
X72798Y52044D1*
X73175Y52269D1*
X73546Y52505D1*
X73562Y52516D1*
X73925Y52763D1*
X74282Y53020D1*
X74631Y53287D1*
X74647Y53300D1*
X74988Y53578D1*
X75321Y53866D1*
X75646Y54163D1*
X75663Y54179D1*
X75978Y54486D1*
X76285Y54802D1*
X76583Y55127D1*
X76600Y55145D1*
X76888Y55479D1*
X77167Y55821D1*
X77436Y56171D1*
X77451Y56192D1*
X77709Y56550D1*
X77958Y56915D1*
X78195Y57288D1*
X78210Y57312D1*
X78436Y57691D1*
X78652Y58078D1*
X78856Y58470D1*
X78870Y58496D1*
X79062Y58895D1*
X79244Y59299D1*
X79414Y59708D1*
X79425Y59737D1*
X79583Y60152D1*
X79728Y60571D1*
X79861Y60991D1*
X79871Y61025D1*
X79991Y61448D1*
X80100Y61880D1*
X80198Y62322D1*
X80204Y62350D1*
X80291Y62802D1*
X80355Y63191D1*
X80410Y63604D1*
X80421Y63702D1*
X80458Y64095D1*
X80490Y64562D1*
X80519Y65071D1*
Y65465D1*
X80515Y65937D1*
X80503Y66331D1*
X80497Y66447D1*
X80470Y66842D1*
X80430Y67252D1*
X80375Y67681D1*
X80355Y67819D1*
X80280Y68276D1*
X80194Y68724D1*
X80096Y69162D1*
X80093Y69177D1*
X79984Y69606D1*
X79863Y70034D1*
X79729Y70460D1*
X79713Y70509D1*
X79565Y70933D1*
X79406Y71352D1*
X79235Y71766D1*
X79217Y71807D1*
X79033Y72215D1*
X78838Y72619D1*
X78631Y73017D1*
X78608Y73060D1*
X78389Y73451D1*
X78159Y73837D1*
X77918Y74215D1*
X77890Y74257D1*
X77638Y74628D1*
X77375Y74993D1*
X77101Y75350D1*
X77069Y75390D1*
X76785Y75739D1*
X76490Y76079D1*
X76187Y76411D1*
X76150Y76450D1*
X75836Y76772D1*
X75513Y77086D1*
X75181Y77391D1*
X75139Y77428D1*
X74798Y77722D1*
X74448Y78007D1*
X74091Y78282D1*
X74045Y78316D1*
X73679Y78579D1*
X73305Y78833D1*
X72925Y79076D1*
X72874Y79107D1*
X72486Y79338D1*
X72092Y79558D1*
X71691Y79767D1*
X71636Y79795D1*
X71229Y79991D1*
X70816Y80176D1*
X70398Y80350D1*
X70340Y80373D1*
X69917Y80533D1*
X69489Y80682D1*
X69057Y80819D1*
X68995Y80837D1*
X68559Y80960D1*
X68119Y81071D1*
X67676Y81170D1*
X67612Y81183D1*
X67166Y81267D1*
X66718Y81340D1*
X66267Y81399D1*
X66200Y81407D1*
X65748Y81453D1*
X65295Y81486D1*
X64840Y81506D1*
X64771Y81508D1*
X64316Y81514D1*
X63861Y81507D1*
X63406Y81488D1*
X63335Y81484D1*
X62881Y81450D1*
X62427Y81403D1*
X61975Y81344D1*
X61903Y81334D1*
X61453Y81260D1*
X61005Y81174D1*
X60559Y81076D1*
X60487Y81059D1*
X60044Y80946D1*
X59605Y80822D1*
X59169Y80685D1*
X59097Y80661D1*
X58665Y80510D1*
X58238Y80347D1*
X57815Y80172D1*
X57743Y80141D1*
X57326Y79953D1*
X56914Y79754D1*
X56508Y79543D1*
X56437Y79505D1*
X56038Y79281D1*
X55644Y79046D1*
X55257Y78800D1*
X55189Y78755D1*
X54810Y78497D1*
X54438Y78228D1*
X54074Y77949D1*
X54008Y77897D1*
X53653Y77606D1*
X53306Y77306D1*
X52966Y76996D1*
X52904Y76937D1*
X52575Y76616D1*
X52255Y76286D1*
X51944Y75948D1*
X51886Y75882D1*
X51586Y75534D1*
X51295Y75177D1*
X51014Y74812D1*
X50961Y74740D1*
X50693Y74366D1*
X50434Y73985D1*
X50186Y73596D1*
X50138Y73519D1*
X49903Y73123D1*
X49678Y72720D1*
X49464Y72310D1*
X49423Y72228D1*
X49223Y71812D1*
X49034Y71390D1*
X48856Y70963D1*
X48821Y70876D1*
X48658Y70444D1*
X48506Y70007D1*
X48367Y69566D1*
X48339Y69474D1*
X48214Y69028D1*
X48101Y68579D1*
X48000Y68127D1*
X47980Y68032D1*
X47894Y67576D1*
X47821Y67119D1*
X47760Y66659D1*
X47748Y66560D1*
X47702Y66099D1*
X47669Y65636D1*
X47648Y65172D1*
X47645Y65071D1*
X47639Y64607D1*
X47646Y64142D1*
X47666Y63678D1*
X47672Y63575D1*
X47707Y63112D1*
X47754Y62649D1*
X47814Y62187D1*
X47830Y62084D1*
X47905Y61625D1*
X47993Y61167D1*
X48093Y60712D1*
X48117Y60609D1*
X48233Y60157D1*
X48360Y59709D1*
X48500Y59264D1*
X48534Y59161D1*
X48688Y58721D1*
X48854Y58285D1*
X49032Y57853D1*
X49076Y57752D1*
X49268Y57327D1*
X49472Y56907D1*
X49687Y56492D1*
X49740Y56393D1*
X49969Y55986D1*
X50209Y55584D1*
X50460Y55189D1*
X50522Y55094D1*
X50786Y54708D1*
X51061Y54328D1*
X51345Y53956D1*
X51417Y53866D1*
X51714Y53503D1*
X52020Y53149D1*
X52337Y52803D1*
X52417Y52717D1*
X52745Y52382D1*
X53082Y52055D1*
X53427Y51738D1*
X53516Y51658D1*
X53872Y51353D1*
X54237Y51056D1*
X54609Y50769D1*
X54706Y50697D1*
X55088Y50423D1*
X55477Y50159D1*
X55874Y49906D1*
X55978Y49842D1*
X56383Y49602D1*
X56794Y49373D1*
X57211Y49154D1*
X57323Y49099D1*
X57747Y48895D1*
X58177Y48702D1*
X58613Y48521D1*
X58730Y48474D1*
X59171Y48308D1*
X59617Y48153D1*
X60067Y48011D1*
X60190Y47974D1*
X60644Y47847D1*
X61102Y47731D1*
X61563Y47628D1*
X61690Y47602D1*
X62155Y47515D1*
X62622Y47440D1*
X63091Y47377D1*
X63221Y47362D1*
X63692Y47315D1*
X64164Y47281D1*
X64637Y47260D1*
X64771Y47256D1*
X65244Y47251D1*
X65718Y47258D1*
X66192Y47278D1*
X66327Y47286D1*
X66799Y47322D1*
X67271Y47370D1*
X67742Y47431D1*
X67878Y47451D1*
X68346Y47528D1*
X68812Y47618D1*
X69276Y47720D1*
X69411Y47752D1*
X69871Y47870D1*
X70329Y48000D1*
X70783Y48142D1*
X70916Y48186D1*
X71365Y48344D1*
X71809Y48514D1*
X72250Y48695D1*
X72381Y48752D1*
X72814Y48948D1*
X73243Y49156D1*
X73666Y49375D1*
X73793Y49444D1*
X74208Y49678D1*
X74618Y49922D1*
X75021Y50178D1*
X75143Y50258D1*
X75536Y50528D1*
X75923Y50807D1*
X76303Y51097D1*
X76419Y51189D1*
X76788Y51492D1*
X77149Y51805D1*
X77502Y52127D1*
X77611Y52230D1*
X77953Y52565D1*
X78286Y52908D1*
X78610Y53260D1*
X78711Y53374D1*
X79023Y53737D1*
X79325Y54108D1*
X79617Y54488D1*
X79709Y54611D1*
X79988Y55001D1*
X80257Y55398D1*
X80515Y55802D1*
X80597Y55934D1*
X80841Y56347D1*
X81075Y56766D1*
X81297Y57191D1*
X81368Y57332D1*
X81575Y57764D1*
X81771Y58203D1*
X81956Y58647D1*
X82015Y58795D1*
X82185Y59245D1*
X82342Y59699D1*
X82487Y60156D1*
X82533Y60312D1*
X82661Y60771D1*
X82779Y61239D1*
X82886Y61717D1*
X82918Y61871D1*
X83011Y62362D1*
X83081Y62790D1*
X83141Y63240D1*
X83166Y63462D1*
X83205Y63888D1*
X83239Y64386D1*
X83273Y65043D1*
X83275Y65071D1*
X83274Y65465D1*
X83267Y66016D1*
X83254Y66449D1*
X83242Y66687D1*
X83212Y67115D1*
X83168Y67558D1*
X83110Y68019D1*
X83069Y68297D1*
X82986Y68792D1*
X82892Y69278D1*
X82787Y69754D1*
X82755Y69890D1*
X82636Y70354D1*
X82504Y70818D1*
X82360Y71279D1*
X82303Y71452D1*
X82141Y71910D1*
X81968Y72364D1*
X81783Y72813D1*
X81714Y72972D1*
X81514Y73413D1*
X81302Y73850D1*
X81079Y74281D1*
X80994Y74438D1*
X80756Y74861D1*
X80507Y75278D1*
X80246Y75688D1*
X80148Y75838D1*
X79873Y76239D1*
X79588Y76633D1*
X79293Y77020D1*
X79180Y77162D1*
X78871Y77538D1*
X78553Y77906D1*
X78224Y78266D1*
X78099Y78399D1*
X77758Y78747D1*
X77408Y79086D1*
X77049Y79416D1*
X76911Y79539D1*
X76541Y79856D1*
X76162Y80164D1*
X75776Y80462D1*
X75626Y80573D1*
X75229Y80857D1*
X74824Y81131D1*
X74413Y81395D1*
X74252Y81494D1*
X73832Y81742D1*
X73405Y81980D1*
X72971Y82207D1*
X72801Y82292D1*
X72360Y82503D1*
X71913Y82703D1*
X71461Y82892D1*
X71283Y82963D1*
X70824Y83135D1*
X70362Y83295D1*
X69895Y83443D1*
X69708Y83499D1*
X69236Y83631D1*
X68761Y83750D1*
X68282Y83857D1*
X68090Y83897D1*
X67608Y83987D1*
X67123Y84065D1*
X66637Y84130D1*
X66440Y84153D1*
X65951Y84200D1*
X65461Y84236D1*
X64970Y84258D1*
X64771Y84264D1*
X64279Y84269D1*
X63787Y84261D1*
X63296Y84241D1*
X63095Y84229D1*
X62604Y84191D1*
X62114Y84140D1*
X61626Y84077D1*
X61425Y84048D1*
X60939Y83967D1*
X60455Y83874D1*
X59973Y83768D1*
X59774Y83721D1*
X59296Y83598D1*
X58822Y83463D1*
X58351Y83316D1*
X58154Y83250D1*
X57689Y83086D1*
X57227Y82910D1*
X56770Y82722D1*
X56579Y82639D1*
X56129Y82435D1*
X55684Y82219D1*
X55245Y81992D1*
X55059Y81891D1*
X54629Y81648D1*
X54204Y81394D1*
X53786Y81130D1*
X53608Y81012D1*
X53200Y80732D1*
X52799Y80442D1*
X52405Y80142D1*
X52237Y80008D1*
X51854Y79693D1*
X51480Y79369D1*
X51113Y79035D1*
X50956Y78886D1*
X50602Y78539D1*
X50256Y78182D1*
X49920Y77817D1*
X49775Y77654D1*
X49452Y77277D1*
X49139Y76891D1*
X48835Y76498D1*
X48704Y76321D1*
X48415Y75917D1*
X48136Y75505D1*
X47868Y75086D1*
X47751Y74897D1*
X47499Y74469D1*
X47257Y74034D1*
X47025Y73593D1*
X46925Y73393D1*
X46710Y72943D1*
X46507Y72489D1*
X46315Y72029D1*
X46232Y71819D1*
X46057Y71352D1*
X45894Y70881D1*
X45742Y70405D1*
X45677Y70187D1*
X45544Y69707D1*
X45422Y69222D1*
X45312Y68735D1*
X45266Y68510D1*
X45175Y68019D1*
X45096Y67526D1*
X45029Y67031D1*
X45003Y66800D1*
X44954Y66303D1*
X44919Y65804D1*
X44895Y65304D1*
X44889Y65071D1*
X44884Y64571D1*
X44892Y64070D1*
X44912Y63570D1*
X44926Y63335D1*
X44965Y62836D1*
X45017Y62337D1*
X45081Y61840D1*
X45115Y61605D1*
X45198Y61111D1*
X45293Y60618D1*
X45400Y60128D1*
X45455Y59895D1*
X45581Y59410D1*
X45718Y58927D1*
X45868Y58447D1*
X45944Y58219D1*
X46111Y57745D1*
X46291Y57276D1*
X46482Y56811D1*
X46578Y56588D1*
X46786Y56130D1*
X47006Y55678D1*
X47237Y55231D1*
X47354Y55015D1*
X47601Y54577D1*
X47860Y54145D1*
X48129Y53720D1*
X48265Y53513D1*
X48550Y53098D1*
X48845Y52690D1*
X49151Y52289D1*
X49306Y52094D1*
X49626Y51705D1*
X49956Y51324D1*
X50296Y50951D1*
X50469Y50769D1*
X50822Y50409D1*
X51185Y50057D1*
X51556Y49715D1*
X51745Y49547D1*
X52129Y49219D1*
X52521Y48900D1*
X52921Y48591D1*
X53125Y48440D1*
X53537Y48146D1*
X53956Y47862D1*
X54382Y47589D1*
X54600Y47455D1*
X55036Y47198D1*
X55478Y46952D1*
X55927Y46717D1*
X56158Y46601D1*
X56615Y46383D1*
X57078Y46176D1*
X57545Y45980D1*
X57787Y45885D1*
X58262Y45707D1*
X58742Y45541D1*
X59225Y45387D1*
X59476Y45312D1*
X59965Y45176D1*
X60458Y45053D1*
X60953Y44941D1*
X61212Y44888D1*
X61711Y44795D1*
X62213Y44715D1*
X62717Y44647D1*
X62981Y44616D1*
X63487Y44568D1*
X63995Y44531D1*
X64503Y44508D1*
X64771Y44500D1*
X65280Y44496D1*
X65789Y44504D1*
X66298Y44524D1*
X66567Y44540D1*
X67075Y44580D1*
X67582Y44633D1*
X68087Y44697D1*
X68356Y44737D1*
X68859Y44821D1*
X69360Y44918D1*
X69858Y45027D1*
X70125Y45090D1*
X70619Y45218D1*
X71110Y45358D1*
X71597Y45510D1*
X71859Y45597D1*
X72340Y45767D1*
X72818Y45950D1*
X73291Y46144D1*
X73545Y46254D1*
X74010Y46466D1*
X74471Y46689D1*
X74925Y46924D1*
X75171Y47057D1*
X75616Y47309D1*
X76056Y47572D1*
X76489Y47846D1*
X76723Y48001D1*
X77145Y48291D1*
X77561Y48591D1*
X77968Y48902D1*
X78190Y49078D1*
X78586Y49404D1*
X78973Y49740D1*
X79353Y50086D1*
X79560Y50282D1*
X79926Y50641D1*
X80283Y51010D1*
X80632Y51387D1*
X80822Y51602D1*
X81156Y51993D1*
X81480Y52392D1*
X81794Y52798D1*
X81966Y53030D1*
X82265Y53449D1*
X82553Y53875D1*
X82831Y54308D1*
X82983Y54556D1*
X83245Y54999D1*
X83495Y55449D1*
X83734Y55905D1*
X83865Y56167D1*
X84087Y56632D1*
X84297Y57102D1*
X84496Y57578D1*
X84605Y57852D1*
X84785Y58336D1*
X84954Y58823D1*
X85110Y59313D1*
X85195Y59598D1*
X85331Y60091D1*
X85457Y60593D1*
X85573Y61105D1*
X85632Y61393D1*
X85720Y61857D1*
X85797Y62323D1*
X85865Y62811D1*
X85912Y63221D1*
X85952Y63678D1*
X85987Y64207D1*
X86022Y64878D1*
X86031Y65071D1*
X75007D2*
X75012Y65465D1*
X75011Y65780D1*
X75006Y65966D1*
X74988Y66285D1*
X74957Y66620D1*
X74927Y66862D1*
X74871Y67231D1*
X74803Y67592D1*
X74769Y67750D1*
X74685Y68098D1*
X74589Y68444D1*
X74533Y68624D1*
X74418Y68968D1*
X74291Y69307D1*
X74221Y69478D1*
X74077Y69810D1*
X73920Y70137D1*
X73834Y70304D1*
X73661Y70623D1*
X73476Y70935D1*
X73375Y71096D1*
X73174Y71399D1*
X72962Y71695D1*
X72847Y71848D1*
X72619Y72132D1*
X72382Y72409D1*
X72252Y72553D1*
X72001Y72817D1*
X71740Y73072D1*
X71596Y73206D1*
X71322Y73447D1*
X71040Y73679D1*
X70883Y73801D1*
X70589Y74018D1*
X70286Y74225D1*
X70118Y74334D1*
X69805Y74524D1*
X69485Y74705D1*
X69307Y74799D1*
X68978Y74962D1*
X68643Y75114D1*
X68455Y75193D1*
X68112Y75327D1*
X67765Y75450D1*
X67569Y75513D1*
X67215Y75617D1*
X66857Y75709D1*
X66655Y75755D1*
X66292Y75827D1*
X65927Y75888D1*
X65720Y75916D1*
X65352Y75957D1*
X64982Y75986D1*
X64771Y75996D1*
X64400Y76005D1*
X64029Y76001D1*
X63815Y75993D1*
X63445Y75969D1*
X63075Y75932D1*
X62860Y75906D1*
X62493Y75849D1*
X62126Y75781D1*
X61913Y75735D1*
X61551Y75647D1*
X61192Y75546D1*
X60982Y75481D1*
X60628Y75361D1*
X60278Y75230D1*
X60073Y75146D1*
X59730Y74996D1*
X59393Y74834D1*
X59193Y74731D1*
X58865Y74551D1*
X58542Y74360D1*
X58351Y74240D1*
X58038Y74032D1*
X57733Y73813D1*
X57551Y73675D1*
X57258Y73440D1*
X56973Y73195D1*
X56802Y73040D1*
X56530Y72780D1*
X56266Y72510D1*
X56108Y72340D1*
X55860Y72056D1*
X55620Y71764D1*
X55476Y71579D1*
X55253Y71274D1*
X55040Y70962D1*
X54911Y70763D1*
X54715Y70440D1*
X54529Y70109D1*
X54418Y69898D1*
X54251Y69558D1*
X54094Y69213D1*
X54001Y68991D1*
X53863Y68637D1*
X53737Y68278D1*
X53663Y68047D1*
X53557Y67682D1*
X53463Y67313D1*
X53408Y67074D1*
X53334Y66701D1*
X53272Y66324D1*
X53239Y66080D1*
X53197Y65700D1*
X53169Y65320D1*
X53157Y65071D1*
X53148Y64689D1*
X53153Y64306D1*
X53163Y64055D1*
X53188Y63673D1*
X53226Y63292D1*
X53258Y63041D1*
X53316Y62662D1*
X53387Y62285D1*
X53441Y62035D1*
X53533Y61662D1*
X53637Y61292D1*
X53713Y61046D1*
X53837Y60682D1*
X53973Y60322D1*
X54071Y60082D1*
X54227Y59729D1*
X54394Y59381D1*
X54514Y59149D1*
X54700Y58811D1*
X54897Y58478D1*
X55037Y58256D1*
X55253Y57934D1*
X55478Y57620D1*
X55639Y57409D1*
X55882Y57107D1*
X56135Y56813D1*
X56315Y56615D1*
X56583Y56335D1*
X56861Y56064D1*
X57059Y55881D1*
X57352Y55625D1*
X57653Y55379D1*
X57868Y55212D1*
X58182Y54983D1*
X58504Y54763D1*
X58734Y54615D1*
X59068Y54413D1*
X59408Y54222D1*
X59652Y54094D1*
X60002Y53922D1*
X60359Y53761D1*
X60615Y53654D1*
X60980Y53513D1*
X61349Y53383D1*
X61616Y53298D1*
X61992Y53189D1*
X62372Y53092D1*
X62648Y53030D1*
X63032Y52954D1*
X63420Y52891D1*
X63702Y52853D1*
X64092Y52811D1*
X64484Y52781D1*
X64771Y52768D1*
X65164Y52760D1*
X65558Y52765D1*
X65846Y52776D1*
X66239Y52803D1*
X66632Y52842D1*
X66920Y52879D1*
X67310Y52940D1*
X67699Y53014D1*
X67985Y53076D1*
X68368Y53171D1*
X68749Y53278D1*
X69031Y53366D1*
X69406Y53494D1*
X69776Y53634D1*
X70051Y53747D1*
X70414Y53908D1*
X70771Y54080D1*
X71037Y54217D1*
X71385Y54409D1*
X71726Y54612D1*
X71981Y54773D1*
X72311Y54995D1*
X72634Y55228D1*
X72876Y55412D1*
X73186Y55662D1*
X73488Y55922D1*
X73714Y56128D1*
X74001Y56404D1*
X74280Y56690D1*
X74489Y56917D1*
X74751Y57218D1*
X75004Y57527D1*
X75194Y57773D1*
X75429Y58096D1*
X75655Y58427D1*
X75823Y58690D1*
X76030Y59033D1*
X76226Y59383D1*
X76372Y59661D1*
X76548Y60021D1*
X76714Y60388D1*
X76835Y60680D1*
X76980Y61056D1*
X77113Y61435D1*
X77209Y61738D1*
X77319Y62121D1*
X77419Y62514D1*
X77490Y62828D1*
X77571Y63239D1*
X77634Y63627D1*
X77675Y63942D1*
X77711Y64299D1*
X77742Y64731D1*
X77763Y65071D1*
X72382D2*
X72391Y65425D1*
X72390Y65701D1*
Y65738D1*
X72376Y66013D1*
X72350Y66304D1*
X72338Y66405D1*
X72293Y66725D1*
X72244Y66996D1*
X72229Y67069D1*
X72159Y67370D1*
X72077Y67670D1*
X72060Y67724D1*
X71963Y68022D1*
X71854Y68315D1*
X71834Y68365D1*
X71712Y68653D1*
X71577Y68936D1*
X71552Y68986D1*
X71404Y69263D1*
X71245Y69534D1*
X71215Y69583D1*
X71043Y69847D1*
X70861Y70103D1*
X70825Y70151D1*
X70630Y70399D1*
X70426Y70639D1*
X70385Y70685D1*
X70169Y70916D1*
X69944Y71138D1*
X69898Y71181D1*
X69662Y71392D1*
X69417Y71594D1*
X69367Y71634D1*
X69113Y71825D1*
X68851Y72005D1*
X68795Y72042D1*
X68525Y72209D1*
X68248Y72367D1*
X68188Y72399D1*
X67903Y72543D1*
X67613Y72675D1*
X67549Y72703D1*
X67252Y72822D1*
X66950Y72929D1*
X66882Y72951D1*
X66576Y73044D1*
X66265Y73125D1*
X66194Y73141D1*
X65880Y73207D1*
X65563Y73260D1*
X65488Y73271D1*
X65169Y73309D1*
X64848Y73334D1*
X64771Y73339D1*
X64448Y73349D1*
X64126Y73346D1*
X64047Y73344D1*
X63724Y73325D1*
X63402Y73294D1*
X63322Y73285D1*
X63002Y73238D1*
X62683Y73179D1*
X62603Y73163D1*
X62287Y73088D1*
X61973Y73001D1*
X61893Y72977D1*
X61584Y72875D1*
X61279Y72761D1*
X61200Y72729D1*
X60900Y72600D1*
X60606Y72460D1*
X60528Y72420D1*
X60240Y72266D1*
X59958Y72100D1*
X59882Y72053D1*
X59609Y71873D1*
X59342Y71682D1*
X59269Y71628D1*
X59011Y71424D1*
X58762Y71211D1*
X58693Y71149D1*
X58453Y70924D1*
X58223Y70689D1*
X58158Y70620D1*
X57939Y70374D1*
X57729Y70119D1*
X57670Y70043D1*
X57473Y69778D1*
X57285Y69506D1*
X57232Y69424D1*
X57058Y69142D1*
X56895Y68854D1*
X56848Y68765D1*
X56699Y68469D1*
X56562Y68167D1*
X56522Y68073D1*
X56400Y67764D1*
X56289Y67451D1*
X56257Y67352D1*
X56161Y67033D1*
X56078Y66711D1*
X56054Y66608D1*
X55987Y66281D1*
X55932Y65952D1*
X55917Y65846D1*
X55879Y65513D1*
X55853Y65180D1*
X55847Y65071D1*
X55837Y64736D1*
X55841Y64401D1*
X55844Y64290D1*
X55864Y63955D1*
X55897Y63620D1*
X55911Y63509D1*
X55960Y63176D1*
X56022Y62845D1*
X56045Y62733D1*
X56124Y62405D1*
X56214Y62080D1*
X56248Y61969D1*
X56355Y61649D1*
X56474Y61332D1*
X56518Y61223D1*
X56652Y60912D1*
X56799Y60606D1*
X56853Y60500D1*
X57015Y60202D1*
X57187Y59909D1*
X57252Y59806D1*
X57439Y59523D1*
X57637Y59246D1*
X57711Y59147D1*
X57923Y58881D1*
X58145Y58622D1*
X58229Y58529D1*
X58463Y58281D1*
X58707Y58042D1*
X58800Y57956D1*
X59056Y57729D1*
X59321Y57512D1*
X59422Y57432D1*
X59697Y57229D1*
X59980Y57035D1*
X60090Y56964D1*
X60383Y56785D1*
X60682Y56616D1*
X60799Y56554D1*
X61107Y56400D1*
X61420Y56258D1*
X61544Y56206D1*
X61865Y56079D1*
X62190Y55965D1*
X62320Y55923D1*
X62650Y55825D1*
X62985Y55739D1*
X63120Y55708D1*
X63459Y55639D1*
X63800Y55583D1*
X63939Y55564D1*
X64283Y55525D1*
X64629Y55498D1*
X64771Y55491D1*
X65118Y55482D1*
X65465Y55486D1*
X65609Y55491D1*
X65956Y55513D1*
X66303Y55547D1*
X66447Y55565D1*
X66791Y55616D1*
X67134Y55681D1*
X67279Y55712D1*
X67618Y55794D1*
X67954Y55888D1*
X68097Y55932D1*
X68429Y56043D1*
X68756Y56166D1*
X68896Y56223D1*
X69218Y56363D1*
X69534Y56515D1*
X69670Y56585D1*
X69978Y56753D1*
X70281Y56932D1*
X70412Y57014D1*
X70705Y57209D1*
X70991Y57414D1*
X71116Y57509D1*
X71391Y57729D1*
X71659Y57958D1*
X71777Y58065D1*
X72032Y58308D1*
X72280Y58561D1*
X72389Y58679D1*
X72623Y58944D1*
X72847Y59218D1*
X72947Y59346D1*
X73157Y59631D1*
X73357Y59924D1*
X73446Y60062D1*
X73631Y60365D1*
X73805Y60675D1*
X73883Y60822D1*
X74041Y61140D1*
X74187Y61465D1*
X74253Y61620D1*
X74383Y61952D1*
X74501Y62288D1*
X74553Y62450D1*
X74652Y62789D1*
X74741Y63138D1*
X74780Y63306D1*
X74843Y63615D1*
X74901Y63960D1*
X74932Y64182D1*
X74965Y64498D1*
X74995Y64894D1*
X75007Y65071D1*
X69889D2*
X69901Y65346D1*
X69904Y65520D1*
X69897Y65746D1*
X69879Y65972D1*
X69846Y66234D1*
X69815Y66423D1*
X69762Y66671D1*
X69710Y66869D1*
X69635Y67115D1*
X69566Y67307D1*
X69469Y67546D1*
X69383Y67734D1*
X69265Y67964D1*
X69162Y68146D1*
X69024Y68365D1*
X68904Y68539D1*
X68746Y68746D1*
X68610Y68910D1*
X68435Y69104D1*
X68283Y69257D1*
X68091Y69435D1*
X67925Y69576D1*
X67717Y69736D1*
X67538Y69863D1*
X67316Y70006D1*
X67124Y70118D1*
X66890Y70241D1*
X66687Y70336D1*
X66442Y70438D1*
X66230Y70516D1*
X65976Y70597D1*
X65756Y70657D1*
X65495Y70715D1*
X65268Y70756D1*
X65003Y70792D1*
X64771Y70812D1*
X64502Y70825D1*
X64267D1*
X63998Y70814D1*
X63762Y70793D1*
X63494Y70758D1*
X63258Y70717D1*
X62993Y70659D1*
X62760Y70596D1*
X62500Y70515D1*
X62271Y70431D1*
X62019Y70327D1*
X61796Y70223D1*
X61554Y70097D1*
X61339Y69973D1*
X61107Y69825D1*
X60902Y69681D1*
X60684Y69514D1*
X60490Y69351D1*
X60287Y69165D1*
X60107Y68984D1*
X59921Y68780D1*
X59756Y68583D1*
X59587Y68362D1*
X59439Y68149D1*
X59290Y67915D1*
X59159Y67688D1*
X59031Y67440D1*
X58920Y67200D1*
X58814Y66942D1*
X58723Y66691D1*
X58640Y66424D1*
X58571Y66164D1*
X58511Y65889D1*
X58465Y65623D1*
X58429Y65343D1*
X58406Y65071D1*
X58395Y64788D1*
X58396Y64513D1*
X58409Y64230D1*
X58434Y63954D1*
X58473Y63672D1*
X58522Y63397D1*
X58585Y63119D1*
X58660Y62847D1*
X58747Y62574D1*
X58845Y62308D1*
X58956Y62044D1*
X59079Y61785D1*
X59213Y61530D1*
X59358Y61282D1*
Y61281D1*
X59515Y61039D1*
X59681Y60803D1*
X59683Y60802D1*
X59860Y60573D1*
X60047Y60353D1*
X60050Y60350D1*
X60247Y60138D1*
X60453Y59934D1*
X60457Y59930D1*
X60672Y59735D1*
X60896Y59549D1*
X60902Y59545D1*
X61134Y59369D1*
X61374Y59204D1*
X61381Y59199D1*
X61628Y59044D1*
X61882Y58899D1*
X61891Y58894D1*
X62151Y58761D1*
X62418Y58639D1*
X62428Y58634D1*
X62700Y58524D1*
X62977Y58425D1*
X62989Y58421D1*
X63270Y58335D1*
X63555Y58260D1*
X63569Y58257D1*
X63858Y58196D1*
X64149Y58146D1*
X64165Y58144D1*
X64458Y58108D1*
X64753Y58084D1*
X64771Y58083D1*
X65067Y58072D1*
X65364Y58074D1*
X65383Y58075D1*
X65680Y58090D1*
X65976Y58118D1*
X65996Y58121D1*
X66291Y58162D1*
X66585Y58216D1*
X66606Y58221D1*
X66897Y58288D1*
X67185Y58367D1*
X67208Y58374D1*
X67493Y58467D1*
X67774Y58571D1*
X67797Y58581D1*
X68073Y58698D1*
X68345Y58827D1*
X68369Y58839D1*
X68634Y58980D1*
X68894Y59133D1*
X68918Y59148D1*
X69171Y59312D1*
X69417Y59488D1*
X69441Y59505D1*
X69679Y59692D1*
X69909Y59888D1*
X69933Y59909D1*
X70154Y60116D1*
X70367Y60332D1*
X70389Y60356D1*
X70592Y60582D1*
X70786Y60817D1*
X70807Y60844D1*
X70990Y61088D1*
X71163Y61339D1*
X71183Y61369D1*
X71344Y61628D1*
X71494Y61894D1*
X71512Y61927D1*
X71650Y62200D1*
X71778Y62479D1*
X71793Y62515D1*
X71908Y62800D1*
X72010Y63089D1*
X72023Y63128D1*
X72111Y63419D1*
X72189Y63720D1*
X72198Y63761D1*
X72256Y64031D1*
X72307Y64325D1*
X72319Y64411D1*
X72350Y64683D1*
X72380Y65040D1*
X72382Y65071D1*
X67527D2*
X67543Y65228D1*
X67549Y65314D1*
X67552Y65480D1*
X67549Y65561D1*
X67534Y65755D1*
X67528Y65810D1*
X67497Y65994D1*
X67484Y66058D1*
X67436Y66243D1*
X67417Y66305D1*
X67353Y66485D1*
X67328Y66547D1*
X67248Y66722D1*
X67216Y66783D1*
X67121Y66951D1*
X67083Y67011D1*
X66972Y67171D1*
X66928Y67228D1*
X66803Y67378D1*
X66753Y67433D1*
X66615Y67573D1*
X66558Y67624D1*
X66407Y67751D1*
X66346Y67799D1*
X66183Y67912D1*
X66116Y67955D1*
X65943Y68055D1*
X65870Y68092D1*
X65688Y68177D1*
X65611Y68208D1*
X65422Y68277D1*
X65340Y68302D1*
X65145Y68354D1*
X65060Y68372D1*
X64859Y68406D1*
X64771Y68417D1*
X64567Y68434D1*
X64476Y68437D1*
X64271Y68436D1*
X64178Y68431D1*
X63973Y68412D1*
X63879Y68398D1*
X63675Y68361D1*
X63581Y68339D1*
X63380Y68283D1*
X63287Y68253D1*
X63091Y68179D1*
X62999Y68140D1*
X62809Y68048D1*
X62720Y68000D1*
X62538Y67892D1*
X62451Y67836D1*
X62278Y67711D1*
X62196Y67646D1*
X62034Y67507D1*
X61956Y67433D1*
X61806Y67279D1*
X61734Y67197D1*
X61598Y67030D1*
X61532Y66941D1*
X61410Y66762D1*
X61351Y66665D1*
X61246Y66475D1*
X61194Y66373D1*
X61106Y66173D1*
X61063Y66064D1*
X60992Y65857D1*
X60958Y65743D1*
X60905Y65529D1*
X60881Y65411D1*
X60847Y65193D1*
X60834Y65071D1*
X60819Y64849D1*
X60816Y64725D1*
X60821Y64502D1*
X60829Y64376D1*
X60853Y64153D1*
X60873Y64027D1*
X60917Y63806D1*
X60948Y63680D1*
X61011Y63463D1*
X61054Y63338D1*
X61136Y63127D1*
X61191Y63004D1*
X61292Y62800D1*
X61358Y62681D1*
X61477Y62486D1*
X61554Y62372D1*
X61690Y62187D1*
X61778Y62078D1*
X61931Y61906D1*
X62029Y61804D1*
X62197Y61645D1*
X62306Y61550D1*
X62487Y61406D1*
X62605Y61320D1*
X62800Y61192D1*
X62927Y61116D1*
X63132Y61005D1*
X63267Y60940D1*
X63483Y60847D1*
X63624Y60793D1*
X63848Y60719D1*
X63996Y60677D1*
X64226Y60622D1*
X64379Y60593D1*
X64614Y60559D1*
X64771Y60543D1*
X65009Y60530D1*
X65168Y60528D1*
X65407Y60535D1*
X65568Y60548D1*
X65807Y60576D1*
X65968Y60603D1*
X66204Y60652D1*
X66364Y60693D1*
X66595Y60763D1*
X66753Y60819D1*
X66979Y60909D1*
X67133Y60980D1*
X67350Y61090D1*
X67499Y61174D1*
X67707Y61303D1*
X67850Y61402D1*
X68046Y61549D1*
X68181Y61661D1*
X68364Y61825D1*
X68490Y61950D1*
X68659Y62130D1*
X68775Y62267D1*
X68927Y62462D1*
X69033Y62610D1*
X69168Y62819D1*
X69261Y62977D1*
X69377Y63198D1*
X69457Y63365D1*
X69554Y63596D1*
X69619Y63772D1*
X69696Y64009D1*
X69746Y64194D1*
X69777Y64321D1*
X69817Y64513D1*
X69837Y64628D1*
X69866Y64850D1*
X69889Y65071D1*
M02*
