M48
INCH
T01C0.03
T02C0.0354
T03C0.04
T04C0.093
T05C0.125
T06C0.15
%
T01
X+024441Y+091494
X+023831Y+091574
X+023211Y+091654
X+022621Y+091714
X+022041Y+091754
X+025561Y+091314
X+026141Y+091184
X+026751Y+091044
X+027366Y+090899
X+027971Y+090724
X+063646Y+082609
X+063866Y+082049
X+064106Y+081469
X+064306Y+080869
X+064496Y+080299
X+064881Y+079214
X+065051Y+078644
X+065231Y+078064
X+065401Y+077444
X+065561Y+076854
X-027049Y+040651
X-027361Y+041214
X-027609Y+041774
X-027859Y+042344
X-028139Y+042914
T02
X+014701Y+119964
X+015701Y+119964
X+015701Y+120964
X+014701Y+120964
X+014701Y+121964
X+014701Y+122964
X+015701Y+122964
X+015701Y+121964
X+013701Y+121964
X+013701Y+122964
X+013701Y+120964
X+013701Y+119964
T03
X+021201Y+122964
X+020201Y+122964
X+018701Y+120964
X+022701Y+120964
X+025201Y+120964
X+026201Y+120964
X+026201Y+121964
X+026201Y+122964
X+025201Y+122964
X+025201Y+121964
X+027201Y+121964
X+027201Y+122964
X+027201Y+120964
X+027201Y+119964
X+026201Y+119964
X+025201Y+119964
X+010701Y+121214
X+009201Y+121214
X+021301Y+065934
X+021826Y+065339
X+021701Y+064589
X+021139Y+064089
T04
X+020701Y+064964
T05
X-008829Y+116104
X-038359Y+064964
X+050231Y+116104
T06
X+050231Y+013824
X+079761Y+064964
X-008829Y+013824
T00
M30
