M48
INCH
T01C0.038
T02C0.126
T03C0.126
%
T01
X+065589Y+120651
X+066464Y+120589
X+067276Y+120589
X+068214Y+120464
X+069089Y+120464
X+069964Y+120339
X+064714Y+120589
X+064214Y+068589
X+065339Y+068464
X+063089Y+068339
X+062089Y+067839
X+061339Y+067089
X+060839Y+066214
X+060589Y+065214
T02
X+064964Y+064964
T03
X+005909Y+064964
X+013820Y+094491
X+035436Y+116107
X+064964Y+124019
X+094491Y+116107
X+116107Y+094491
X+124019Y+064964
X+116107Y+035436
X+094491Y+013820
X+070964Y+007909
X+064964Y+005909
X+058964Y+007904
X+035436Y+013820
X+013820Y+035436
T00
M30
