G04 DipTrace 2.3.1.0*
%INTop  58742  REV 5  ONYX Blackpoint Engineering.gbr*%
%MOIN*%
%ADD15C,0.2*%
%ADD16C,0.22*%
%ADD17C,0.025*%
%ADD18C,0.1535*%
%ADD31C,0.189*%
%ADD32C,0.0*%
%ADD34C,0.06*%
%FSLAX44Y44*%
G04*
G70*
G90*
G75*
G01*
%LNTop*%
%LPD*%
X64714Y120589D2*
D15*
X65151Y120651D1*
G02X71964Y119589I79J-21864D01*
G01*
X65339Y67964D2*
D16*
G03X61089Y65214I-871J-3313D01*
G01*
D34*
X65589Y120651D3*
X69964Y120339D3*
X68214Y120464D3*
X69089D3*
X66464Y120589D3*
X67276D3*
X64714D3*
X60589Y65214D3*
X60839Y66214D3*
X61339Y67089D3*
X62089Y67839D3*
X63089Y68339D3*
X64214Y68589D3*
X65339Y68464D3*
X60243Y125213D2*
D17*
X63013D1*
X66914D2*
X69681D1*
X57618Y124964D2*
X62880D1*
X67047D2*
X72310D1*
X56047Y124716D2*
X62782D1*
X67145D2*
X73880D1*
X54477Y124467D2*
X62720D1*
X67207D2*
X75450D1*
X52907Y124218D2*
X62681D1*
X67246D2*
X77021D1*
X51774Y123970D2*
X62673D1*
X67254D2*
X78150D1*
X50848Y123721D2*
X62693D1*
X67235D2*
X79079D1*
X49918Y123472D2*
X62739D1*
X67188D2*
X80009D1*
X48993Y123224D2*
X62818D1*
X67110D2*
X80935D1*
X48063Y122975D2*
X62927D1*
X69465D2*
X81864D1*
X47137Y122726D2*
X63079D1*
X70793D2*
X82790D1*
X46235Y122477D2*
X63278D1*
X71715D2*
X83693D1*
X45586Y122229D2*
X63114D1*
X72461D2*
X84341D1*
X44938Y121980D2*
X62853D1*
X73094D2*
X84989D1*
X44289Y121731D2*
X62630D1*
X73825D2*
X85638D1*
X43641Y121483D2*
X62454D1*
X75239D2*
X86286D1*
X42993Y121234D2*
X62318D1*
X76481D2*
X86935D1*
X42348Y120985D2*
X62212D1*
X77606D2*
X87579D1*
X41700Y120737D2*
X62134D1*
X78641D2*
X88228D1*
X41051Y120488D2*
X62083D1*
X79602D2*
X88876D1*
X40403Y120239D2*
X60443D1*
X80496D2*
X89525D1*
X39910Y119991D2*
X57868D1*
X81340D2*
X90017D1*
X39422Y119742D2*
X56103D1*
X82137D2*
X90505D1*
X38934Y119493D2*
X54642D1*
X82903D2*
X90993D1*
X38446Y119245D2*
X53360D1*
X83629D2*
X91482D1*
X37957Y118996D2*
X52224D1*
X84321D2*
X91970D1*
X37469Y118747D2*
X51185D1*
X84993D2*
X92458D1*
X36981Y118498D2*
X50224D1*
X85641D2*
X92946D1*
X36493Y118250D2*
X49325D1*
X86258D2*
X93435D1*
X36703Y118001D2*
X48482D1*
X86860D2*
X93224D1*
X37016Y117752D2*
X47685D1*
X87450D2*
X92911D1*
X37243Y117504D2*
X46923D1*
X88012D2*
X92685D1*
X37414Y117255D2*
X46204D1*
X88563D2*
X92513D1*
X37539Y117006D2*
X45513D1*
X89102D2*
X92388D1*
X37629Y116758D2*
X44845D1*
X89621D2*
X92298D1*
X37692Y116509D2*
X44204D1*
X90133D2*
X92235D1*
X33051Y116260D2*
X33152D1*
X37719D2*
X43591D1*
X90625D2*
X92208D1*
X96778D2*
X96877D1*
X32668Y116012D2*
X33150D1*
X37723D2*
X42989D1*
X91118D2*
X92204D1*
X96778D2*
X97259D1*
X32285Y115763D2*
X33173D1*
X37700D2*
X42407D1*
X91586D2*
X92228D1*
X96754D2*
X97642D1*
X31903Y115514D2*
X33224D1*
X37649D2*
X41853D1*
X92051D2*
X92278D1*
X96703D2*
X98025D1*
X31520Y115265D2*
X33310D1*
X37563D2*
X41306D1*
X96618D2*
X98407D1*
X31137Y115017D2*
X33427D1*
X37446D2*
X40775D1*
X96500D2*
X98790D1*
X30754Y114768D2*
X33583D1*
X37289D2*
X40259D1*
X96344D2*
X99173D1*
X30371Y114519D2*
X33794D1*
X37078D2*
X39751D1*
X96133D2*
X99556D1*
X29989Y114271D2*
X34083D1*
X36785D2*
X39267D1*
X95844D2*
X99939D1*
X29606Y114022D2*
X34525D1*
X36348D2*
X38786D1*
X95403D2*
X100321D1*
X29262Y113773D2*
X38318D1*
X95035D2*
X100665D1*
X28957Y113525D2*
X37860D1*
X95438D2*
X100970D1*
X28649Y113276D2*
X37415D1*
X95821D2*
X101278D1*
X28340Y113027D2*
X36974D1*
X96203D2*
X101587D1*
X28035Y112779D2*
X36548D1*
X96578D2*
X101892D1*
X27727Y112530D2*
X36126D1*
X96950D2*
X102200D1*
X27422Y112281D2*
X35716D1*
X97309D2*
X102505D1*
X27114Y112033D2*
X35310D1*
X97664D2*
X102814D1*
X26805Y111784D2*
X34915D1*
X98020D2*
X103122D1*
X26500Y111535D2*
X34525D1*
X98364D2*
X103427D1*
X26192Y111286D2*
X34142D1*
X98703D2*
X103735D1*
X25883Y111038D2*
X33767D1*
X99035D2*
X104040D1*
X25578Y110789D2*
X33400D1*
X99368D2*
X104349D1*
X25270Y110540D2*
X33032D1*
X99692D2*
X104657D1*
X24965Y110292D2*
X32677D1*
X100012D2*
X104962D1*
X24657Y110043D2*
X32325D1*
X100332D2*
X105271D1*
X24379Y109794D2*
X31982D1*
X100641D2*
X105548D1*
X24129Y109546D2*
X31642D1*
X100950D2*
X105798D1*
X23883Y109297D2*
X31306D1*
X101250D2*
X106044D1*
X23633Y109048D2*
X30978D1*
X101547D2*
X106294D1*
X23383Y108800D2*
X30653D1*
X101844D2*
X106544D1*
X23137Y108551D2*
X30337D1*
X102133D2*
X106790D1*
X22887Y108302D2*
X30017D1*
X102418D2*
X107040D1*
X22637Y108054D2*
X29708D1*
X102703D2*
X107290D1*
X22391Y107805D2*
X29403D1*
X102981D2*
X107536D1*
X22141Y107556D2*
X29103D1*
X103258D2*
X107786D1*
X21891Y107307D2*
X28806D1*
X103528D2*
X108036D1*
X21645Y107059D2*
X28513D1*
X103797D2*
X108282D1*
X21395Y106810D2*
X28224D1*
X104063D2*
X108532D1*
X21145Y106561D2*
X27939D1*
X104325D2*
X108782D1*
X20899Y106313D2*
X27657D1*
X104582D2*
X109028D1*
X20649Y106064D2*
X27380D1*
X104840D2*
X109278D1*
X20399Y105815D2*
X27107D1*
X105090D2*
X109528D1*
X20153Y105567D2*
X26837D1*
X105340D2*
X109775D1*
X19926Y105318D2*
X26571D1*
X105586D2*
X110001D1*
X19727Y105069D2*
X26306D1*
X105825D2*
X110200D1*
X19524Y104821D2*
X26048D1*
X106067D2*
X110403D1*
X19325Y104572D2*
X25790D1*
X106305D2*
X110603D1*
X19121Y104323D2*
X25536D1*
X106539D2*
X110806D1*
X18922Y104075D2*
X25290D1*
X106770D2*
X111005D1*
X18719Y103826D2*
X25044D1*
X107000D2*
X111208D1*
X18516Y103577D2*
X24798D1*
X107223D2*
X111411D1*
X18317Y103328D2*
X24560D1*
X107450D2*
X111610D1*
X18114Y103080D2*
X24321D1*
X107668D2*
X111814D1*
X17914Y102831D2*
X24087D1*
X107887D2*
X112013D1*
X17711Y102582D2*
X23857D1*
X108102D2*
X112216D1*
X17512Y102334D2*
X23622D1*
X108317D2*
X112415D1*
X17309Y102085D2*
X23400D1*
X108528D2*
X112618D1*
X17110Y101836D2*
X23177D1*
X108735D2*
X112818D1*
X16907Y101588D2*
X22954D1*
X108942D2*
X113021D1*
X16703Y101339D2*
X22735D1*
X109145D2*
X113224D1*
X16504Y101090D2*
X22521D1*
X109348D2*
X113423D1*
X16301Y100842D2*
X22306D1*
X109547D2*
X113626D1*
X16102Y100593D2*
X22099D1*
X109743D2*
X113825D1*
X15930Y100344D2*
X21888D1*
X109938D2*
X113997D1*
X15766Y100096D2*
X21681D1*
X110129D2*
X114161D1*
X15606Y99847D2*
X21482D1*
X110321D2*
X114321D1*
X15446Y99598D2*
X21278D1*
X110508D2*
X114482D1*
X15282Y99349D2*
X21079D1*
X110696D2*
X114646D1*
X15121Y99101D2*
X20884D1*
X110875D2*
X114806D1*
X14957Y98852D2*
X20693D1*
X111059D2*
X114966D1*
X14797Y98603D2*
X20497D1*
X111239D2*
X115130D1*
X14637Y98355D2*
X20310D1*
X111414D2*
X115290D1*
X14473Y98106D2*
X20122D1*
X111590D2*
X115454D1*
X14313Y97857D2*
X19935D1*
X111766D2*
X115614D1*
X14153Y97609D2*
X19755D1*
X111938D2*
X115775D1*
X13989Y97360D2*
X19575D1*
X112106D2*
X115939D1*
X13828Y97111D2*
X19392D1*
X112274D2*
X116099D1*
X13668Y96863D2*
X19216D1*
X112442D2*
X116259D1*
X14633Y96614D2*
X19044D1*
X112606D2*
X115294D1*
X15118Y96365D2*
X18868D1*
X112766D2*
X114810D1*
X15422Y96117D2*
X18696D1*
X112930D2*
X114505D1*
X15645Y95868D2*
X18532D1*
X113086D2*
X114282D1*
X15809Y95619D2*
X18364D1*
X113243D2*
X114118D1*
X15934Y95370D2*
X18196D1*
X113399D2*
X113993D1*
X16020Y95122D2*
X18036D1*
X113555D2*
X113907D1*
X16078Y94873D2*
X17876D1*
X113703D2*
X113849D1*
X16106Y94624D2*
X17716D1*
X16106Y94376D2*
X17560D1*
X16082Y94127D2*
X17403D1*
X16028Y93878D2*
X17247D1*
X15942Y93630D2*
X17099D1*
X11664Y93381D2*
X11821D1*
X15821D2*
X16946D1*
X118106D2*
X118263D1*
X11535Y93132D2*
X11982D1*
X15657D2*
X16798D1*
X117946D2*
X118392D1*
X11410Y92884D2*
X12200D1*
X15442D2*
X16650D1*
X117727D2*
X118517D1*
X11282Y92635D2*
X12497D1*
X15145D2*
X16509D1*
X117430D2*
X118646D1*
X11157Y92386D2*
X12958D1*
X14680D2*
X16364D1*
X115125D2*
X115244D1*
X116969D2*
X118771D1*
X11028Y92138D2*
X16224D1*
X115258D2*
X118900D1*
X10903Y91889D2*
X16083D1*
X115391D2*
X119025D1*
X10774Y91640D2*
X15946D1*
X115524D2*
X119153D1*
X10649Y91391D2*
X15810D1*
X115649D2*
X119278D1*
X10524Y91143D2*
X15673D1*
X115778D2*
X119403D1*
X10395Y90894D2*
X15540D1*
X115907D2*
X119532D1*
X10270Y90645D2*
X15407D1*
X116028D2*
X119657D1*
X10141Y90397D2*
X15278D1*
X116149D2*
X119786D1*
X10016Y90148D2*
X15150D1*
X116274D2*
X119911D1*
X9887Y89899D2*
X15025D1*
X116391D2*
X120040D1*
X9762Y89651D2*
X14900D1*
X116508D2*
X120165D1*
X9657Y89402D2*
X14775D1*
X116625D2*
X120271D1*
X9559Y89153D2*
X14653D1*
X116743D2*
X120364D1*
X9465Y88905D2*
X14532D1*
X116856D2*
X120462D1*
X9371Y88656D2*
X14411D1*
X116965D2*
X120556D1*
X9274Y88407D2*
X14294D1*
X117078D2*
X120653D1*
X9180Y88159D2*
X14181D1*
X117188D2*
X120747D1*
X9082Y87910D2*
X14064D1*
X117297D2*
X120845D1*
X8989Y87661D2*
X13950D1*
X117403D2*
X120939D1*
X8891Y87412D2*
X13841D1*
X117508D2*
X121036D1*
X8797Y87164D2*
X13728D1*
X117614D2*
X121130D1*
X8703Y86915D2*
X13618D1*
X117715D2*
X121224D1*
X8606Y86666D2*
X13513D1*
X117817D2*
X121321D1*
X8512Y86418D2*
X13407D1*
X117914D2*
X121415D1*
X8414Y86169D2*
X13302D1*
X118016D2*
X121513D1*
X8321Y85920D2*
X13196D1*
X118110D2*
X121607D1*
X8223Y85672D2*
X13099D1*
X118207D2*
X121704D1*
X8129Y85423D2*
X12997D1*
X118301D2*
X121798D1*
X8032Y85174D2*
X12896D1*
X118395D2*
X121896D1*
X7938Y84926D2*
X12798D1*
X118485D2*
X121989D1*
X7844Y84677D2*
X12704D1*
X118578D2*
X122083D1*
X7746Y84428D2*
X12610D1*
X118668D2*
X122181D1*
X7653Y84180D2*
X12513D1*
X118754D2*
X122275D1*
X7555Y83931D2*
X12423D1*
X118840D2*
X122372D1*
X7461Y83682D2*
X12333D1*
X118926D2*
X122466D1*
X7391Y83433D2*
X12243D1*
X119012D2*
X122536D1*
X7325Y83185D2*
X12153D1*
X119094D2*
X122603D1*
X7258Y82936D2*
X12068D1*
X119172D2*
X122669D1*
X7192Y82687D2*
X11982D1*
X119254D2*
X122735D1*
X7125Y82439D2*
X11900D1*
X119336D2*
X122802D1*
X7059Y82190D2*
X11814D1*
X119410D2*
X122868D1*
X6993Y81941D2*
X11735D1*
X119489D2*
X122935D1*
X6926Y81693D2*
X11653D1*
X119563D2*
X123001D1*
X6860Y81444D2*
X11575D1*
X119637D2*
X123068D1*
X6793Y81195D2*
X11497D1*
X119711D2*
X123134D1*
X6723Y80947D2*
X11419D1*
X119782D2*
X123200D1*
X6657Y80698D2*
X11345D1*
X119852D2*
X123271D1*
X6590Y80449D2*
X11271D1*
X119922D2*
X123337D1*
X6524Y80201D2*
X11196D1*
X119989D2*
X123403D1*
X6457Y79952D2*
X11126D1*
X120055D2*
X123470D1*
X6391Y79703D2*
X11056D1*
X120121D2*
X123536D1*
X6325Y79454D2*
X10985D1*
X120188D2*
X123603D1*
X6258Y79206D2*
X10919D1*
X120246D2*
X123669D1*
X6192Y78957D2*
X10853D1*
X120309D2*
X123735D1*
X6125Y78708D2*
X10786D1*
X120371D2*
X123802D1*
X6059Y78460D2*
X10724D1*
X120430D2*
X123868D1*
X5993Y78211D2*
X10661D1*
X120489D2*
X123935D1*
X5926Y77962D2*
X10599D1*
X120547D2*
X124001D1*
X5860Y77714D2*
X10540D1*
X120606D2*
X124068D1*
X5801Y77465D2*
X10478D1*
X120657D2*
X124126D1*
X5762Y77216D2*
X10423D1*
X120711D2*
X124165D1*
X5723Y76968D2*
X10364D1*
X120766D2*
X124204D1*
X5684Y76719D2*
X10310D1*
X120817D2*
X124243D1*
X5641Y76470D2*
X10255D1*
X120868D2*
X124282D1*
X5602Y76222D2*
X10200D1*
X120914D2*
X124325D1*
X5563Y75973D2*
X10150D1*
X120965D2*
X124364D1*
X5524Y75724D2*
X10099D1*
X121012D2*
X124403D1*
X5485Y75475D2*
X10048D1*
X121055D2*
X124443D1*
X5446Y75227D2*
X10001D1*
X121098D2*
X124482D1*
X5407Y74978D2*
X9954D1*
X121145D2*
X124521D1*
X5368Y74729D2*
X9903D1*
X121188D2*
X124560D1*
X5328Y74481D2*
X9860D1*
X121227D2*
X124599D1*
X5289Y74232D2*
X9818D1*
X121266D2*
X124638D1*
X5250Y73983D2*
X9775D1*
X121305D2*
X124677D1*
X5211Y73735D2*
X9732D1*
X121344D2*
X124716D1*
X5168Y73486D2*
X9693D1*
X121379D2*
X124755D1*
X5129Y73237D2*
X9653D1*
X121414D2*
X124798D1*
X5090Y72989D2*
X9614D1*
X121450D2*
X124837D1*
X5051Y72740D2*
X9579D1*
X121485D2*
X124876D1*
X5012Y72491D2*
X9544D1*
X121516D2*
X124915D1*
X4973Y72243D2*
X9509D1*
X121547D2*
X124954D1*
X4934Y71994D2*
X9474D1*
X121578D2*
X124993D1*
X4895Y71745D2*
X9443D1*
X121606D2*
X125032D1*
X4856Y71496D2*
X9411D1*
X121633D2*
X125071D1*
X4821Y71248D2*
X9380D1*
X121660D2*
X125107D1*
X4805Y70999D2*
X9349D1*
X121688D2*
X125118D1*
X4793Y70750D2*
X9321D1*
X121711D2*
X125134D1*
X4782Y70502D2*
X9298D1*
X121735D2*
X125146D1*
X4766Y70253D2*
X9271D1*
X121754D2*
X125161D1*
X4754Y70004D2*
X9247D1*
X121778D2*
X125173D1*
X4743Y69756D2*
X9224D1*
X121797D2*
X125185D1*
X4727Y69507D2*
X9200D1*
X121817D2*
X125200D1*
X4715Y69258D2*
X9181D1*
X121832D2*
X125212D1*
X4703Y69010D2*
X9157D1*
X121852D2*
X125224D1*
X4688Y68761D2*
X9142D1*
X121868D2*
X125239D1*
X4676Y68512D2*
X9122D1*
X121883D2*
X125251D1*
X4664Y68264D2*
X9107D1*
X121895D2*
X125263D1*
X4649Y68015D2*
X9091D1*
X121907D2*
X125278D1*
X4637Y67766D2*
X9075D1*
X121918D2*
X125290D1*
X4625Y67517D2*
X9064D1*
X121930D2*
X125302D1*
X4610Y67269D2*
X9052D1*
X121938D2*
X125318D1*
X4598Y67020D2*
X4935D1*
X6883D2*
X9036D1*
X121946D2*
X123044D1*
X124993D2*
X125329D1*
X7297Y66771D2*
X9028D1*
X121953D2*
X122630D1*
X7575Y66523D2*
X9021D1*
X121957D2*
X122353D1*
X7782Y66274D2*
X9013D1*
X121965D2*
X122146D1*
X7934Y66025D2*
X9005D1*
X8047Y65777D2*
X9001D1*
X8125Y65528D2*
X8997D1*
X8176Y65279D2*
X8993D1*
X8196Y65031D2*
X8989D1*
X8192Y64782D2*
X8989D1*
X8157Y64533D2*
X8989D1*
X8094Y64285D2*
X8989D1*
X8000Y64036D2*
X8989D1*
X7868Y63787D2*
X8993D1*
X121953D2*
X122058D1*
X7696Y63538D2*
X9001D1*
X121946D2*
X122232D1*
X7457Y63290D2*
X9005D1*
X121938D2*
X122470D1*
X4590Y63041D2*
X4688D1*
X7129D2*
X9009D1*
X121930D2*
X122798D1*
X125243D2*
X125336D1*
X4606Y62792D2*
X5239D1*
X6578D2*
X9017D1*
X121918D2*
X123349D1*
X124688D2*
X125321D1*
X4618Y62544D2*
X9028D1*
X121907D2*
X125310D1*
X4629Y62295D2*
X9036D1*
X121895D2*
X125298D1*
X4645Y62046D2*
X9048D1*
X121879D2*
X125282D1*
X4657Y61798D2*
X9060D1*
X121868D2*
X125271D1*
X4668Y61549D2*
X9075D1*
X121848D2*
X125259D1*
X4684Y61300D2*
X9087D1*
X121832D2*
X125243D1*
X4696Y61052D2*
X9103D1*
X121817D2*
X125232D1*
X4707Y60803D2*
X9118D1*
X121797D2*
X125220D1*
X4723Y60554D2*
X9138D1*
X121774D2*
X125204D1*
X4735Y60306D2*
X9153D1*
X121754D2*
X125193D1*
X4746Y60057D2*
X9173D1*
X121731D2*
X125181D1*
X4762Y59808D2*
X9196D1*
X121707D2*
X125165D1*
X4774Y59559D2*
X9220D1*
X121684D2*
X125153D1*
X4785Y59311D2*
X9243D1*
X121657D2*
X125142D1*
X4801Y59062D2*
X9267D1*
X121633D2*
X125126D1*
X4813Y58813D2*
X9290D1*
X121602D2*
X125114D1*
X4832Y58565D2*
X9318D1*
X121575D2*
X125095D1*
X4871Y58316D2*
X9345D1*
X121543D2*
X125052D1*
X4914Y58067D2*
X9376D1*
X121512D2*
X125013D1*
X4953Y57819D2*
X9403D1*
X121481D2*
X124974D1*
X4993Y57570D2*
X9435D1*
X121446D2*
X124935D1*
X5032Y57321D2*
X9466D1*
X121410D2*
X124896D1*
X5071Y57073D2*
X9501D1*
X121375D2*
X124857D1*
X5110Y56824D2*
X9536D1*
X121340D2*
X124818D1*
X5149Y56575D2*
X9571D1*
X121301D2*
X124778D1*
X5188Y56327D2*
X9607D1*
X121262D2*
X124739D1*
X5227Y56078D2*
X9646D1*
X121223D2*
X124700D1*
X5266Y55829D2*
X9685D1*
X121180D2*
X124661D1*
X5305Y55580D2*
X9724D1*
X121137D2*
X124622D1*
X5344Y55332D2*
X9767D1*
X121094D2*
X124579D1*
X5387Y55083D2*
X9810D1*
X121051D2*
X124540D1*
X5426Y54834D2*
X9853D1*
X121004D2*
X124501D1*
X5465Y54586D2*
X9900D1*
X120957D2*
X124462D1*
X5504Y54337D2*
X9943D1*
X120910D2*
X124423D1*
X5543Y54088D2*
X9989D1*
X120860D2*
X124384D1*
X5582Y53840D2*
X10040D1*
X120809D2*
X124345D1*
X5621Y53591D2*
X10087D1*
X120758D2*
X124306D1*
X5660Y53342D2*
X10138D1*
X120703D2*
X124267D1*
X5700Y53094D2*
X10193D1*
X120653D2*
X124228D1*
X5739Y52845D2*
X10243D1*
X120594D2*
X124189D1*
X5778Y52596D2*
X10298D1*
X120539D2*
X124150D1*
X5825Y52348D2*
X10353D1*
X120481D2*
X124103D1*
X5891Y52099D2*
X10411D1*
X120426D2*
X124036D1*
X5957Y51850D2*
X10470D1*
X120364D2*
X123970D1*
X6024Y51601D2*
X10525D1*
X120301D2*
X123903D1*
X6090Y51353D2*
X10587D1*
X120243D2*
X123837D1*
X6157Y51104D2*
X10650D1*
X120180D2*
X123771D1*
X6223Y50855D2*
X10712D1*
X120114D2*
X123704D1*
X6289Y50607D2*
X10775D1*
X120047D2*
X123638D1*
X6356Y50358D2*
X10837D1*
X119981D2*
X123571D1*
X6422Y50109D2*
X10907D1*
X119914D2*
X123505D1*
X6489Y49861D2*
X10974D1*
X119840D2*
X123439D1*
X6555Y49612D2*
X11040D1*
X119770D2*
X123372D1*
X6621Y49363D2*
X11110D1*
X119700D2*
X123306D1*
X6688Y49115D2*
X11185D1*
X119629D2*
X123239D1*
X6754Y48866D2*
X11255D1*
X119551D2*
X123173D1*
X6821Y48617D2*
X11325D1*
X119477D2*
X123107D1*
X6887Y48369D2*
X11403D1*
X119399D2*
X123036D1*
X6957Y48120D2*
X11482D1*
X119321D2*
X122970D1*
X7024Y47871D2*
X11556D1*
X119243D2*
X122903D1*
X7090Y47622D2*
X11634D1*
X119160D2*
X122837D1*
X7157Y47374D2*
X11716D1*
X119082D2*
X122771D1*
X7223Y47125D2*
X11798D1*
X118996D2*
X122704D1*
X7289Y46876D2*
X11880D1*
X118910D2*
X122638D1*
X7356Y46628D2*
X11962D1*
X118828D2*
X122571D1*
X7422Y46379D2*
X12048D1*
X118743D2*
X122505D1*
X7504Y46130D2*
X12134D1*
X118653D2*
X122423D1*
X7602Y45882D2*
X12220D1*
X118563D2*
X122325D1*
X7696Y45633D2*
X12310D1*
X118473D2*
X122232D1*
X7789Y45384D2*
X12403D1*
X118379D2*
X122138D1*
X7887Y45136D2*
X12493D1*
X118285D2*
X122040D1*
X7981Y44887D2*
X12583D1*
X118192D2*
X121946D1*
X8078Y44638D2*
X12681D1*
X118094D2*
X121849D1*
X8172Y44390D2*
X12778D1*
X117996D2*
X121755D1*
X8270Y44141D2*
X12872D1*
X117899D2*
X121657D1*
X8364Y43892D2*
X12970D1*
X117797D2*
X121564D1*
X8461Y43643D2*
X13071D1*
X117696D2*
X121466D1*
X8555Y43395D2*
X13173D1*
X117594D2*
X121372D1*
X8649Y43146D2*
X13275D1*
X117489D2*
X121278D1*
X8746Y42897D2*
X13380D1*
X117383D2*
X121181D1*
X8840Y42649D2*
X13485D1*
X117278D2*
X121087D1*
X8938Y42400D2*
X13591D1*
X117168D2*
X120989D1*
X9032Y42151D2*
X13700D1*
X117059D2*
X120896D1*
X9129Y41903D2*
X13810D1*
X116946D2*
X120798D1*
X9223Y41654D2*
X13923D1*
X116832D2*
X120704D1*
X9317Y41405D2*
X14032D1*
X116719D2*
X120610D1*
X9414Y41157D2*
X14146D1*
X116602D2*
X120513D1*
X9508Y40908D2*
X14263D1*
X116489D2*
X120419D1*
X9606Y40659D2*
X14380D1*
X116368D2*
X120321D1*
X9700Y40411D2*
X14497D1*
X116246D2*
X120228D1*
X9821Y40162D2*
X14618D1*
X116125D2*
X120107D1*
X9946Y39913D2*
X14739D1*
X116004D2*
X119982D1*
X10075Y39664D2*
X14864D1*
X115879D2*
X119853D1*
X10200Y39416D2*
X14985D1*
X115750D2*
X119728D1*
X10328Y39167D2*
X15114D1*
X115625D2*
X119599D1*
X10453Y38918D2*
X15243D1*
X115496D2*
X119474D1*
X10582Y38670D2*
X15368D1*
X115364D2*
X119345D1*
X10707Y38421D2*
X15501D1*
X115231D2*
X119220D1*
X10832Y38172D2*
X15634D1*
X115098D2*
X119095D1*
X10961Y37924D2*
X15767D1*
X114961D2*
X118966D1*
X11086Y37675D2*
X13454D1*
X14188D2*
X15903D1*
X114825D2*
X115739D1*
X116473D2*
X118841D1*
X11215Y37426D2*
X12716D1*
X14926D2*
X16040D1*
X114688D2*
X115001D1*
X117211D2*
X118712D1*
X11340Y37178D2*
X12349D1*
X15293D2*
X16181D1*
X114547D2*
X114633D1*
X117578D2*
X118587D1*
X11469Y36929D2*
X12091D1*
X15547D2*
X16318D1*
X117836D2*
X118458D1*
X11594Y36680D2*
X11903D1*
X15739D2*
X16462D1*
X118024D2*
X118333D1*
X15879Y36432D2*
X16607D1*
X15985Y36183D2*
X16751D1*
X16055Y35934D2*
X16900D1*
X16098Y35685D2*
X17052D1*
X113668D2*
X113829D1*
X16110Y35437D2*
X17200D1*
X113516D2*
X113818D1*
X16098Y35188D2*
X17353D1*
X113360D2*
X113829D1*
X16055Y34939D2*
X17509D1*
X113203D2*
X113872D1*
X15985Y34691D2*
X17665D1*
X113047D2*
X113943D1*
X15879Y34442D2*
X17821D1*
X112887D2*
X114048D1*
X15739Y34193D2*
X17982D1*
X112727D2*
X114189D1*
X15551Y33945D2*
X18146D1*
X112563D2*
X114376D1*
X15293Y33696D2*
X18306D1*
X112395D2*
X114634D1*
X14930Y33447D2*
X18474D1*
X112231D2*
X114997D1*
X14196Y33199D2*
X18642D1*
X112063D2*
X115732D1*
X13743Y32950D2*
X18810D1*
X111891D2*
X116185D1*
X13903Y32701D2*
X18982D1*
X111715D2*
X116025D1*
X14067Y32453D2*
X19157D1*
X111543D2*
X115860D1*
X14227Y32204D2*
X19329D1*
X111368D2*
X115700D1*
X14387Y31955D2*
X19505D1*
X111188D2*
X115540D1*
X14551Y31706D2*
X19689D1*
X111004D2*
X115376D1*
X14711Y31458D2*
X19868D1*
X110825D2*
X115216D1*
X14871Y31209D2*
X20052D1*
X110637D2*
X115056D1*
X15035Y30960D2*
X20239D1*
X110450D2*
X114892D1*
X15196Y30712D2*
X20427D1*
X110262D2*
X114732D1*
X15356Y30463D2*
X20614D1*
X110071D2*
X114571D1*
X15520Y30214D2*
X20810D1*
X109875D2*
X114407D1*
X15680Y29966D2*
X21005D1*
X109684D2*
X114247D1*
X15840Y29717D2*
X21200D1*
X109481D2*
X114087D1*
X16004Y29468D2*
X21400D1*
X109282D2*
X113923D1*
X16196Y29220D2*
X21603D1*
X109082D2*
X113732D1*
X16395Y28971D2*
X21802D1*
X108871D2*
X113532D1*
X16598Y28722D2*
X22009D1*
X108664D2*
X113329D1*
X16797Y28474D2*
X22220D1*
X108457D2*
X113130D1*
X17000Y28225D2*
X22431D1*
X108243D2*
X112927D1*
X17200Y27976D2*
X22646D1*
X108028D2*
X112728D1*
X17403Y27727D2*
X22860D1*
X107813D2*
X112525D1*
X17602Y27479D2*
X23079D1*
X107590D2*
X112325D1*
X17805Y27230D2*
X23302D1*
X107368D2*
X112122D1*
X18008Y26981D2*
X23525D1*
X107145D2*
X111919D1*
X18207Y26733D2*
X23751D1*
X106914D2*
X111720D1*
X18410Y26484D2*
X23982D1*
X106684D2*
X111517D1*
X18610Y26235D2*
X24216D1*
X106453D2*
X111318D1*
X18813Y25987D2*
X24446D1*
X106215D2*
X111114D1*
X19012Y25738D2*
X24689D1*
X105973D2*
X110915D1*
X19215Y25489D2*
X24927D1*
X105735D2*
X110712D1*
X19414Y25241D2*
X25169D1*
X105485D2*
X110513D1*
X19618Y24992D2*
X25419D1*
X105239D2*
X110310D1*
X19821Y24743D2*
X25669D1*
X104989D2*
X110107D1*
X20020Y24495D2*
X25923D1*
X104731D2*
X109907D1*
X20266Y24246D2*
X26181D1*
X104477D2*
X109661D1*
X20516Y23997D2*
X26439D1*
X104215D2*
X109411D1*
X20762Y23748D2*
X26700D1*
X103950D2*
X109161D1*
X21012Y23500D2*
X26970D1*
X103684D2*
X108915D1*
X21262Y23251D2*
X27235D1*
X103410D2*
X108665D1*
X21508Y23002D2*
X27513D1*
X103133D2*
X108415D1*
X21758Y22754D2*
X27790D1*
X102860D2*
X108169D1*
X22008Y22505D2*
X28071D1*
X102575D2*
X107919D1*
X22254Y22256D2*
X28357D1*
X102289D2*
X107669D1*
X22504Y22008D2*
X28646D1*
X101996D2*
X107423D1*
X22754Y21759D2*
X28939D1*
X101703D2*
X107173D1*
X23000Y21510D2*
X29235D1*
X101407D2*
X106927D1*
X23250Y21262D2*
X29532D1*
X101102D2*
X106677D1*
X23500Y21013D2*
X29841D1*
X100797D2*
X106427D1*
X23746Y20764D2*
X30150D1*
X100485D2*
X106181D1*
X23996Y20515D2*
X30466D1*
X100168D2*
X105931D1*
X24246Y20267D2*
X30786D1*
X99852D2*
X105681D1*
X24493Y20018D2*
X31107D1*
X99524D2*
X105435D1*
X24797Y19769D2*
X31439D1*
X99196D2*
X105130D1*
X25106Y19521D2*
X31771D1*
X98860D2*
X104821D1*
X25410Y19272D2*
X32110D1*
X98520D2*
X104513D1*
X25719Y19023D2*
X32454D1*
X98176D2*
X104208D1*
X26028Y18775D2*
X32806D1*
X97821D2*
X103900D1*
X26332Y18526D2*
X33161D1*
X97469D2*
X103595D1*
X26641Y18277D2*
X33525D1*
X97102D2*
X103286D1*
X26950Y18029D2*
X33892D1*
X96735D2*
X102978D1*
X27254Y17780D2*
X34263D1*
X96356D2*
X102673D1*
X27563Y17531D2*
X34650D1*
X95973D2*
X102364D1*
X27868Y17283D2*
X35032D1*
X95586D2*
X102060D1*
X28176Y17034D2*
X35431D1*
X95188D2*
X101751D1*
X28485Y16785D2*
X35829D1*
X94785D2*
X101443D1*
X28789Y16536D2*
X36243D1*
X94375D2*
X101138D1*
X29098Y16288D2*
X36661D1*
X93957D2*
X100829D1*
X29407Y16039D2*
X34958D1*
X35914D2*
X37091D1*
X93528D2*
X94013D1*
X94969D2*
X100521D1*
X29782Y15790D2*
X34294D1*
X36578D2*
X37521D1*
X93094D2*
X93349D1*
X95633D2*
X100146D1*
X30164Y15542D2*
X33939D1*
X36934D2*
X37970D1*
X92645D2*
X92993D1*
X95989D2*
X99763D1*
X30547Y15293D2*
X33689D1*
X37180D2*
X38419D1*
X92192D2*
X92747D1*
X96239D2*
X99380D1*
X30930Y15044D2*
X33505D1*
X37368D2*
X38888D1*
X91723D2*
X92560D1*
X96422D2*
X98997D1*
X31313Y14796D2*
X33368D1*
X37504D2*
X39360D1*
X91246D2*
X92423D1*
X96559D2*
X98614D1*
X31696Y14547D2*
X33267D1*
X37606D2*
X39849D1*
X90762D2*
X92321D1*
X96660D2*
X98232D1*
X32078Y14298D2*
X33196D1*
X37676D2*
X40349D1*
X90258D2*
X92251D1*
X96731D2*
X97849D1*
X32461Y14050D2*
X33157D1*
X37715D2*
X40860D1*
X89750D2*
X92212D1*
X96770D2*
X97466D1*
X32844Y13801D2*
X33146D1*
X37727D2*
X41384D1*
X89223D2*
X92200D1*
X96782D2*
X97083D1*
X37711Y13552D2*
X41923D1*
X88684D2*
X92216D1*
X37664Y13304D2*
X42482D1*
X88125D2*
X92263D1*
X37594Y13055D2*
X43048D1*
X87551D2*
X92333D1*
X37485Y12806D2*
X43638D1*
X86965D2*
X92443D1*
X37340Y12557D2*
X44251D1*
X86352D2*
X92587D1*
X37149Y12309D2*
X44880D1*
X85719D2*
X92778D1*
X36887Y12060D2*
X45528D1*
X85067D2*
X93040D1*
X36508Y11811D2*
X46212D1*
X84391D2*
X93419D1*
X36719Y11563D2*
X46919D1*
X83676D2*
X93208D1*
X37207Y11314D2*
X47657D1*
X82938D2*
X92720D1*
X37696Y11065D2*
X48431D1*
X82160D2*
X92232D1*
X38184Y10817D2*
X49247D1*
X81344D2*
X91743D1*
X38672Y10568D2*
X50114D1*
X80481D2*
X91255D1*
X39157Y10319D2*
X51040D1*
X79559D2*
X90767D1*
X39645Y10071D2*
X52028D1*
X78567D2*
X90282D1*
X40133Y9822D2*
X53103D1*
X77485D2*
X89794D1*
X40700Y9573D2*
X54294D1*
X76293D2*
X89224D1*
X41348Y9325D2*
X55638D1*
X74957D2*
X88579D1*
X41996Y9076D2*
X57001D1*
X73383D2*
X87931D1*
X42645Y8827D2*
X56872D1*
X73059D2*
X87282D1*
X43293Y8578D2*
X56778D1*
X61149D2*
X62228D1*
X68352D2*
X68775D1*
X73153D2*
X86634D1*
X43942Y8330D2*
X56716D1*
X61211D2*
X68712D1*
X73215D2*
X85985D1*
X44590Y8081D2*
X56681D1*
X61246D2*
X64298D1*
X65629D2*
X68681D1*
X73246D2*
X85337D1*
X45235Y7832D2*
X56673D1*
X61254D2*
X63743D1*
X66184D2*
X68677D1*
X73250D2*
X84689D1*
X45883Y7584D2*
X56696D1*
X61231D2*
X63415D1*
X66512D2*
X68696D1*
X73231D2*
X84044D1*
X46637Y7335D2*
X56747D1*
X61180D2*
X63181D1*
X66746D2*
X68747D1*
X73180D2*
X83290D1*
X47563Y7086D2*
X56825D1*
X61102D2*
X63005D1*
X66922D2*
X68829D1*
X73098D2*
X82364D1*
X48493Y6838D2*
X56939D1*
X60989D2*
X62872D1*
X67055D2*
X68943D1*
X72985D2*
X81435D1*
X49418Y6589D2*
X57095D1*
X60832D2*
X62778D1*
X67149D2*
X69099D1*
X72828D2*
X80509D1*
X50348Y6340D2*
X57298D1*
X60629D2*
X62716D1*
X67211D2*
X69306D1*
X72621D2*
X79579D1*
X51278Y6092D2*
X57579D1*
X60348D2*
X62681D1*
X67246D2*
X69587D1*
X72340D2*
X78650D1*
X52203Y5843D2*
X57997D1*
X59930D2*
X62673D1*
X67254D2*
X70009D1*
X71918D2*
X77724D1*
X53633Y5594D2*
X62696D1*
X67231D2*
X76294D1*
X55200Y5346D2*
X62743D1*
X67184D2*
X74724D1*
X56770Y5097D2*
X62825D1*
X67102D2*
X73153D1*
X58340Y4848D2*
X62939D1*
X66989D2*
X71583D1*
X62434Y4599D2*
X63091D1*
X66836D2*
X67489D1*
X8170Y64839D2*
X8143Y64590D1*
X8088Y64347D1*
X8007Y64110D1*
X7900Y63884D1*
X7769Y63672D1*
X7615Y63474D1*
X7441Y63296D1*
X7248Y63137D1*
X7038Y63001D1*
X6815Y62888D1*
X6581Y62801D1*
X6339Y62740D1*
X6091Y62706D1*
X5841Y62700D1*
X5592Y62721D1*
X5347Y62769D1*
X5109Y62844D1*
X4880Y62945D1*
X4664Y63071D1*
X4559Y63145D1*
X4649Y61475D1*
X4797Y58636D1*
X5788Y52382D1*
X7428Y46265D1*
X9697Y40354D1*
X11745Y36336D1*
X11834Y36524D1*
X11965Y36736D1*
X12120Y36932D1*
X12295Y37110D1*
X12489Y37268D1*
X12699Y37404D1*
X12922Y37515D1*
X13157Y37602D1*
X13399Y37662D1*
X13647Y37694D1*
X13897Y37700D1*
X14146Y37678D1*
X14391Y37628D1*
X14629Y37552D1*
X14857Y37450D1*
X15072Y37324D1*
X15273Y37174D1*
X15455Y37004D1*
X15618Y36814D1*
X15759Y36608D1*
X15876Y36387D1*
X15968Y36155D1*
X16034Y35914D1*
X16074Y35667D1*
X16085Y35436D1*
X16072Y35187D1*
X16030Y34940D1*
X15962Y34700D1*
X15868Y34468D1*
X15749Y34249D1*
X15607Y34043D1*
X15442Y33855D1*
X15258Y33686D1*
X15057Y33538D1*
X14840Y33414D1*
X14611Y33314D1*
X14373Y33239D1*
X14127Y33192D1*
X13878Y33172D1*
X13628Y33179D1*
X13562Y33187D1*
X16022Y29401D1*
X20007Y24480D1*
X24485Y20002D1*
X29407Y16018D1*
X33189Y13562D1*
X33174Y13705D1*
X33175Y13955D1*
X33204Y14203D1*
X33259Y14446D1*
X33341Y14682D1*
X33449Y14908D1*
X33581Y15120D1*
X33736Y15317D1*
X33911Y15495D1*
X34104Y15653D1*
X34314Y15788D1*
X34538Y15900D1*
X34772Y15986D1*
X35015Y16046D1*
X35263Y16079D1*
X35512Y16084D1*
X35761Y16062D1*
X36006Y16012D1*
X36244Y15936D1*
X36472Y15834D1*
X36688Y15708D1*
X36888Y15559D1*
X37071Y15388D1*
X37234Y15198D1*
X37374Y14992D1*
X37492Y14771D1*
X37584Y14539D1*
X37650Y14298D1*
X37689Y14051D1*
X37701Y13820D1*
X37687Y13571D1*
X37646Y13324D1*
X37578Y13084D1*
X37484Y12853D1*
X37365Y12633D1*
X37222Y12428D1*
X37058Y12239D1*
X36874Y12070D1*
X36672Y11923D1*
X36456Y11798D1*
X36339Y11743D1*
X40360Y9694D1*
X46272Y7425D1*
X52389Y5787D1*
X58643Y4797D1*
X63147Y4561D1*
X63030Y4729D1*
X62912Y4949D1*
X62819Y5181D1*
X62752Y5422D1*
X62711Y5668D1*
X62699Y5918D1*
X62713Y6167D1*
X62756Y6414D1*
X62825Y6654D1*
X62920Y6885D1*
X63040Y7104D1*
X63183Y7309D1*
X63348Y7496D1*
X63533Y7664D1*
X63735Y7811D1*
X63952Y7935D1*
X64181Y8034D1*
X64420Y8107D1*
X64666Y8154D1*
X64915Y8173D1*
X65165Y8165D1*
X65412Y8129D1*
X65654Y8066D1*
X65887Y7977D1*
X66110Y7862D1*
X66318Y7724D1*
X66510Y7564D1*
X66682Y7384D1*
X66834Y7185D1*
X66964Y6971D1*
X67069Y6745D1*
X67148Y6508D1*
X67201Y6263D1*
X67226Y6015D1*
X67225Y5784D1*
X67198Y5535D1*
X67143Y5291D1*
X67062Y5055D1*
X66955Y4829D1*
X66824Y4616D1*
X66785Y4563D1*
X70325Y4747D1*
X71291Y4797D1*
X77545Y5788D1*
X83662Y7428D1*
X89574Y9697D1*
X93591Y11745D1*
X93463Y11802D1*
X93247Y11928D1*
X93046Y12076D1*
X92863Y12246D1*
X92699Y12435D1*
X92558Y12641D1*
X92439Y12861D1*
X92346Y13093D1*
X92279Y13334D1*
X92239Y13580D1*
X92226Y13830D1*
X92241Y14079D1*
X92283Y14325D1*
X92352Y14566D1*
X92447Y14797D1*
X92567Y15016D1*
X92711Y15220D1*
X92876Y15408D1*
X93060Y15576D1*
X93263Y15723D1*
X93480Y15847D1*
X93709Y15946D1*
X93948Y16019D1*
X94193Y16066D1*
X94443Y16085D1*
X94692Y16076D1*
X94940Y16041D1*
X95181Y15978D1*
X95415Y15888D1*
X95637Y15774D1*
X95845Y15636D1*
X96037Y15476D1*
X96210Y15295D1*
X96362Y15097D1*
X96491Y14883D1*
X96596Y14657D1*
X96675Y14420D1*
X96728Y14175D1*
X96754Y13927D1*
X96753Y13695D1*
X96742Y13567D1*
X97723Y14201D1*
X100526Y16022D1*
X105447Y20007D1*
X109925Y24485D1*
X113910Y29407D1*
X116365Y33189D1*
X116165Y33172D1*
X115915Y33179D1*
X115668Y33214D1*
X115425Y33276D1*
X115192Y33364D1*
X114969Y33478D1*
X114760Y33615D1*
X114568Y33774D1*
X114394Y33954D1*
X114241Y34152D1*
X114111Y34365D1*
X114005Y34591D1*
X113925Y34828D1*
X113871Y35072D1*
X113845Y35320D1*
X113846Y35570D1*
X113874Y35819D1*
X113930Y36062D1*
X114017Y36309D1*
X113390Y35276D1*
X112804Y34353D1*
X112201Y33441D1*
X111581Y32542D1*
X111022Y31763D1*
X110370Y30886D1*
X109644Y29949D1*
X108796Y28908D1*
X108096Y28083D1*
X107373Y27264D1*
X106635Y26459D1*
X105882Y25667D1*
X105011Y24789D1*
X104090Y23903D1*
X103194Y23079D1*
X102376Y22355D1*
X101545Y21646D1*
X100808Y21042D1*
X99951Y20364D1*
X99008Y19648D1*
X97920Y18862D1*
X97035Y18249D1*
X96125Y17645D1*
X95310Y17125D1*
X94380Y16555D1*
X93438Y16002D1*
X92501Y15475D1*
X91458Y14916D1*
X90260Y14311D1*
X89276Y13838D1*
X88414Y13443D1*
X87414Y13006D1*
X86405Y12589D1*
X85389Y12190D1*
X84235Y11765D1*
X83029Y11352D1*
X81870Y10984D1*
X80824Y10673D1*
X79773Y10383D1*
X78735Y10119D1*
X77585Y9848D1*
X76272Y9574D1*
X75200Y9372D1*
X74269Y9215D1*
X73191Y9052D1*
X72940Y9016D1*
X73069Y8745D1*
X73148Y8508D1*
X73201Y8263D1*
X73226Y8015D1*
X73225Y7784D1*
X73198Y7535D1*
X73143Y7291D1*
X73062Y7055D1*
X72955Y6829D1*
X72824Y6616D1*
X72670Y6419D1*
X72496Y6240D1*
X72303Y6082D1*
X72093Y5945D1*
X71870Y5833D1*
X71636Y5746D1*
X71394Y5685D1*
X71146Y5651D1*
X70896Y5645D1*
X70648Y5666D1*
X70402Y5714D1*
X70164Y5789D1*
X69936Y5890D1*
X69719Y6016D1*
X69519Y6164D1*
X69335Y6334D1*
X69172Y6523D1*
X69030Y6729D1*
X68912Y6949D1*
X68819Y7181D1*
X68752Y7422D1*
X68711Y7668D1*
X68699Y7918D1*
X68713Y8167D1*
X68756Y8414D1*
X68809Y8605D1*
X67696Y8547D1*
X66481Y8509D1*
X65391Y8497D1*
X64450Y8503D1*
X63360Y8530D1*
X62396Y8571D1*
X61308Y8637D1*
X61101Y8651D1*
X61178Y8381D1*
X61217Y8135D1*
X61229Y7904D1*
X61215Y7654D1*
X61174Y7408D1*
X61106Y7167D1*
X61011Y6936D1*
X60892Y6716D1*
X60750Y6511D1*
X60586Y6323D1*
X60402Y6154D1*
X60200Y6006D1*
X59983Y5881D1*
X59754Y5781D1*
X59516Y5707D1*
X59271Y5660D1*
X59021Y5639D1*
X58772Y5647D1*
X58524Y5682D1*
X58282Y5744D1*
X58048Y5832D1*
X57826Y5945D1*
X57617Y6082D1*
X57425Y6242D1*
X57251Y6421D1*
X57098Y6619D1*
X56968Y6832D1*
X56862Y7059D1*
X56782Y7295D1*
X56728Y7540D1*
X56702Y7788D1*
X56703Y8038D1*
X56731Y8286D1*
X56787Y8530D1*
X56869Y8766D1*
X56977Y8991D1*
X57042Y9102D1*
X55958Y9273D1*
X54789Y9482D1*
X53598Y9722D1*
X52656Y9930D1*
X51596Y10184D1*
X50542Y10458D1*
X49520Y10745D1*
X48391Y11085D1*
X47118Y11503D1*
X46091Y11864D1*
X45215Y12190D1*
X44200Y12587D1*
X43309Y12956D1*
X42310Y13390D1*
X41320Y13843D1*
X40366Y14301D1*
X39314Y14832D1*
X38134Y15465D1*
X37185Y15998D1*
X36381Y16469D1*
X35452Y17037D1*
X34534Y17622D1*
X33627Y18224D1*
X32628Y18917D1*
X31605Y19663D1*
X30640Y20400D1*
X29788Y21077D1*
X28949Y21770D1*
X28150Y22457D1*
X27273Y23241D1*
X26297Y24157D1*
X25519Y24918D1*
X24868Y25577D1*
X24117Y26365D1*
X23466Y27075D1*
X22745Y27890D1*
X22039Y28718D1*
X21374Y29530D1*
X20646Y30454D1*
X19845Y31525D1*
X19211Y32409D1*
X18686Y33169D1*
X18084Y34075D1*
X17566Y34886D1*
X17062Y35707D1*
X16572Y36535D1*
X16117Y37337D1*
X15596Y38291D1*
X15151Y39145D1*
X14720Y40005D1*
X14305Y40873D1*
X13921Y41710D1*
X13486Y42706D1*
X13117Y43595D1*
X12718Y44606D1*
X12339Y45625D1*
X11994Y46610D1*
X11626Y47725D1*
X11240Y49005D1*
X10946Y50051D1*
X10715Y50939D1*
X10459Y51995D1*
X10250Y52934D1*
X10033Y53999D1*
X9837Y55067D1*
X9688Y55971D1*
X9530Y57046D1*
X9382Y58210D1*
X9246Y59539D1*
X9170Y60450D1*
X9093Y61659D1*
X9050Y62619D1*
X9021Y63705D1*
X9013Y64791D1*
X9023Y65703D1*
X9054Y66789D1*
X9111Y67960D1*
X9208Y69292D1*
X9291Y70199D1*
X9424Y71403D1*
X9549Y72355D1*
X9690Y73306D1*
X9847Y74253D1*
X9987Y75025D1*
X10199Y76090D1*
X10432Y77150D1*
X10655Y78085D1*
X10894Y79015D1*
X11135Y79890D1*
X11441Y80931D1*
X11729Y81847D1*
X12032Y82759D1*
X12351Y83664D1*
X12622Y84397D1*
X13016Y85408D1*
X13429Y86411D1*
X13811Y87292D1*
X14208Y88166D1*
X14541Y88872D1*
X15021Y89844D1*
X15520Y90808D1*
X15977Y91652D1*
X16448Y92488D1*
X16840Y93160D1*
X17403Y94087D1*
X17984Y95003D1*
X18513Y95804D1*
X19055Y96595D1*
X19504Y97229D1*
X20145Y98103D1*
X20804Y98965D1*
X21400Y99717D1*
X22009Y100458D1*
X22510Y101049D1*
X23225Y101864D1*
X23956Y102665D1*
X24615Y103361D1*
X25286Y104046D1*
X25926Y104678D1*
X26710Y105425D1*
X27417Y106074D1*
X28134Y106710D1*
X28862Y107334D1*
X29456Y107827D1*
X30301Y108505D1*
X31160Y109167D1*
X31930Y109738D1*
X32709Y110296D1*
X33445Y110804D1*
X34348Y111404D1*
X35156Y111920D1*
X35972Y112422D1*
X36797Y112910D1*
X37466Y113291D1*
X38416Y113812D1*
X39376Y114314D1*
X40233Y114743D1*
X41096Y115156D1*
X41901Y115526D1*
X42894Y115960D1*
X43779Y116327D1*
X44671Y116680D1*
X45569Y117018D1*
X46430Y117325D1*
X47456Y117670D1*
X48368Y117958D1*
X49282Y118230D1*
X50199Y118485D1*
X51054Y118709D1*
X52060Y118952D1*
X53002Y119162D1*
X53955Y119358D1*
X55042Y119561D1*
X55960Y119716D1*
X57145Y119893D1*
X58184Y120026D1*
X59287Y120144D1*
X60524Y120243D1*
X61725Y120308D1*
X62088Y120324D1*
X62128Y120594D1*
X62183Y120823D1*
X62259Y121047D1*
X62354Y121262D1*
X62469Y121468D1*
X62601Y121663D1*
X62750Y121846D1*
X63061Y122158D1*
X63241Y122309D1*
X63372Y122403D1*
X63172Y122633D1*
X63030Y122839D1*
X62912Y123059D1*
X62819Y123291D1*
X62752Y123532D1*
X62711Y123778D1*
X62699Y124028D1*
X62713Y124277D1*
X62756Y124524D1*
X62825Y124764D1*
X62920Y124995D1*
X63040Y125214D1*
X63144Y125365D1*
X58636Y125130D1*
X52382Y124139D1*
X46265Y122500D1*
X40354Y120230D1*
X36336Y118182D1*
X36472Y118121D1*
X36688Y117994D1*
X36888Y117845D1*
X37071Y117675D1*
X37234Y117485D1*
X37374Y117278D1*
X37492Y117058D1*
X37584Y116826D1*
X37650Y116585D1*
X37689Y116338D1*
X37701Y116107D1*
X37687Y115857D1*
X37646Y115611D1*
X37578Y115370D1*
X37484Y115139D1*
X37365Y114919D1*
X37222Y114714D1*
X37058Y114526D1*
X36874Y114357D1*
X36672Y114209D1*
X36456Y114084D1*
X36227Y113984D1*
X35988Y113910D1*
X35743Y113863D1*
X35494Y113843D1*
X35244Y113850D1*
X34997Y113885D1*
X34755Y113947D1*
X34521Y114035D1*
X34298Y114148D1*
X34089Y114286D1*
X33897Y114445D1*
X33723Y114625D1*
X33570Y114822D1*
X33440Y115036D1*
X33335Y115262D1*
X33254Y115499D1*
X33201Y115743D1*
X33174Y115991D1*
X33175Y116241D1*
X33186Y116362D1*
X29401Y113906D1*
X24480Y109920D1*
X20002Y105442D1*
X16018Y100521D1*
X13562Y96738D1*
X13772Y96756D1*
X14022Y96747D1*
X14269Y96711D1*
X14511Y96648D1*
X14744Y96559D1*
X14966Y96445D1*
X15175Y96307D1*
X15366Y96147D1*
X15539Y95966D1*
X15691Y95768D1*
X15820Y95554D1*
X15925Y95327D1*
X16005Y95090D1*
X16057Y94846D1*
X16083Y94598D1*
X16082Y94366D1*
X16054Y94118D1*
X16000Y93874D1*
X15918Y93638D1*
X15812Y93412D1*
X15681Y93199D1*
X15527Y93002D1*
X15353Y92823D1*
X15160Y92664D1*
X14950Y92528D1*
X14727Y92416D1*
X14493Y92328D1*
X14251Y92267D1*
X14003Y92234D1*
X13753Y92227D1*
X13504Y92248D1*
X13259Y92297D1*
X13021Y92372D1*
X12792Y92473D1*
X12576Y92598D1*
X12375Y92747D1*
X12192Y92917D1*
X12028Y93106D1*
X11887Y93312D1*
X11769Y93532D1*
X11742Y93593D1*
X11382Y92880D1*
X9694Y89567D1*
X7425Y83655D1*
X5787Y77538D1*
X4797Y71284D1*
X4561Y66781D1*
X4680Y66866D1*
X4897Y66990D1*
X5126Y67089D1*
X5365Y67163D1*
X5611Y67209D1*
X5860Y67228D1*
X6110Y67220D1*
X6357Y67184D1*
X6599Y67121D1*
X6832Y67032D1*
X7054Y66917D1*
X7263Y66779D1*
X7454Y66619D1*
X7627Y66439D1*
X7779Y66240D1*
X7909Y66027D1*
X8014Y65800D1*
X8093Y65563D1*
X8146Y65319D1*
X8171Y65070D1*
X8170Y64839D1*
X125367Y63144D2*
X125149Y63001D1*
X124925Y62888D1*
X124691Y62801D1*
X124449Y62740D1*
X124201Y62706D1*
X123952Y62700D1*
X123703Y62721D1*
X123458Y62769D1*
X123219Y62844D1*
X122991Y62945D1*
X122775Y63071D1*
X122574Y63219D1*
X122390Y63389D1*
X122227Y63578D1*
X122085Y63784D1*
X121967Y64004D1*
X121934Y64079D1*
X121909Y63207D1*
X121859Y62114D1*
X121782Y60928D1*
X121662Y59590D1*
X121526Y58379D1*
X121400Y57418D1*
X121239Y56336D1*
X121057Y55257D1*
X120878Y54308D1*
X120657Y53236D1*
X120395Y52077D1*
X120066Y50775D1*
X119812Y49844D1*
X119469Y48675D1*
X119140Y47632D1*
X118791Y46595D1*
X118397Y45496D1*
X117955Y44345D1*
X117494Y43218D1*
X117060Y42214D1*
X116607Y41219D1*
X116193Y40351D1*
X115705Y39373D1*
X115198Y38404D1*
X114628Y37364D1*
X114326Y36836D1*
X114491Y37024D1*
X114676Y37192D1*
X114878Y37339D1*
X115095Y37463D1*
X115325Y37562D1*
X115564Y37635D1*
X115809Y37681D1*
X116058Y37701D1*
X116308Y37692D1*
X116555Y37656D1*
X116797Y37593D1*
X117031Y37504D1*
X117253Y37390D1*
X117461Y37252D1*
X117653Y37092D1*
X117826Y36911D1*
X117978Y36713D1*
X118107Y36499D1*
X118183Y36340D1*
X119510Y38941D1*
X120233Y40360D1*
X122502Y46272D1*
X124140Y52389D1*
X125131Y58643D1*
X125366Y63147D1*
X121945Y65872D2*
X122032Y66051D1*
X122164Y66263D1*
X122318Y66460D1*
X122493Y66638D1*
X122687Y66796D1*
X122897Y66931D1*
X123121Y67043D1*
X123355Y67129D1*
X123598Y67189D1*
X123845Y67222D1*
X124095Y67227D1*
X124344Y67205D1*
X124589Y67156D1*
X124827Y67080D1*
X125055Y66978D1*
X125271Y66851D1*
X125363Y66786D1*
X125318Y67703D1*
X125130Y71291D1*
X124139Y77545D1*
X122500Y83662D1*
X120230Y89574D1*
X118182Y93591D1*
X118098Y93412D1*
X117967Y93199D1*
X117814Y93002D1*
X117639Y92823D1*
X117446Y92664D1*
X117237Y92528D1*
X117014Y92416D1*
X116779Y92328D1*
X116537Y92267D1*
X116290Y92234D1*
X116040Y92227D1*
X115791Y92248D1*
X115546Y92297D1*
X115307Y92372D1*
X115048Y92490D1*
X115588Y91465D1*
X116136Y90374D1*
X116608Y89386D1*
X117013Y88497D1*
X117449Y87492D1*
X117866Y86478D1*
X118298Y85368D1*
X118757Y84098D1*
X119147Y82942D1*
X119476Y81897D1*
X119785Y80846D1*
X120094Y79717D1*
X120395Y78510D1*
X120664Y77320D1*
X120885Y76248D1*
X121085Y75171D1*
X121245Y74212D1*
X121406Y73129D1*
X121547Y72043D1*
X121676Y70861D1*
X121791Y69520D1*
X121868Y68303D1*
X121915Y67209D1*
X121942Y66115D1*
X121946Y65876D1*
X96753Y115982D2*
X96725Y115734D1*
X96670Y115490D1*
X96589Y115253D1*
X96482Y115028D1*
X96351Y114815D1*
X96198Y114618D1*
X96023Y114439D1*
X95830Y114280D1*
X95621Y114144D1*
X95398Y114031D1*
X95164Y113944D1*
X94921Y113883D1*
X94856Y113872D1*
X95755Y113302D1*
X96671Y112699D1*
X97576Y112078D1*
X98278Y111578D1*
X99160Y110927D1*
X100030Y110259D1*
X100888Y109574D1*
X101791Y108824D1*
X102737Y108001D1*
X103642Y107180D1*
X104439Y106426D1*
X105222Y105658D1*
X105824Y105047D1*
X106579Y104252D1*
X107320Y103443D1*
X108045Y102621D1*
X108804Y101726D1*
X109591Y100754D1*
X110339Y99788D1*
X110993Y98908D1*
X111630Y98016D1*
X112185Y97208D1*
X112789Y96294D1*
X113376Y95368D1*
X113846Y94595D1*
X113857Y94750D1*
X113899Y94996D1*
X113968Y95236D1*
X114063Y95467D1*
X114183Y95687D1*
X114326Y95891D1*
X114491Y96079D1*
X114676Y96247D1*
X114878Y96394D1*
X115095Y96518D1*
X115325Y96617D1*
X115564Y96690D1*
X115809Y96737D1*
X116058Y96756D1*
X116308Y96747D1*
X116366Y96740D1*
X114092Y100239D1*
X113906Y100526D1*
X109920Y105447D1*
X105442Y109925D1*
X100521Y113910D1*
X96739Y116365D1*
X96754Y116213D1*
X96753Y115982D1*
X92367Y115324D2*
X92309Y115499D1*
X92256Y115743D1*
X92229Y115991D1*
X92230Y116241D1*
X92259Y116489D1*
X92314Y116733D1*
X92397Y116969D1*
X92504Y117194D1*
X92636Y117407D1*
X92791Y117603D1*
X92966Y117781D1*
X93160Y117939D1*
X93369Y118075D1*
X93589Y118185D1*
X89567Y120233D1*
X83655Y122502D1*
X77538Y124140D1*
X71284Y125131D1*
X66781Y125366D1*
X66902Y125190D1*
X67019Y124970D1*
X67112Y124738D1*
X67178Y124497D1*
X67217Y124250D1*
X67229Y124019D1*
X67215Y123769D1*
X67174Y123523D1*
X67106Y123282D1*
X67038Y123112D1*
X67359Y123118D1*
X67948Y123108D1*
X68536Y123074D1*
X69122Y123016D1*
X69705Y122935D1*
X70285Y122831D1*
X70860Y122704D1*
X71429Y122555D1*
X71993Y122382D1*
X72548Y122188D1*
X73047Y121990D1*
X73270Y121877D1*
X73406Y121793D1*
X74292Y121649D1*
X75451Y121436D1*
X76551Y121214D1*
X77637Y120973D1*
X78711Y120713D1*
X79841Y120418D1*
X81058Y120069D1*
X82222Y119707D1*
X83262Y119361D1*
X84297Y118995D1*
X85109Y118693D1*
X86132Y118291D1*
X87147Y117870D1*
X88153Y117431D1*
X89221Y116939D1*
X90352Y116387D1*
X91439Y115827D1*
X92366Y115327D1*
X65809Y120018D2*
D18*
X64964Y120044D1*
X66674Y119987D2*
X65809Y120018D1*
X67398Y119957D2*
X66674Y119987D1*
X68041Y119925D2*
X67398Y119957D1*
X68630Y119890D2*
X68041Y119925D1*
X69179Y119852D2*
X68630Y119890D1*
X69696Y119810D2*
X69179Y119852D1*
X64714Y120089D2*
D15*
X72089Y119464D1*
X61464Y65339D2*
D18*
X61589Y63839D1*
X60749Y64801D2*
X60750Y64765D1*
X61120Y64459D2*
X61124Y64301D1*
X60714Y64964D2*
X61464Y63089D1*
X60999Y64651D2*
X60998Y64617D1*
X61010Y64808D2*
X60999Y64651D1*
X61027Y64964D2*
X61010Y64808D1*
X61031Y64995D2*
X61027Y64964D1*
X61055Y65150D2*
X61031Y64995D1*
X61085Y65303D2*
D15*
X61055Y65150D1*
X61092Y65332D2*
X61085Y65303D1*
X61129Y65483D2*
X61092Y65332D1*
X61173Y65632D2*
X61129Y65483D1*
X61181Y65659D2*
X61173Y65632D1*
X61231Y65805D2*
X61181Y65659D1*
X61288Y65949D2*
X61231Y65805D1*
X61298Y65973D2*
X61288Y65949D1*
X61360Y66113D2*
X61298Y65973D1*
X61428Y66250D2*
X61360Y66113D1*
X61440Y66272D2*
X61428Y66250D1*
X61514Y66405D2*
X61440Y66272D1*
X61594Y66535D2*
X61514Y66405D1*
X61606Y66554D2*
X61594Y66535D1*
X61691Y66679D2*
X61606Y66554D1*
X61781Y66801D2*
X61691Y66679D1*
X61794Y66817D2*
X61781Y66801D1*
X61889Y66934D2*
X61794Y66817D1*
X61989Y67046D2*
X61889Y66934D1*
X62002Y67060D2*
X61989Y67046D1*
X62107Y67167D2*
X62002Y67060D1*
X62216Y67269D2*
X62107Y67167D1*
X62228Y67280D2*
X62216Y67269D1*
X62341Y67377D2*
X62228Y67280D1*
X62458Y67469D2*
X62341Y67377D1*
X62470Y67478D2*
X62458Y67469D1*
X62590Y67564D2*
X62470Y67478D1*
X62714Y67644D2*
X62590Y67564D1*
X62725Y67651D2*
X62714Y67644D1*
X62852Y67726D2*
X62725Y67651D1*
X62981Y67794D2*
X62852Y67726D1*
X62991Y67799D2*
X62981Y67794D1*
X63123Y67862D2*
X62991Y67799D1*
X63258Y67919D2*
X63123Y67862D1*
X63266Y67922D2*
X63258Y67919D1*
X63402Y67972D2*
X63266Y67922D1*
X63540Y68016D2*
X63402Y67972D1*
X63546Y68018D2*
X63540Y68016D1*
X63686Y68056D2*
X63546Y68018D1*
X63827Y68088D2*
X63686Y68056D1*
X63833Y68089D2*
X63827Y68088D1*
X63974Y68114D2*
X63833Y68089D1*
X64114Y68133D2*
X63974Y68114D1*
X64254Y68145D2*
X64114Y68133D1*
X64402Y68152D2*
X64254Y68145D1*
X64427Y68152D2*
X64402D1*
X64560Y68151D2*
X64427Y68152D1*
X64685Y68145D2*
X64560Y68151D1*
X64690Y68144D2*
X64685Y68145D1*
X64807Y68133D2*
X64690Y68144D1*
X65214Y68089D2*
X64807Y68133D1*
X64964Y117818D2*
D31*
X64570Y117810D1*
X63270Y117782D1*
X62247Y117749D1*
X61343Y117708D1*
X60557Y117660D1*
X60355Y117645D1*
X59547Y117578D1*
X58721Y117493D1*
X57875Y117390D1*
X57006Y117269D1*
X56113Y117128D1*
X55776Y117072D1*
X54884Y116911D1*
X53964Y116730D1*
X53055Y116534D1*
X52158Y116326D1*
X51318Y116115D1*
X51262Y116100D1*
X50389Y115864D1*
X49517Y115613D1*
X48649Y115345D1*
X47782Y115063D1*
X46919Y114764D1*
X46847Y114738D1*
X45988Y114423D1*
X45134Y114093D1*
X44287Y113749D1*
X43446Y113390D1*
X42612Y113017D1*
X42566Y112996D1*
X41740Y112608D1*
X40920Y112206D1*
X40107Y111790D1*
X39301Y111360D1*
X38502Y110915D1*
X38450Y110886D1*
X37660Y110427D1*
X36878Y109955D1*
X36104Y109469D1*
X35338Y108970D1*
X34581Y108457D1*
X34532Y108424D1*
X33785Y107898D1*
X33047Y107359D1*
X32318Y106808D1*
X31598Y106243D1*
X30889Y105667D1*
X30842Y105628D1*
X30143Y105039D1*
X29454Y104438D1*
X28776Y103824D1*
X28108Y103200D1*
X27451Y102563D1*
X27407Y102520D1*
X26762Y101872D1*
X26128Y101213D1*
X25506Y100542D1*
X24895Y99862D1*
X24296Y99170D1*
X24255Y99122D1*
X23669Y98420D1*
X23095Y97708D1*
X22533Y96986D1*
X21983Y96254D1*
X21446Y95513D1*
X21409Y95461D1*
X20886Y94710D1*
X20376Y93950D1*
X19879Y93182D1*
X19396Y92405D1*
X18925Y91620D1*
X18892Y91563D1*
X18437Y90770D1*
X17995Y89968D1*
X17566Y89159D1*
X17152Y88342D1*
X16752Y87519D1*
X16723Y87459D1*
X16338Y86628D1*
X15968Y85791D1*
X15612Y84947D1*
X15270Y84098D1*
X14943Y83242D1*
X14919Y83178D1*
X14608Y82317D1*
X14312Y81451D1*
X14030Y80579D1*
X13764Y79703D1*
X13513Y78822D1*
X13494Y78755D1*
X13259Y77870D1*
X13040Y76980D1*
X12835Y76087D1*
X12646Y75191D1*
X12473Y74291D1*
X12460Y74221D1*
X12303Y73319D1*
X12162Y72414D1*
X12036Y71506D1*
X11926Y70596D1*
X11831Y69684D1*
X11824Y69613D1*
X11747Y68700D1*
X11685Y67785D1*
X11638Y66870D1*
X11608Y65953D1*
X11593Y65037D1*
Y64964D1*
X11595Y64047D1*
X11613Y63131D1*
X11646Y62214D1*
X11696Y61298D1*
X11761Y60384D1*
X11767Y60310D1*
X11849Y59396D1*
X11947Y58485D1*
X12060Y57575D1*
X12190Y56666D1*
X12334Y55761D1*
X12347Y55686D1*
X12508Y54783D1*
X12685Y53883D1*
X12878Y52986D1*
X13085Y52092D1*
X13309Y51202D1*
X13328Y51128D1*
X13567Y50243D1*
X13822Y49361D1*
X14092Y48484D1*
X14377Y47612D1*
X14677Y46744D1*
X14703Y46670D1*
X15019Y45809D1*
X15350Y44953D1*
X15695Y44102D1*
X16055Y43258D1*
X16430Y42420D1*
X16463Y42347D1*
X16853Y41517D1*
X17257Y40692D1*
X17675Y39875D1*
X18108Y39065D1*
X18554Y38262D1*
X18594Y38192D1*
X19055Y37398D1*
X19529Y36612D1*
X20017Y35834D1*
X20519Y35064D1*
X21033Y34304D1*
X21080Y34236D1*
X21608Y33485D1*
X22150Y32743D1*
X22704Y32010D1*
X23271Y31287D1*
X23850Y30574D1*
X23903Y30510D1*
X24495Y29808D1*
X25099Y29115D1*
X25716Y28434D1*
X26343Y27762D1*
X26982Y27102D1*
X27042Y27042D1*
X27693Y26394D1*
X28356Y25757D1*
X29029Y25131D1*
X29713Y24517D1*
X30407Y23915D1*
X30473Y23859D1*
X31178Y23270D1*
X31894Y22693D1*
X32619Y22128D1*
X33355Y21576D1*
X34099Y21036D1*
X34170Y20986D1*
X34924Y20461D1*
X35688Y19948D1*
X36460Y19448D1*
X37241Y18962D1*
X38029Y18489D1*
X38106Y18445D1*
X38903Y17987D1*
X39709Y17543D1*
X40522Y17112D1*
X41342Y16696D1*
X42169Y16293D1*
X42250Y16255D1*
X43085Y15868D1*
X43926Y15496D1*
X44774Y15138D1*
X45627Y14794D1*
X46487Y14465D1*
X46572Y14434D1*
X47437Y14121D1*
X48308Y13823D1*
X49184Y13540D1*
X50065Y13272D1*
X50950Y13020D1*
X51039Y12995D1*
X51928Y12759D1*
X52822Y12538D1*
X53719Y12333D1*
X54620Y12143D1*
X55524Y11968D1*
X55616Y11951D1*
X56523Y11793D1*
X57433Y11651D1*
X58345Y11525D1*
X59259Y11414D1*
X60175Y11318D1*
X60269Y11309D1*
X61187Y11231D1*
X62106Y11169D1*
X63026Y11123D1*
X63946Y11092D1*
X64867Y11076D1*
X64964D1*
X65885Y11078D1*
X66806Y11096D1*
X67726Y11130D1*
X68646Y11179D1*
X69566Y11244D1*
X69663Y11252D1*
X70580Y11335D1*
X71496Y11433D1*
X72411Y11547D1*
X73324Y11676D1*
X74234Y11821D1*
X74331Y11838D1*
X75238Y12000D1*
X76143Y12178D1*
X77044Y12371D1*
X77942Y12580D1*
X78836Y12804D1*
X78933Y12829D1*
X79823Y13070D1*
X80708Y13325D1*
X81590Y13597D1*
X82467Y13883D1*
X83338Y14184D1*
X83434Y14218D1*
X84299Y14535D1*
X85159Y14867D1*
X86014Y15214D1*
X86863Y15576D1*
X87705Y15952D1*
X87798Y15995D1*
X88633Y16386D1*
X89461Y16792D1*
X90283Y17213D1*
X91097Y17647D1*
X91903Y18095D1*
X91994Y18146D1*
X92791Y18609D1*
X93581Y19086D1*
X94363Y19577D1*
X95136Y20080D1*
X95901Y20597D1*
X95988Y20657D1*
X96742Y21188D1*
X97488Y21732D1*
X98224Y22289D1*
X98951Y22858D1*
X99668Y23439D1*
X99750Y23507D1*
X100455Y24102D1*
X101151Y24709D1*
X101836Y25328D1*
X102510Y25959D1*
X103174Y26601D1*
X103251Y26677D1*
X103902Y27331D1*
X104542Y27996D1*
X105171Y28673D1*
X105788Y29360D1*
X106393Y30058D1*
X106464Y30141D1*
X107056Y30849D1*
X107636Y31568D1*
X108203Y32297D1*
X108758Y33036D1*
X109301Y33784D1*
X109365Y33874D1*
X109892Y34632D1*
X110408Y35399D1*
X110910Y36174D1*
X111398Y36959D1*
X111874Y37751D1*
X111930Y37847D1*
X112390Y38649D1*
X112836Y39458D1*
X113269Y40275D1*
X113688Y41099D1*
X114092Y41930D1*
X114141Y42032D1*
X114529Y42870D1*
X114904Y43716D1*
X115263Y44567D1*
X115609Y45425D1*
X115939Y46288D1*
X115979Y46395D1*
X116293Y47265D1*
X116593Y48140D1*
X116877Y49020D1*
X117146Y49905D1*
X117401Y50794D1*
X117431Y50905D1*
X117668Y51799D1*
X117890Y52697D1*
X118097Y53598D1*
X118288Y54503D1*
X118464Y55412D1*
X118485Y55526D1*
X118643Y56438D1*
X118786Y57352D1*
X118914Y58268D1*
X119025Y59187D1*
X119121Y60107D1*
X119133Y60224D1*
X119211Y61146D1*
X119274Y62069D1*
X119321Y62994D1*
X119352Y63919D1*
X119367Y64844D1*
X119368Y64964D1*
X119366Y65889D1*
X119348Y66814D1*
X119314Y67740D1*
X119265Y68664D1*
X119199Y69588D1*
X119190Y69708D1*
X119107Y70630D1*
X119008Y71550D1*
X118894Y72469D1*
X118764Y73386D1*
X118618Y74301D1*
X118598Y74421D1*
X118435Y75332D1*
X118257Y76241D1*
X118063Y77147D1*
X117853Y78049D1*
X117629Y78948D1*
X117598Y79067D1*
X117356Y79961D1*
X117099Y80851D1*
X116826Y81736D1*
X116539Y82617D1*
X116237Y83493D1*
X116195Y83610D1*
X115876Y84480D1*
X115542Y85344D1*
X115194Y86203D1*
X114831Y87056D1*
X114453Y87902D1*
X114401Y88017D1*
X114007Y88855D1*
X113599Y89688D1*
X113177Y90513D1*
X112741Y91331D1*
X112291Y92142D1*
X112228Y92252D1*
X111763Y93053D1*
X111284Y93847D1*
X110791Y94633D1*
X110286Y95410D1*
X109767Y96178D1*
X109694Y96284D1*
X109160Y97042D1*
X108614Y97791D1*
X108054Y98531D1*
X107483Y99261D1*
X106898Y99982D1*
X106816Y100082D1*
X106218Y100791D1*
X105608Y101489D1*
X104986Y102178D1*
X104353Y102856D1*
X103708Y103523D1*
X103616Y103616D1*
X102959Y104270D1*
X102290Y104914D1*
X101610Y105545D1*
X100920Y106166D1*
X100219Y106774D1*
X100119Y106860D1*
X99407Y107454D1*
X98684Y108037D1*
X97952Y108607D1*
X97210Y109165D1*
X96459Y109711D1*
X96350Y109788D1*
X95588Y110318D1*
X94818Y110836D1*
X94038Y111340D1*
X93250Y111832D1*
X92454Y112310D1*
X92338Y112378D1*
X91533Y112840D1*
X90720Y113288D1*
X89899Y113723D1*
X89072Y114144D1*
X88237Y114550D1*
X88114Y114609D1*
X87272Y114999D1*
X86423Y115375D1*
X85566Y115737D1*
X84704Y116085D1*
X83835Y116418D1*
X83709Y116465D1*
X82833Y116781D1*
X81954Y117082D1*
X81071Y117367D1*
X80186Y117637D1*
X79299Y117891D1*
X79156Y117930D1*
X78266Y118166D1*
X77365Y118388D1*
X76452Y118597D1*
X75527Y118793D1*
X74591Y118975D1*
X74491Y118994D1*
X73598Y119151D1*
X72742Y119288D1*
X71885Y119410D1*
D32*
X71064Y119513D1*
X70211Y119605D1*
X69748Y119647D1*
X68925Y119711D1*
X68020Y119767D1*
X66987Y119815D1*
X65717Y119861D1*
X64964Y119885D1*
Y115694D2*
D31*
X64570Y115687D1*
X63310Y115659D1*
X62326Y115628D1*
X61461Y115589D1*
X60675Y115540D1*
X60540Y115530D1*
X59749Y115464D1*
X58939Y115381D1*
X58109Y115279D1*
X57257Y115160D1*
X56379Y115021D1*
X56144Y114981D1*
X55231Y114817D1*
X54330Y114639D1*
X53483Y114456D1*
X52605Y114251D1*
X51811Y114051D1*
X50955Y113820D1*
X50102Y113574D1*
X49250Y113311D1*
X48402Y113033D1*
X47572Y112745D1*
X46730Y112437D1*
X45894Y112114D1*
X45064Y111776D1*
X44241Y111424D1*
X43462Y111075D1*
X42652Y110695D1*
X41849Y110301D1*
X41052Y109893D1*
X40263Y109470D1*
X39510Y109051D1*
X38736Y108601D1*
X37969Y108138D1*
X37211Y107662D1*
X36461Y107172D1*
X35747Y106689D1*
X35015Y106174D1*
X34292Y105646D1*
X33578Y105105D1*
X32873Y104551D1*
X32203Y104006D1*
X31518Y103429D1*
X30843Y102840D1*
X30179Y102238D1*
X29525Y101626D1*
X28904Y101023D1*
X28272Y100388D1*
X27651Y99742D1*
X27041Y99085D1*
X26443Y98418D1*
X25876Y97762D1*
X25301Y97074D1*
X24739Y96376D1*
X24188Y95669D1*
X23651Y94951D1*
X23142Y94248D1*
X22629Y93512D1*
X22130Y92768D1*
X21643Y92014D1*
X21170Y91252D1*
X20723Y90506D1*
X20277Y89728D1*
X19844Y88943D1*
X19424Y88150D1*
X19019Y87349D1*
X18639Y86565D1*
X18261Y85752D1*
X17898Y84931D1*
X17550Y84104D1*
X17215Y83271D1*
X16905Y82456D1*
X16600Y81612D1*
X16309Y80763D1*
X16034Y79908D1*
X15774Y79049D1*
X15534Y78208D1*
X15304Y77341D1*
X15089Y76469D1*
X14889Y75594D1*
X14704Y74715D1*
X14539Y73855D1*
X14385Y72970D1*
X14247Y72083D1*
X14124Y71194D1*
X14016Y70302D1*
X13927Y69429D1*
X13850Y68534D1*
X13790Y67638D1*
X13745Y66741D1*
X13716Y65843D1*
X13702Y64964D1*
X13704Y64065D1*
X13722Y63167D1*
X13755Y62269D1*
X13804Y61372D1*
X13868Y60493D1*
X13948Y59598D1*
X14044Y58705D1*
X14156Y57813D1*
X14283Y56923D1*
X14423Y56052D1*
X14581Y55167D1*
X14754Y54285D1*
X14943Y53406D1*
X15148Y52530D1*
X15363Y51673D1*
X15598Y50805D1*
X15848Y49942D1*
X16113Y49082D1*
X16393Y48227D1*
X16683Y47391D1*
X16992Y46547D1*
X17316Y45707D1*
X17655Y44874D1*
X18009Y44047D1*
X18371Y43237D1*
X18753Y42423D1*
X19149Y41615D1*
X19560Y40814D1*
X19984Y40020D1*
X20417Y39244D1*
X20868Y38466D1*
X21333Y37696D1*
X21812Y36933D1*
X22304Y36179D1*
X22804Y35443D1*
X23321Y34707D1*
X23852Y33980D1*
X24396Y33262D1*
X24952Y32553D1*
X25514Y31862D1*
X26095Y31173D1*
X26687Y30495D1*
X27291Y29827D1*
X27907Y29170D1*
X28529Y28529D1*
X29167Y27893D1*
X29816Y27269D1*
X30476Y26656D1*
X31147Y26054D1*
X31824Y25469D1*
X32515Y24892D1*
X33217Y24326D1*
X33928Y23773D1*
X34649Y23232D1*
X35375Y22707D1*
X36114Y22192D1*
X36863Y21689D1*
X37620Y21200D1*
X38386Y20724D1*
X39156Y20263D1*
X39937Y19814D1*
X40727Y19379D1*
X41524Y18957D1*
X42329Y18550D1*
X43138Y18157D1*
X43955Y17778D1*
X44780Y17413D1*
X45611Y17063D1*
X46448Y16727D1*
X47290Y16406D1*
X48138Y16099D1*
X48992Y15807D1*
X49850Y15530D1*
X50714Y15268D1*
X51582Y15022D1*
X52453Y14790D1*
X53330Y14574D1*
X54209Y14372D1*
X55093Y14187D1*
X55980Y14016D1*
X56869Y13861D1*
X57761Y13722D1*
X58655Y13598D1*
X59552Y13490D1*
X60452Y13398D1*
X61351Y13321D1*
X62252Y13260D1*
X63154Y13215D1*
X64057Y13185D1*
X64964Y13171D1*
X65866Y13173D1*
X66769Y13191D1*
X67672Y13224D1*
X68574Y13274D1*
X69475Y13339D1*
X69480D1*
X70380Y13420D1*
X71278Y13516D1*
X72175Y13628D1*
X73069Y13756D1*
X73961Y13899D1*
X73968Y13900D1*
X74857Y14059D1*
X75743Y14233D1*
X76627Y14423D1*
X77507Y14628D1*
X78384Y14849D1*
X78391Y14851D1*
X79264Y15086D1*
X80132Y15337D1*
X80996Y15604D1*
X81855Y15885D1*
X82710Y16181D1*
X82718Y16184D1*
X83567Y16495D1*
X84410Y16821D1*
X85248Y17161D1*
X86080Y17516D1*
X86905Y17886D1*
X86914Y17890D1*
X87733Y18274D1*
X88545Y18672D1*
X89350Y19085D1*
X90148Y19511D1*
X90938Y19951D1*
X90948Y19957D1*
X91730Y20411D1*
X92505Y20878D1*
X93271Y21359D1*
X94029Y21854D1*
X94778Y22361D1*
X94789Y22369D1*
X95529Y22889D1*
X96260Y23423D1*
X96982Y23969D1*
X97694Y24528D1*
X98396Y25099D1*
X98407Y25108D1*
X99099Y25691D1*
X99781Y26286D1*
X100452Y26893D1*
X101113Y27512D1*
X101763Y28142D1*
X101774Y28153D1*
X102413Y28795D1*
X103040Y29447D1*
X103657Y30111D1*
X104261Y30785D1*
X104854Y31470D1*
X104865Y31483D1*
X105445Y32177D1*
X106014Y32882D1*
X106570Y33597D1*
X107114Y34322D1*
X107622Y35024D1*
X107655Y35071D1*
X108173Y35814D1*
X108678Y36566D1*
X109170Y37327D1*
X109649Y38096D1*
X110114Y38874D1*
X110124Y38890D1*
X110575Y39676D1*
X111013Y40470D1*
X111436Y41271D1*
X111846Y42079D1*
X112242Y42895D1*
X112251Y42913D1*
X112632Y43735D1*
X112999Y44564D1*
X113352Y45399D1*
X113690Y46241D1*
X114013Y47088D1*
X114021Y47108D1*
X114329Y47961D1*
X114622Y48819D1*
X114901Y49682D1*
X115164Y50550D1*
X115412Y51422D1*
X115419Y51444D1*
X115651Y52321D1*
X115869Y53201D1*
X116071Y54085D1*
X116258Y54973D1*
X116430Y55864D1*
X116434Y55888D1*
X116589Y56781D1*
X116730Y57678D1*
X116854Y58577D1*
X116963Y59478D1*
X117056Y60380D1*
X117058Y60406D1*
X117136Y61310D1*
X117197Y62215D1*
X117243Y63122D1*
X117273Y64029D1*
X117287Y64937D1*
Y64964D1*
X117285Y65871D1*
X117267Y66779D1*
X117234Y67686D1*
X117184Y68593D1*
X117120Y69498D1*
X117117Y69526D1*
X117036Y70431D1*
X116939Y71333D1*
X116827Y72235D1*
X116699Y73134D1*
X116555Y74030D1*
X116550Y74060D1*
X116391Y74954D1*
X116215Y75845D1*
X116025Y76733D1*
X115819Y77618D1*
X115597Y78499D1*
X115590Y78529D1*
X115353Y79406D1*
X115100Y80278D1*
X114833Y81147D1*
X114551Y82011D1*
X114253Y82869D1*
X114242Y82900D1*
X113930Y83753D1*
X113602Y84600D1*
X113260Y85442D1*
X112903Y86279D1*
X112532Y87108D1*
X112518Y87139D1*
X112132Y87961D1*
X111732Y88778D1*
X111318Y89587D1*
X110890Y90389D1*
X110447Y91184D1*
X110430Y91214D1*
X109974Y92000D1*
X109504Y92778D1*
X109021Y93549D1*
X108524Y94311D1*
X108014Y95064D1*
X107994Y95094D1*
X107470Y95837D1*
X106934Y96572D1*
X106385Y97297D1*
X105824Y98013D1*
X105250Y98719D1*
X105226Y98748D1*
X104640Y99444D1*
X104042Y100129D1*
X103432Y100804D1*
X102810Y101468D1*
X102177Y102122D1*
X102150Y102150D1*
X101505Y102791D1*
X100849Y103422D1*
X100182Y104042D1*
X99504Y104650D1*
X98817Y105246D1*
X98786Y105272D1*
X98088Y105855D1*
X97379Y106426D1*
X96660Y106986D1*
X95932Y107532D1*
X95195Y108066D1*
X95161Y108090D1*
X94414Y108611D1*
X93658Y109118D1*
X92894Y109613D1*
X92120Y110094D1*
X91339Y110562D1*
X91302Y110584D1*
X90513Y111037D1*
X89715Y111477D1*
X88910Y111903D1*
X88098Y112315D1*
X87279Y112713D1*
X87238Y112732D1*
X86413Y113115D1*
X85580Y113484D1*
X84740Y113838D1*
X83893Y114179D1*
X83040Y114505D1*
X83001Y114520D1*
X82142Y114830D1*
X81279Y115125D1*
X80414Y115405D1*
X79585Y115657D1*
X78714Y115906D1*
X78620Y115932D1*
X77748Y116163D1*
X76863Y116381D1*
X75967Y116586D1*
X75060Y116777D1*
X74140Y116955D1*
X74131Y116957D1*
X73239Y117114D1*
X72383Y117251D1*
X71564Y117367D1*
X70708Y117473D1*
X69925Y117555D1*
X69568Y117587D1*
X68761Y117650D1*
X67871Y117705D1*
X66852Y117752D1*
X65587Y117798D1*
X64964Y117818D1*
Y113513D2*
X64570Y113506D1*
X63349Y113480D1*
X62365Y113448D1*
X61539Y113410D1*
X60793Y113363D1*
X60730Y113359D1*
X59956Y113294D1*
X59163Y113212D1*
X58350Y113113D1*
X57515Y112995D1*
X56654Y112858D1*
X56523Y112835D1*
X55670Y112682D1*
X54788Y112508D1*
X53918Y112321D1*
X53060Y112119D1*
X52375Y111947D1*
X51538Y111721D1*
X50703Y111480D1*
X49870Y111223D1*
X49040Y110950D1*
X48317Y110699D1*
X47493Y110397D1*
X46675Y110081D1*
X45864Y109750D1*
X45058Y109405D1*
X44382Y109102D1*
X43589Y108730D1*
X42804Y108345D1*
X42024Y107945D1*
X41253Y107531D1*
X40598Y107166D1*
X39840Y106727D1*
X39090Y106274D1*
X38349Y105807D1*
X37615Y105327D1*
X36995Y104907D1*
X36279Y104403D1*
X35571Y103886D1*
X34872Y103357D1*
X34183Y102815D1*
X33601Y102340D1*
X32931Y101776D1*
X32270Y101199D1*
X31621Y100611D1*
X30981Y100010D1*
X30441Y99486D1*
X29823Y98865D1*
X29215Y98233D1*
X28619Y97590D1*
X28034Y96936D1*
X27540Y96365D1*
X26978Y95693D1*
X26428Y95010D1*
X25890Y94317D1*
X25364Y93614D1*
X24921Y93002D1*
X24420Y92282D1*
X23931Y91554D1*
X23455Y90816D1*
X22992Y90070D1*
X22604Y89420D1*
X22166Y88659D1*
X21743Y87891D1*
X21333Y87115D1*
X20937Y86331D1*
X20606Y85648D1*
X20237Y84852D1*
X19881Y84049D1*
X19540Y83240D1*
X19214Y82424D1*
X18944Y81714D1*
X18645Y80888D1*
X18361Y80057D1*
X18092Y79221D1*
X17838Y78380D1*
X17630Y77647D1*
X17404Y76798D1*
X17193Y75945D1*
X16998Y75088D1*
X16818Y74228D1*
X16674Y73478D1*
X16523Y72613D1*
X16388Y71745D1*
X16268Y70874D1*
X16164Y70001D1*
X16086Y69240D1*
X16011Y68364D1*
X15952Y67487D1*
X15908Y66609D1*
X15880Y65730D1*
X15869Y64964D1*
X15871Y64085D1*
X15888Y63205D1*
X15921Y62327D1*
X15970Y61448D1*
X16026Y60682D1*
X16104Y59806D1*
X16198Y58932D1*
X16307Y58059D1*
X16433Y57188D1*
X16555Y56428D1*
X16709Y55562D1*
X16879Y54699D1*
X17065Y53838D1*
X17265Y52982D1*
X17454Y52233D1*
X17683Y51384D1*
X17928Y50539D1*
X18188Y49697D1*
X18462Y48861D1*
X18716Y48131D1*
X19018Y47304D1*
X19336Y46483D1*
X19668Y45668D1*
X20015Y44858D1*
X20331Y44151D1*
X20705Y43354D1*
X21093Y42563D1*
X21495Y41780D1*
X21911Y41003D1*
X22289Y40325D1*
X22731Y39564D1*
X23186Y38810D1*
X23655Y38064D1*
X24137Y37326D1*
X24574Y36682D1*
X25080Y35962D1*
X25600Y35250D1*
X26132Y34548D1*
X26677Y33855D1*
X27169Y33250D1*
X27737Y32576D1*
X28317Y31913D1*
X28908Y31259D1*
X29512Y30616D1*
X30056Y30056D1*
X30680Y29434D1*
X31316Y28823D1*
X31962Y28223D1*
X32620Y27635D1*
X33211Y27123D1*
X33888Y26557D1*
X34575Y26004D1*
X35271Y25463D1*
X35978Y24934D1*
X36613Y24475D1*
X37336Y23970D1*
X38069Y23478D1*
X38810Y23000D1*
X39560Y22534D1*
X40235Y22132D1*
X40999Y21692D1*
X41772Y21266D1*
X42553Y20853D1*
X43341Y20455D1*
X44049Y20112D1*
X44849Y19740D1*
X45657Y19383D1*
X46470Y19040D1*
X47290Y18712D1*
X48027Y18431D1*
X48857Y18131D1*
X49693Y17845D1*
X50534Y17575D1*
X51379Y17319D1*
X52139Y17103D1*
X52993Y16876D1*
X53850Y16664D1*
X54712Y16468D1*
X55577Y16287D1*
X56354Y16137D1*
X57224Y15986D1*
X58098Y15849D1*
X58973Y15729D1*
X59851Y15624D1*
X60640Y15543D1*
X61520Y15467D1*
X62402Y15408D1*
X63285Y15364D1*
X64169Y15336D1*
X64964Y15324D1*
X65847Y15325D1*
X66731Y15343D1*
X67615Y15376D1*
X68498Y15425D1*
X69293Y15482D1*
X70173Y15561D1*
X71053Y15656D1*
X71930Y15766D1*
X72806Y15891D1*
X73594Y16018D1*
X74465Y16173D1*
X75333Y16344D1*
X76198Y16530D1*
X77060Y16732D1*
X77835Y16927D1*
X78689Y17158D1*
X79539Y17404D1*
X80385Y17665D1*
X81226Y17941D1*
X81983Y18203D1*
X82814Y18508D1*
X83640Y18827D1*
X84460Y19161D1*
X85274Y19509D1*
X86006Y19837D1*
X86808Y20213D1*
X87603Y20603D1*
X88391Y21007D1*
X89172Y21425D1*
X89874Y21817D1*
X90640Y22261D1*
X91399Y22719D1*
X92149Y23190D1*
X92891Y23675D1*
X93558Y24127D1*
X94282Y24637D1*
X94998Y25159D1*
X95704Y25694D1*
X96401Y26242D1*
X97027Y26752D1*
X97705Y27322D1*
X98373Y27905D1*
X99030Y28500D1*
X99677Y29107D1*
X100257Y29670D1*
X100883Y30298D1*
X101497Y30937D1*
X102100Y31587D1*
X102692Y32248D1*
X103222Y32861D1*
X103791Y33541D1*
X104347Y34232D1*
X104892Y34932D1*
X105423Y35642D1*
X105899Y36300D1*
X106406Y37028D1*
X106901Y37764D1*
X107382Y38510D1*
X107850Y39263D1*
X108268Y39962D1*
X108710Y40731D1*
X109138Y41508D1*
X109553Y42293D1*
X109954Y43085D1*
X110310Y43818D1*
X110683Y44623D1*
X111042Y45435D1*
X111387Y46253D1*
X111718Y47077D1*
X112008Y47841D1*
X112310Y48675D1*
X112598Y49516D1*
X112870Y50361D1*
X113127Y51211D1*
X113351Y51998D1*
X113579Y52856D1*
X113792Y53719D1*
X113990Y54585D1*
X114172Y55454D1*
X114327Y56260D1*
X114479Y57135D1*
X114616Y58012D1*
X114738Y58893D1*
X114844Y59775D1*
X114928Y60592D1*
X115003Y61478D1*
X115063Y62364D1*
X115108Y63252D1*
X115136Y64141D1*
X115149Y64964D1*
X115147Y65852D1*
X115130Y66741D1*
X115096Y67630D1*
X115047Y68518D1*
X114988Y69340D1*
X114909Y70226D1*
X114814Y71110D1*
X114703Y71992D1*
X114577Y72873D1*
X114446Y73689D1*
X114290Y74564D1*
X114118Y75437D1*
X113931Y76307D1*
X113729Y77173D1*
X113527Y77976D1*
X113295Y78835D1*
X113048Y79690D1*
X112785Y80540D1*
X112508Y81386D1*
X112236Y82169D1*
X111930Y83005D1*
X111609Y83835D1*
X111274Y84660D1*
X110924Y85478D1*
X110584Y86237D1*
X110206Y87043D1*
X109814Y87842D1*
X109408Y88635D1*
X108988Y89420D1*
X108583Y90147D1*
X108136Y90917D1*
X107676Y91680D1*
X107202Y92434D1*
X106715Y93180D1*
X106247Y93870D1*
X105734Y94599D1*
X105209Y95318D1*
X104671Y96029D1*
X104121Y96730D1*
X103593Y97378D1*
X103019Y98059D1*
X102433Y98730D1*
X101835Y99391D1*
X101226Y100042D1*
X100643Y100643D1*
X100011Y101272D1*
X99369Y101889D1*
X98715Y102496D1*
X98051Y103091D1*
X97417Y103640D1*
X96733Y104211D1*
X96039Y104771D1*
X95334Y105318D1*
X94621Y105853D1*
X93940Y106346D1*
X93208Y106856D1*
X92468Y107353D1*
X91718Y107837D1*
X90961Y108308D1*
X90238Y108740D1*
X89465Y109185D1*
X88683Y109615D1*
X87894Y110033D1*
X87098Y110436D1*
X86339Y110804D1*
X85530Y111179D1*
X84714Y111540D1*
X83891Y111887D1*
X83062Y112220D1*
X82273Y112521D1*
X81432Y112825D1*
X80587Y113114D1*
X79739Y113388D1*
X78888Y113645D1*
X78070Y113878D1*
X77215Y114104D1*
X76349Y114318D1*
X75471Y114519D1*
X74581Y114706D1*
X73762Y114864D1*
X72909Y115015D1*
X72024Y115155D1*
X71205Y115271D1*
X70423Y115366D1*
X69608Y115450D1*
X69382Y115471D1*
X68592Y115533D1*
X67718Y115586D1*
X66714Y115633D1*
X65452Y115678D1*
X64964Y115694D1*
Y111275D2*
X64570Y111268D1*
X63388Y111243D1*
X62444Y111213D1*
X61618Y111174D1*
X60925Y111130D1*
X60169Y111067D1*
X59394Y110987D1*
X58599Y110889D1*
X57781Y110773D1*
X56938Y110638D1*
X56911Y110633D1*
X56038Y110476D1*
X55178Y110306D1*
X54370Y110131D1*
X53532Y109933D1*
X52953Y109787D1*
X52136Y109567D1*
X51320Y109331D1*
X50506Y109080D1*
X49696Y108813D1*
X49082Y108599D1*
X48277Y108305D1*
X47478Y107996D1*
X46685Y107672D1*
X45899Y107334D1*
X45326Y107077D1*
X44552Y106715D1*
X43784Y106338D1*
X43023Y105947D1*
X42270Y105542D1*
X41715Y105232D1*
X40974Y104803D1*
X40242Y104361D1*
X39517Y103905D1*
X38802Y103435D1*
X38276Y103078D1*
X37575Y102586D1*
X36884Y102081D1*
X36202Y101564D1*
X35530Y101034D1*
X35035Y100631D1*
X34380Y100080D1*
X33735Y99516D1*
X33101Y98941D1*
X32477Y98354D1*
X32019Y97909D1*
X31414Y97302D1*
X30820Y96685D1*
X30238Y96056D1*
X29668Y95417D1*
X29249Y94932D1*
X28699Y94275D1*
X28162Y93608D1*
X27636Y92930D1*
X27123Y92244D1*
X26747Y91723D1*
X26257Y91020D1*
X25779Y90309D1*
X25315Y89588D1*
X24864Y88859D1*
X24534Y88306D1*
X24106Y87563D1*
X23692Y86812D1*
X23292Y86053D1*
X22906Y85287D1*
X22625Y84707D1*
X22264Y83929D1*
X21917Y83144D1*
X21584Y82354D1*
X21266Y81557D1*
X21036Y80952D1*
X20744Y80146D1*
X20467Y79334D1*
X20204Y78516D1*
X19957Y77695D1*
X19780Y77071D1*
X19559Y76242D1*
X19353Y75408D1*
X19163Y74571D1*
X18988Y73730D1*
X18866Y73092D1*
X18718Y72246D1*
X18586Y71398D1*
X18469Y70547D1*
X18368Y69694D1*
X18302Y69046D1*
X18228Y68191D1*
X18171Y67334D1*
X18128Y66476D1*
X18102Y65617D1*
X18093Y64964D1*
X18094Y64105D1*
X18111Y63246D1*
X18144Y62387D1*
X18192Y61529D1*
X18240Y60876D1*
X18316Y60020D1*
X18408Y59166D1*
X18516Y58313D1*
X18639Y57462D1*
X18743Y56814D1*
X18894Y55968D1*
X19060Y55124D1*
X19242Y54284D1*
X19439Y53446D1*
X19600Y52808D1*
X19823Y51978D1*
X20062Y51152D1*
X20317Y50330D1*
X20586Y49513D1*
X20802Y48890D1*
X21098Y48083D1*
X21408Y47280D1*
X21733Y46483D1*
X22072Y45693D1*
X22343Y45089D1*
X22708Y44310D1*
X23087Y43538D1*
X23480Y42772D1*
X23888Y42014D1*
X24211Y41435D1*
X24642Y40690D1*
X25087Y39953D1*
X25546Y39225D1*
X26018Y38504D1*
X26391Y37955D1*
X26886Y37250D1*
X27394Y36555D1*
X27914Y35869D1*
X28447Y35192D1*
X28868Y34676D1*
X29422Y34017D1*
X29989Y33368D1*
X30568Y32730D1*
X31158Y32102D1*
X31623Y31623D1*
X32233Y31015D1*
X32854Y30418D1*
X33487Y29832D1*
X34129Y29258D1*
X34636Y28820D1*
X35297Y28267D1*
X35968Y27726D1*
X36649Y27198D1*
X37340Y26682D1*
X37883Y26289D1*
X38590Y25796D1*
X39306Y25315D1*
X40031Y24848D1*
X40764Y24394D1*
X41342Y24049D1*
X42089Y23619D1*
X42844Y23203D1*
X43608Y22800D1*
X44378Y22411D1*
X44984Y22118D1*
X45767Y21754D1*
X46556Y21405D1*
X47351Y21071D1*
X48153Y20751D1*
X48784Y20510D1*
X49595Y20216D1*
X50412Y19937D1*
X51234Y19673D1*
X52061Y19424D1*
X52712Y19239D1*
X53546Y19017D1*
X54384Y18810D1*
X55226Y18619D1*
X56072Y18442D1*
X56738Y18315D1*
X57589Y18166D1*
X58442Y18033D1*
X59298Y17916D1*
X60156Y17814D1*
X60832Y17744D1*
X61693Y17671D1*
X62555Y17612D1*
X63418Y17570D1*
X64282Y17543D1*
X64964Y17533D1*
X65828Y17534D1*
X66692Y17552D1*
X67556Y17584D1*
X68419Y17633D1*
X69100Y17683D1*
X69961Y17759D1*
X70821Y17852D1*
X71679Y17960D1*
X72535Y18083D1*
X73211Y18192D1*
X74062Y18344D1*
X74910Y18511D1*
X75756Y18693D1*
X76598Y18891D1*
X77264Y19059D1*
X78099Y19284D1*
X78930Y19525D1*
X79756Y19780D1*
X80578Y20051D1*
X81228Y20277D1*
X82041Y20574D1*
X82848Y20886D1*
X83650Y21213D1*
X84445Y21554D1*
X85074Y21836D1*
X85858Y22203D1*
X86635Y22584D1*
X87406Y22980D1*
X88169Y23389D1*
X88772Y23726D1*
X89521Y24160D1*
X90262Y24608D1*
X90996Y25069D1*
X91720Y25544D1*
X92293Y25933D1*
X93002Y26430D1*
X93702Y26941D1*
X94392Y27465D1*
X95042Y27976D1*
X95611Y28439D1*
X96274Y28997D1*
X96927Y29567D1*
X97569Y30149D1*
X98201Y30743D1*
X98700Y31227D1*
X99312Y31841D1*
X99912Y32466D1*
X100502Y33102D1*
X101079Y33748D1*
X101536Y34276D1*
X102092Y34941D1*
X102636Y35616D1*
X103168Y36301D1*
X103687Y36996D1*
X104097Y37562D1*
X104593Y38274D1*
X105076Y38994D1*
X105546Y39723D1*
X106003Y40460D1*
X106363Y41062D1*
X106795Y41814D1*
X107214Y42574D1*
X107619Y43341D1*
X108010Y44116D1*
X108317Y44748D1*
X108682Y45535D1*
X109033Y46329D1*
X109370Y47129D1*
X109692Y47935D1*
X109943Y48593D1*
X110238Y49409D1*
X110519Y50230D1*
X110785Y51057D1*
X111036Y51888D1*
X111228Y52567D1*
X111452Y53406D1*
X111660Y54249D1*
X111853Y55096D1*
X112030Y55947D1*
X112163Y56641D1*
X112313Y57497D1*
X112447Y58355D1*
X112565Y59216D1*
X112668Y60079D1*
X112740Y60784D1*
X112814Y61649D1*
X112873Y62516D1*
X112916Y63385D1*
X112943Y64254D1*
X112954Y64964D1*
X112952Y65833D1*
X112935Y66702D1*
X112902Y67571D1*
X112854Y68439D1*
X112802Y69149D1*
X112725Y70015D1*
X112632Y70880D1*
X112523Y71743D1*
X112399Y72604D1*
X112286Y73308D1*
X112133Y74164D1*
X111965Y75018D1*
X111782Y75868D1*
X111583Y76715D1*
X111409Y77408D1*
X111182Y78248D1*
X110940Y79084D1*
X110683Y79916D1*
X110411Y80743D1*
X110176Y81420D1*
X109877Y82237D1*
X109564Y83049D1*
X109235Y83855D1*
X108892Y84655D1*
X108598Y85311D1*
X108229Y86099D1*
X107846Y86881D1*
X107448Y87656D1*
X107036Y88423D1*
X106686Y89052D1*
X106249Y89805D1*
X105799Y90551D1*
X105335Y91288D1*
X104858Y92017D1*
X104453Y92614D1*
X103952Y93327D1*
X103438Y94031D1*
X102912Y94725D1*
X102373Y95410D1*
X101917Y95971D1*
X101355Y96637D1*
X100782Y97294D1*
X100197Y97940D1*
X99600Y98576D1*
X99096Y99096D1*
X98478Y99711D1*
X97850Y100315D1*
X97210Y100908D1*
X96560Y101489D1*
X96011Y101964D1*
X95342Y102524D1*
X94663Y103071D1*
X93974Y103606D1*
X93275Y104129D1*
X92686Y104555D1*
X91970Y105054D1*
X91246Y105540D1*
X90513Y106013D1*
X89771Y106473D1*
X89145Y106847D1*
X88389Y107282D1*
X87625Y107704D1*
X86853Y108111D1*
X86074Y108505D1*
X85416Y108824D1*
X84625Y109191D1*
X83826Y109544D1*
X83021Y109883D1*
X82209Y110208D1*
X81526Y110468D1*
X80703Y110766D1*
X79877Y111049D1*
X79047Y111316D1*
X78215Y111567D1*
X77505Y111769D1*
X76669Y111991D1*
X75821Y112200D1*
X74962Y112396D1*
X74090Y112578D1*
X73383Y112714D1*
X72530Y112865D1*
X71713Y112995D1*
X70933Y113105D1*
X70115Y113205D1*
X69371Y113281D1*
X69192Y113297D1*
X68419Y113358D1*
X67562Y113411D1*
X66572Y113457D1*
X65313Y113502D1*
X64964Y113513D1*
Y108980D2*
X64570Y108974D1*
X63428Y108950D1*
X62523Y108921D1*
X61736Y108884D1*
X61125Y108845D1*
X60388Y108784D1*
X59632Y108705D1*
X58856Y108609D1*
X58057Y108495D1*
X57309Y108374D1*
X56458Y108222D1*
X55620Y108056D1*
X54793Y107876D1*
X53978Y107682D1*
X53546Y107573D1*
X52749Y107359D1*
X51954Y107129D1*
X51161Y106883D1*
X50371Y106621D1*
X49865Y106446D1*
X49081Y106159D1*
X48302Y105857D1*
X47529Y105542D1*
X46763Y105211D1*
X46294Y105001D1*
X45539Y104648D1*
X44791Y104280D1*
X44049Y103899D1*
X43315Y103503D1*
X42860Y103249D1*
X42138Y102831D1*
X41423Y102399D1*
X40717Y101954D1*
X40020Y101496D1*
X39589Y101203D1*
X38906Y100723D1*
X38232Y100231D1*
X37567Y99726D1*
X36912Y99208D1*
X36506Y98878D1*
X35867Y98340D1*
X35239Y97791D1*
X34620Y97230D1*
X34012Y96657D1*
X33636Y96291D1*
X33046Y95700D1*
X32468Y95098D1*
X31900Y94484D1*
X31345Y93860D1*
X31001Y93462D1*
X30464Y92821D1*
X29940Y92171D1*
X29428Y91510D1*
X28929Y90840D1*
X28620Y90412D1*
X28142Y89727D1*
X27676Y89032D1*
X27223Y88329D1*
X26784Y87618D1*
X26513Y87163D1*
X26096Y86439D1*
X25692Y85706D1*
X25302Y84966D1*
X24927Y84219D1*
X24695Y83741D1*
X24343Y82983D1*
X24005Y82218D1*
X23681Y81446D1*
X23371Y80669D1*
X23182Y80171D1*
X22897Y79384D1*
X22626Y78593D1*
X22371Y77795D1*
X22130Y76994D1*
X21985Y76480D1*
X21769Y75671D1*
X21569Y74858D1*
X21384Y74042D1*
X21214Y73222D1*
X21113Y72696D1*
X20969Y71871D1*
X20840Y71044D1*
X20727Y70214D1*
X20629Y69382D1*
X20575Y68847D1*
X20503Y68013D1*
X20446Y67177D1*
X20406Y66340D1*
X20381Y65503D1*
X20373Y64964D1*
X20374Y64126D1*
X20391Y63288D1*
X20423Y62450D1*
X20472Y61614D1*
X20511Y61075D1*
X20585Y60240D1*
X20675Y59406D1*
X20780Y58574D1*
X20901Y57745D1*
X20988Y57209D1*
X21134Y56384D1*
X21296Y55561D1*
X21474Y54742D1*
X21667Y53925D1*
X21800Y53398D1*
X22018Y52588D1*
X22251Y51782D1*
X22500Y50981D1*
X22763Y50184D1*
X22942Y49669D1*
X23230Y48881D1*
X23533Y48099D1*
X23850Y47321D1*
X24182Y46550D1*
X24406Y46052D1*
X24762Y45291D1*
X25132Y44538D1*
X25516Y43791D1*
X25914Y43052D1*
X26181Y42573D1*
X26602Y41846D1*
X27036Y41127D1*
X27484Y40417D1*
X27945Y39715D1*
X28254Y39260D1*
X28737Y38572D1*
X29232Y37894D1*
X29741Y37225D1*
X30261Y36565D1*
X30610Y36138D1*
X31151Y35495D1*
X31704Y34862D1*
X32269Y34239D1*
X32845Y33627D1*
X33231Y33231D1*
X33826Y32637D1*
X34432Y32055D1*
X35049Y31483D1*
X35677Y30924D1*
X36097Y30561D1*
X36741Y30022D1*
X37396Y29494D1*
X38061Y28979D1*
X38735Y28476D1*
X39186Y28150D1*
X39876Y27669D1*
X40575Y27200D1*
X41282Y26744D1*
X41998Y26302D1*
X42477Y26016D1*
X43206Y25596D1*
X43943Y25190D1*
X44688Y24798D1*
X45440Y24419D1*
X45944Y24175D1*
X46707Y23821D1*
X47477Y23480D1*
X48253Y23154D1*
X49036Y22842D1*
X49560Y22643D1*
X50352Y22356D1*
X51149Y22084D1*
X51951Y21826D1*
X52758Y21584D1*
X53299Y21431D1*
X54113Y21214D1*
X54931Y21012D1*
X55753Y20825D1*
X56578Y20654D1*
X57132Y20548D1*
X57962Y20403D1*
X58795Y20273D1*
X59630Y20159D1*
X60467Y20060D1*
X61030Y20003D1*
X61870Y19931D1*
X62711Y19874D1*
X63553Y19833D1*
X64396Y19808D1*
X64964Y19799D1*
X65807Y19800D1*
X66650Y19817D1*
X67493Y19850D1*
X68335Y19898D1*
X68903Y19940D1*
X69743Y20014D1*
X70582Y20104D1*
X71419Y20210D1*
X72254Y20332D1*
X72817Y20423D1*
X73648Y20570D1*
X74476Y20733D1*
X75301Y20912D1*
X76123Y21106D1*
X76678Y21246D1*
X77493Y21465D1*
X78304Y21700D1*
X79110Y21950D1*
X79912Y22215D1*
X80454Y22403D1*
X81247Y22693D1*
X82035Y22998D1*
X82817Y23317D1*
X83593Y23651D1*
X84118Y23887D1*
X84883Y24244D1*
X85642Y24617D1*
X86393Y25003D1*
X87137Y25403D1*
X87641Y25685D1*
X88372Y26108D1*
X89096Y26545D1*
X89811Y26996D1*
X90518Y27459D1*
X90997Y27785D1*
X91688Y28270D1*
X92371Y28769D1*
X93045Y29280D1*
X93709Y29804D1*
X94159Y30170D1*
X94805Y30715D1*
X95442Y31271D1*
X96069Y31839D1*
X96685Y32419D1*
X97102Y32825D1*
X97700Y33424D1*
X98286Y34034D1*
X98861Y34655D1*
X99424Y35286D1*
X99806Y35728D1*
X100349Y36377D1*
X100880Y37036D1*
X101398Y37705D1*
X101905Y38383D1*
X102247Y38857D1*
X102732Y39551D1*
X103203Y40254D1*
X103662Y40966D1*
X104108Y41687D1*
X104408Y42190D1*
X104831Y42924D1*
X105239Y43666D1*
X105634Y44415D1*
X106016Y45172D1*
X106272Y45701D1*
X106629Y46469D1*
X106972Y47244D1*
X107300Y48025D1*
X107614Y48813D1*
X107823Y49364D1*
X108112Y50160D1*
X108386Y50962D1*
X108645Y51770D1*
X108889Y52582D1*
X109051Y53151D1*
X109269Y53969D1*
X109472Y54793D1*
X109660Y55620D1*
X109832Y56450D1*
X109944Y57032D1*
X110090Y57867D1*
X110221Y58706D1*
X110336Y59546D1*
X110435Y60389D1*
X110496Y60980D1*
X110569Y61825D1*
X110626Y62672D1*
X110667Y63519D1*
X110693Y64367D1*
X110702Y64964D1*
X110700Y65812D1*
X110684Y66661D1*
X110651Y67509D1*
X110603Y68356D1*
X110559Y68953D1*
X110484Y69798D1*
X110393Y70642D1*
X110287Y71485D1*
X110165Y72325D1*
X110069Y72917D1*
X109921Y73753D1*
X109757Y74586D1*
X109577Y75417D1*
X109383Y76243D1*
X109235Y76826D1*
X109015Y77646D1*
X108778Y78462D1*
X108527Y79274D1*
X108261Y80081D1*
X108063Y80651D1*
X107771Y81448D1*
X107465Y82241D1*
X107144Y83028D1*
X106808Y83809D1*
X106561Y84361D1*
X106201Y85130D1*
X105826Y85894D1*
X105437Y86650D1*
X105035Y87399D1*
X104739Y87928D1*
X104313Y88664D1*
X103874Y89392D1*
X103420Y90112D1*
X102954Y90823D1*
X102613Y91326D1*
X102124Y92022D1*
X101622Y92709D1*
X101108Y93387D1*
X100581Y94055D1*
X100196Y94527D1*
X99649Y95178D1*
X99089Y95819D1*
X98517Y96450D1*
X97934Y97070D1*
X97508Y97508D1*
X96905Y98109D1*
X96292Y98699D1*
X95667Y99278D1*
X95031Y99845D1*
X94568Y100245D1*
X93915Y100791D1*
X93252Y101326D1*
X92579Y101848D1*
X91897Y102358D1*
X91399Y102717D1*
X90701Y103205D1*
X89993Y103679D1*
X89277Y104141D1*
X88552Y104590D1*
X88024Y104905D1*
X87285Y105330D1*
X86539Y105742D1*
X85785Y106139D1*
X85024Y106523D1*
X84468Y106792D1*
X83696Y107151D1*
X82916Y107496D1*
X82130Y107826D1*
X81337Y108143D1*
X80760Y108363D1*
X79956Y108654D1*
X79149Y108930D1*
X78339Y109190D1*
X77526Y109435D1*
X76925Y109605D1*
X76109Y109822D1*
X75281Y110026D1*
X74441Y110217D1*
X73589Y110394D1*
X72994Y110509D1*
X72180Y110654D1*
X71402Y110778D1*
X70622Y110888D1*
X69879Y110978D1*
X69102Y111058D1*
X68997Y111067D1*
X68242Y111127D1*
X67403Y111178D1*
X66428Y111223D1*
X65169Y111268D1*
X64964Y111275D1*
Y106629D2*
X64570Y106622D1*
X63467Y106600D1*
X62601Y106572D1*
X61854Y106536D1*
X61329Y106503D1*
X60613Y106443D1*
X59877Y106367D1*
X59120Y106273D1*
X58341Y106161D1*
X57717Y106060D1*
X56890Y105912D1*
X56117Y105759D1*
X55312Y105584D1*
X54519Y105396D1*
X54155Y105304D1*
X53379Y105095D1*
X52605Y104871D1*
X51833Y104632D1*
X51064Y104377D1*
X50669Y104239D1*
X49905Y103960D1*
X49147Y103667D1*
X48395Y103359D1*
X47650Y103036D1*
X47286Y102873D1*
X46552Y102530D1*
X45823Y102172D1*
X45102Y101800D1*
X44388Y101414D1*
X44033Y101216D1*
X43330Y100810D1*
X42635Y100390D1*
X41949Y99956D1*
X41270Y99509D1*
X40934Y99281D1*
X40270Y98815D1*
X39614Y98335D1*
X38967Y97843D1*
X38330Y97339D1*
X38014Y97081D1*
X37392Y96558D1*
X36780Y96024D1*
X36179Y95477D1*
X35588Y94919D1*
X35294Y94633D1*
X34720Y94058D1*
X34157Y93472D1*
X33605Y92875D1*
X33065Y92267D1*
X32796Y91955D1*
X32274Y91332D1*
X31764Y90699D1*
X31266Y90056D1*
X30781Y89403D1*
X30539Y89068D1*
X30073Y88401D1*
X29620Y87726D1*
X29180Y87041D1*
X28753Y86348D1*
X28541Y85992D1*
X28135Y85287D1*
X27742Y84574D1*
X27363Y83854D1*
X26999Y83126D1*
X26818Y82751D1*
X26474Y82014D1*
X26145Y81269D1*
X25830Y80518D1*
X25530Y79761D1*
X25382Y79370D1*
X25104Y78605D1*
X24841Y77834D1*
X24592Y77058D1*
X24359Y76278D1*
X24245Y75874D1*
X24035Y75087D1*
X23840Y74296D1*
X23660Y73501D1*
X23496Y72703D1*
X23417Y72289D1*
X23276Y71487D1*
X23151Y70681D1*
X23041Y69874D1*
X22947Y69064D1*
X22904Y68643D1*
X22834Y67831D1*
X22779Y67018D1*
X22740Y66203D1*
X22717Y65388D1*
X22711Y64964D1*
Y64148D1*
X22728Y63333D1*
X22760Y62517D1*
X22808Y61703D1*
X22839Y61278D1*
X22911Y60466D1*
X22998Y59654D1*
X23101Y58844D1*
X23220Y58037D1*
X23288Y57615D1*
X23431Y56812D1*
X23589Y56011D1*
X23762Y55213D1*
X23951Y54418D1*
X24056Y54002D1*
X24268Y53214D1*
X24495Y52430D1*
X24737Y51649D1*
X24995Y50874D1*
X25136Y50468D1*
X25416Y49700D1*
X25711Y48938D1*
X26020Y48182D1*
X26344Y47432D1*
X26521Y47038D1*
X26867Y46298D1*
X27228Y45564D1*
X27602Y44837D1*
X27990Y44118D1*
X28202Y43739D1*
X28611Y43032D1*
X29034Y42332D1*
X29470Y41640D1*
X29920Y40957D1*
X30165Y40597D1*
X30634Y39928D1*
X31117Y39267D1*
X31612Y38616D1*
X32120Y37974D1*
X32396Y37636D1*
X32922Y37010D1*
X33461Y36394D1*
X34011Y35788D1*
X34573Y35193D1*
X34878Y34878D1*
X35458Y34300D1*
X36048Y33733D1*
X36649Y33177D1*
X37261Y32633D1*
X37594Y32346D1*
X38222Y31820D1*
X38859Y31306D1*
X39507Y30805D1*
X40164Y30316D1*
X40522Y30058D1*
X41193Y29589D1*
X41874Y29132D1*
X42563Y28689D1*
X43261Y28259D1*
X43641Y28032D1*
X44351Y27623D1*
X45069Y27228D1*
X45794Y26846D1*
X46527Y26478D1*
X46927Y26285D1*
X47670Y25939D1*
X48420Y25607D1*
X49176Y25290D1*
X49939Y24988D1*
X50356Y24829D1*
X51126Y24549D1*
X51903Y24284D1*
X52684Y24034D1*
X53470Y23799D1*
X53901Y23677D1*
X54693Y23466D1*
X55490Y23269D1*
X56290Y23088D1*
X57094Y22922D1*
X57536Y22838D1*
X58344Y22696D1*
X59155Y22570D1*
X59968Y22459D1*
X60784Y22364D1*
X61233Y22318D1*
X62050Y22247D1*
X62870Y22192D1*
X63690Y22153D1*
X64511Y22129D1*
X64964Y22123D1*
X65785D1*
X66606Y22140D1*
X67427Y22172D1*
X68247Y22220D1*
X68700Y22253D1*
X69519Y22326D1*
X70336Y22414D1*
X71151Y22517D1*
X71964Y22636D1*
X72414Y22709D1*
X73223Y22853D1*
X74030Y23012D1*
X74833Y23186D1*
X75633Y23376D1*
X76077Y23488D1*
X76871Y23701D1*
X77661Y23930D1*
X78446Y24174D1*
X79227Y24433D1*
X79661Y24584D1*
X80433Y24866D1*
X81201Y25162D1*
X81962Y25474D1*
X82718Y25800D1*
X83138Y25989D1*
X83883Y26337D1*
X84622Y26700D1*
X85354Y27076D1*
X86078Y27467D1*
X86482Y27693D1*
X87194Y28105D1*
X87899Y28531D1*
X88596Y28970D1*
X89284Y29422D1*
X89667Y29683D1*
X90341Y30156D1*
X91006Y30642D1*
X91662Y31140D1*
X92308Y31651D1*
X92669Y31945D1*
X93300Y32475D1*
X93920Y33017D1*
X94530Y33571D1*
X95130Y34137D1*
X95465Y34463D1*
X96047Y35046D1*
X96618Y35640D1*
X97177Y36245D1*
X97726Y36861D1*
X98032Y37216D1*
X98561Y37848D1*
X99078Y38490D1*
X99583Y39142D1*
X100076Y39804D1*
X100351Y40185D1*
X100823Y40861D1*
X101283Y41546D1*
X101729Y42240D1*
X102163Y42942D1*
X102404Y43347D1*
X102816Y44062D1*
X103214Y44785D1*
X103599Y45515D1*
X103969Y46253D1*
X104175Y46679D1*
X104524Y47427D1*
X104857Y48182D1*
X105177Y48943D1*
X105482Y49711D1*
X105651Y50155D1*
X105932Y50931D1*
X106199Y51712D1*
X106451Y52499D1*
X106688Y53290D1*
X106818Y53749D1*
X107031Y54547D1*
X107229Y55349D1*
X107411Y56155D1*
X107579Y56964D1*
X107668Y57434D1*
X107811Y58247D1*
X107938Y59064D1*
X108050Y59883D1*
X108146Y60704D1*
X108195Y61181D1*
X108266Y62005D1*
X108322Y62830D1*
X108361Y63656D1*
X108386Y64482D1*
X108392Y64964D1*
Y65790D1*
X108375Y66617D1*
X108343Y67444D1*
X108295Y68270D1*
X108260Y68752D1*
X108187Y69575D1*
X108098Y70398D1*
X107994Y71219D1*
X107874Y72038D1*
X107797Y72516D1*
X107653Y73331D1*
X107493Y74143D1*
X107317Y74952D1*
X107127Y75758D1*
X107007Y76229D1*
X106792Y77028D1*
X106562Y77824D1*
X106317Y78615D1*
X106057Y79401D1*
X105896Y79862D1*
X105612Y80640D1*
X105314Y81412D1*
X105000Y82179D1*
X104672Y82940D1*
X104472Y83386D1*
X104121Y84137D1*
X103756Y84881D1*
X103377Y85618D1*
X102983Y86347D1*
X102744Y86776D1*
X102329Y87493D1*
X101900Y88203D1*
X101458Y88904D1*
X101003Y89597D1*
X100726Y90005D1*
X100250Y90683D1*
X99761Y91353D1*
X99259Y92013D1*
X98745Y92664D1*
X98432Y93047D1*
X97899Y93682D1*
X97353Y94307D1*
X96795Y94921D1*
X96226Y95525D1*
X95880Y95880D1*
X95293Y96466D1*
X94695Y97041D1*
X94086Y97605D1*
X93466Y98157D1*
X93089Y98482D1*
X92453Y99015D1*
X91807Y99536D1*
X91150Y100045D1*
X90484Y100541D1*
X90079Y100833D1*
X89399Y101308D1*
X88709Y101771D1*
X88011Y102221D1*
X87304Y102657D1*
X86874Y102914D1*
X86154Y103328D1*
X85427Y103729D1*
X84692Y104116D1*
X83949Y104489D1*
X83497Y104708D1*
X82744Y105058D1*
X81984Y105395D1*
X81217Y105717D1*
X80444Y106024D1*
X79974Y106203D1*
X79190Y106487D1*
X78404Y106756D1*
X77614Y107009D1*
X76860Y107236D1*
X76331Y107386D1*
X75535Y107598D1*
X74727Y107797D1*
X73908Y107983D1*
X73077Y108155D1*
X72596Y108247D1*
X71746Y108398D1*
X70968Y108521D1*
X70226Y108624D1*
X69452Y108716D1*
X68797Y108780D1*
X68061Y108839D1*
X67240Y108889D1*
X66282Y108933D1*
X65020Y108978D1*
X64964Y108980D1*
Y104220D2*
X64570Y104214D1*
X63506Y104192D1*
X62680Y104166D1*
X61972Y104131D1*
X61539Y104104D1*
X60843Y104047D1*
X60129Y103972D1*
X59393Y103880D1*
X58634Y103770D1*
X58135Y103689D1*
X57332Y103546D1*
X56540Y103389D1*
X55760Y103218D1*
X55033Y103044D1*
X54777Y102979D1*
X54024Y102777D1*
X53273Y102560D1*
X52524Y102327D1*
X51778Y102078D1*
X51491Y101978D1*
X50750Y101708D1*
X50014Y101423D1*
X49285Y101124D1*
X48598Y100826D1*
X48303Y100693D1*
X47589Y100361D1*
X46882Y100013D1*
X46182Y99652D1*
X45489Y99276D1*
X45235Y99134D1*
X44553Y98740D1*
X43878Y98332D1*
X43212Y97911D1*
X42554Y97476D1*
X42313Y97312D1*
X41667Y96860D1*
X41031Y96395D1*
X40403Y95916D1*
X39785Y95426D1*
X39558Y95241D1*
X38954Y94733D1*
X38360Y94214D1*
X37777Y93683D1*
X37204Y93140D1*
X36992Y92935D1*
X36435Y92377D1*
X35888Y91807D1*
X35353Y91227D1*
X34829Y90636D1*
X34635Y90412D1*
X34128Y89807D1*
X33633Y89192D1*
X33150Y88567D1*
X32680Y87933D1*
X32505Y87691D1*
X32053Y87044D1*
X31613Y86388D1*
X31186Y85723D1*
X30772Y85050D1*
X30619Y84792D1*
X30224Y84108D1*
X29843Y83416D1*
X29476Y82716D1*
X29122Y82009D1*
X28991Y81738D1*
X28658Y81021D1*
X28338Y80298D1*
X28033Y79569D1*
X27742Y78833D1*
X27635Y78550D1*
X27365Y77807D1*
X27109Y77059D1*
X26869Y76305D1*
X26643Y75546D1*
X26560Y75254D1*
X26356Y74490D1*
X26167Y73721D1*
X25993Y72949D1*
X25834Y72174D1*
X25777Y71873D1*
X25640Y71094D1*
X25518Y70312D1*
X25412Y69527D1*
X25321Y68740D1*
X25290Y68435D1*
X25222Y67646D1*
X25168Y66856D1*
X25131Y66064D1*
X25109Y65273D1*
X25105Y64964D1*
X25106Y64172D1*
X25122Y63379D1*
X25153Y62588D1*
X25201Y61796D1*
X25224Y61487D1*
X25293Y60698D1*
X25378Y59909D1*
X25479Y59123D1*
X25595Y58339D1*
X25645Y58031D1*
X25783Y57250D1*
X25936Y56472D1*
X26105Y55697D1*
X26289Y54926D1*
X26366Y54622D1*
X26572Y53856D1*
X26793Y53094D1*
X27029Y52336D1*
X27279Y51583D1*
X27383Y51285D1*
X27655Y50540D1*
X27941Y49800D1*
X28242Y49065D1*
X28558Y48337D1*
X28688Y48048D1*
X29024Y47329D1*
X29374Y46616D1*
X29738Y45910D1*
X30116Y45212D1*
X30271Y44934D1*
X30669Y44247D1*
X31080Y43567D1*
X31504Y42895D1*
X31942Y42232D1*
X32122Y41968D1*
X32578Y41317D1*
X33046Y40675D1*
X33528Y40043D1*
X34022Y39420D1*
X34225Y39171D1*
X34736Y38563D1*
X35260Y37964D1*
X35795Y37376D1*
X36341Y36798D1*
X36567Y36567D1*
X37129Y36005D1*
X37703Y35454D1*
X38287Y34914D1*
X38882Y34386D1*
X39128Y34174D1*
X39738Y33663D1*
X40357Y33164D1*
X40987Y32677D1*
X41626Y32203D1*
X41891Y32012D1*
X42543Y31556D1*
X43204Y31113D1*
X43874Y30682D1*
X44552Y30265D1*
X44834Y30098D1*
X45523Y29700D1*
X46221Y29316D1*
X46926Y28945D1*
X47638Y28589D1*
X47935Y28446D1*
X48657Y28109D1*
X49385Y27787D1*
X50120Y27480D1*
X50861Y27186D1*
X51171Y27069D1*
X51920Y26797D1*
X52674Y26539D1*
X53433Y26297D1*
X54197Y26069D1*
X54518Y25979D1*
X55288Y25773D1*
X56062Y25582D1*
X56840Y25406D1*
X57621Y25246D1*
X57949Y25184D1*
X58735Y25046D1*
X59523Y24923D1*
X60313Y24816D1*
X61106Y24724D1*
X61440Y24690D1*
X62235Y24621D1*
X63031Y24568D1*
X63828Y24530D1*
X64626Y24508D1*
X64964Y24503D1*
X65762D1*
X66560Y24519D1*
X67358Y24551D1*
X68155Y24599D1*
X68493Y24624D1*
X69288Y24694D1*
X70082Y24779D1*
X70875Y24880D1*
X71665Y24997D1*
X72001Y25052D1*
X72788Y25191D1*
X73571Y25345D1*
X74352Y25515D1*
X75130Y25701D1*
X75462Y25785D1*
X76233Y25992D1*
X77001Y26214D1*
X77764Y26452D1*
X78523Y26704D1*
X78848Y26817D1*
X79599Y27091D1*
X80344Y27380D1*
X81084Y27683D1*
X81818Y28001D1*
X82134Y28142D1*
X82858Y28481D1*
X83576Y28833D1*
X84287Y29200D1*
X84991Y29580D1*
X85294Y29750D1*
X85987Y30150D1*
X86672Y30564D1*
X87348Y30992D1*
X88017Y31432D1*
X88305Y31628D1*
X88960Y32088D1*
X89607Y32560D1*
X90244Y33045D1*
X90872Y33542D1*
X91143Y33764D1*
X91756Y34279D1*
X92359Y34806D1*
X92952Y35345D1*
X93534Y35895D1*
X93786Y36141D1*
X94353Y36707D1*
X94908Y37285D1*
X95451Y37874D1*
X95983Y38473D1*
X96214Y38741D1*
X96729Y39355D1*
X97232Y39979D1*
X97723Y40613D1*
X98201Y41257D1*
X98408Y41545D1*
X98868Y42202D1*
X99315Y42868D1*
X99748Y43543D1*
X100169Y44226D1*
X100351Y44533D1*
X100752Y45227D1*
X101139Y45930D1*
X101512Y46640D1*
X101872Y47358D1*
X102027Y47680D1*
X102366Y48408D1*
X102691Y49142D1*
X103001Y49882D1*
X103296Y50629D1*
X103424Y50965D1*
X103698Y51719D1*
X103958Y52479D1*
X104202Y53244D1*
X104432Y54014D1*
X104530Y54362D1*
X104738Y55137D1*
X104930Y55917D1*
X105107Y56701D1*
X105269Y57488D1*
X105337Y57845D1*
X105476Y58636D1*
X105599Y59430D1*
X105707Y60226D1*
X105800Y61025D1*
X105837Y61388D1*
X105906Y62188D1*
X105960Y62990D1*
X105999Y63793D1*
X106021Y64597D1*
X106026Y64964D1*
Y65767D1*
X106010Y66572D1*
X105978Y67375D1*
X105930Y68178D1*
X105903Y68545D1*
X105833Y69346D1*
X105747Y70146D1*
X105645Y70945D1*
X105528Y71741D1*
X105468Y72106D1*
X105328Y72898D1*
X105173Y73688D1*
X105002Y74474D1*
X104815Y75257D1*
X104724Y75617D1*
X104515Y76395D1*
X104292Y77168D1*
X104052Y77937D1*
X103798Y78702D1*
X103676Y79054D1*
X103400Y79810D1*
X103109Y80561D1*
X102804Y81307D1*
X102484Y82047D1*
X102331Y82388D1*
X101990Y83118D1*
X101635Y83841D1*
X101266Y84558D1*
X100882Y85267D1*
X100699Y85595D1*
X100296Y86293D1*
X99879Y86983D1*
X99448Y87665D1*
X99004Y88338D1*
X98792Y88651D1*
X98329Y89311D1*
X97854Y89962D1*
X97365Y90604D1*
X96864Y91236D1*
X96625Y91530D1*
X96106Y92148D1*
X95575Y92755D1*
X95032Y93353D1*
X94478Y93939D1*
X94212Y94212D1*
X93641Y94782D1*
X93059Y95342D1*
X92466Y95890D1*
X91863Y96426D1*
X91573Y96676D1*
X90955Y97194D1*
X90326Y97701D1*
X89687Y98195D1*
X89039Y98677D1*
X88727Y98902D1*
X88066Y99365D1*
X87395Y99815D1*
X86715Y100251D1*
X86027Y100675D1*
X85696Y100873D1*
X84996Y101276D1*
X84288Y101666D1*
X83573Y102042D1*
X82850Y102405D1*
X82501Y102573D1*
X81769Y102914D1*
X81030Y103241D1*
X80283Y103554D1*
X79531Y103852D1*
X79168Y103990D1*
X78406Y104267D1*
X77641Y104528D1*
X76873Y104774D1*
X76102Y105004D1*
X75721Y105112D1*
X74947Y105319D1*
X74161Y105512D1*
X73364Y105692D1*
X72554Y105859D1*
X72187Y105930D1*
X71411Y106068D1*
X70672Y106186D1*
X69897Y106294D1*
X69193Y106377D1*
X68592Y106437D1*
X67876Y106494D1*
X67075Y106543D1*
X66132Y106586D1*
X64964Y106629D1*
Y101754D2*
X64570Y101748D1*
X63585Y101729D1*
X62798Y101704D1*
X62091Y101670D1*
X61754Y101648D1*
X61080Y101593D1*
X60388Y101521D1*
X59674Y101431D1*
X58937Y101323D1*
X58563Y101262D1*
X57826Y101132D1*
X57059Y100981D1*
X56304Y100815D1*
X55561Y100637D1*
X55415Y100600D1*
X54686Y100405D1*
X53958Y100194D1*
X53233Y99968D1*
X52511Y99726D1*
X52334Y99664D1*
X51616Y99403D1*
X50903Y99127D1*
X50197Y98836D1*
X49497Y98532D1*
X49343Y98462D1*
X48652Y98140D1*
X47968Y97804D1*
X47290Y97453D1*
X46619Y97089D1*
X46466Y97003D1*
X45805Y96622D1*
X45151Y96226D1*
X44506Y95818D1*
X43870Y95396D1*
X43724Y95297D1*
X43099Y94859D1*
X42482Y94409D1*
X41875Y93945D1*
X41277Y93469D1*
X41139Y93357D1*
X40554Y92866D1*
X39979Y92363D1*
X39414Y91848D1*
X38860Y91322D1*
X38731Y91196D1*
X38191Y90656D1*
X37661Y90105D1*
X37143Y89542D1*
X36637Y88970D1*
X36518Y88832D1*
X36027Y88247D1*
X35547Y87651D1*
X35080Y87045D1*
X34625Y86430D1*
X34518Y86282D1*
X34079Y85655D1*
X33653Y85020D1*
X33240Y84376D1*
X32841Y83723D1*
X32746Y83564D1*
X32364Y82902D1*
X31994Y82231D1*
X31639Y81553D1*
X31298Y80868D1*
X31217Y80700D1*
X30893Y80006D1*
X30584Y79306D1*
X30289Y78599D1*
X30008Y77886D1*
X29941Y77711D1*
X29679Y76991D1*
X29432Y76266D1*
X29200Y75536D1*
X28982Y74801D1*
X28931Y74619D1*
X28732Y73879D1*
X28549Y73134D1*
X28381Y72386D1*
X28228Y71635D1*
X28193Y71447D1*
X28059Y70692D1*
X27942Y69935D1*
X27839Y69174D1*
X27753Y68412D1*
X27733Y68221D1*
X27666Y67457D1*
X27615Y66691D1*
X27579Y65925D1*
X27559Y65158D1*
X27557Y64964D1*
Y64196D1*
X27572Y63429D1*
X27604Y62662D1*
X27651Y61895D1*
X27665Y61700D1*
X27732Y60936D1*
X27814Y60172D1*
X27912Y59410D1*
X28026Y58651D1*
X28058Y58456D1*
X28191Y57700D1*
X28340Y56946D1*
X28504Y56195D1*
X28683Y55448D1*
X28732Y55255D1*
X28931Y54513D1*
X29145Y53775D1*
X29374Y53041D1*
X29618Y52312D1*
X29684Y52123D1*
X29947Y51401D1*
X30224Y50683D1*
X30517Y49972D1*
X30823Y49267D1*
X30906Y49082D1*
X31231Y48385D1*
X31570Y47695D1*
X31924Y47011D1*
X32291Y46335D1*
X32390Y46158D1*
X32775Y45491D1*
X33173Y44833D1*
X33585Y44182D1*
X34010Y43540D1*
X34125Y43370D1*
X34567Y42740D1*
X35021Y42118D1*
X35488Y41506D1*
X35968Y40903D1*
X36099Y40743D1*
X36593Y40153D1*
X37100Y39573D1*
X37619Y39003D1*
X38150Y38444D1*
X38295Y38295D1*
X38840Y37750D1*
X39396Y37216D1*
X39963Y36694D1*
X40540Y36183D1*
X40699Y36046D1*
X41289Y35550D1*
X41890Y35067D1*
X42500Y34596D1*
X43120Y34137D1*
X43292Y34013D1*
X43923Y33571D1*
X44564Y33141D1*
X45214Y32725D1*
X45872Y32321D1*
X46055Y32213D1*
X46723Y31827D1*
X47399Y31454D1*
X48083Y31096D1*
X48773Y30751D1*
X48967Y30658D1*
X49666Y30332D1*
X50372Y30020D1*
X51085Y29722D1*
X51804Y29439D1*
X52006Y29362D1*
X52731Y29098D1*
X53462Y28849D1*
X54199Y28614D1*
X54939Y28394D1*
X55149Y28335D1*
X55895Y28135D1*
X56646Y27950D1*
X57400Y27781D1*
X58157Y27626D1*
X58373Y27586D1*
X59134Y27451D1*
X59898Y27332D1*
X60664Y27229D1*
X61433Y27141D1*
X61653Y27119D1*
X62423Y27052D1*
X63195Y27000D1*
X63968Y26964D1*
X64741Y26943D1*
X64964Y26940D1*
X65737D1*
X66511Y26956D1*
X67284Y26987D1*
X68057Y27034D1*
X68281Y27051D1*
X69051Y27118D1*
X69821Y27201D1*
X70589Y27300D1*
X71355Y27414D1*
X71578Y27451D1*
X72341Y27585D1*
X73101Y27735D1*
X73858Y27900D1*
X74611Y28081D1*
X74831Y28137D1*
X75580Y28337D1*
X76324Y28553D1*
X77064Y28784D1*
X77799Y29029D1*
X78015Y29105D1*
X78743Y29370D1*
X79466Y29650D1*
X80184Y29944D1*
X80895Y30253D1*
X81105Y30348D1*
X81808Y30675D1*
X82504Y31017D1*
X83193Y31373D1*
X83875Y31743D1*
X84078Y31857D1*
X84750Y32244D1*
X85414Y32646D1*
X86070Y33061D1*
X86717Y33489D1*
X86910Y33620D1*
X87546Y34065D1*
X88173Y34523D1*
X88790Y34994D1*
X89398Y35477D1*
X89581Y35626D1*
X90175Y36125D1*
X90760Y36636D1*
X91335Y37159D1*
X91898Y37694D1*
X92068Y37859D1*
X92617Y38408D1*
X93156Y38969D1*
X93682Y39540D1*
X94198Y40122D1*
X94353Y40303D1*
X94853Y40898D1*
X95341Y41503D1*
X95816Y42119D1*
X96279Y42743D1*
X96419Y42938D1*
X96865Y43575D1*
X97298Y44221D1*
X97718Y44876D1*
X98125Y45539D1*
X98249Y45747D1*
X98638Y46420D1*
X99013Y47102D1*
X99374Y47791D1*
X99722Y48487D1*
X99828Y48706D1*
X100157Y49411D1*
X100471Y50123D1*
X100772Y50842D1*
X101057Y51566D1*
X101144Y51795D1*
X101411Y52526D1*
X101662Y53263D1*
X101899Y54005D1*
X102120Y54752D1*
X102187Y54990D1*
X102389Y55742D1*
X102575Y56498D1*
X102747Y57258D1*
X102902Y58022D1*
X102949Y58266D1*
X103084Y59033D1*
X103204Y59803D1*
X103308Y60576D1*
X103397Y61350D1*
X103422Y61599D1*
X103490Y62375D1*
X103542Y63153D1*
X103579Y63933D1*
X103600Y64712D1*
X103603Y64964D1*
Y65743D1*
X103588Y66523D1*
X103556Y67303D1*
X103509Y68082D1*
X103490Y68334D1*
X103422Y69111D1*
X103339Y69887D1*
X103239Y70662D1*
X103125Y71434D1*
X103084Y71685D1*
X102948Y72454D1*
X102797Y73220D1*
X102631Y73983D1*
X102449Y74743D1*
X102386Y74991D1*
X102184Y75745D1*
X101967Y76495D1*
X101734Y77241D1*
X101487Y77983D1*
X101402Y78226D1*
X101135Y78960D1*
X100853Y79689D1*
X100556Y80412D1*
X100245Y81129D1*
X100138Y81366D1*
X99808Y82074D1*
X99463Y82776D1*
X99105Y83471D1*
X98732Y84158D1*
X98605Y84386D1*
X98214Y85063D1*
X97809Y85733D1*
X97391Y86394D1*
X96959Y87047D1*
X96812Y87264D1*
X96363Y87905D1*
X95901Y88537D1*
X95427Y89159D1*
X94940Y89772D1*
X94773Y89977D1*
X94270Y90576D1*
X93755Y91166D1*
X93228Y91745D1*
X92689Y92313D1*
X92504Y92504D1*
X91950Y93058D1*
X91386Y93600D1*
X90810Y94131D1*
X90223Y94651D1*
X90021Y94826D1*
X89421Y95329D1*
X88811Y95821D1*
X88190Y96300D1*
X87561Y96767D1*
X87342Y96924D1*
X86701Y97373D1*
X86050Y97810D1*
X85390Y98234D1*
X84721Y98644D1*
X84489Y98782D1*
X83810Y99174D1*
X83123Y99553D1*
X82429Y99917D1*
X81727Y100268D1*
X81482Y100387D1*
X80771Y100718D1*
X80054Y101035D1*
X79329Y101338D1*
X78598Y101627D1*
X78343Y101724D1*
X77604Y101993D1*
X76861Y102246D1*
X76116Y102484D1*
X75367Y102707D1*
X75097Y102783D1*
X74346Y102984D1*
X73583Y103172D1*
X72808Y103346D1*
X72022Y103507D1*
X71768Y103556D1*
X71032Y103688D1*
X70256Y103811D1*
X69554Y103908D1*
X68826Y103993D1*
X68382Y104036D1*
X67687Y104092D1*
X66906Y104140D1*
X65981Y104182D1*
X64964Y104220D1*
Y99231D2*
X64570Y99226D1*
X63625Y99208D1*
X62877Y99184D1*
X62209Y99151D1*
X61974Y99136D1*
X61324Y99083D1*
X60654Y99013D1*
X59964Y98926D1*
X59250Y98820D1*
X59001Y98780D1*
X58250Y98647D1*
X57555Y98509D1*
X56826Y98349D1*
X56110Y98176D1*
X56067Y98165D1*
X55363Y97977D1*
X54661Y97774D1*
X53961Y97555D1*
X53264Y97320D1*
X53196Y97296D1*
X52502Y97045D1*
X51815Y96778D1*
X51133Y96497D1*
X50458Y96202D1*
X50408Y96179D1*
X49740Y95869D1*
X49080Y95544D1*
X48426Y95205D1*
X47779Y94853D1*
X47725Y94822D1*
X47086Y94454D1*
X46456Y94073D1*
X45833Y93678D1*
X45219Y93270D1*
X45168Y93235D1*
X44564Y92813D1*
X43969Y92378D1*
X43383Y91930D1*
X42806Y91469D1*
X42757Y91429D1*
X42191Y90955D1*
X41636Y90470D1*
X41091Y89972D1*
X40557Y89463D1*
X40510Y89417D1*
X39988Y88896D1*
X39477Y88364D1*
X38977Y87820D1*
X38489Y87267D1*
X38445Y87216D1*
X37970Y86651D1*
X37507Y86075D1*
X37056Y85490D1*
X36618Y84896D1*
X36578Y84840D1*
X36153Y84235D1*
X35742Y83622D1*
X35344Y82999D1*
X34959Y82368D1*
X34923Y82308D1*
X34553Y81668D1*
X34196Y81021D1*
X33854Y80365D1*
X33525Y79703D1*
X33494Y79638D1*
X33181Y78969D1*
X32882Y78292D1*
X32598Y77609D1*
X32328Y76920D1*
X32302Y76852D1*
X32048Y76157D1*
X31809Y75457D1*
X31585Y74751D1*
X31376Y74041D1*
X31356Y73969D1*
X31164Y73254D1*
X30987Y72535D1*
X30825Y71813D1*
X30679Y71087D1*
X30665Y71011D1*
X30535Y70283D1*
X30422Y69551D1*
X30323Y68816D1*
X30241Y68080D1*
X30233Y68002D1*
X30168Y67264D1*
X30118Y66525D1*
X30085Y65785D1*
X30066Y65043D1*
X30065Y64964D1*
Y64223D1*
X30080Y63481D1*
X30111Y62740D1*
X30157Y62000D1*
X30163Y61919D1*
X30227Y61180D1*
X30307Y60443D1*
X30402Y59707D1*
X30513Y58973D1*
X30527Y58891D1*
X30655Y58161D1*
X30798Y57433D1*
X30958Y56708D1*
X31132Y55986D1*
X31153Y55904D1*
X31344Y55187D1*
X31551Y54474D1*
X31773Y53765D1*
X32010Y53061D1*
X32038Y52980D1*
X32292Y52282D1*
X32560Y51589D1*
X32843Y50902D1*
X33140Y50221D1*
X33176Y50141D1*
X33490Y49467D1*
X33817Y48800D1*
X34159Y48140D1*
X34515Y47487D1*
X34559Y47409D1*
X34930Y46765D1*
X35315Y46129D1*
X35713Y45501D1*
X36125Y44881D1*
X36176Y44806D1*
X36602Y44197D1*
X37041Y43596D1*
X37493Y43005D1*
X37957Y42423D1*
X38015Y42351D1*
X38493Y41781D1*
X38983Y41221D1*
X39485Y40671D1*
X39998Y40131D1*
X40064Y40064D1*
X40590Y39537D1*
X41127Y39021D1*
X41675Y38517D1*
X42234Y38024D1*
X42306Y37962D1*
X42876Y37482D1*
X43457Y37015D1*
X44047Y36560D1*
X44647Y36118D1*
X44726Y36061D1*
X45336Y35633D1*
X45955Y35218D1*
X46583Y34816D1*
X47219Y34427D1*
X47304Y34377D1*
X47950Y34003D1*
X48603Y33644D1*
X49264Y33298D1*
X49932Y32966D1*
X50022Y32922D1*
X50698Y32607D1*
X51381Y32305D1*
X52070Y32018D1*
X52765Y31745D1*
X52860Y31709D1*
X53561Y31453D1*
X54268Y31212D1*
X54979Y30986D1*
X55696Y30775D1*
X55795Y30747D1*
X56516Y30553D1*
X57242Y30374D1*
X57971Y30211D1*
X58703Y30063D1*
X58806Y30043D1*
X59542Y29913D1*
X60280Y29798D1*
X61021Y29699D1*
X61764Y29615D1*
X61870Y29605D1*
X62615Y29539D1*
X63361Y29489D1*
X64108Y29455D1*
X64855Y29436D1*
X64964Y29435D1*
X65711Y29434D1*
X66459Y29449D1*
X67207Y29480D1*
X67914Y29524D1*
X68063Y29535D1*
X68809Y29600D1*
X69553Y29680D1*
X70295Y29776D1*
X71035Y29888D1*
X71145Y29905D1*
X71883Y30035D1*
X72617Y30180D1*
X73349Y30340D1*
X74077Y30516D1*
X74186Y30544D1*
X74910Y30737D1*
X75629Y30946D1*
X76345Y31169D1*
X77055Y31408D1*
X77163Y31446D1*
X77867Y31701D1*
X78566Y31972D1*
X79260Y32257D1*
X79947Y32557D1*
X80053Y32605D1*
X80732Y32921D1*
X81405Y33252D1*
X82072Y33596D1*
X82730Y33955D1*
X82833Y34013D1*
X83483Y34387D1*
X84125Y34775D1*
X84759Y35177D1*
X85384Y35592D1*
X85483Y35659D1*
X86098Y36089D1*
X86704Y36532D1*
X87301Y36988D1*
X87888Y37456D1*
X87981Y37532D1*
X88557Y38014D1*
X89122Y38509D1*
X89677Y39015D1*
X90222Y39532D1*
X90309Y39618D1*
X90841Y40149D1*
X91361Y40691D1*
X91870Y41243D1*
X92368Y41807D1*
X92449Y41901D1*
X92932Y42476D1*
X93404Y43062D1*
X93863Y43657D1*
X94310Y44262D1*
X94383Y44364D1*
X94815Y44980D1*
X95233Y45604D1*
X95639Y46238D1*
X96032Y46880D1*
X96097Y46989D1*
X96473Y47640D1*
X96836Y48299D1*
X97185Y48966D1*
X97521Y49640D1*
X97577Y49756D1*
X97895Y50438D1*
X98199Y51126D1*
X98489Y51821D1*
X98765Y52522D1*
X98811Y52644D1*
X99069Y53352D1*
X99312Y54064D1*
X99540Y54782D1*
X99754Y55505D1*
X99790Y55632D1*
X99985Y56359D1*
X100165Y57091D1*
X100330Y57827D1*
X100480Y58565D1*
X100505Y58697D1*
X100636Y59439D1*
X100752Y60184D1*
X100852Y60931D1*
X100937Y61681D1*
X100951Y61815D1*
X101017Y62566D1*
X101067Y63319D1*
X101102Y64073D1*
X101121Y64827D1*
X101123Y64964D1*
X101124Y65718D1*
X101108Y66472D1*
X101078Y67227D1*
X101031Y67980D1*
X101021Y68118D1*
X100955Y68870D1*
X100874Y69621D1*
X100778Y70370D1*
X100665Y71117D1*
X100643Y71255D1*
X100512Y71999D1*
X100366Y72740D1*
X100204Y73478D1*
X100028Y74212D1*
X99993Y74350D1*
X99798Y75079D1*
X99587Y75805D1*
X99362Y76527D1*
X99121Y77244D1*
X99074Y77379D1*
X98816Y78089D1*
X98543Y78794D1*
X98256Y79494D1*
X97954Y80187D1*
X97894Y80319D1*
X97575Y81005D1*
X97242Y81684D1*
X96894Y82356D1*
X96532Y83021D1*
X96461Y83149D1*
X96083Y83804D1*
X95691Y84452D1*
X95286Y85091D1*
X94868Y85722D1*
X94785Y85845D1*
X94351Y86465D1*
X93904Y87076D1*
X93445Y87678D1*
X92973Y88271D1*
X92878Y88387D1*
X92392Y88967D1*
X91893Y89538D1*
X91383Y90098D1*
X90861Y90647D1*
X90755Y90755D1*
X90220Y91291D1*
X89673Y91816D1*
X89116Y92330D1*
X88548Y92832D1*
X88432Y92932D1*
X87851Y93419D1*
X87261Y93895D1*
X86660Y94359D1*
X86050Y94809D1*
X85925Y94900D1*
X85304Y95335D1*
X84674Y95757D1*
X84035Y96167D1*
X83388Y96563D1*
X83254Y96643D1*
X82597Y97023D1*
X81932Y97389D1*
X81260Y97741D1*
X80580Y98080D1*
X80438Y98148D1*
X79750Y98469D1*
X79056Y98776D1*
X78354Y99069D1*
X77646Y99348D1*
X77499Y99403D1*
X76783Y99664D1*
X76065Y99910D1*
X75343Y100140D1*
X74618Y100354D1*
X74458Y100399D1*
X73731Y100594D1*
X72993Y100775D1*
X72242Y100944D1*
X71480Y101099D1*
X71340Y101126D1*
X70603Y101258D1*
X69903Y101369D1*
X69240Y101461D1*
X68536Y101543D1*
X68167Y101579D1*
X67494Y101633D1*
X66735Y101680D1*
X65827Y101722D1*
X64964Y101754D1*
Y96651D2*
X64570Y96646D1*
X63664Y96630D1*
X62956Y96607D1*
X62327Y96575D1*
X62199Y96566D1*
X61573Y96516D1*
X60929Y96449D1*
X60263Y96364D1*
X59574Y96261D1*
X59449Y96241D1*
X58726Y96113D1*
X58016Y95972D1*
X57362Y95828D1*
X56734Y95675D1*
X56057Y95496D1*
X55382Y95300D1*
X54708Y95088D1*
X54077Y94875D1*
X53410Y94633D1*
X52748Y94377D1*
X52129Y94122D1*
X51496Y93845D1*
X50854Y93547D1*
X50219Y93235D1*
X49590Y92908D1*
X49012Y92592D1*
X48398Y92239D1*
X47791Y91872D1*
X47193Y91492D1*
X46644Y91126D1*
X46063Y90721D1*
X45490Y90302D1*
X44927Y89871D1*
X44411Y89457D1*
X43867Y89002D1*
X43332Y88535D1*
X42809Y88056D1*
X42329Y87598D1*
X41826Y87097D1*
X41335Y86585D1*
X40854Y86062D1*
X40415Y85562D1*
X39958Y85019D1*
X39512Y84466D1*
X39079Y83902D1*
X38684Y83365D1*
X38275Y82784D1*
X37879Y82193D1*
X37497Y81594D1*
X37149Y81022D1*
X36792Y80407D1*
X36449Y79784D1*
X36120Y79154D1*
X35823Y78552D1*
X35521Y77908D1*
X35233Y77257D1*
X34960Y76600D1*
X34716Y75973D1*
X34471Y75305D1*
X34241Y74631D1*
X34026Y73952D1*
X33836Y73304D1*
X33651Y72617D1*
X33481Y71925D1*
X33326Y71229D1*
X33193Y70566D1*
X33068Y69864D1*
X32958Y69160D1*
X32865Y68453D1*
X32790Y67778D1*
X32726Y67068D1*
X32679Y66357D1*
X32647Y65644D1*
X32631Y64964D1*
X32630Y64250D1*
X32644Y63537D1*
X32675Y62824D1*
X32718Y62143D1*
X32779Y61431D1*
X32856Y60722D1*
X32948Y60013D1*
X33052Y59337D1*
X33174Y58633D1*
X33313Y57932D1*
X33467Y57234D1*
X33629Y56567D1*
X33813Y55877D1*
X34012Y55190D1*
X34226Y54508D1*
X34446Y53856D1*
X34690Y53184D1*
X34948Y52517D1*
X35221Y51856D1*
X35498Y51224D1*
X35799Y50575D1*
X36115Y49933D1*
X36444Y49297D1*
X36777Y48690D1*
X37133Y48069D1*
X37504Y47457D1*
X37888Y46852D1*
X38273Y46275D1*
X38683Y45687D1*
X39105Y45109D1*
X39541Y44540D1*
X39976Y43996D1*
X40435Y43447D1*
X40907Y42907D1*
X41391Y42378D1*
X41873Y41873D1*
X42379Y41365D1*
X42896Y40869D1*
X43425Y40383D1*
X43950Y39921D1*
X44499Y39459D1*
X45058Y39009D1*
X45627Y38571D1*
X46192Y38155D1*
X46779Y37743D1*
X47376Y37343D1*
X47981Y36956D1*
X48582Y36590D1*
X49204Y36230D1*
X49833Y35884D1*
X50470Y35551D1*
X51102Y35238D1*
X51753Y34933D1*
X52410Y34643D1*
X53074Y34367D1*
X53734Y34109D1*
X54409Y33863D1*
X55089Y33630D1*
X55775Y33413D1*
X56456Y33214D1*
X57151Y33026D1*
X57849Y32854D1*
X58552Y32697D1*
X59250Y32558D1*
X59958Y32432D1*
X60669Y32321D1*
X61383Y32226D1*
X62093Y32147D1*
X62810Y32083D1*
X63528Y32035D1*
X64248Y32003D1*
X64964Y31986D1*
X65684Y31985D1*
X66405Y32000D1*
X67125Y32030D1*
X67841Y32076D1*
X68559Y32138D1*
X69276Y32215D1*
X69991Y32308D1*
X70703Y32416D1*
X71413Y32541D1*
X72121Y32680D1*
X72826Y32835D1*
X73527Y33006D1*
X74224Y33192D1*
X74917Y33393D1*
X75606Y33609D1*
X76292Y33840D1*
X76970Y34086D1*
X77644Y34347D1*
X78312Y34622D1*
X78976Y34913D1*
X79631Y35218D1*
X80280Y35536D1*
X80922Y35869D1*
X81556Y36216D1*
X81560Y36218D1*
X82186Y36578D1*
X82805Y36953D1*
X83416Y37340D1*
X84018Y37741D1*
X84023Y37744D1*
X84616Y38158D1*
X85200Y38585D1*
X85775Y39025D1*
X86340Y39477D1*
X86345Y39482D1*
X86900Y39946D1*
X87445Y40422D1*
X87980Y40911D1*
X88504Y41411D1*
X88510Y41417D1*
X89023Y41928D1*
X89525Y42450D1*
X90015Y42984D1*
X90493Y43528D1*
X90500Y43536D1*
X90967Y44090D1*
X91421Y44654D1*
X91863Y45229D1*
X92293Y45812D1*
X92300Y45822D1*
X92717Y46415D1*
X93120Y47018D1*
X93511Y47629D1*
X93888Y48248D1*
X93895Y48260D1*
X94259Y48887D1*
X94609Y49523D1*
X94945Y50166D1*
X95267Y50816D1*
X95274Y50830D1*
X95581Y51487D1*
X95875Y52151D1*
X96153Y52821D1*
X96418Y53497D1*
X96424Y53513D1*
X96673Y54195D1*
X96908Y54882D1*
X97127Y55574D1*
X97332Y56271D1*
X97337Y56289D1*
X97526Y56990D1*
X97699Y57696D1*
X97858Y58405D1*
X98001Y59118D1*
X98005Y59138D1*
X98132Y59853D1*
X98244Y60571D1*
X98340Y61292D1*
X98420Y62015D1*
X98423Y62036D1*
X98487Y62760D1*
X98536Y63486D1*
X98569Y64213D1*
X98586Y64940D1*
Y64964D1*
X98587Y65691D1*
X98572Y66419D1*
X98542Y67146D1*
X98496Y67872D1*
X98494Y67897D1*
X98432Y68622D1*
X98353Y69346D1*
X98260Y70068D1*
X98150Y70788D1*
X98146Y70815D1*
X98020Y71532D1*
X97880Y72247D1*
X97723Y72958D1*
X97551Y73666D1*
X97544Y73694D1*
X97357Y74398D1*
X97154Y75098D1*
X96936Y75793D1*
X96703Y76484D1*
X96693Y76512D1*
X96445Y77198D1*
X96182Y77878D1*
X95904Y78552D1*
X95611Y79220D1*
X95598Y79249D1*
X95291Y79910D1*
X94969Y80565D1*
X94634Y81213D1*
X94284Y81854D1*
X94268Y81882D1*
X93904Y82515D1*
X93526Y83140D1*
X93135Y83756D1*
X92730Y84364D1*
X92711Y84393D1*
X92293Y84991D1*
X91862Y85581D1*
X91418Y86161D1*
X90962Y86732D1*
X90940Y86760D1*
X90471Y87320D1*
X89990Y87870D1*
X89497Y88410D1*
X88993Y88940D1*
X88966Y88966D1*
X88450Y89484D1*
X87923Y89990D1*
X87385Y90486D1*
X86836Y90969D1*
X86806Y90994D1*
X86247Y91465D1*
X85677Y91924D1*
X85097Y92371D1*
X84508Y92805D1*
X84475Y92828D1*
X83876Y93249D1*
X83268Y93657D1*
X82651Y94051D1*
X82026Y94432D1*
X81990Y94454D1*
X81356Y94821D1*
X80715Y95174D1*
X80066Y95514D1*
X79410Y95839D1*
X79370Y95858D1*
X78707Y96168D1*
X78037Y96465D1*
X77360Y96747D1*
X76676Y97014D1*
X76635Y97030D1*
X75945Y97282D1*
X75251Y97519D1*
X74555Y97740D1*
X73855Y97945D1*
X73805Y97960D1*
X73103Y98148D1*
X72390Y98324D1*
X71665Y98486D1*
X70928Y98635D1*
X70902Y98640D1*
X70204Y98766D1*
X69542Y98871D1*
X68844Y98967D1*
X68218Y99039D1*
X67947Y99065D1*
X67298Y99118D1*
X66562Y99163D1*
X65671Y99204D1*
X64964Y99231D1*
Y94015D2*
X64570Y94010D1*
X63743Y93996D1*
X63074Y93975D1*
X62484Y93944D1*
X62428Y93941D1*
X61830Y93893D1*
X61212Y93829D1*
X60572Y93747D1*
X59906Y93645D1*
X59214Y93524D1*
X58534Y93389D1*
X57866Y93240D1*
X57416Y93131D1*
X56767Y92959D1*
X56120Y92772D1*
X55476Y92569D1*
X54978Y92400D1*
X54338Y92170D1*
X53705Y91924D1*
X53078Y91664D1*
X52609Y91459D1*
X51994Y91174D1*
X51385Y90875D1*
X50783Y90561D1*
X50328Y90313D1*
X49740Y89975D1*
X49158Y89624D1*
X48586Y89259D1*
X48154Y88971D1*
X47596Y88583D1*
X47048Y88182D1*
X46509Y87768D1*
X46102Y87442D1*
X45580Y87007D1*
X45068Y86559D1*
X44567Y86100D1*
X44188Y85739D1*
X43706Y85259D1*
X43235Y84769D1*
X42775Y84267D1*
X42429Y83873D1*
X41990Y83353D1*
X41563Y82822D1*
X41149Y82282D1*
X40836Y81858D1*
X40444Y81301D1*
X40065Y80735D1*
X39699Y80161D1*
X39424Y79709D1*
X39082Y79120D1*
X38753Y78523D1*
X38438Y77918D1*
X38203Y77442D1*
X37913Y76825D1*
X37638Y76201D1*
X37377Y75571D1*
X37183Y75075D1*
X36948Y74435D1*
X36728Y73789D1*
X36522Y73138D1*
X36372Y72625D1*
X36194Y71966D1*
X36030Y71303D1*
X35882Y70636D1*
X35777Y70110D1*
X35657Y69438D1*
X35552Y68763D1*
X35462Y68085D1*
X35403Y67550D1*
X35342Y66869D1*
X35296Y66187D1*
X35266Y65504D1*
X35253Y64964D1*
X35252Y64280D1*
X35266Y63596D1*
X35295Y62912D1*
X35330Y62371D1*
X35388Y61689D1*
X35461Y61009D1*
X35551Y60330D1*
X35633Y59792D1*
X35750Y59117D1*
X35882Y58445D1*
X36031Y57776D1*
X36160Y57246D1*
X36335Y56584D1*
X36526Y55925D1*
X36732Y55271D1*
X36908Y54752D1*
X37140Y54107D1*
X37388Y53468D1*
X37650Y52834D1*
X37871Y52330D1*
X38159Y51708D1*
X38462Y51092D1*
X38779Y50483D1*
X39044Y49999D1*
X39385Y49403D1*
X39741Y48816D1*
X40109Y48237D1*
X40416Y47776D1*
X40809Y47212D1*
X41214Y46657D1*
X41633Y46112D1*
X41980Y45678D1*
X42420Y45150D1*
X42873Y44633D1*
X43337Y44126D1*
X43722Y43722D1*
X44207Y43235D1*
X44703Y42759D1*
X45211Y42293D1*
X45631Y41924D1*
X46157Y41480D1*
X46693Y41049D1*
X47239Y40629D1*
X47692Y40296D1*
X48254Y39900D1*
X48827Y39517D1*
X49407Y39146D1*
X49889Y38853D1*
X50484Y38507D1*
X51088Y38175D1*
X51699Y37856D1*
X52206Y37606D1*
X52830Y37313D1*
X53461Y37034D1*
X54098Y36770D1*
X54627Y36563D1*
X55274Y36326D1*
X55927Y36103D1*
X56585Y35895D1*
X57132Y35735D1*
X57798Y35555D1*
X58468Y35390D1*
X59143Y35240D1*
X59703Y35128D1*
X60382Y35006D1*
X61065Y34900D1*
X61750Y34810D1*
X62320Y34746D1*
X63008Y34684D1*
X63698Y34638D1*
X64388Y34608D1*
X64964Y34594D1*
X65655Y34593D1*
X66346Y34607D1*
X67038Y34636D1*
X67614Y34673D1*
X68303Y34732D1*
X68991Y34806D1*
X69677Y34896D1*
X70250Y34984D1*
X70932Y35102D1*
X71611Y35236D1*
X72288Y35386D1*
X72852Y35523D1*
X73522Y35701D1*
X74187Y35893D1*
X74848Y36102D1*
X75401Y36288D1*
X76052Y36524D1*
X76699Y36774D1*
X77340Y37039D1*
X77876Y37274D1*
X78505Y37565D1*
X79127Y37871D1*
X79743Y38191D1*
X80258Y38473D1*
X80860Y38818D1*
X81454Y39177D1*
X82040Y39550D1*
X82530Y39877D1*
X83099Y40273D1*
X83660Y40683D1*
X84212Y41106D1*
X84673Y41475D1*
X85206Y41920D1*
X85729Y42378D1*
X86242Y42847D1*
X86671Y43256D1*
X87164Y43746D1*
X87645Y44248D1*
X88116Y44761D1*
X88508Y45207D1*
X88957Y45739D1*
X89393Y46281D1*
X89817Y46833D1*
X90171Y47313D1*
X90571Y47883D1*
X90959Y48461D1*
X91333Y49048D1*
X91645Y49559D1*
X91994Y50161D1*
X92330Y50772D1*
X92653Y51390D1*
X92919Y51928D1*
X93215Y52559D1*
X93497Y53196D1*
X93764Y53840D1*
X93983Y54401D1*
X94223Y55056D1*
X94448Y55716D1*
X94659Y56381D1*
X94829Y56961D1*
X95011Y57635D1*
X95178Y58312D1*
X95329Y58994D1*
X95449Y59588D1*
X95571Y60275D1*
X95679Y60965D1*
X95770Y61658D1*
X95838Y62262D1*
X95900Y62958D1*
X95947Y63655D1*
X95978Y64353D1*
X95992Y64964D1*
X95994Y65662D1*
X95980Y66361D1*
X95950Y67060D1*
X95911Y67671D1*
X95851Y68368D1*
X95776Y69063D1*
X95685Y69757D1*
X95593Y70364D1*
X95473Y71054D1*
X95337Y71740D1*
X95187Y72424D1*
X95041Y73023D1*
X94861Y73699D1*
X94666Y74372D1*
X94456Y75040D1*
X94259Y75626D1*
X94020Y76285D1*
X93768Y76938D1*
X93500Y77586D1*
X93251Y78154D1*
X92956Y78790D1*
X92647Y79419D1*
X92324Y80042D1*
X92025Y80588D1*
X91676Y81196D1*
X91313Y81796D1*
X90937Y82388D1*
X90591Y82908D1*
X90190Y83484D1*
X89775Y84050D1*
X89348Y84608D1*
X88957Y85097D1*
X88507Y85635D1*
X88045Y86164D1*
X87571Y86683D1*
X87137Y87137D1*
X86642Y87635D1*
X86135Y88122D1*
X85617Y88597D1*
X85144Y89013D1*
X84606Y89466D1*
X84059Y89907D1*
X83501Y90336D1*
X82992Y90711D1*
X82417Y91115D1*
X81832Y91507D1*
X81239Y91886D1*
X80698Y92216D1*
X80089Y92569D1*
X79472Y92909D1*
X78848Y93234D1*
X78278Y93517D1*
X77641Y93815D1*
X76997Y94100D1*
X76345Y94371D1*
X75751Y94603D1*
X75088Y94846D1*
X74421Y95073D1*
X73752Y95285D1*
X73137Y95465D1*
X72462Y95647D1*
X71776Y95816D1*
X71078Y95972D1*
X70453Y96098D1*
X69794Y96217D1*
X69101Y96328D1*
X68476Y96412D1*
X67829Y96484D1*
X67722Y96494D1*
X67098Y96546D1*
X66386Y96590D1*
X65513Y96630D1*
X64964Y96651D1*
Y91321D2*
X64570Y91317D1*
X63782Y91305D1*
X63153Y91284D1*
X62663Y91258D1*
X62093Y91213D1*
X61503Y91152D1*
X60892Y91073D1*
X60374Y90994D1*
X59714Y90880D1*
X59067Y90751D1*
X58431Y90609D1*
X58113Y90531D1*
X57494Y90368D1*
X56878Y90190D1*
X56264Y89996D1*
X55898Y89872D1*
X55289Y89653D1*
X54685Y89419D1*
X54088Y89171D1*
X53746Y89021D1*
X53159Y88750D1*
X52579Y88465D1*
X52006Y88166D1*
X51673Y87984D1*
X51111Y87663D1*
X50558Y87328D1*
X50012Y86980D1*
X49696Y86769D1*
X49164Y86400D1*
X48641Y86017D1*
X48128Y85623D1*
X47829Y85384D1*
X47331Y84969D1*
X46844Y84543D1*
X46366Y84104D1*
X46088Y83839D1*
X45628Y83383D1*
X45179Y82915D1*
X44741Y82436D1*
X44486Y82146D1*
X44067Y81651D1*
X43660Y81146D1*
X43266Y80630D1*
X43036Y80318D1*
X42662Y79787D1*
X42300Y79248D1*
X41952Y78700D1*
X41749Y78367D1*
X41422Y77806D1*
X41108Y77236D1*
X40809Y76659D1*
X40635Y76308D1*
X40358Y75720D1*
X40095Y75125D1*
X39847Y74524D1*
X39704Y74157D1*
X39479Y73547D1*
X39269Y72931D1*
X39074Y72310D1*
X38962Y71931D1*
X38792Y71303D1*
X38636Y70670D1*
X38495Y70034D1*
X38417Y69644D1*
X38302Y69004D1*
X38202Y68360D1*
X38117Y67713D1*
X38073Y67316D1*
X38014Y66667D1*
X37970Y66017D1*
X37942Y65365D1*
X37933Y64964D1*
X37930Y64311D1*
X37944Y63659D1*
X37973Y63007D1*
X37999Y62604D1*
X38053Y61954D1*
X38123Y61305D1*
X38209Y60657D1*
X38270Y60257D1*
X38381Y59613D1*
X38507Y58972D1*
X38649Y58334D1*
X38746Y57939D1*
X38912Y57307D1*
X39094Y56679D1*
X39292Y56055D1*
X39422Y55667D1*
X39644Y55052D1*
X39880Y54442D1*
X40131Y53837D1*
X40296Y53461D1*
X40570Y52867D1*
X40859Y52279D1*
X41162Y51698D1*
X41360Y51336D1*
X41685Y50768D1*
X42024Y50207D1*
X42377Y49654D1*
X42607Y49309D1*
X42981Y48771D1*
X43368Y48242D1*
X43767Y47722D1*
X44028Y47396D1*
X44447Y46892D1*
X44879Y46398D1*
X45323Y45915D1*
X45612Y45612D1*
X46074Y45146D1*
X46548Y44691D1*
X47032Y44248D1*
X47348Y43970D1*
X47850Y43546D1*
X48361Y43134D1*
X48883Y42735D1*
X49223Y42484D1*
X49760Y42105D1*
X50306Y41739D1*
X50861Y41386D1*
X51224Y41166D1*
X51792Y40835D1*
X52368Y40517D1*
X52952Y40214D1*
X53334Y40025D1*
X53930Y39744D1*
X54532Y39478D1*
X55141Y39227D1*
X55539Y39071D1*
X56157Y38843D1*
X56781Y38631D1*
X57410Y38433D1*
X57822Y38312D1*
X58458Y38139D1*
X59098Y37981D1*
X59742Y37839D1*
X60166Y37754D1*
X60815Y37637D1*
X61467Y37536D1*
X62121Y37450D1*
X62552Y37402D1*
X63209Y37342D1*
X63868Y37298D1*
X64528Y37270D1*
X64964Y37260D1*
X65624Y37257D1*
X66284Y37271D1*
X66945Y37300D1*
X67381Y37328D1*
X68040Y37383D1*
X68697Y37454D1*
X69353Y37540D1*
X69787Y37607D1*
X70439Y37719D1*
X71088Y37847D1*
X71734Y37991D1*
X72163Y38095D1*
X72803Y38264D1*
X73438Y38448D1*
X74070Y38648D1*
X74490Y38790D1*
X75113Y39014D1*
X75731Y39253D1*
X76343Y39507D1*
X76751Y39686D1*
X77352Y39964D1*
X77947Y40256D1*
X78535Y40562D1*
X78928Y40777D1*
X79503Y41106D1*
X80071Y41449D1*
X80630Y41806D1*
X81004Y42055D1*
X81549Y42434D1*
X82085Y42825D1*
X82611Y43230D1*
X82964Y43512D1*
X83474Y43937D1*
X83974Y44374D1*
X84464Y44823D1*
X84791Y45136D1*
X85263Y45604D1*
X85723Y46083D1*
X86172Y46574D1*
X86473Y46915D1*
X86902Y47423D1*
X87319Y47941D1*
X87724Y48469D1*
X87995Y48837D1*
X88378Y49381D1*
X88749Y49933D1*
X89106Y50495D1*
X89345Y50887D1*
X89680Y51462D1*
X90001Y52046D1*
X90308Y52637D1*
X90513Y53050D1*
X90796Y53652D1*
X91066Y54262D1*
X91321Y54878D1*
X91489Y55309D1*
X91719Y55935D1*
X91935Y56566D1*
X92135Y57202D1*
X92266Y57648D1*
X92441Y58292D1*
X92600Y58940D1*
X92745Y59591D1*
X92836Y60049D1*
X92954Y60706D1*
X93057Y61366D1*
X93144Y62028D1*
X93196Y62494D1*
X93256Y63159D1*
X93301Y63825D1*
X93330Y64493D1*
X93341Y64964D1*
X93343Y65632D1*
X93330Y66300D1*
X93301Y66968D1*
X93270Y67440D1*
X93214Y68106D1*
X93143Y68772D1*
X93055Y69435D1*
X92984Y69904D1*
X92870Y70564D1*
X92740Y71220D1*
X92595Y71874D1*
X92483Y72337D1*
X92311Y72985D1*
X92125Y73628D1*
X91923Y74267D1*
X91770Y74720D1*
X91543Y75351D1*
X91301Y75976D1*
X91045Y76595D1*
X90852Y77036D1*
X90571Y77644D1*
X90275Y78246D1*
X89965Y78841D1*
X89734Y79265D1*
X89400Y79847D1*
X89053Y80421D1*
X88692Y80987D1*
X88424Y81391D1*
X88040Y81942D1*
X87644Y82484D1*
X87235Y83017D1*
X86931Y83397D1*
X86501Y83913D1*
X86059Y84419D1*
X85605Y84914D1*
X85268Y85268D1*
X84794Y85745D1*
X84309Y86210D1*
X83813Y86665D1*
X83445Y86989D1*
X82931Y87423D1*
X82407Y87845D1*
X81873Y88255D1*
X81476Y88546D1*
X80926Y88934D1*
X80367Y89309D1*
X79799Y89671D1*
X79377Y89928D1*
X78795Y90267D1*
X78204Y90592D1*
X77607Y90903D1*
X77162Y91123D1*
X76553Y91410D1*
X75936Y91682D1*
X75312Y91941D1*
X74848Y92122D1*
X74214Y92355D1*
X73576Y92573D1*
X72935Y92775D1*
X72454Y92916D1*
X71808Y93091D1*
X71151Y93253D1*
X70482Y93401D1*
X69995Y93500D1*
X69306Y93625D1*
X68645Y93728D1*
X68060Y93806D1*
X67492Y93867D1*
X66894Y93917D1*
X66209Y93959D1*
X65354Y93999D1*
X64964Y94015D1*
Y88570D2*
X64570Y88567D1*
X63861Y88557D1*
X63271Y88538D1*
X62903Y88518D1*
X62363Y88477D1*
X61804Y88419D1*
X61222Y88343D1*
X60851Y88287D1*
X60269Y88187D1*
X59655Y88067D1*
X59054Y87932D1*
X58824Y87876D1*
X58239Y87723D1*
X57655Y87554D1*
X57073Y87370D1*
X56837Y87290D1*
X56260Y87084D1*
X55689Y86862D1*
X55124Y86627D1*
X54906Y86532D1*
X54351Y86276D1*
X53801Y86006D1*
X53259Y85722D1*
X53046Y85606D1*
X52514Y85303D1*
X51989Y84986D1*
X51473Y84655D1*
X51270Y84520D1*
X50766Y84171D1*
X50271Y83809D1*
X49785Y83435D1*
X49593Y83281D1*
X49121Y82890D1*
X48659Y82486D1*
X48207Y82070D1*
X48028Y81899D1*
X47592Y81467D1*
X47166Y81024D1*
X46752Y80570D1*
X46587Y80383D1*
X46190Y79915D1*
X45804Y79436D1*
X45431Y78947D1*
X45282Y78745D1*
X44927Y78243D1*
X44584Y77732D1*
X44254Y77212D1*
X44123Y76996D1*
X43812Y76465D1*
X43515Y75926D1*
X43232Y75379D1*
X43119Y75150D1*
X42855Y74593D1*
X42606Y74030D1*
X42372Y73460D1*
X42278Y73220D1*
X42064Y72642D1*
X41865Y72059D1*
X41681Y71470D1*
X41608Y71222D1*
X41445Y70627D1*
X41297Y70028D1*
X41165Y69425D1*
X41114Y69169D1*
X41003Y68562D1*
X40908Y67951D1*
X40829Y67339D1*
X40800Y67078D1*
X40743Y66463D1*
X40701Y65846D1*
X40676Y65228D1*
X40669Y64964D1*
X40666Y64345D1*
X40679Y63727D1*
X40707Y63109D1*
X40724Y62843D1*
X40775Y62226D1*
X40841Y61611D1*
X40923Y60997D1*
X40963Y60732D1*
X41068Y60121D1*
X41187Y59513D1*
X41323Y58909D1*
X41387Y58646D1*
X41544Y58047D1*
X41716Y57451D1*
X41904Y56860D1*
X41991Y56602D1*
X42200Y56018D1*
X42424Y55440D1*
X42663Y54866D1*
X42772Y54616D1*
X43032Y54052D1*
X43306Y53494D1*
X43594Y52944D1*
X43726Y52702D1*
X44034Y52162D1*
X44355Y51630D1*
X44690Y51107D1*
X44844Y50876D1*
X45198Y50365D1*
X45565Y49862D1*
X45945Y49369D1*
X46119Y49151D1*
X46517Y48673D1*
X46926Y48204D1*
X47348Y47745D1*
X47542Y47542D1*
X47980Y47099D1*
X48429Y46668D1*
X48889Y46248D1*
X49102Y46061D1*
X49577Y45658D1*
X50063Y45266D1*
X50558Y44888D1*
X50788Y44719D1*
X51297Y44358D1*
X51815Y44011D1*
X52342Y43676D1*
X52587Y43527D1*
X53126Y43212D1*
X53673Y42911D1*
X54228Y42624D1*
X54487Y42495D1*
X55051Y42229D1*
X55623Y41976D1*
X56201Y41738D1*
X56472Y41632D1*
X57058Y41415D1*
X57650Y41213D1*
X58247Y41026D1*
X58528Y40944D1*
X59131Y40779D1*
X59739Y40629D1*
X60350Y40494D1*
X60639Y40437D1*
X61255Y40325D1*
X61874Y40228D1*
X62495Y40148D1*
X62790Y40115D1*
X63413Y40057D1*
X64039Y40015D1*
X64665Y39989D1*
X64964Y39982D1*
X65591Y39979D1*
X66218Y39991D1*
X66845Y40020D1*
X67144Y40039D1*
X67770Y40090D1*
X68394Y40158D1*
X69016Y40241D1*
X69315Y40286D1*
X69934Y40392D1*
X70550Y40514D1*
X71164Y40651D1*
X71459Y40722D1*
X72067Y40882D1*
X72671Y41057D1*
X73270Y41247D1*
X73560Y41345D1*
X74152Y41557D1*
X74739Y41784D1*
X75320Y42026D1*
X75602Y42149D1*
X76174Y42412D1*
X76739Y42690D1*
X77297Y42982D1*
X77569Y43130D1*
X78116Y43442D1*
X78655Y43768D1*
X79187Y44108D1*
X79446Y44281D1*
X79964Y44640D1*
X80473Y45012D1*
X80973Y45396D1*
X81218Y45592D1*
X81703Y45995D1*
X82179Y46411D1*
X82643Y46838D1*
X82872Y47056D1*
X83320Y47500D1*
X83758Y47955D1*
X84184Y48422D1*
X84394Y48660D1*
X84802Y49142D1*
X85198Y49634D1*
X85583Y50136D1*
X85772Y50394D1*
X86137Y50910D1*
X86489Y51435D1*
X86829Y51969D1*
X86996Y52243D1*
X87315Y52790D1*
X87620Y53344D1*
X87912Y53906D1*
X88055Y54196D1*
X88325Y54769D1*
X88581Y55348D1*
X88823Y55934D1*
X88942Y56236D1*
X89161Y56831D1*
X89366Y57431D1*
X89556Y58036D1*
X89648Y58350D1*
X89815Y58961D1*
X89967Y59577D1*
X90103Y60197D1*
X90168Y60519D1*
X90281Y61144D1*
X90379Y61771D1*
X90461Y62401D1*
X90497Y62730D1*
X90556Y63362D1*
X90598Y63996D1*
X90625Y64631D1*
X90633Y64964D1*
X90636Y65599D1*
X90623Y66235D1*
X90595Y66870D1*
X90574Y67204D1*
X90521Y67838D1*
X90453Y68471D1*
X90369Y69102D1*
X90318Y69434D1*
X90211Y70062D1*
X90088Y70687D1*
X89949Y71308D1*
X89869Y71637D1*
X89707Y72253D1*
X89530Y72865D1*
X89338Y73473D1*
X89229Y73795D1*
X89013Y74395D1*
X88783Y74990D1*
X88539Y75579D1*
X88401Y75893D1*
X88134Y76472D1*
X87853Y77045D1*
X87558Y77611D1*
X87393Y77913D1*
X87076Y78467D1*
X86746Y79014D1*
X86402Y79552D1*
X86210Y79840D1*
X85846Y80365D1*
X85469Y80882D1*
X85079Y81388D1*
X84862Y81660D1*
X84453Y82152D1*
X84032Y82633D1*
X83599Y83105D1*
X83358Y83358D1*
X82908Y83812D1*
X82446Y84256D1*
X81973Y84688D1*
X81709Y84920D1*
X81221Y85334D1*
X80722Y85736D1*
X80213Y86126D1*
X79928Y86335D1*
X79405Y86705D1*
X78873Y87062D1*
X78331Y87406D1*
X78028Y87591D1*
X77474Y87914D1*
X76912Y88224D1*
X76342Y88520D1*
X76022Y88678D1*
X75442Y88952D1*
X74855Y89211D1*
X74260Y89457D1*
X73926Y89588D1*
X73322Y89811D1*
X72715Y90018D1*
X72104Y90210D1*
X71756Y90312D1*
X71141Y90479D1*
X70515Y90633D1*
X69877Y90774D1*
X69527Y90845D1*
X68871Y90965D1*
X68287Y91057D1*
X67741Y91130D1*
X67257Y91182D1*
X66688Y91231D1*
X66030Y91272D1*
X65192Y91311D1*
X64964Y91321D1*
Y85762D2*
X64570Y85761D1*
X63940Y85753D1*
X63428Y85736D1*
X63147Y85722D1*
X62640Y85684D1*
X62114Y85630D1*
X61566Y85558D1*
X61338Y85523D1*
X60795Y85431D1*
X60219Y85319D1*
X59655Y85192D1*
X59550Y85167D1*
X59000Y85024D1*
X58452Y84866D1*
X57906Y84691D1*
X57797Y84655D1*
X57254Y84462D1*
X56718Y84254D1*
X56187Y84032D1*
X56091Y83990D1*
X55569Y83752D1*
X55053Y83498D1*
X54543Y83231D1*
X54447Y83179D1*
X53947Y82895D1*
X53454Y82597D1*
X52969Y82286D1*
X52877Y82225D1*
X52403Y81898D1*
X51938Y81558D1*
X51482Y81206D1*
X51394Y81135D1*
X50950Y80768D1*
X50515Y80389D1*
X50091Y79998D1*
X50008Y79919D1*
X49598Y79514D1*
X49198Y79098D1*
X48809Y78671D1*
X48732Y78583D1*
X48358Y78144D1*
X47995Y77694D1*
X47645Y77234D1*
X47575Y77139D1*
X47240Y76668D1*
X46918Y76188D1*
X46608Y75699D1*
X46546Y75597D1*
X46253Y75098D1*
X45974Y74591D1*
X45708Y74077D1*
X45654Y73968D1*
X45406Y73445D1*
X45171Y72915D1*
X44951Y72379D1*
X44906Y72264D1*
X44704Y71721D1*
X44516Y71172D1*
X44344Y70618D1*
X44309Y70498D1*
X44154Y69939D1*
X44015Y69375D1*
X43891Y68808D1*
X43866Y68684D1*
X43761Y68113D1*
X43672Y67539D1*
X43598Y66962D1*
X43584Y66834D1*
X43529Y66256D1*
X43490Y65675D1*
X43466Y65094D1*
X43463Y64964D1*
X43459Y64382D1*
X43470Y63800D1*
X43497Y63219D1*
X43506Y63086D1*
X43552Y62506D1*
X43615Y61927D1*
X43693Y61349D1*
X43713Y61217D1*
X43810Y60642D1*
X43922Y60070D1*
X44050Y59501D1*
X44083Y59369D1*
X44229Y58804D1*
X44392Y58244D1*
X44569Y57687D1*
X44613Y57557D1*
X44809Y57007D1*
X45019Y56462D1*
X45245Y55923D1*
X45301Y55795D1*
X45544Y55263D1*
X45801Y54738D1*
X46073Y54221D1*
X46141Y54096D1*
X46430Y53588D1*
X46732Y53087D1*
X47048Y52594D1*
X47128Y52475D1*
X47460Y51993D1*
X47805Y51520D1*
X48163Y51056D1*
X48254Y50943D1*
X48628Y50491D1*
X49013Y50050D1*
X49411Y49619D1*
X49512Y49512D1*
X49924Y49095D1*
X50347Y48688D1*
X50781Y48293D1*
X50893Y48194D1*
X51339Y47814D1*
X51797Y47445D1*
X52264Y47089D1*
X52385Y47000D1*
X52864Y46660D1*
X53352Y46332D1*
X53849Y46018D1*
X53979Y45938D1*
X54486Y45641D1*
X55002Y45357D1*
X55524Y45086D1*
X55663Y45018D1*
X56194Y44766D1*
X56733Y44527D1*
X57278Y44303D1*
X57423Y44247D1*
X57975Y44041D1*
X58533Y43851D1*
X59096Y43675D1*
X59247Y43631D1*
X59816Y43474D1*
X60388Y43333D1*
X60965Y43207D1*
X61122Y43175D1*
X61702Y43069D1*
X62285Y42978D1*
X62871Y42902D1*
X63032Y42884D1*
X63620Y42829D1*
X64209Y42789D1*
X64800Y42765D1*
X64964Y42761D1*
X65555Y42757D1*
X66146Y42769D1*
X66737Y42796D1*
X66902Y42807D1*
X67492Y42854D1*
X68080Y42917D1*
X68667Y42996D1*
X68833Y43021D1*
X69416Y43120D1*
X69998Y43235D1*
X70576Y43365D1*
X70740Y43405D1*
X71314Y43554D1*
X71883Y43719D1*
X72449Y43899D1*
X72611Y43953D1*
X73169Y44152D1*
X73723Y44366D1*
X74271Y44595D1*
X74429Y44664D1*
X74969Y44912D1*
X75502Y45173D1*
X76029Y45449D1*
X76182Y45533D1*
X76698Y45827D1*
X77207Y46134D1*
X77708Y46455D1*
X77855Y46553D1*
X78344Y46891D1*
X78825Y47241D1*
X79296Y47605D1*
X79436Y47716D1*
X79894Y48096D1*
X80343Y48488D1*
X80781Y48891D1*
X80911Y49016D1*
X81335Y49434D1*
X81749Y49864D1*
X82150Y50305D1*
X82271Y50441D1*
X82657Y50896D1*
X83031Y51360D1*
X83393Y51835D1*
X83502Y51983D1*
X83848Y52469D1*
X84181Y52965D1*
X84500Y53470D1*
X84597Y53628D1*
X84899Y54144D1*
X85187Y54667D1*
X85462Y55198D1*
X85546Y55366D1*
X85802Y55906D1*
X86044Y56453D1*
X86271Y57007D1*
X86340Y57183D1*
X86549Y57744D1*
X86742Y58310D1*
X86921Y58882D1*
X86975Y59066D1*
X87133Y59643D1*
X87277Y60225D1*
X87405Y60810D1*
X87443Y61000D1*
X87551Y61589D1*
X87644Y62182D1*
X87721Y62777D1*
X87742Y62971D1*
X87798Y63568D1*
X87839Y64167D1*
X87864Y64767D1*
X87868Y64964D1*
X87872Y65564D1*
X87860Y66165D1*
X87833Y66765D1*
X87820Y66963D1*
X87771Y67562D1*
X87707Y68160D1*
X87627Y68756D1*
X87597Y68955D1*
X87496Y69547D1*
X87380Y70138D1*
X87249Y70725D1*
X87201Y70922D1*
X87049Y71504D1*
X86881Y72083D1*
X86699Y72657D1*
X86633Y72851D1*
X86431Y73418D1*
X86214Y73980D1*
X85982Y74537D1*
X85899Y74726D1*
X85648Y75274D1*
X85382Y75815D1*
X85102Y76350D1*
X85002Y76533D1*
X84704Y77057D1*
X84392Y77574D1*
X84066Y78083D1*
X83950Y78258D1*
X83606Y78755D1*
X83250Y79243D1*
X82881Y79721D1*
X82749Y79887D1*
X82363Y80352D1*
X81965Y80808D1*
X81555Y81253D1*
X81408Y81408D1*
X80983Y81838D1*
X80546Y82258D1*
X80099Y82666D1*
X79937Y82808D1*
X79476Y83200D1*
X79004Y83580D1*
X78522Y83948D1*
X78347Y84077D1*
X77853Y84428D1*
X77350Y84766D1*
X76837Y85091D1*
X76650Y85205D1*
X76126Y85511D1*
X75595Y85804D1*
X75056Y86083D1*
X74858Y86182D1*
X74310Y86441D1*
X73754Y86687D1*
X73192Y86919D1*
X72984Y87000D1*
X72413Y87212D1*
X71839Y87408D1*
X71261Y87589D1*
X71043Y87653D1*
X70462Y87812D1*
X69870Y87958D1*
X69265Y88091D1*
X69049Y88135D1*
X68468Y88242D1*
X67924Y88329D1*
X67352Y88405D1*
X67018Y88441D1*
X66479Y88488D1*
X65850Y88528D1*
X65027Y88567D1*
X64964Y88570D1*
Y82898D2*
X64570Y82897D1*
X63979Y82891D1*
X63507Y82875D1*
X63397Y82869D1*
X62926Y82835D1*
X62436Y82785D1*
X61923Y82717D1*
X61836Y82704D1*
X61330Y82620D1*
X60796Y82516D1*
X60291Y82402D1*
X59780Y82271D1*
X59270Y82124D1*
X58775Y81966D1*
X58271Y81788D1*
X57772Y81596D1*
X57300Y81398D1*
X56814Y81177D1*
X56334Y80942D1*
X55877Y80702D1*
X55411Y80439D1*
X54953Y80163D1*
X54517Y79883D1*
X54076Y79580D1*
X53643Y79265D1*
X53231Y78946D1*
X52817Y78606D1*
X52413Y78253D1*
X52029Y77898D1*
X51646Y77523D1*
X51274Y77136D1*
X50921Y76747D1*
X50571Y76339D1*
X50234Y75921D1*
X49914Y75501D1*
X49602Y75064D1*
X49301Y74617D1*
X49019Y74169D1*
X48745Y73706D1*
X48485Y73235D1*
X48241Y72761D1*
X48008Y72276D1*
X47790Y71783D1*
X47588Y71288D1*
X47398Y70783D1*
X47223Y70272D1*
X47064Y69760D1*
X46919Y69240D1*
X46789Y68715D1*
X46675Y68188D1*
X46576Y67657D1*
X46492Y67123D1*
X46424Y66586D1*
X46371Y66047D1*
X46335Y65507D1*
X46313Y64964D1*
X46308Y64422D1*
X46318Y63880D1*
X46344Y63338D1*
X46345Y63335D1*
X46387Y62794D1*
X46444Y62254D1*
X46518Y61717D1*
Y61711D1*
X46607Y61176D1*
X46712Y60643D1*
X46832Y60113D1*
X46834Y60106D1*
X46969Y59579D1*
X47120Y59057D1*
X47286Y58539D1*
X47289Y58530D1*
X47470Y58017D1*
X47666Y57510D1*
X47876Y57007D1*
X47880Y56998D1*
X48106Y56502D1*
X48345Y56012D1*
X48599Y55530D1*
X48605Y55519D1*
X48873Y55044D1*
X49155Y54577D1*
X49450Y54118D1*
X49458Y54107D1*
X49767Y53656D1*
X50088Y53215D1*
X50423Y52783D1*
X50433Y52771D1*
X50780Y52349D1*
X51139Y51937D1*
X51511Y51535D1*
X51523Y51523D1*
X51906Y51132D1*
X52300Y50753D1*
X52705Y50385D1*
X52720Y50372D1*
X53136Y50016D1*
X53562Y49672D1*
X53998Y49340D1*
X54015Y49328D1*
X54461Y49009D1*
X54916Y48703D1*
X55380Y48410D1*
X55400Y48399D1*
X55872Y48120D1*
X56353Y47854D1*
X56841Y47603D1*
X56863Y47592D1*
X57359Y47355D1*
X57861Y47133D1*
X58370Y46924D1*
X58394Y46915D1*
X58909Y46722D1*
X59430Y46544D1*
X59955Y46380D1*
X59982Y46372D1*
X60512Y46225D1*
X61047Y46093D1*
X61585Y45976D1*
X61614Y45970D1*
X62156Y45869D1*
X62701Y45784D1*
X63248Y45714D1*
X63279Y45710D1*
X63828Y45657D1*
X64379Y45620D1*
X64930Y45598D1*
X64964Y45597D1*
X65516Y45592D1*
X66068Y45603D1*
X66620Y45629D1*
X66655Y45631D1*
X67206Y45674D1*
X67756Y45733D1*
X68304Y45807D1*
X68340Y45813D1*
X68886Y45904D1*
X69429Y46011D1*
X69969Y46133D1*
X70007Y46142D1*
X70543Y46280D1*
X71075Y46434D1*
X71603Y46603D1*
X71642Y46616D1*
X72164Y46800D1*
X72682Y47000D1*
X73194Y47214D1*
X73232Y47231D1*
X73737Y47461D1*
X74236Y47706D1*
X74728Y47964D1*
X74766Y47985D1*
X75250Y48258D1*
X75726Y48545D1*
X76193Y48846D1*
X76232Y48871D1*
X76690Y49186D1*
X77139Y49514D1*
X77580Y49855D1*
X77617Y49884D1*
X78046Y50238D1*
X78466Y50604D1*
X78875Y50982D1*
X78911Y51016D1*
X79308Y51407D1*
X79695Y51808D1*
X80070Y52221D1*
X80104Y52259D1*
X80466Y52683D1*
X80817Y53118D1*
X81155Y53562D1*
X81186Y53604D1*
X81510Y54059D1*
X81822Y54522D1*
X82120Y54995D1*
X82149Y55042D1*
X82433Y55523D1*
X82703Y56013D1*
X82959Y56510D1*
X82984Y56560D1*
X83225Y57065D1*
X83452Y57577D1*
X83664Y58095D1*
X83686Y58149D1*
X83882Y58674D1*
X84063Y59204D1*
X84230Y59739D1*
X84247Y59797D1*
X84396Y60337D1*
X84531Y60881D1*
X84651Y61429D1*
X84663Y61490D1*
X84765Y62042D1*
X84852Y62596D1*
X84923Y63153D1*
X84930Y63217D1*
X84984Y63776D1*
X85022Y64336D1*
X85045Y64898D1*
X85046Y64964D1*
X85051Y65526D1*
X85040Y66088D1*
X85014Y66650D1*
X85009Y66717D1*
X84965Y67278D1*
X84905Y67838D1*
X84830Y68396D1*
X84820Y68465D1*
X84727Y69020D1*
X84618Y69573D1*
X84494Y70123D1*
X84477Y70192D1*
X84336Y70738D1*
X84180Y71280D1*
X84008Y71818D1*
X83985Y71887D1*
X83796Y72419D1*
X83593Y72945D1*
X83375Y73467D1*
X83345Y73535D1*
X83111Y74049D1*
X82862Y74557D1*
X82599Y75057D1*
X82562Y75124D1*
X82284Y75616D1*
X81992Y76101D1*
X81686Y76577D1*
X81642Y76642D1*
X81322Y77109D1*
X80988Y77566D1*
X80642Y78015D1*
X80592Y78077D1*
X80231Y78514D1*
X79858Y78941D1*
X79474Y79358D1*
X79417Y79417D1*
X79020Y79822D1*
X78611Y80215D1*
X78191Y80597D1*
X78128Y80653D1*
X77696Y81021D1*
X77254Y81378D1*
X76802Y81722D1*
X76734Y81773D1*
X76271Y82103D1*
X75799Y82420D1*
X75318Y82724D1*
X75244Y82769D1*
X74753Y83058D1*
X74255Y83333D1*
X73749Y83594D1*
X73670Y83633D1*
X73156Y83878D1*
X72635Y84109D1*
X72107Y84326D1*
X72023Y84359D1*
X71488Y84558D1*
X70949Y84743D1*
X70407Y84912D1*
X70316Y84938D1*
X69771Y85089D1*
X69215Y85226D1*
X68646Y85351D1*
X68561Y85368D1*
X68019Y85470D1*
X67514Y85551D1*
X66980Y85621D1*
X66773Y85644D1*
X66267Y85688D1*
X65670Y85727D1*
X64964Y85762D1*
Y79976D2*
X64570Y79978D1*
X64058Y79973D1*
X63652Y79959D1*
X63221Y79930D1*
X62770Y79885D1*
X62343Y79828D1*
X61844Y79747D1*
X61356Y79651D1*
X61047Y79582D1*
X60578Y79464D1*
X60111Y79330D1*
X59774Y79223D1*
X59311Y79062D1*
X58854Y78887D1*
X58533Y78753D1*
X58087Y78553D1*
X57647Y78339D1*
X57336Y78176D1*
X56908Y77937D1*
X56488Y77684D1*
X56190Y77494D1*
X55784Y77218D1*
X55387Y76930D1*
X55105Y76712D1*
X54724Y76402D1*
X54353Y76080D1*
X54090Y75837D1*
X53737Y75494D1*
X53395Y75140D1*
X53153Y74874D1*
X52831Y74502D1*
X52521Y74118D1*
X52301Y73830D1*
X52012Y73431D1*
X51736Y73021D1*
X51541Y72713D1*
X51288Y72289D1*
X51048Y71857D1*
X50880Y71531D1*
X50664Y71086D1*
X50463Y70634D1*
X50323Y70292D1*
X50147Y69830D1*
X49986Y69361D1*
X49875Y69007D1*
X49740Y68530D1*
X49620Y68048D1*
X49540Y67683D1*
X49447Y67196D1*
X49369Y66705D1*
X49321Y66332D1*
X49271Y65838D1*
X49236Y65341D1*
X49221Y64964D1*
X49214Y64466D1*
X49223Y63968D1*
X49240Y63588D1*
X49277Y63091D1*
X49329Y62595D1*
X49380Y62216D1*
X49460Y61723D1*
X49555Y61233D1*
X49640Y60858D1*
X49762Y60373D1*
X49900Y59893D1*
X50018Y59524D1*
X50182Y59051D1*
X50362Y58584D1*
X50512Y58225D1*
X50717Y57768D1*
X50937Y57318D1*
X51119Y56970D1*
X51364Y56533D1*
X51623Y56103D1*
X51835Y55771D1*
X52118Y55356D1*
X52413Y54949D1*
X52655Y54636D1*
X52973Y54246D1*
X53304Y53867D1*
X53574Y53574D1*
X53925Y53213D1*
X54287Y52863D1*
X54583Y52593D1*
X54965Y52264D1*
X55357Y51947D1*
X55678Y51702D1*
X56087Y51407D1*
X56506Y51125D1*
X56849Y50908D1*
X57283Y50650D1*
X57725Y50405D1*
X58087Y50218D1*
X58543Y49998D1*
X59006Y49792D1*
X59385Y49636D1*
X59859Y49457D1*
X60338Y49292D1*
X60732Y49169D1*
X61220Y49032D1*
X61712Y48909D1*
X62117Y48821D1*
X62616Y48726D1*
X63118Y48647D1*
X63531Y48593D1*
X64037Y48543D1*
X64545Y48508D1*
X64964Y48490D1*
X65473Y48484D1*
X65982Y48493D1*
X66403Y48513D1*
X66911Y48551D1*
X67418Y48604D1*
X67838Y48661D1*
X68342Y48743D1*
X68843Y48841D1*
X69259Y48934D1*
X69754Y49060D1*
X70245Y49201D1*
X70653Y49331D1*
X71136Y49500D1*
X71614Y49684D1*
X72011Y49850D1*
X72478Y50061D1*
X72939Y50286D1*
X73322Y50486D1*
X73769Y50737D1*
X74209Y51002D1*
X74575Y51237D1*
X74999Y51526D1*
X75415Y51828D1*
X75761Y52096D1*
X76159Y52421D1*
X76547Y52759D1*
X76870Y53057D1*
X77239Y53416D1*
X77596Y53787D1*
X77894Y54114D1*
X78230Y54505D1*
X78554Y54906D1*
X78823Y55259D1*
X79124Y55678D1*
X79413Y56106D1*
X79652Y56484D1*
X79915Y56928D1*
X80166Y57380D1*
X80372Y57779D1*
X80596Y58245D1*
X80806Y58718D1*
X80977Y59135D1*
X81160Y59619D1*
X81329Y60110D1*
X81464Y60542D1*
X81604Y61042D1*
X81729Y61545D1*
X81826Y61990D1*
X81922Y62500D1*
X82003Y63013D1*
X82061Y63468D1*
X82113Y63985D1*
X82149Y64504D1*
X82167Y64964D1*
X82174Y65484D1*
X82164Y66004D1*
X82142Y66467D1*
X82103Y66986D1*
X82048Y67504D1*
X81986Y67965D1*
X81901Y68480D1*
X81801Y68992D1*
X81699Y69448D1*
X81570Y69954D1*
X81425Y70456D1*
X81282Y70903D1*
X81109Y71396D1*
X80921Y71885D1*
X80739Y72320D1*
X80524Y72797D1*
X80294Y73267D1*
X80073Y73687D1*
X79817Y74144D1*
X79546Y74593D1*
X79289Y74994D1*
X78993Y75427D1*
X78684Y75852D1*
X78391Y76231D1*
X78058Y76637D1*
X77713Y77033D1*
X77387Y77387D1*
X77019Y77763D1*
X76640Y78128D1*
X76283Y78453D1*
X75883Y78796D1*
X75474Y79127D1*
X75087Y79422D1*
X74659Y79729D1*
X74222Y80023D1*
X73809Y80284D1*
X73355Y80553D1*
X72893Y80809D1*
X72457Y81034D1*
X71981Y81262D1*
X71498Y81477D1*
X71042Y81664D1*
X70546Y81851D1*
X70046Y82022D1*
X69574Y82169D1*
X69069Y82310D1*
X68552Y82439D1*
X68064Y82545D1*
X67523Y82648D1*
X67057Y82722D1*
X66566Y82784D1*
X66523Y82789D1*
X66054Y82832D1*
X65491Y82870D1*
X64964Y82898D1*
Y76997D2*
X64570Y77002D1*
X64137Y77000D1*
X63911Y76993D1*
X63525Y76969D1*
X63119Y76929D1*
X62860Y76896D1*
X62412Y76826D1*
X61976Y76742D1*
X61817Y76707D1*
X61396Y76604D1*
X60977Y76485D1*
X60791Y76427D1*
X60376Y76286D1*
X59965Y76129D1*
X59791Y76057D1*
X59389Y75880D1*
X58994Y75689D1*
X58823Y75600D1*
X58438Y75388D1*
X58060Y75163D1*
X57895Y75058D1*
X57530Y74813D1*
X57172Y74555D1*
X57016Y74436D1*
X56672Y74159D1*
X56338Y73870D1*
X56191Y73736D1*
X55873Y73430D1*
X55565Y73113D1*
X55428Y72965D1*
X55137Y72632D1*
X54858Y72288D1*
X54733Y72127D1*
X54472Y71769D1*
X54223Y71402D1*
X54112Y71229D1*
X53883Y70849D1*
X53666Y70461D1*
X53570Y70277D1*
X53374Y69877D1*
X53192Y69471D1*
X53111Y69278D1*
X52951Y68862D1*
X52805Y68441D1*
X52740Y68239D1*
X52617Y67810D1*
X52508Y67377D1*
X52461Y67168D1*
X52375Y66730D1*
X52304Y66288D1*
X52275Y66074D1*
X52227Y65629D1*
X52195Y65182D1*
X52185Y64964D1*
X52176Y64515D1*
X52183Y64067D1*
X52193Y63846D1*
X52223Y63398D1*
X52269Y62951D1*
X52298Y62730D1*
X52367Y62286D1*
X52452Y61844D1*
X52501Y61624D1*
X52609Y61187D1*
X52732Y60753D1*
X52800Y60537D1*
X52946Y60110D1*
X53108Y59688D1*
X53195Y59476D1*
X53378Y59063D1*
X53576Y58656D1*
X53682Y58450D1*
X53901Y58054D1*
X54134Y57665D1*
X54259Y57468D1*
X54512Y57092D1*
X54778Y56724D1*
X54921Y56537D1*
X55206Y56184D1*
X55504Y55840D1*
X55665Y55665D1*
X55980Y55337D1*
X56307Y55020D1*
X56484Y54858D1*
X56827Y54559D1*
X57181Y54271D1*
X57373Y54123D1*
X57742Y53855D1*
X58120Y53599D1*
X58326Y53467D1*
X58718Y53232D1*
X59117Y53009D1*
X59336Y52895D1*
X59747Y52694D1*
X60165Y52507D1*
X60395Y52412D1*
X60823Y52247D1*
X61256Y52097D1*
X61496Y52021D1*
X61937Y51894D1*
X62383Y51783D1*
X62630Y51727D1*
X63081Y51639D1*
X63535Y51567D1*
X63789Y51533D1*
X64247Y51485D1*
X64706Y51452D1*
X64964Y51441D1*
X65425Y51432D1*
X65886Y51440D1*
X66146Y51451D1*
X66607Y51483D1*
X67066Y51530D1*
X67326Y51564D1*
X67783Y51637D1*
X68238Y51724D1*
X68496Y51781D1*
X68945Y51893D1*
X69391Y52021D1*
X69645Y52101D1*
X70084Y52252D1*
X70518Y52417D1*
X70766Y52520D1*
X71191Y52709D1*
X71609Y52912D1*
X71849Y53037D1*
X72256Y53263D1*
X72656Y53502D1*
X72886Y53649D1*
X73273Y53910D1*
X73650Y54183D1*
X73869Y54351D1*
X74232Y54645D1*
X74585Y54951D1*
X74789Y55138D1*
X75125Y55463D1*
X75451Y55799D1*
X75640Y56005D1*
X75947Y56359D1*
X76242Y56723D1*
X76414Y56946D1*
X76689Y57325D1*
X76952Y57714D1*
X77105Y57954D1*
X77347Y58356D1*
X77575Y58767D1*
X77707Y59021D1*
X77913Y59444D1*
X78105Y59874D1*
X78215Y60140D1*
X78384Y60580D1*
X78538Y61026D1*
X78625Y61303D1*
X78755Y61756D1*
X78870Y62214D1*
X78933Y62500D1*
X79023Y62964D1*
X79097Y63431D1*
X79136Y63724D1*
X79185Y64194D1*
X79218Y64666D1*
X79231Y64964D1*
X79239Y65437D1*
X79231Y65911D1*
X79218Y66211D1*
X79185Y66684D1*
X79136Y67156D1*
X79096Y67456D1*
X79021Y67925D1*
X78931Y68392D1*
X78865Y68689D1*
X78750Y69150D1*
X78619Y69608D1*
X78526Y69900D1*
X78371Y70350D1*
X78200Y70796D1*
X78082Y71081D1*
X77887Y71517D1*
X77678Y71946D1*
X77535Y72222D1*
X77303Y72639D1*
X77057Y73049D1*
X76888Y73313D1*
X76620Y73710D1*
X76339Y74097D1*
X76147Y74348D1*
X75845Y74719D1*
X75530Y75082D1*
X75316Y75316D1*
X74982Y75660D1*
X74637Y75994D1*
X74401Y76210D1*
X74038Y76525D1*
X73664Y76828D1*
X73408Y77024D1*
X73019Y77306D1*
X72619Y77576D1*
X72346Y77750D1*
X71932Y77997D1*
X71510Y78231D1*
X71221Y78382D1*
X70787Y78593D1*
X70346Y78789D1*
X70042Y78915D1*
X69589Y79088D1*
X69133Y79245D1*
X68817Y79345D1*
X68356Y79476D1*
X67883Y79594D1*
X67556Y79666D1*
X67063Y79762D1*
X66597Y79836D1*
X66268Y79878D1*
X65840Y79919D1*
X65314Y79956D1*
X64964Y79976D1*
Y73962D2*
X64570Y73971D1*
X64255D1*
X64176Y73970D1*
X63841Y73953D1*
X63487Y73920D1*
X63386Y73908D1*
X62999Y73852D1*
X62622Y73781D1*
X62602Y73777D1*
X62237Y73692D1*
X61873Y73591D1*
X61828Y73578D1*
X61467Y73459D1*
X61111Y73325D1*
X61072Y73310D1*
X60722Y73160D1*
X60379Y72996D1*
X60338Y72975D1*
X60002Y72795D1*
X59673Y72601D1*
X59633Y72576D1*
X59313Y72367D1*
X59002Y72144D1*
X58963Y72115D1*
X58662Y71878D1*
X58371Y71629D1*
X58333Y71595D1*
X58053Y71332D1*
X57784Y71057D1*
X57748Y71019D1*
X57491Y70732D1*
X57247Y70434D1*
X57213Y70391D1*
X56982Y70082D1*
X56764Y69763D1*
X56733Y69716D1*
X56530Y69387D1*
X56339Y69050D1*
X56312Y68998D1*
X56138Y68652D1*
X55977Y68299D1*
X55953Y68243D1*
X55810Y67882D1*
X55681Y67516D1*
X55661Y67456D1*
X55549Y67084D1*
X55452Y66706D1*
X55438Y66643D1*
X55359Y66261D1*
X55295Y65876D1*
X55286Y65810D1*
X55240Y65422D1*
X55210Y65032D1*
X55207Y64964D1*
X55195Y64572D1*
X55199Y64180D1*
X55202Y64110D1*
X55224Y63718D1*
X55263Y63327D1*
X55272Y63255D1*
X55329Y62866D1*
X55401Y62478D1*
X55417Y62406D1*
X55508Y62022D1*
X55614Y61642D1*
X55637Y61569D1*
X55761Y61194D1*
X55900Y60824D1*
X55930Y60751D1*
X56087Y60388D1*
X56258Y60030D1*
X56295Y59959D1*
X56483Y59610D1*
X56686Y59268D1*
X56729Y59198D1*
X56948Y58866D1*
X57180Y58543D1*
X57231Y58475D1*
X57478Y58163D1*
X57738Y57860D1*
X57796Y57796D1*
X58070Y57506D1*
X58356Y57227D1*
X58421Y57166D1*
X58720Y56901D1*
X59030Y56647D1*
X59101Y56591D1*
X59423Y56352D1*
X59755Y56126D1*
X59832Y56076D1*
X60174Y55865D1*
X60525Y55668D1*
X60608Y55624D1*
X60968Y55444D1*
X61336Y55278D1*
X61425Y55240D1*
X61800Y55092D1*
X62181Y54959D1*
X62275Y54928D1*
X62662Y54813D1*
X63054Y54713D1*
X63152Y54690D1*
X63549Y54609D1*
X63949Y54544D1*
X64051Y54530D1*
X64454Y54484D1*
X64859Y54453D1*
X64964Y54448D1*
X65370Y54437D1*
X65777Y54442D1*
X65884Y54446D1*
X66290Y54470D1*
X66696Y54511D1*
X66804Y54524D1*
X67208Y54585D1*
X67610Y54661D1*
X67718Y54684D1*
X68116Y54779D1*
X68510Y54890D1*
X68618Y54923D1*
X69007Y55053D1*
X69390Y55199D1*
X69497Y55242D1*
X69873Y55406D1*
X70244Y55584D1*
X70348Y55637D1*
X70710Y55834D1*
X71064Y56044D1*
X71165Y56108D1*
X71508Y56335D1*
X71843Y56576D1*
X71940Y56650D1*
X72263Y56907D1*
X72576Y57177D1*
X72668Y57259D1*
X72968Y57545D1*
X73257Y57841D1*
X73342Y57933D1*
X73617Y58244D1*
X73880Y58565D1*
X73958Y58666D1*
X74204Y59000D1*
X74439Y59344D1*
X74509Y59453D1*
X74726Y59808D1*
X74930Y60171D1*
X74991Y60288D1*
X75177Y60661D1*
X75348Y61042D1*
X75400Y61165D1*
X75553Y61554D1*
X75691Y61949D1*
X75732Y62078D1*
X75850Y62480D1*
X75954Y62886D1*
X75984Y63020D1*
X76067Y63432D1*
X76135Y63846D1*
X76154Y63985D1*
X76200Y64402D1*
X76232Y64822D1*
X76238Y64964D1*
X76249Y65385D1*
X76243Y65806D1*
X76238Y65950D1*
X76211Y66371D1*
X76169Y66791D1*
X76150Y66936D1*
X76087Y67354D1*
X76008Y67770D1*
X75976Y67915D1*
X75877Y68326D1*
X75761Y68734D1*
X75717Y68878D1*
X75581Y69279D1*
X75431Y69677D1*
X75373Y69818D1*
X75203Y70207D1*
X75018Y70590D1*
X74947Y70728D1*
X74743Y71101D1*
X74525Y71467D1*
X74441Y71600D1*
X74205Y71955D1*
X73955Y72301D1*
X73859Y72428D1*
X73592Y72761D1*
X73313Y73085D1*
X73204Y73204D1*
X72909Y73514D1*
X72602Y73813D1*
X72482Y73924D1*
X72160Y74207D1*
X71827Y74478D1*
X71697Y74579D1*
X71350Y74834D1*
X70995Y75076D1*
X70854Y75166D1*
X70486Y75390D1*
X70110Y75600D1*
X69960Y75679D1*
X69574Y75870D1*
X69180Y76047D1*
X69022Y76113D1*
X68618Y76270D1*
X68211Y76412D1*
X68045Y76465D1*
X67634Y76585D1*
X67210Y76693D1*
X67039Y76732D1*
X66653Y76810D1*
X66236Y76879D1*
X66009Y76910D1*
X65625Y76949D1*
X65141Y76986D1*
X64964Y76997D1*
Y70869D2*
X64649Y70885D1*
X64445Y70889D1*
X64174Y70883D1*
X63923Y70864D1*
X63649Y70832D1*
X63402Y70792D1*
X63103Y70730D1*
X62885Y70674D1*
X62589Y70585D1*
X62377Y70510D1*
X62090Y70395D1*
X61882Y70301D1*
X61605Y70161D1*
X61404Y70047D1*
X61139Y69883D1*
X60947Y69751D1*
X60696Y69563D1*
D32*
X60514Y69413D1*
X60281Y69203D1*
D31*
X60111Y69036D1*
X59896Y68805D1*
X59739Y68622D1*
X59544Y68373D1*
X59403Y68174D1*
X59230Y67908D1*
X59105Y67695D1*
X58956Y67414D1*
X58849Y67189D1*
X58725Y66895D1*
X58637Y66659D1*
X58538Y66354D1*
X58471Y66108D1*
X58399Y65795D1*
X58353Y65542D1*
X58309Y65222D1*
X58285Y64964D1*
X58269Y64640D1*
X58268Y64378D1*
X58280Y64053D1*
X58302Y63789D1*
X58343Y63466D1*
X58388Y63202D1*
X58457Y62882D1*
X58526Y62621D1*
X58624Y62307D1*
X58716Y62050D1*
X58841Y61746D1*
X58957Y61495D1*
X59108Y61202D1*
X59246Y60960D1*
X59423Y60681D1*
X59584Y60450D1*
X59786Y60186D1*
X59968Y59968D1*
X60192Y59722D1*
X60395Y59518D1*
X60640Y59292D1*
X60862Y59106D1*
X61127Y58901D1*
X61367Y58733D1*
X61650Y58552D1*
X61905Y58405D1*
X62204Y58249D1*
X62474Y58123D1*
X62786Y57993D1*
X63068Y57890D1*
X63392Y57788D1*
X63685Y57710D1*
X64017Y57636D1*
X64318Y57583D1*
X64656Y57539D1*
X64964Y57512D1*
X65305Y57497D1*
X65617D1*
X65960Y57513D1*
X66273Y57540D1*
X66614Y57586D1*
X66926Y57641D1*
X67262Y57716D1*
X67571Y57800D1*
X67901Y57904D1*
X68204Y58015D1*
X68524Y58149D1*
X68818Y58287D1*
X69127Y58448D1*
X69410Y58613D1*
X69704Y58801D1*
X69974Y58992D1*
X70251Y59206D1*
X70506Y59421D1*
X70764Y59659D1*
X71001Y59898D1*
X71238Y60158D1*
X71455Y60418D1*
X71669Y60699D1*
X71863Y60980D1*
X72052Y61279D1*
X72223Y61578D1*
X72386Y61894D1*
X72531Y62209D1*
X72666Y62538D1*
X72784Y62868D1*
X72889Y63209D1*
X72979Y63550D1*
X73055Y63900D1*
X73115Y64251D1*
X73159Y64606D1*
X73189Y64964D1*
X73202Y65323D1*
X73200Y65683D1*
Y65684D1*
X73182Y66044D1*
X73149Y66404D1*
X73148Y66407D1*
X73099Y66765D1*
X73034Y67121D1*
X73033Y67126D1*
X72952Y67479D1*
X72856Y67829D1*
X72854Y67835D1*
X72742Y68181D1*
X72616Y68522D1*
X72613Y68530D1*
X72471Y68866D1*
X72315Y69195D1*
X72310Y69205D1*
X72139Y69528D1*
X71954Y69843D1*
X71947Y69854D1*
X71748Y70161D1*
X71536Y70460D1*
X71528Y70471D1*
X71302Y70761D1*
X71064Y71041D1*
X71053Y71053D1*
X70802Y71322D1*
X70540Y71581D1*
X70527Y71593D1*
X70253Y71840D1*
X69968Y72076D1*
X69952Y72088D1*
X69657Y72311D1*
X69352Y72521D1*
X69334Y72533D1*
X69020Y72729D1*
X68697Y72913D1*
X68676Y72924D1*
X68345Y73093D1*
X68006Y73247D1*
X67982Y73258D1*
X67636Y73397D1*
X67286Y73522D1*
X67259Y73531D1*
X66905Y73639D1*
X66539Y73734D1*
X66511Y73740D1*
X66132Y73821D1*
X65821Y73874D1*
X65744Y73885D1*
X65413Y73923D1*
X64975Y73961D1*
X64964Y73962D1*
Y67720D2*
D32*
X64769Y67747D1*
X64720Y67753D1*
X64535Y67763D1*
X64470Y67764D1*
X64252Y67755D1*
X64216Y67752D1*
X64008Y67726D1*
X63961Y67718D1*
X63752Y67672D1*
X63706Y67660D1*
X63502Y67595D1*
X63454Y67578D1*
X63255Y67494D1*
X63207Y67472D1*
X63014Y67370D1*
X62967Y67343D1*
X62783Y67224D1*
X62737Y67191D1*
X62562Y67055D1*
X62517Y67016D1*
X62355Y66864D1*
X62312Y66820D1*
X62162Y66653D1*
X62122Y66604D1*
X61987Y66423D1*
X61951Y66369D1*
X61831Y66175D1*
X61798Y66116D1*
X61696Y65911D1*
X61668Y65847D1*
X61584Y65632D1*
X61560Y65564D1*
X61495Y65341D1*
X61477Y65269D1*
X61432Y65040D1*
X61420Y64964D1*
X61395Y64730D1*
X61390Y64651D1*
X61386Y64415D1*
X61388Y64333D1*
X61405Y64096D1*
X61414Y64013D1*
X61452Y63776D1*
D31*
X61470Y63692D1*
X61529Y63458D1*
X61554Y63374D1*
X61634Y63145D1*
X61668Y63061D1*
X61768Y62839D1*
X61810Y62756D1*
X61931Y62542D1*
X61981Y62461D1*
X62121Y62258D1*
X62180Y62180D1*
X62338Y61989D1*
X62405Y61914D1*
X62580Y61737D1*
X62655Y61667D1*
X62846Y61505D1*
X62930Y61440D1*
X63135Y61295D1*
X63226Y61237D1*
X63445Y61110D1*
X63542Y61059D1*
X63773Y60950D1*
X63877Y60907D1*
X64117Y60819D1*
X64227Y60785D1*
X64476Y60718D1*
X64590Y60693D1*
X64845Y60648D1*
X64964Y60633D1*
X65223Y60611D1*
X65345Y60606D1*
X65606Y60607D1*
X65731Y60613D1*
X65993Y60637D1*
X66118Y60654D1*
X66378Y60701D1*
X66505Y60730D1*
X66761Y60800D1*
X66886Y60840D1*
X67136Y60933D1*
X67260Y60986D1*
X67502Y61101D1*
X67623Y61165D1*
X67855Y61302D1*
X67972Y61378D1*
X68192Y61535D1*
X68304Y61623D1*
X68511Y61800D1*
X68616Y61899D1*
X68807Y62094D1*
X68905Y62204D1*
X69079Y62416D1*
X69169Y62536D1*
X69324Y62764D1*
X69404Y62893D1*
X69539Y63135D1*
X69609Y63273D1*
X69723Y63527D1*
X69781Y63673D1*
X69872Y63937D1*
X69918Y64090D1*
X69986Y64362D1*
X70019Y64521D1*
X70063Y64800D1*
X70082Y64964D1*
X70101Y65246D1*
X70106Y65414D1*
X70101Y65698D1*
X70090Y65868D1*
X70060Y66152D1*
X70034Y66322D1*
X69979Y66604D1*
X69937Y66774D1*
X69857Y67051D1*
X69800Y67219D1*
X69696Y67489D1*
X69623Y67654D1*
X69495Y67914D1*
X69407Y68075D1*
X69256Y68324D1*
X69152Y68478D1*
X68979Y68714D1*
X68861Y68861D1*
X68667Y69082D1*
X68535Y69219D1*
X68321Y69423D1*
X68175Y69550D1*
X67944Y69735D1*
X67785Y69851D1*
X67537Y70015D1*
X67367Y70118D1*
X67105Y70260D1*
X66924Y70349D1*
X66648Y70468D1*
X66458Y70541D1*
X66175Y70635D1*
X65974Y70693D1*
X65822Y70732D1*
X65591Y70782D1*
X65475Y70803D1*
X65208Y70841D1*
X64964Y70869D1*
M02*
