G04 DipTrace 2.3.1.0*
%INBottom_58742_rev6_Blackpoint.gbr*%
%MOIN*%
%ADD13C,0.013*%
%ADD14C,0.5*%
%ADD16C,0.025*%
%ADD18O,0.075X0.2*%
%ADD19O,0.075X0.15*%
%ADD20O,0.075X0.2125*%
%ADD33C,0.06*%
%FSLAX44Y44*%
G04*
G70*
G90*
G75*
G01*
%LNBottom*%
%LPD*%
X64464Y60464D2*
D13*
Y58214D1*
X65714Y60464D2*
Y58214D1*
X63089Y76839D2*
D14*
Y68551D1*
D13*
X65002D1*
X70464Y63089D1*
Y11714D1*
X70526Y11651D1*
X65964Y119464D2*
D14*
X68464Y118964D1*
Y78714D1*
Y75464D1*
D13*
X71464Y72464D1*
Y65964D1*
X68464Y78714D2*
X67185D1*
X65210Y80690D1*
X61682D1*
X59273Y78281D1*
Y70038D1*
X57407Y68172D1*
Y63932D1*
X59104Y62236D1*
Y60574D1*
X59070Y60540D1*
X71464Y63464D2*
Y11464D1*
X59526Y12089D2*
Y52526D1*
X59089Y52964D1*
Y57839D1*
X60839Y66151D2*
D14*
G02X64494Y68360I3108J-1015D01*
G01*
X58526Y11651D2*
D13*
Y52526D1*
X57714Y53339D1*
Y59839D1*
D33*
X65589Y120651D3*
X69964Y120339D3*
X68214Y120464D3*
X69089D3*
X66464Y120589D3*
X67276D3*
X64714D3*
X61061Y65095D3*
X61333Y66147D3*
X61892Y67030D3*
X62657Y67728D3*
X63546Y68191D3*
X64494Y68360D3*
X65397Y68139D3*
X60243Y125213D2*
D16*
X63638D1*
X66289D2*
X69681D1*
X57618Y124964D2*
X63450D1*
X66477D2*
X72310D1*
X56047Y124716D2*
X63318D1*
X66610D2*
X73880D1*
X54477Y124467D2*
X63232D1*
X66696D2*
X75450D1*
X52907Y124218D2*
X63185D1*
X66743D2*
X77021D1*
X51774Y123970D2*
X63173D1*
X66754D2*
X78150D1*
X50848Y123721D2*
X63200D1*
X66727D2*
X79079D1*
X49918Y123472D2*
X63259D1*
X66668D2*
X80009D1*
X48993Y123224D2*
X63364D1*
X66563D2*
X80935D1*
X48063Y122975D2*
X63517D1*
X66965D2*
X81864D1*
X47137Y122726D2*
X63735D1*
X68211D2*
X82790D1*
X46235Y122477D2*
X63907D1*
X69418D2*
X83693D1*
X45586Y122229D2*
X63579D1*
X70086D2*
X84341D1*
X44938Y121980D2*
X63318D1*
X70516D2*
X84989D1*
X44289Y121731D2*
X63099D1*
X70844D2*
X85638D1*
X43641Y121483D2*
X62915D1*
X71110D2*
X86286D1*
X42993Y121234D2*
X62763D1*
X71328D2*
X86935D1*
X42348Y120985D2*
X62638D1*
X71508D2*
X87579D1*
X41700Y120737D2*
X62532D1*
X71660D2*
X88228D1*
X41051Y120488D2*
X62450D1*
X71789D2*
X88876D1*
X40403Y120239D2*
X62388D1*
X71891D2*
X89525D1*
X39910Y119991D2*
X62341D1*
X71977D2*
X90017D1*
X39422Y119742D2*
X62314D1*
X72039D2*
X90505D1*
X38934Y119493D2*
X62306D1*
X72086D2*
X90993D1*
X38446Y119245D2*
X62310D1*
X72114D2*
X91482D1*
X37957Y118996D2*
X62333D1*
X72121D2*
X91970D1*
X37469Y118747D2*
X62376D1*
X72125D2*
X92458D1*
X36981Y118498D2*
X62435D1*
X72125D2*
X92946D1*
X36493Y118250D2*
X62513D1*
X72125D2*
X93435D1*
X36004Y118001D2*
X62610D1*
X72125D2*
X93923D1*
X36098Y117752D2*
X62732D1*
X72125D2*
X93829D1*
X36539Y117504D2*
X62876D1*
X72125D2*
X93388D1*
X36801Y117255D2*
X63052D1*
X72125D2*
X93126D1*
X36981Y117006D2*
X63259D1*
X72125D2*
X92946D1*
X37102Y116758D2*
X63513D1*
X72125D2*
X92825D1*
X33434Y116509D2*
X33693D1*
X37180D2*
X63821D1*
X72125D2*
X92747D1*
X96235D2*
X96493D1*
X33051Y116260D2*
X33653D1*
X37219D2*
X64220D1*
X72125D2*
X92708D1*
X96274D2*
X96876D1*
X32668Y116012D2*
X33650D1*
X37223D2*
X64802D1*
X72125D2*
X92704D1*
X96278D2*
X97259D1*
X32285Y115763D2*
X33681D1*
X37192D2*
X64802D1*
X72125D2*
X92735D1*
X96246D2*
X97642D1*
X31903Y115514D2*
X33747D1*
X37125D2*
X64802D1*
X72125D2*
X92802D1*
X96180D2*
X98025D1*
X31520Y115265D2*
X33860D1*
X37012D2*
X64802D1*
X72125D2*
X92915D1*
X96067D2*
X98407D1*
X31137Y115017D2*
X34025D1*
X36848D2*
X64802D1*
X72125D2*
X93079D1*
X95903D2*
X98790D1*
X30754Y114768D2*
X34263D1*
X36610D2*
X64802D1*
X72125D2*
X93318D1*
X95664D2*
X99173D1*
X30371Y114519D2*
X34638D1*
X36231D2*
X64802D1*
X72125D2*
X93696D1*
X95289D2*
X99556D1*
X29989Y114271D2*
X64802D1*
X72125D2*
X99939D1*
X29606Y114022D2*
X64802D1*
X72125D2*
X100321D1*
X29262Y113773D2*
X64802D1*
X72125D2*
X100665D1*
X28957Y113525D2*
X64802D1*
X72125D2*
X100970D1*
X28649Y113276D2*
X64802D1*
X72125D2*
X101278D1*
X28340Y113027D2*
X64802D1*
X72125D2*
X101587D1*
X28035Y112779D2*
X64802D1*
X72125D2*
X101892D1*
X27727Y112530D2*
X64802D1*
X72125D2*
X102200D1*
X27422Y112281D2*
X64802D1*
X72125D2*
X102505D1*
X27114Y112033D2*
X64802D1*
X72125D2*
X102814D1*
X26805Y111784D2*
X64802D1*
X72125D2*
X103122D1*
X26500Y111535D2*
X64802D1*
X72125D2*
X103427D1*
X26192Y111286D2*
X64802D1*
X72125D2*
X103735D1*
X25883Y111038D2*
X64802D1*
X72125D2*
X104040D1*
X25578Y110789D2*
X64802D1*
X72125D2*
X104349D1*
X25270Y110540D2*
X64802D1*
X72125D2*
X104657D1*
X24965Y110292D2*
X64802D1*
X72125D2*
X104962D1*
X24657Y110043D2*
X64802D1*
X72125D2*
X105271D1*
X24379Y109794D2*
X64802D1*
X72125D2*
X105548D1*
X24129Y109546D2*
X64802D1*
X72125D2*
X105798D1*
X23883Y109297D2*
X64802D1*
X72125D2*
X106044D1*
X23633Y109048D2*
X64802D1*
X72125D2*
X106294D1*
X23383Y108800D2*
X64802D1*
X72125D2*
X106544D1*
X23137Y108551D2*
X64802D1*
X72125D2*
X106790D1*
X22887Y108302D2*
X64802D1*
X72125D2*
X107040D1*
X22637Y108054D2*
X64802D1*
X72125D2*
X107290D1*
X22391Y107805D2*
X64802D1*
X72125D2*
X107536D1*
X22141Y107556D2*
X64802D1*
X72125D2*
X107786D1*
X21891Y107307D2*
X64802D1*
X72125D2*
X108036D1*
X21645Y107059D2*
X64802D1*
X72125D2*
X108282D1*
X21395Y106810D2*
X64802D1*
X72125D2*
X108532D1*
X21145Y106561D2*
X64802D1*
X72125D2*
X108782D1*
X20899Y106313D2*
X64802D1*
X72125D2*
X109028D1*
X20649Y106064D2*
X64802D1*
X72125D2*
X109278D1*
X20399Y105815D2*
X64802D1*
X72125D2*
X109528D1*
X20153Y105567D2*
X64802D1*
X72125D2*
X109775D1*
X19926Y105318D2*
X64802D1*
X72125D2*
X110001D1*
X19727Y105069D2*
X64802D1*
X72125D2*
X110200D1*
X19524Y104821D2*
X64802D1*
X72125D2*
X110403D1*
X19325Y104572D2*
X64802D1*
X72125D2*
X110603D1*
X19121Y104323D2*
X64802D1*
X72125D2*
X110806D1*
X18922Y104075D2*
X64802D1*
X72125D2*
X111005D1*
X18719Y103826D2*
X64802D1*
X72125D2*
X111208D1*
X18516Y103577D2*
X64802D1*
X72125D2*
X111411D1*
X18317Y103328D2*
X64802D1*
X72125D2*
X111610D1*
X18114Y103080D2*
X64802D1*
X72125D2*
X111814D1*
X17914Y102831D2*
X64802D1*
X72125D2*
X112013D1*
X17711Y102582D2*
X64802D1*
X72125D2*
X112216D1*
X17512Y102334D2*
X64802D1*
X72125D2*
X112415D1*
X17309Y102085D2*
X64802D1*
X72125D2*
X112618D1*
X17110Y101836D2*
X64802D1*
X72125D2*
X112818D1*
X16907Y101588D2*
X64802D1*
X72125D2*
X113021D1*
X16703Y101339D2*
X64802D1*
X72125D2*
X113224D1*
X16504Y101090D2*
X64802D1*
X72125D2*
X113423D1*
X16301Y100842D2*
X64802D1*
X72125D2*
X113626D1*
X16102Y100593D2*
X64802D1*
X72125D2*
X113825D1*
X15930Y100344D2*
X64802D1*
X72125D2*
X113997D1*
X15766Y100096D2*
X64802D1*
X72125D2*
X114161D1*
X15606Y99847D2*
X64802D1*
X72125D2*
X114321D1*
X15446Y99598D2*
X64802D1*
X72125D2*
X114482D1*
X15282Y99349D2*
X64802D1*
X72125D2*
X114646D1*
X15121Y99101D2*
X64802D1*
X72125D2*
X114806D1*
X14957Y98852D2*
X64802D1*
X72125D2*
X114966D1*
X14797Y98603D2*
X64802D1*
X72125D2*
X115130D1*
X14637Y98355D2*
X64802D1*
X72125D2*
X115290D1*
X14473Y98106D2*
X64802D1*
X72125D2*
X115454D1*
X14313Y97857D2*
X64802D1*
X72125D2*
X115614D1*
X14153Y97609D2*
X64802D1*
X72125D2*
X115775D1*
X13989Y97360D2*
X64802D1*
X72125D2*
X115939D1*
X13828Y97111D2*
X64802D1*
X72125D2*
X116099D1*
X13668Y96863D2*
X64802D1*
X72125D2*
X116259D1*
X13504Y96614D2*
X64802D1*
X72125D2*
X116423D1*
X13344Y96365D2*
X64802D1*
X72125D2*
X116583D1*
X14532Y96117D2*
X64802D1*
X72125D2*
X115396D1*
X14950Y95868D2*
X64802D1*
X72125D2*
X114978D1*
X15203Y95619D2*
X64802D1*
X72125D2*
X114724D1*
X15375Y95370D2*
X64802D1*
X72125D2*
X114552D1*
X15493Y95122D2*
X64802D1*
X72125D2*
X114435D1*
X15567Y94873D2*
X64802D1*
X72125D2*
X114360D1*
X15606Y94624D2*
X64802D1*
X72125D2*
X114321D1*
X15606Y94376D2*
X64802D1*
X72125D2*
X114321D1*
X15571Y94127D2*
X64802D1*
X72125D2*
X114357D1*
X11914Y93878D2*
X12142D1*
X15500D2*
X64802D1*
X72125D2*
X114427D1*
X117785D2*
X118013D1*
X11789Y93630D2*
X12255D1*
X15387D2*
X64802D1*
X72125D2*
X114540D1*
X117672D2*
X118138D1*
X11664Y93381D2*
X12423D1*
X15219D2*
X64802D1*
X72125D2*
X114708D1*
X117504D2*
X118263D1*
X11535Y93132D2*
X12669D1*
X14973D2*
X64802D1*
X72125D2*
X114954D1*
X117258D2*
X118392D1*
X11410Y92884D2*
X13068D1*
X14575D2*
X64802D1*
X72125D2*
X115353D1*
X116860D2*
X118517D1*
X11282Y92635D2*
X64802D1*
X72125D2*
X118646D1*
X11157Y92386D2*
X64802D1*
X72125D2*
X118771D1*
X11028Y92138D2*
X64802D1*
X72125D2*
X118900D1*
X10903Y91889D2*
X64802D1*
X72125D2*
X119025D1*
X10774Y91640D2*
X64802D1*
X72125D2*
X119153D1*
X10649Y91391D2*
X64802D1*
X72125D2*
X119278D1*
X10524Y91143D2*
X64802D1*
X72125D2*
X119403D1*
X10395Y90894D2*
X64802D1*
X72125D2*
X119532D1*
X10270Y90645D2*
X64802D1*
X72125D2*
X119657D1*
X10141Y90397D2*
X64802D1*
X72125D2*
X119786D1*
X10016Y90148D2*
X64802D1*
X72125D2*
X119911D1*
X9887Y89899D2*
X64802D1*
X72125D2*
X120040D1*
X9762Y89651D2*
X64802D1*
X72125D2*
X120165D1*
X9657Y89402D2*
X64802D1*
X72125D2*
X120271D1*
X9559Y89153D2*
X64802D1*
X72125D2*
X120364D1*
X9465Y88905D2*
X64802D1*
X72125D2*
X120462D1*
X9371Y88656D2*
X64802D1*
X72125D2*
X120556D1*
X9274Y88407D2*
X64802D1*
X72125D2*
X120653D1*
X9180Y88159D2*
X64802D1*
X72125D2*
X120747D1*
X9082Y87910D2*
X64802D1*
X72125D2*
X120845D1*
X8989Y87661D2*
X64802D1*
X72125D2*
X120939D1*
X8891Y87412D2*
X64802D1*
X72125D2*
X121036D1*
X8797Y87164D2*
X64802D1*
X72125D2*
X121130D1*
X8703Y86915D2*
X64802D1*
X72125D2*
X121224D1*
X8606Y86666D2*
X64802D1*
X72125D2*
X121321D1*
X8512Y86418D2*
X64802D1*
X72125D2*
X121415D1*
X8414Y86169D2*
X64802D1*
X72125D2*
X121513D1*
X8321Y85920D2*
X64802D1*
X72125D2*
X121607D1*
X8223Y85672D2*
X64802D1*
X72125D2*
X121704D1*
X8129Y85423D2*
X64802D1*
X72125D2*
X121798D1*
X8032Y85174D2*
X64802D1*
X72125D2*
X121896D1*
X7938Y84926D2*
X64802D1*
X72125D2*
X121989D1*
X7844Y84677D2*
X64802D1*
X72125D2*
X122083D1*
X7746Y84428D2*
X64802D1*
X72125D2*
X122181D1*
X7653Y84180D2*
X64802D1*
X72125D2*
X122275D1*
X7555Y83931D2*
X64802D1*
X72125D2*
X122372D1*
X7461Y83682D2*
X64802D1*
X72125D2*
X122466D1*
X7391Y83433D2*
X64802D1*
X72125D2*
X122536D1*
X7325Y83185D2*
X64802D1*
X72125D2*
X122603D1*
X7258Y82936D2*
X64802D1*
X72125D2*
X122669D1*
X7192Y82687D2*
X64802D1*
X72125D2*
X122735D1*
X7125Y82439D2*
X64802D1*
X72125D2*
X122802D1*
X7059Y82190D2*
X64802D1*
X72125D2*
X122868D1*
X6993Y81941D2*
X64802D1*
X72125D2*
X122935D1*
X6926Y81693D2*
X60997D1*
X72125D2*
X123001D1*
X6860Y81444D2*
X60716D1*
X72125D2*
X123068D1*
X6793Y81195D2*
X60466D1*
X72125D2*
X123134D1*
X6723Y80947D2*
X60216D1*
X72125D2*
X123200D1*
X6657Y80698D2*
X59970D1*
X72125D2*
X123271D1*
X6590Y80449D2*
X59720D1*
X72125D2*
X123337D1*
X6524Y80201D2*
X59470D1*
X72125D2*
X123403D1*
X6457Y79952D2*
X59224D1*
X72125D2*
X123470D1*
X6391Y79703D2*
X58974D1*
X72125D2*
X123536D1*
X6325Y79454D2*
X58724D1*
X72125D2*
X123603D1*
X6258Y79206D2*
X58478D1*
X72125D2*
X123669D1*
X6192Y78957D2*
X58255D1*
X72309D2*
X123735D1*
X6125Y78708D2*
X58126D1*
X72430D2*
X123802D1*
X6059Y78460D2*
X58060D1*
X72485D2*
X123868D1*
X5993Y78211D2*
X58048D1*
X72493D2*
X123935D1*
X5926Y77962D2*
X58048D1*
X72493D2*
X124001D1*
X5860Y77714D2*
X58048D1*
X72493D2*
X124068D1*
X5801Y77465D2*
X58048D1*
X72493D2*
X124126D1*
X5762Y77216D2*
X58048D1*
X72493D2*
X124165D1*
X5723Y76968D2*
X58048D1*
X72493D2*
X124204D1*
X5684Y76719D2*
X58048D1*
X72493D2*
X124243D1*
X5641Y76470D2*
X58048D1*
X72493D2*
X124282D1*
X5602Y76222D2*
X58048D1*
X72493D2*
X124325D1*
X5563Y75973D2*
X58048D1*
X72493D2*
X124364D1*
X5524Y75724D2*
X58048D1*
X72493D2*
X124403D1*
X5485Y75475D2*
X58048D1*
X72493D2*
X124443D1*
X5446Y75227D2*
X58048D1*
X72493D2*
X124482D1*
X5407Y74978D2*
X58048D1*
X72493D2*
X124521D1*
X5368Y74729D2*
X58048D1*
X72493D2*
X124560D1*
X5328Y74481D2*
X58048D1*
X72493D2*
X124599D1*
X5289Y74232D2*
X58048D1*
X72489D2*
X124638D1*
X5250Y73983D2*
X58048D1*
X72438D2*
X124677D1*
X5211Y73735D2*
X58048D1*
X72321D2*
X124716D1*
X5168Y73486D2*
X58048D1*
X72164D2*
X124755D1*
X5129Y73237D2*
X58048D1*
X72407D2*
X124798D1*
X5090Y72989D2*
X58048D1*
X72567D2*
X124837D1*
X5051Y72740D2*
X58048D1*
X72657D2*
X124876D1*
X5012Y72491D2*
X58048D1*
X72688D2*
X124915D1*
X4973Y72243D2*
X58048D1*
X72688D2*
X124954D1*
X4934Y71994D2*
X58048D1*
X66750D2*
X67357D1*
X69571D2*
X70212D1*
X72688D2*
X124993D1*
X4895Y71745D2*
X58048D1*
X66750D2*
X70239D1*
X72688D2*
X125032D1*
X4856Y71496D2*
X58048D1*
X66750D2*
X70239D1*
X72688D2*
X125071D1*
X4821Y71248D2*
X58048D1*
X66750D2*
X70239D1*
X72688D2*
X125107D1*
X4805Y70999D2*
X58048D1*
X67020D2*
X70239D1*
X72688D2*
X125118D1*
X4793Y70750D2*
X58048D1*
X67258D2*
X70239D1*
X72688D2*
X125134D1*
X4782Y70502D2*
X58017D1*
X67457D2*
X70239D1*
X72688D2*
X125146D1*
X4766Y70253D2*
X57767D1*
X67621D2*
X70239D1*
X72688D2*
X125161D1*
X4754Y70004D2*
X57517D1*
X67762D2*
X70239D1*
X72688D2*
X125173D1*
X4743Y69756D2*
X57271D1*
X67875D2*
X70239D1*
X72688D2*
X125185D1*
X4727Y69507D2*
X57021D1*
X67969D2*
X70239D1*
X72688D2*
X125200D1*
X4715Y69258D2*
X56771D1*
X68039D2*
X70239D1*
X72688D2*
X125212D1*
X4703Y69010D2*
X56525D1*
X68094D2*
X70239D1*
X72688D2*
X125224D1*
X4688Y68761D2*
X56337D1*
X68133D2*
X70239D1*
X72688D2*
X125239D1*
X4676Y68512D2*
X56232D1*
X68153D2*
X70239D1*
X72688D2*
X125251D1*
X4664Y68264D2*
X56185D1*
X68153D2*
X70239D1*
X72688D2*
X125263D1*
X4649Y68015D2*
X56181D1*
X68137D2*
X70239D1*
X72688D2*
X125278D1*
X4637Y67766D2*
X56181D1*
X68106D2*
X70239D1*
X72688D2*
X125290D1*
X4625Y67517D2*
X56181D1*
X68055D2*
X70239D1*
X72688D2*
X125302D1*
X4610Y67269D2*
X56181D1*
X68004D2*
X70239D1*
X72688D2*
X125318D1*
X4598Y67020D2*
X56181D1*
X68254D2*
X70142D1*
X72774D2*
X125329D1*
X4586Y66771D2*
X56181D1*
X68504D2*
X70048D1*
X72868D2*
X125341D1*
X4571Y66523D2*
X5056D1*
X6762D2*
X56181D1*
X68750D2*
X69993D1*
X72922D2*
X123165D1*
X124871D2*
X125357D1*
X4559Y66274D2*
X4700D1*
X7118D2*
X56181D1*
X69000D2*
X69950D1*
X72965D2*
X122810D1*
X125227D2*
X125368D1*
X7344Y66025D2*
X56181D1*
X69250D2*
X69931D1*
X72985D2*
X122583D1*
X7500Y65777D2*
X56181D1*
X69496D2*
X69923D1*
X72993D2*
X122427D1*
X7606Y65528D2*
X56181D1*
X69746D2*
X69937D1*
X72977D2*
X122321D1*
X7668Y65279D2*
X56181D1*
X72946D2*
X122259D1*
X7696Y65031D2*
X56181D1*
X72899D2*
X122232D1*
X7688Y64782D2*
X56181D1*
X66743D2*
X67048D1*
X72825D2*
X122239D1*
X7645Y64533D2*
X56181D1*
X66700D2*
X67298D1*
X72770D2*
X122282D1*
X7563Y64285D2*
X56181D1*
X66618D2*
X67544D1*
X72864D2*
X122364D1*
X7434Y64036D2*
X56181D1*
X66489D2*
X67794D1*
X72918D2*
X122493D1*
X7250Y63787D2*
X56193D1*
X66305D2*
X68044D1*
X72965D2*
X122677D1*
X4567Y63538D2*
X4841D1*
X6973D2*
X56247D1*
X63391D2*
X63900D1*
X66028D2*
X68290D1*
X72981D2*
X122954D1*
X125086D2*
X125360D1*
X4578Y63290D2*
X5325D1*
X6493D2*
X56368D1*
X63106D2*
X64380D1*
X65547D2*
X68540D1*
X72993D2*
X123435D1*
X124602D2*
X125349D1*
X4590Y63041D2*
X56575D1*
X62746D2*
X68790D1*
X72977D2*
X125337D1*
X4606Y62792D2*
X56825D1*
X62254D2*
X69036D1*
X72950D2*
X125321D1*
X4618Y62544D2*
X56970D1*
X60289D2*
X60368D1*
X61309D2*
X69239D1*
X72903D2*
X125310D1*
X4629Y62295D2*
X56540D1*
X60328D2*
X64099D1*
X64817D2*
X65349D1*
X66067D2*
X69239D1*
X72828D2*
X125298D1*
X4645Y62046D2*
X56337D1*
X60328D2*
X63591D1*
X66575D2*
X69239D1*
X72731D2*
X125282D1*
X4657Y61798D2*
X56224D1*
X60332D2*
X63345D1*
X66821D2*
X69239D1*
X72688D2*
X125271D1*
X4668Y61549D2*
X56177D1*
X60434D2*
X63185D1*
X66981D2*
X69239D1*
X72688D2*
X125259D1*
X4684Y61300D2*
X56173D1*
X60516D2*
X63068D1*
X67098D2*
X69239D1*
X72688D2*
X125243D1*
X4696Y61052D2*
X56173D1*
X60567D2*
X62997D1*
X67168D2*
X69239D1*
X72688D2*
X125232D1*
X4707Y60803D2*
X56173D1*
X60598D2*
X62946D1*
X67219D2*
X69239D1*
X72688D2*
X125220D1*
X4723Y60554D2*
X56173D1*
X60614D2*
X62927D1*
X67239D2*
X69239D1*
X72688D2*
X125204D1*
X4735Y60306D2*
X56173D1*
X60610D2*
X62931D1*
X67235D2*
X69239D1*
X72688D2*
X125193D1*
X4746Y60057D2*
X56173D1*
X60594D2*
X62954D1*
X67211D2*
X69239D1*
X72688D2*
X125181D1*
X4762Y59808D2*
X56173D1*
X60555D2*
X63013D1*
X67153D2*
X69239D1*
X72688D2*
X125165D1*
X4774Y59559D2*
X56173D1*
X60500D2*
X63091D1*
X67075D2*
X69239D1*
X72688D2*
X125153D1*
X4785Y59311D2*
X56173D1*
X60410D2*
X63189D1*
X66977D2*
X69239D1*
X72688D2*
X125142D1*
X4801Y59062D2*
X56208D1*
X60430D2*
X63071D1*
X67094D2*
X69239D1*
X72688D2*
X125126D1*
X4813Y58813D2*
X56302D1*
X60516D2*
X63001D1*
X67164D2*
X69239D1*
X72688D2*
X125114D1*
X4832Y58565D2*
X56474D1*
X60563D2*
X62946D1*
X67219D2*
X69239D1*
X72688D2*
X125095D1*
X4871Y58316D2*
X56489D1*
X60598D2*
X62927D1*
X67239D2*
X69239D1*
X72688D2*
X125052D1*
X4914Y58067D2*
X56489D1*
X60614D2*
X62931D1*
X67235D2*
X69239D1*
X72688D2*
X125013D1*
X4953Y57819D2*
X56489D1*
X60610D2*
X62954D1*
X67211D2*
X69239D1*
X72688D2*
X124974D1*
X4993Y57570D2*
X56489D1*
X60598D2*
X63009D1*
X67157D2*
X69239D1*
X72688D2*
X124935D1*
X5032Y57321D2*
X56489D1*
X60555D2*
X63087D1*
X67078D2*
X69239D1*
X72688D2*
X124896D1*
X5071Y57073D2*
X56489D1*
X60504D2*
X63208D1*
X66957D2*
X69239D1*
X72688D2*
X124857D1*
X5110Y56824D2*
X56489D1*
X60418D2*
X63388D1*
X66778D2*
X69239D1*
X72688D2*
X124818D1*
X5149Y56575D2*
X56489D1*
X60313D2*
X63653D1*
X66508D2*
X69239D1*
X72688D2*
X124778D1*
X5188Y56327D2*
X56489D1*
X60313D2*
X64392D1*
X64526D2*
X65642D1*
X65776D2*
X69239D1*
X72688D2*
X124739D1*
X5227Y56078D2*
X56489D1*
X60313D2*
X69239D1*
X72688D2*
X124700D1*
X5266Y55829D2*
X56489D1*
X60313D2*
X69239D1*
X72688D2*
X124661D1*
X5305Y55580D2*
X56489D1*
X60313D2*
X69239D1*
X72688D2*
X124622D1*
X5344Y55332D2*
X56489D1*
X60313D2*
X69239D1*
X72688D2*
X124579D1*
X5387Y55083D2*
X56489D1*
X60313D2*
X69239D1*
X72688D2*
X124540D1*
X5426Y54834D2*
X56489D1*
X60313D2*
X69239D1*
X72688D2*
X124501D1*
X5465Y54586D2*
X56489D1*
X60313D2*
X69239D1*
X72688D2*
X124462D1*
X5504Y54337D2*
X56489D1*
X60313D2*
X69239D1*
X72688D2*
X124423D1*
X5543Y54088D2*
X56489D1*
X60313D2*
X69239D1*
X72688D2*
X124384D1*
X5582Y53840D2*
X56489D1*
X60313D2*
X69239D1*
X72688D2*
X124345D1*
X5621Y53591D2*
X56489D1*
X60313D2*
X69239D1*
X72688D2*
X124306D1*
X5660Y53342D2*
X56489D1*
X60430D2*
X69239D1*
X72688D2*
X124267D1*
X5700Y53094D2*
X56513D1*
X60610D2*
X69239D1*
X72688D2*
X124228D1*
X5739Y52845D2*
X56595D1*
X60707D2*
X69239D1*
X72688D2*
X124189D1*
X5778Y52596D2*
X56747D1*
X60750D2*
X69239D1*
X72688D2*
X124150D1*
X5825Y52348D2*
X56982D1*
X60750D2*
X69239D1*
X72688D2*
X124103D1*
X5891Y52099D2*
X57232D1*
X60750D2*
X69239D1*
X72688D2*
X124036D1*
X5957Y51850D2*
X57302D1*
X60750D2*
X69239D1*
X72688D2*
X123970D1*
X6024Y51601D2*
X57302D1*
X60750D2*
X69239D1*
X72688D2*
X123903D1*
X6090Y51353D2*
X57302D1*
X60750D2*
X69239D1*
X72688D2*
X123837D1*
X6157Y51104D2*
X57302D1*
X60750D2*
X69239D1*
X72688D2*
X123771D1*
X6223Y50855D2*
X57302D1*
X60750D2*
X69239D1*
X72688D2*
X123704D1*
X6289Y50607D2*
X57302D1*
X60750D2*
X69239D1*
X72688D2*
X123638D1*
X6356Y50358D2*
X57302D1*
X60750D2*
X69239D1*
X72688D2*
X123571D1*
X6422Y50109D2*
X57302D1*
X60750D2*
X69239D1*
X72688D2*
X123505D1*
X6489Y49861D2*
X57302D1*
X60750D2*
X69239D1*
X72688D2*
X123439D1*
X6555Y49612D2*
X57302D1*
X60750D2*
X69239D1*
X72688D2*
X123372D1*
X6621Y49363D2*
X57302D1*
X60750D2*
X69239D1*
X72688D2*
X123306D1*
X6688Y49115D2*
X57302D1*
X60750D2*
X69239D1*
X72688D2*
X123239D1*
X6754Y48866D2*
X57302D1*
X60750D2*
X69239D1*
X72688D2*
X123173D1*
X6821Y48617D2*
X57302D1*
X60750D2*
X69239D1*
X72688D2*
X123107D1*
X6887Y48369D2*
X57302D1*
X60750D2*
X69239D1*
X72688D2*
X123036D1*
X6957Y48120D2*
X57302D1*
X60750D2*
X69239D1*
X72688D2*
X122970D1*
X7024Y47871D2*
X57302D1*
X60750D2*
X69239D1*
X72688D2*
X122903D1*
X7090Y47622D2*
X57302D1*
X60750D2*
X69239D1*
X72688D2*
X122837D1*
X7157Y47374D2*
X57302D1*
X60750D2*
X69239D1*
X72688D2*
X122771D1*
X7223Y47125D2*
X57302D1*
X60750D2*
X69239D1*
X72688D2*
X122704D1*
X7289Y46876D2*
X57302D1*
X60750D2*
X69239D1*
X72688D2*
X122638D1*
X7356Y46628D2*
X57302D1*
X60750D2*
X69239D1*
X72688D2*
X122571D1*
X7422Y46379D2*
X57302D1*
X60750D2*
X69239D1*
X72688D2*
X122505D1*
X7504Y46130D2*
X57302D1*
X60750D2*
X69239D1*
X72688D2*
X122423D1*
X7602Y45882D2*
X57302D1*
X60750D2*
X69239D1*
X72688D2*
X122325D1*
X7696Y45633D2*
X57302D1*
X60750D2*
X69239D1*
X72688D2*
X122232D1*
X7789Y45384D2*
X57302D1*
X60750D2*
X69239D1*
X72688D2*
X122138D1*
X7887Y45136D2*
X57302D1*
X60750D2*
X69239D1*
X72688D2*
X122040D1*
X7981Y44887D2*
X57302D1*
X60750D2*
X69239D1*
X72688D2*
X121946D1*
X8078Y44638D2*
X57302D1*
X60750D2*
X69239D1*
X72688D2*
X121849D1*
X8172Y44390D2*
X57302D1*
X60750D2*
X69239D1*
X72688D2*
X121755D1*
X8270Y44141D2*
X57302D1*
X60750D2*
X69239D1*
X72688D2*
X121657D1*
X8364Y43892D2*
X57302D1*
X60750D2*
X69239D1*
X72688D2*
X121564D1*
X8461Y43643D2*
X57302D1*
X60750D2*
X69239D1*
X72688D2*
X121466D1*
X8555Y43395D2*
X57302D1*
X60750D2*
X69239D1*
X72688D2*
X121372D1*
X8649Y43146D2*
X57302D1*
X60750D2*
X69239D1*
X72688D2*
X121278D1*
X8746Y42897D2*
X57302D1*
X60750D2*
X69239D1*
X72688D2*
X121181D1*
X8840Y42649D2*
X57302D1*
X60750D2*
X69239D1*
X72688D2*
X121087D1*
X8938Y42400D2*
X57302D1*
X60750D2*
X69239D1*
X72688D2*
X120989D1*
X9032Y42151D2*
X57302D1*
X60750D2*
X69239D1*
X72688D2*
X120896D1*
X9129Y41903D2*
X57302D1*
X60750D2*
X69239D1*
X72688D2*
X120798D1*
X9223Y41654D2*
X57302D1*
X60750D2*
X69239D1*
X72688D2*
X120704D1*
X9317Y41405D2*
X57302D1*
X60750D2*
X69239D1*
X72688D2*
X120610D1*
X9414Y41157D2*
X57302D1*
X60750D2*
X69239D1*
X72688D2*
X120513D1*
X9508Y40908D2*
X57302D1*
X60750D2*
X69239D1*
X72688D2*
X120419D1*
X9606Y40659D2*
X57302D1*
X60750D2*
X69239D1*
X72688D2*
X120321D1*
X9700Y40411D2*
X57302D1*
X60750D2*
X69239D1*
X72688D2*
X120228D1*
X9821Y40162D2*
X57302D1*
X60750D2*
X69239D1*
X72688D2*
X120107D1*
X9946Y39913D2*
X57302D1*
X60750D2*
X69239D1*
X72688D2*
X119982D1*
X10075Y39664D2*
X57302D1*
X60750D2*
X69239D1*
X72688D2*
X119853D1*
X10200Y39416D2*
X57302D1*
X60750D2*
X69239D1*
X72688D2*
X119728D1*
X10328Y39167D2*
X57302D1*
X60750D2*
X69239D1*
X72688D2*
X119599D1*
X10453Y38918D2*
X57302D1*
X60750D2*
X69239D1*
X72688D2*
X119474D1*
X10582Y38670D2*
X57302D1*
X60750D2*
X69239D1*
X72688D2*
X119345D1*
X10707Y38421D2*
X57302D1*
X60750D2*
X69239D1*
X72688D2*
X119220D1*
X10832Y38172D2*
X57302D1*
X60750D2*
X69239D1*
X72688D2*
X119095D1*
X10961Y37924D2*
X57302D1*
X60750D2*
X69239D1*
X72688D2*
X118966D1*
X11086Y37675D2*
X57302D1*
X60750D2*
X69239D1*
X72688D2*
X118841D1*
X11215Y37426D2*
X57302D1*
X60750D2*
X69239D1*
X72688D2*
X118712D1*
X11340Y37178D2*
X13509D1*
X14133D2*
X57302D1*
X60750D2*
X69239D1*
X72688D2*
X115794D1*
X116418D2*
X118587D1*
X11469Y36929D2*
X12853D1*
X14785D2*
X57302D1*
X60750D2*
X69239D1*
X72688D2*
X115142D1*
X117075D2*
X118458D1*
X11594Y36680D2*
X12544D1*
X15098D2*
X57302D1*
X60750D2*
X69239D1*
X72688D2*
X114829D1*
X117383D2*
X118333D1*
X11719Y36432D2*
X12337D1*
X15301D2*
X57302D1*
X60750D2*
X69239D1*
X72688D2*
X114626D1*
X117590D2*
X118204D1*
X11848Y36183D2*
X12196D1*
X15446D2*
X57302D1*
X60750D2*
X69239D1*
X72688D2*
X114482D1*
X117731D2*
X118079D1*
X11973Y35934D2*
X12103D1*
X15539D2*
X57302D1*
X60750D2*
X69239D1*
X72688D2*
X114388D1*
X117825D2*
X117954D1*
X15594Y35685D2*
X57302D1*
X60750D2*
X69239D1*
X72688D2*
X114333D1*
X15610Y35437D2*
X57302D1*
X60750D2*
X69239D1*
X72688D2*
X114318D1*
X15594Y35188D2*
X57302D1*
X60750D2*
X69239D1*
X72688D2*
X114333D1*
X15539Y34939D2*
X57302D1*
X60750D2*
X69239D1*
X72688D2*
X114388D1*
X15446Y34691D2*
X57302D1*
X60750D2*
X69239D1*
X72688D2*
X114482D1*
X15305Y34442D2*
X57302D1*
X60750D2*
X69239D1*
X72688D2*
X114622D1*
X15098Y34193D2*
X57302D1*
X60750D2*
X69239D1*
X72688D2*
X114829D1*
X14789Y33945D2*
X57302D1*
X60750D2*
X69239D1*
X72688D2*
X115138D1*
X13258Y33696D2*
X13501D1*
X14141D2*
X57302D1*
X60750D2*
X69239D1*
X72688D2*
X115786D1*
X116426D2*
X116669D1*
X13418Y33447D2*
X57302D1*
X60750D2*
X69239D1*
X72688D2*
X116509D1*
X13578Y33199D2*
X57302D1*
X60750D2*
X69239D1*
X72688D2*
X116345D1*
X13743Y32950D2*
X57302D1*
X60750D2*
X69239D1*
X72688D2*
X116185D1*
X13903Y32701D2*
X57302D1*
X60750D2*
X69239D1*
X72688D2*
X116025D1*
X14067Y32453D2*
X57302D1*
X60750D2*
X69239D1*
X72688D2*
X115860D1*
X14227Y32204D2*
X57302D1*
X60750D2*
X69239D1*
X72688D2*
X115700D1*
X14387Y31955D2*
X57302D1*
X60750D2*
X69239D1*
X72688D2*
X115540D1*
X14551Y31706D2*
X57302D1*
X60750D2*
X69239D1*
X72688D2*
X115376D1*
X14711Y31458D2*
X57302D1*
X60750D2*
X69239D1*
X72688D2*
X115216D1*
X14871Y31209D2*
X57302D1*
X60750D2*
X69239D1*
X72688D2*
X115056D1*
X15035Y30960D2*
X57302D1*
X60750D2*
X69239D1*
X72688D2*
X114892D1*
X15196Y30712D2*
X57302D1*
X60750D2*
X69239D1*
X72688D2*
X114732D1*
X15356Y30463D2*
X57302D1*
X60750D2*
X69239D1*
X72688D2*
X114571D1*
X15520Y30214D2*
X57302D1*
X60750D2*
X69239D1*
X72688D2*
X114407D1*
X15680Y29966D2*
X57302D1*
X60750D2*
X69239D1*
X72688D2*
X114247D1*
X15840Y29717D2*
X57302D1*
X60750D2*
X69239D1*
X72688D2*
X114087D1*
X16004Y29468D2*
X57302D1*
X60750D2*
X69239D1*
X72688D2*
X113923D1*
X16196Y29220D2*
X57302D1*
X60750D2*
X69239D1*
X72688D2*
X113732D1*
X16395Y28971D2*
X57302D1*
X60750D2*
X69239D1*
X72688D2*
X113532D1*
X16598Y28722D2*
X57302D1*
X60750D2*
X69239D1*
X72688D2*
X113329D1*
X16797Y28474D2*
X57302D1*
X60750D2*
X69239D1*
X72688D2*
X113130D1*
X17000Y28225D2*
X57302D1*
X60750D2*
X69239D1*
X72688D2*
X112927D1*
X17200Y27976D2*
X57302D1*
X60750D2*
X69239D1*
X72688D2*
X112728D1*
X17403Y27727D2*
X57302D1*
X60750D2*
X69239D1*
X72688D2*
X112525D1*
X17602Y27479D2*
X57302D1*
X60750D2*
X69239D1*
X72688D2*
X112325D1*
X17805Y27230D2*
X57302D1*
X60750D2*
X69239D1*
X72688D2*
X112122D1*
X18008Y26981D2*
X57302D1*
X60750D2*
X69239D1*
X72688D2*
X111919D1*
X18207Y26733D2*
X57302D1*
X60750D2*
X69239D1*
X72688D2*
X111720D1*
X18410Y26484D2*
X57302D1*
X60750D2*
X69239D1*
X72688D2*
X111517D1*
X18610Y26235D2*
X57302D1*
X60750D2*
X69239D1*
X72688D2*
X111318D1*
X18813Y25987D2*
X57302D1*
X60750D2*
X69239D1*
X72688D2*
X111114D1*
X19012Y25738D2*
X57302D1*
X60750D2*
X69239D1*
X72688D2*
X110915D1*
X19215Y25489D2*
X57302D1*
X60750D2*
X69239D1*
X72688D2*
X110712D1*
X19414Y25241D2*
X57302D1*
X60750D2*
X69239D1*
X72688D2*
X110513D1*
X19618Y24992D2*
X57302D1*
X60750D2*
X69239D1*
X72688D2*
X110310D1*
X19821Y24743D2*
X57302D1*
X60750D2*
X69239D1*
X72688D2*
X110107D1*
X20020Y24495D2*
X57302D1*
X60750D2*
X69239D1*
X72688D2*
X109907D1*
X20266Y24246D2*
X57302D1*
X60750D2*
X69239D1*
X72688D2*
X109661D1*
X20516Y23997D2*
X57302D1*
X60750D2*
X69239D1*
X72688D2*
X109411D1*
X20762Y23748D2*
X57302D1*
X60750D2*
X69239D1*
X72688D2*
X109161D1*
X21012Y23500D2*
X57302D1*
X60750D2*
X69239D1*
X72688D2*
X108915D1*
X21262Y23251D2*
X57302D1*
X60750D2*
X69239D1*
X72688D2*
X108665D1*
X21508Y23002D2*
X57302D1*
X60750D2*
X69239D1*
X72688D2*
X108415D1*
X21758Y22754D2*
X57302D1*
X60750D2*
X69239D1*
X72688D2*
X108169D1*
X22008Y22505D2*
X57302D1*
X60750D2*
X69239D1*
X72688D2*
X107919D1*
X22254Y22256D2*
X57302D1*
X60750D2*
X69239D1*
X72688D2*
X107669D1*
X22504Y22008D2*
X57302D1*
X60750D2*
X69239D1*
X72688D2*
X107423D1*
X22754Y21759D2*
X57302D1*
X60750D2*
X69239D1*
X72688D2*
X107173D1*
X23000Y21510D2*
X57302D1*
X60750D2*
X69239D1*
X72688D2*
X106927D1*
X23250Y21262D2*
X57302D1*
X60750D2*
X69239D1*
X72688D2*
X106677D1*
X23500Y21013D2*
X57302D1*
X60750D2*
X69239D1*
X72688D2*
X106427D1*
X23746Y20764D2*
X57302D1*
X60750D2*
X69239D1*
X72688D2*
X106181D1*
X23996Y20515D2*
X57302D1*
X60750D2*
X69239D1*
X72688D2*
X105931D1*
X24246Y20267D2*
X57302D1*
X60750D2*
X69239D1*
X72688D2*
X105681D1*
X24493Y20018D2*
X57302D1*
X60750D2*
X69239D1*
X72688D2*
X105435D1*
X24797Y19769D2*
X57302D1*
X60750D2*
X69239D1*
X72688D2*
X105130D1*
X25106Y19521D2*
X57302D1*
X60750D2*
X69239D1*
X72688D2*
X104821D1*
X25410Y19272D2*
X57302D1*
X60750D2*
X69239D1*
X72688D2*
X104513D1*
X25719Y19023D2*
X57302D1*
X60750D2*
X69239D1*
X72688D2*
X104208D1*
X26028Y18775D2*
X57302D1*
X60750D2*
X69239D1*
X72688D2*
X103900D1*
X26332Y18526D2*
X57302D1*
X60750D2*
X69239D1*
X72688D2*
X103595D1*
X26641Y18277D2*
X57302D1*
X60750D2*
X69239D1*
X72688D2*
X103286D1*
X26950Y18029D2*
X57302D1*
X60750D2*
X69239D1*
X72688D2*
X102978D1*
X27254Y17780D2*
X57302D1*
X60750D2*
X69239D1*
X72688D2*
X102673D1*
X27563Y17531D2*
X57302D1*
X60750D2*
X69239D1*
X72688D2*
X102364D1*
X27868Y17283D2*
X57302D1*
X60750D2*
X69239D1*
X72688D2*
X102060D1*
X28176Y17034D2*
X57302D1*
X60750D2*
X69239D1*
X72688D2*
X101751D1*
X28485Y16785D2*
X57302D1*
X60750D2*
X69239D1*
X72688D2*
X101443D1*
X28789Y16536D2*
X57302D1*
X60750D2*
X69239D1*
X72688D2*
X101138D1*
X29098Y16288D2*
X57302D1*
X60750D2*
X69239D1*
X72688D2*
X100829D1*
X29407Y16039D2*
X57302D1*
X60750D2*
X69239D1*
X72688D2*
X100521D1*
X29782Y15790D2*
X57302D1*
X60750D2*
X69239D1*
X72688D2*
X100146D1*
X30164Y15542D2*
X35021D1*
X35852D2*
X57302D1*
X60750D2*
X69239D1*
X72688D2*
X94075D1*
X94907D2*
X99763D1*
X30547Y15293D2*
X34439D1*
X36434D2*
X57302D1*
X60750D2*
X69239D1*
X72688D2*
X93493D1*
X95489D2*
X99380D1*
X30930Y15044D2*
X34138D1*
X36731D2*
X57302D1*
X60750D2*
X69239D1*
X72688D2*
X93196D1*
X95789D2*
X98997D1*
X31313Y14796D2*
X33939D1*
X36934D2*
X57302D1*
X60750D2*
X69239D1*
X72688D2*
X92997D1*
X95989D2*
X98614D1*
X31696Y14547D2*
X33802D1*
X37071D2*
X57302D1*
X60750D2*
X69239D1*
X72688D2*
X92857D1*
X96125D2*
X98232D1*
X32078Y14298D2*
X33712D1*
X37160D2*
X57302D1*
X60750D2*
X69239D1*
X72688D2*
X92767D1*
X96215D2*
X97849D1*
X32461Y14050D2*
X33661D1*
X37211D2*
X57302D1*
X60750D2*
X69239D1*
X72688D2*
X92716D1*
X96266D2*
X97466D1*
X32844Y13801D2*
X33646D1*
X37227D2*
X57302D1*
X60750D2*
X69239D1*
X72688D2*
X92700D1*
X96282D2*
X97083D1*
X33227Y13552D2*
X33665D1*
X37207D2*
X57302D1*
X60750D2*
X69239D1*
X72688D2*
X92720D1*
X96262D2*
X96700D1*
X33610Y13304D2*
X33724D1*
X37149D2*
X57302D1*
X60750D2*
X69239D1*
X72688D2*
X92778D1*
X96203D2*
X96318D1*
X37051Y13055D2*
X57196D1*
X60750D2*
X69091D1*
X72688D2*
X92876D1*
X36907Y12806D2*
X57060D1*
X60750D2*
X68978D1*
X72696D2*
X93021D1*
X36696Y12557D2*
X56997D1*
X60840D2*
X68927D1*
X72801D2*
X93232D1*
X36371Y12309D2*
X56985D1*
X60930D2*
X68923D1*
X72883D2*
X93556D1*
X35743Y12060D2*
X56985D1*
X60985D2*
X68923D1*
X72934D2*
X94185D1*
X36231Y11811D2*
X56985D1*
X61028D2*
X68923D1*
X72969D2*
X93696D1*
X36719Y11563D2*
X56985D1*
X61043D2*
X68923D1*
X72985D2*
X93208D1*
X37207Y11314D2*
X56985D1*
X61055D2*
X68923D1*
X72989D2*
X92720D1*
X37696Y11065D2*
X56985D1*
X61043D2*
X68923D1*
X72977D2*
X92232D1*
X38184Y10817D2*
X56985D1*
X61020D2*
X68923D1*
X72946D2*
X91743D1*
X38672Y10568D2*
X56985D1*
X60977D2*
X68923D1*
X72903D2*
X91255D1*
X39157Y10319D2*
X56985D1*
X60914D2*
X68923D1*
X72828D2*
X90767D1*
X39645Y10071D2*
X57005D1*
X60825D2*
X68954D1*
X72739D2*
X90282D1*
X40133Y9822D2*
X57079D1*
X60692D2*
X69044D1*
X72586D2*
X89794D1*
X40700Y9573D2*
X57228D1*
X60512D2*
X69216D1*
X72387D2*
X89224D1*
X41348Y9325D2*
X57497D1*
X60196D2*
X69544D1*
X72043D2*
X88579D1*
X41996Y9076D2*
X57618D1*
X60309D2*
X69614D1*
X72313D2*
X87931D1*
X42645Y8827D2*
X57435D1*
X60493D2*
X69431D1*
X72496D2*
X87282D1*
X43293Y8578D2*
X57310D1*
X60618D2*
X69306D1*
X72621D2*
X86634D1*
X43942Y8330D2*
X57228D1*
X60700D2*
X69224D1*
X72703D2*
X85985D1*
X44590Y8081D2*
X57181D1*
X60746D2*
X69181D1*
X72746D2*
X85337D1*
X45235Y7832D2*
X57177D1*
X60750D2*
X69177D1*
X72750D2*
X84689D1*
X45883Y7584D2*
X57204D1*
X60723D2*
X64384D1*
X65543D2*
X69204D1*
X72723D2*
X84044D1*
X46637Y7335D2*
X57267D1*
X60660D2*
X63900D1*
X66028D2*
X69271D1*
X72657D2*
X83290D1*
X47563Y7086D2*
X57376D1*
X60551D2*
X63626D1*
X66301D2*
X69376D1*
X72551D2*
X82364D1*
X48493Y6838D2*
X57532D1*
X60395D2*
X63439D1*
X66489D2*
X69536D1*
X72391D2*
X81435D1*
X49418Y6589D2*
X57763D1*
X60164D2*
X63310D1*
X66618D2*
X69767D1*
X72160D2*
X80509D1*
X50348Y6340D2*
X58118D1*
X59809D2*
X63228D1*
X66700D2*
X70130D1*
X71797D2*
X79579D1*
X51278Y6092D2*
X63185D1*
X66743D2*
X78650D1*
X52203Y5843D2*
X63177D1*
X66750D2*
X77724D1*
X53633Y5594D2*
X63200D1*
X66727D2*
X76294D1*
X55200Y5346D2*
X63267D1*
X66660D2*
X74724D1*
X56770Y5097D2*
X63372D1*
X66555D2*
X73153D1*
X58340Y4848D2*
X63528D1*
X66399D2*
X71583D1*
X62434Y4599D2*
X63755D1*
X66172D2*
X67489D1*
X7669Y64839D2*
X7634Y64591D1*
X7564Y64352D1*
X7461Y64124D1*
X7327Y63913D1*
X7164Y63724D1*
X6977Y63559D1*
X6768Y63422D1*
X6542Y63316D1*
X6303Y63243D1*
X6056Y63205D1*
X5806Y63202D1*
X5558Y63234D1*
X5318Y63300D1*
X5089Y63401D1*
X4876Y63532D1*
X4685Y63692D1*
X4525Y63869D1*
X4727Y59977D1*
X4797Y58636D1*
X5788Y52382D1*
X7428Y46265D1*
X9697Y40354D1*
X12075Y35688D1*
X12114Y35886D1*
X12194Y36123D1*
X12308Y36345D1*
X12451Y36550D1*
X12622Y36732D1*
X12817Y36888D1*
X13032Y37015D1*
X13263Y37111D1*
X13505Y37173D1*
X13753Y37200D1*
X14003Y37192D1*
X14249Y37148D1*
X14486Y37071D1*
X14710Y36960D1*
X14916Y36819D1*
X15101Y36651D1*
X15259Y36458D1*
X15389Y36245D1*
X15488Y36015D1*
X15553Y35774D1*
X15583Y35526D1*
X15581Y35311D1*
X15546Y35064D1*
X15476Y34824D1*
X15373Y34596D1*
X15239Y34386D1*
X15076Y34196D1*
X14889Y34031D1*
X14680Y33894D1*
X14453Y33788D1*
X14215Y33716D1*
X13968Y33677D1*
X13718Y33674D1*
X13470Y33706D1*
X13229Y33773D1*
X13168Y33797D1*
X16022Y29401D1*
X20007Y24480D1*
X24485Y20002D1*
X29407Y16018D1*
X33798Y13166D1*
X33721Y13404D1*
X33679Y13651D1*
X33673Y13900D1*
X33702Y14149D1*
X33766Y14390D1*
X33863Y14620D1*
X33991Y14834D1*
X34149Y15028D1*
X34332Y15198D1*
X34538Y15340D1*
X34761Y15451D1*
X34998Y15530D1*
X35244Y15575D1*
X35494Y15584D1*
X35742Y15559D1*
X35984Y15498D1*
X36216Y15404D1*
X36432Y15278D1*
X36627Y15123D1*
X36799Y14942D1*
X36944Y14738D1*
X37058Y14516D1*
X37140Y14280D1*
X37188Y14035D1*
X37201Y13820D1*
X37183Y13571D1*
X37131Y13327D1*
X37044Y13093D1*
X36925Y12873D1*
X36777Y12672D1*
X36601Y12495D1*
X36402Y12343D1*
X36184Y12222D1*
X35951Y12132D1*
X35707Y12076D1*
X35688Y12074D1*
X40360Y9694D1*
X46272Y7425D1*
X52389Y5787D1*
X58643Y4797D1*
X63872Y4523D1*
X63740Y4637D1*
X63572Y4822D1*
X63433Y5030D1*
X63324Y5255D1*
X63248Y5493D1*
X63207Y5739D1*
X63200Y5989D1*
X63229Y6237D1*
X63293Y6478D1*
X63390Y6708D1*
X63519Y6922D1*
X63677Y7116D1*
X63860Y7286D1*
X64065Y7428D1*
X64289Y7539D1*
X64526Y7618D1*
X64772Y7663D1*
X65021Y7673D1*
X65270Y7647D1*
X65512Y7586D1*
X65743Y7492D1*
X65959Y7366D1*
X66155Y7211D1*
X66327Y7030D1*
X66471Y6826D1*
X66586Y6604D1*
X66668Y6368D1*
X66716Y6123D1*
X66729Y5909D1*
X66711Y5659D1*
X66658Y5415D1*
X66572Y5181D1*
X66453Y4961D1*
X66304Y4760D1*
X66129Y4583D1*
X66053Y4521D1*
X68203Y4635D1*
X71291Y4797D1*
X77545Y5788D1*
X83662Y7428D1*
X89574Y9697D1*
X94239Y12075D1*
X94019Y12120D1*
X93784Y12203D1*
X93563Y12319D1*
X93360Y12465D1*
X93180Y12639D1*
X93027Y12835D1*
X92902Y13052D1*
X92810Y13284D1*
X92751Y13527D1*
X92727Y13775D1*
X92738Y14025D1*
X92785Y14270D1*
X92865Y14507D1*
X92978Y14730D1*
X93122Y14934D1*
X93293Y15116D1*
X93488Y15272D1*
X93703Y15399D1*
X93934Y15495D1*
X94176Y15557D1*
X94424Y15584D1*
X94673Y15576D1*
X94920Y15533D1*
X95157Y15455D1*
X95381Y15345D1*
X95587Y15204D1*
X95772Y15035D1*
X95930Y14842D1*
X96060Y14629D1*
X96159Y14399D1*
X96224Y14158D1*
X96254Y13910D1*
X96252Y13695D1*
X96216Y13448D1*
X96147Y13208D1*
X96130Y13169D1*
X100526Y16022D1*
X105447Y20007D1*
X109925Y24485D1*
X113910Y29407D1*
X116761Y33798D1*
X116622Y33748D1*
X116378Y33692D1*
X116129Y33671D1*
X115880Y33686D1*
X115635Y33735D1*
X115400Y33819D1*
X115179Y33935D1*
X114976Y34081D1*
X114796Y34254D1*
X114642Y34451D1*
X114518Y34668D1*
X114425Y34900D1*
X114366Y35143D1*
X114342Y35391D1*
X114354Y35641D1*
X114400Y35886D1*
X114481Y36123D1*
X114594Y36345D1*
X114738Y36550D1*
X114908Y36732D1*
X115103Y36888D1*
X115318Y37015D1*
X115549Y37111D1*
X115791Y37173D1*
X116040Y37200D1*
X116289Y37192D1*
X116535Y37148D1*
X116773Y37071D1*
X116997Y36960D1*
X117203Y36819D1*
X117387Y36651D1*
X117546Y36458D1*
X117676Y36245D1*
X117774Y36015D1*
X117839Y35774D1*
X117853Y35685D1*
X118545Y37048D1*
X120233Y40360D1*
X122502Y46272D1*
X124140Y52389D1*
X125131Y58643D1*
X125404Y63872D1*
X125275Y63724D1*
X125087Y63559D1*
X124878Y63422D1*
X124652Y63316D1*
X124413Y63243D1*
X124166Y63205D1*
X123916Y63202D1*
X123669Y63234D1*
X123428Y63300D1*
X123199Y63401D1*
X122987Y63532D1*
X122795Y63692D1*
X122627Y63878D1*
X122488Y64085D1*
X122379Y64310D1*
X122303Y64548D1*
X122262Y64794D1*
X122256Y65044D1*
X122285Y65292D1*
X122348Y65533D1*
X122445Y65763D1*
X122574Y65978D1*
X122732Y66171D1*
X122915Y66341D1*
X123121Y66483D1*
X123344Y66595D1*
X123581Y66673D1*
X123827Y66718D1*
X124076Y66728D1*
X124325Y66702D1*
X124567Y66641D1*
X124798Y66547D1*
X125014Y66421D1*
X125210Y66266D1*
X125382Y66085D1*
X125403Y66057D1*
X125130Y71291D1*
X124139Y77545D1*
X122500Y83662D1*
X120230Y89574D1*
X117853Y94239D1*
X117801Y93998D1*
X117715Y93764D1*
X117596Y93544D1*
X117447Y93343D1*
X117272Y93165D1*
X117073Y93014D1*
X116855Y92893D1*
X116622Y92803D1*
X116378Y92747D1*
X116129Y92726D1*
X115880Y92741D1*
X115635Y92790D1*
X115400Y92874D1*
X115179Y92990D1*
X114976Y93136D1*
X114796Y93309D1*
X114642Y93506D1*
X114518Y93723D1*
X114425Y93955D1*
X114366Y94198D1*
X114342Y94446D1*
X114354Y94696D1*
X114400Y94941D1*
X114481Y95178D1*
X114594Y95400D1*
X114738Y95605D1*
X114908Y95787D1*
X115103Y95943D1*
X115318Y96070D1*
X115549Y96166D1*
X115791Y96228D1*
X116040Y96255D1*
X116289Y96247D1*
X116535Y96203D1*
X116762Y96130D1*
X113906Y100526D1*
X109920Y105447D1*
X105442Y109925D1*
X100521Y113910D1*
X96129Y116761D1*
X96195Y116566D1*
X96243Y116321D1*
X96256Y116107D1*
X96239Y115858D1*
X96186Y115614D1*
X96099Y115379D1*
X95980Y115160D1*
X95832Y114959D1*
X95656Y114781D1*
X95457Y114630D1*
X95239Y114508D1*
X95006Y114419D1*
X94763Y114363D1*
X94514Y114342D1*
X94264Y114356D1*
X94019Y114406D1*
X93784Y114490D1*
X93563Y114606D1*
X93360Y114752D1*
X93180Y114925D1*
X93027Y115122D1*
X92902Y115339D1*
X92810Y115571D1*
X92751Y115813D1*
X92727Y116062D1*
X92738Y116311D1*
X92785Y116557D1*
X92865Y116793D1*
X92978Y117016D1*
X93122Y117220D1*
X93293Y117403D1*
X93488Y117559D1*
X93703Y117686D1*
X93934Y117781D1*
X94176Y117843D1*
X94241Y117853D1*
X89567Y120233D1*
X83655Y122502D1*
X77538Y124140D1*
X71284Y125131D1*
X66060Y125402D1*
X66244Y125234D1*
X66403Y125041D1*
X66533Y124827D1*
X66631Y124598D1*
X66696Y124356D1*
X66726Y124109D1*
X66724Y123894D1*
X66689Y123647D1*
X66619Y123407D1*
X66516Y123179D1*
X66451Y123068D1*
X67167Y122930D1*
X69299Y122501D1*
X69540Y122436D1*
X69776Y122354D1*
X70006Y122255D1*
X70228Y122142D1*
X70442Y122013D1*
X70647Y121870D1*
X70842Y121713D1*
X71025Y121543D1*
X71196Y121361D1*
X71355Y121167D1*
X71499Y120963D1*
X71629Y120750D1*
X71745Y120528D1*
X71844Y120299D1*
X71928Y120063D1*
X71996Y119823D1*
X72046Y119578D1*
X72080Y119330D1*
X72097Y119081D1*
X72099Y115214D1*
X72100Y79172D1*
X72187Y79083D1*
X72264Y78984D1*
X72330Y78878D1*
X72383Y78765D1*
X72424Y78647D1*
X72452Y78525D1*
X72468Y78336D1*
Y74336D1*
X72461Y74211D1*
X72440Y74088D1*
X72406Y73967D1*
X72359Y73852D1*
X72300Y73742D1*
X72229Y73639D1*
X72166Y73566D1*
X72141Y73484D1*
X72396Y73219D1*
X72469Y73118D1*
X72532Y73010D1*
X72583Y72896D1*
X72622Y72777D1*
X72648Y72655D1*
X72664Y72464D1*
Y67210D1*
X72741Y67043D1*
X72862Y66701D1*
X72929Y66358D1*
X72955Y66087D1*
X72966Y65768D1*
X72932Y65331D1*
X72844Y64910D1*
X72725Y64588D1*
X72862Y64199D1*
X72929Y63858D1*
X72955Y63587D1*
X72966Y63268D1*
X72932Y62831D1*
X72844Y62410D1*
X72741Y62128D1*
X72664Y61964D1*
Y12819D1*
X72748Y12636D1*
X72867Y12277D1*
X72931Y11928D1*
X72954Y11665D1*
X72966Y11335D1*
X72933Y10879D1*
X72848Y10448D1*
X72748Y10161D1*
X72700Y10046D1*
X72611Y9893D1*
X72432Y9645D1*
X72347Y9557D1*
X72253Y9479D1*
X72151Y9411D1*
X72002Y9336D1*
X72155Y9211D1*
X72327Y9030D1*
X72471Y8826D1*
X72586Y8604D1*
X72668Y8368D1*
X72716Y8123D1*
X72729Y7909D1*
X72711Y7659D1*
X72658Y7415D1*
X72572Y7181D1*
X72453Y6961D1*
X72304Y6760D1*
X72129Y6583D1*
X71930Y6431D1*
X71712Y6310D1*
X71478Y6220D1*
X71235Y6164D1*
X70986Y6144D1*
X70737Y6158D1*
X70492Y6208D1*
X70257Y6291D1*
X70035Y6407D1*
X69833Y6553D1*
X69653Y6727D1*
X69499Y6924D1*
X69375Y7140D1*
X69282Y7372D1*
X69223Y7615D1*
X69199Y7864D1*
X69211Y8113D1*
X69257Y8359D1*
X69338Y8595D1*
X69451Y8818D1*
X69594Y9022D1*
X69765Y9204D1*
X69804Y9237D1*
X69629Y9295D1*
X69517Y9352D1*
X69412Y9420D1*
X69316Y9499D1*
X69228Y9588D1*
X69151Y9687D1*
X69086Y9793D1*
X69032Y9906D1*
X68991Y10024D1*
X68964Y10146D1*
X68948Y10336D1*
Y12461D1*
X68955Y12585D1*
X68975Y12709D1*
X69009Y12829D1*
X69056Y12945D1*
X69115Y13055D1*
X69167Y13131D1*
X69227Y13206D1*
X69264Y13339D1*
X69262Y62594D1*
X66718Y65138D1*
X66729Y64964D1*
X66711Y64714D1*
X66658Y64470D1*
X66572Y64236D1*
X66453Y64016D1*
X66304Y63816D1*
X66129Y63638D1*
X65930Y63487D1*
X65712Y63365D1*
X65478Y63275D1*
X65235Y63220D1*
X64986Y63199D1*
X64737Y63213D1*
X64492Y63263D1*
X64256Y63347D1*
X64035Y63463D1*
X63833Y63609D1*
X63653Y63782D1*
X63625Y63815D1*
X63391Y63563D1*
X63207Y63394D1*
X63012Y63238D1*
X62807Y63095D1*
X62592Y62967D1*
X62369Y62854D1*
X62139Y62757D1*
X61903Y62675D1*
X61661Y62610D1*
X61416Y62562D1*
X61168Y62531D1*
X60918Y62517D1*
X60668Y62520D1*
X60419Y62540D1*
X60261Y62563D1*
X60288Y62428D1*
X60303Y62236D1*
Y61803D1*
X60366Y61668D1*
X60487Y61326D1*
X60554Y60983D1*
X60580Y60712D1*
X60591Y60393D1*
X60557Y59956D1*
X60469Y59535D1*
X60350Y59213D1*
X60487Y58824D1*
X60554Y58483D1*
X60580Y58212D1*
X60591Y57893D1*
X60557Y57456D1*
X60469Y57035D1*
X60366Y56753D1*
X60289Y56589D1*
X60291Y53459D1*
X60458Y53282D1*
X60532Y53181D1*
X60594Y53073D1*
X60645Y52959D1*
X60684Y52840D1*
X60711Y52718D1*
X60726Y52526D1*
Y12757D1*
X60811Y12573D1*
X60930Y12215D1*
X60994Y11865D1*
X61017Y11603D1*
X61028Y11273D1*
X60995Y10816D1*
X60910Y10385D1*
X60811Y10099D1*
X60763Y9983D1*
X60674Y9830D1*
X60494Y9583D1*
X60409Y9495D1*
X60315Y9416D1*
X60213Y9348D1*
X60074Y9278D1*
X60244Y9118D1*
X60403Y8925D1*
X60533Y8712D1*
X60631Y8483D1*
X60696Y8241D1*
X60726Y7993D1*
X60724Y7779D1*
X60689Y7531D1*
X60619Y7292D1*
X60516Y7064D1*
X60382Y6853D1*
X60220Y6664D1*
X60032Y6499D1*
X59823Y6362D1*
X59597Y6256D1*
X59358Y6183D1*
X59111Y6145D1*
X58861Y6142D1*
X58613Y6174D1*
X58373Y6240D1*
X58144Y6341D1*
X57931Y6472D1*
X57740Y6632D1*
X57572Y6818D1*
X57433Y7025D1*
X57324Y7250D1*
X57248Y7488D1*
X57207Y7734D1*
X57200Y7984D1*
X57229Y8232D1*
X57293Y8473D1*
X57390Y8703D1*
X57519Y8918D1*
X57677Y9111D1*
X57768Y9202D1*
X57579Y9289D1*
X57475Y9357D1*
X57378Y9436D1*
X57291Y9526D1*
X57214Y9624D1*
X57148Y9731D1*
X57095Y9843D1*
X57054Y9961D1*
X57026Y10083D1*
X57010Y10273D1*
Y12398D1*
X57017Y12523D1*
X57038Y12646D1*
X57072Y12766D1*
X57118Y12882D1*
X57178Y12992D1*
X57229Y13068D1*
X57289Y13143D1*
X57326Y13276D1*
X57324Y52031D1*
X56781Y52583D1*
X56708Y52684D1*
X56645Y52792D1*
X56594Y52906D1*
X56555Y53025D1*
X56529Y53147D1*
X56514Y53339D1*
Y58553D1*
X56401Y58687D1*
X56336Y58793D1*
X56282Y58906D1*
X56241Y59024D1*
X56214Y59146D1*
X56198Y59336D1*
Y61461D1*
X56204Y61585D1*
X56225Y61709D1*
X56259Y61829D1*
X56306Y61945D1*
X56365Y62055D1*
X56437Y62157D1*
X56519Y62251D1*
X56610Y62336D1*
X56711Y62410D1*
X56819Y62473D1*
X56933Y62523D1*
X56993Y62544D1*
X57018Y62625D1*
X56475Y63177D1*
X56402Y63278D1*
X56339Y63386D1*
X56288Y63500D1*
X56249Y63618D1*
X56223Y63741D1*
X56207Y63932D1*
Y68172D1*
X56214Y68297D1*
X56233Y68421D1*
X56266Y68541D1*
X56310Y68658D1*
X56367Y68770D1*
X56434Y68875D1*
X56559Y69021D1*
X58073Y70538D1*
Y78281D1*
X58080Y78406D1*
X58099Y78529D1*
X58131Y78650D1*
X58176Y78767D1*
X58232Y78878D1*
X58300Y78983D1*
X58425Y79130D1*
X60833Y81538D1*
X60926Y81622D1*
X61027Y81695D1*
X61135Y81758D1*
X61249Y81809D1*
X61368Y81848D1*
X61490Y81874D1*
X61682Y81890D1*
X64826D1*
X64829Y83464D1*
Y116007D1*
X64536Y116121D1*
X64309Y116227D1*
X64091Y116348D1*
X63881Y116484D1*
X63681Y116634D1*
X63492Y116798D1*
X63315Y116974D1*
X63150Y117162D1*
X62999Y117361D1*
X62861Y117570D1*
X62738Y117787D1*
X62631Y118013D1*
X62539Y118245D1*
X62463Y118484D1*
X62404Y118726D1*
X62362Y118973D1*
X62337Y119221D1*
X62329Y119471D1*
X62338Y119721D1*
X62364Y119970D1*
X62407Y120216D1*
X62467Y120458D1*
X62544Y120696D1*
X62637Y120928D1*
X62745Y121154D1*
X62869Y121371D1*
X63007Y121579D1*
X63160Y121777D1*
X63325Y121964D1*
X63504Y122140D1*
X63693Y122302D1*
X63894Y122452D1*
X64014Y122531D1*
X63833Y122664D1*
X63653Y122837D1*
X63499Y123034D1*
X63375Y123250D1*
X63282Y123482D1*
X63223Y123725D1*
X63199Y123974D1*
X63211Y124223D1*
X63257Y124469D1*
X63338Y124705D1*
X63451Y124928D1*
X63594Y125132D1*
X63765Y125315D1*
X63869Y125403D1*
X58636Y125130D1*
X52382Y124139D1*
X46265Y122500D1*
X40354Y120230D1*
X35688Y117853D1*
X35864Y117819D1*
X36102Y117741D1*
X36326Y117631D1*
X36532Y117490D1*
X36716Y117322D1*
X36875Y117129D1*
X37005Y116915D1*
X37103Y116686D1*
X37168Y116445D1*
X37199Y116197D1*
X37197Y115982D1*
X37161Y115735D1*
X37092Y115495D1*
X36989Y115267D1*
X36855Y115056D1*
X36692Y114867D1*
X36504Y114702D1*
X36295Y114565D1*
X36069Y114459D1*
X35830Y114386D1*
X35583Y114348D1*
X35334Y114345D1*
X35086Y114377D1*
X34845Y114444D1*
X34616Y114544D1*
X34404Y114675D1*
X34212Y114835D1*
X34045Y115021D1*
X33905Y115228D1*
X33797Y115453D1*
X33721Y115691D1*
X33679Y115937D1*
X33673Y116187D1*
X33702Y116435D1*
X33766Y116677D1*
X33798Y116760D1*
X29401Y113906D1*
X24480Y109920D1*
X20002Y105442D1*
X16018Y100521D1*
X13166Y96129D1*
X13383Y96201D1*
X13628Y96246D1*
X13878Y96255D1*
X14126Y96229D1*
X14369Y96169D1*
X14600Y96075D1*
X14816Y95949D1*
X15012Y95794D1*
X15184Y95612D1*
X15328Y95409D1*
X15443Y95187D1*
X15525Y94951D1*
X15572Y94705D1*
X15585Y94491D1*
X15568Y94242D1*
X15515Y93998D1*
X15428Y93764D1*
X15310Y93544D1*
X15161Y93343D1*
X14985Y93165D1*
X14787Y93014D1*
X14568Y92893D1*
X14335Y92803D1*
X14092Y92747D1*
X13843Y92726D1*
X13593Y92741D1*
X13349Y92790D1*
X13113Y92874D1*
X12892Y92990D1*
X12689Y93136D1*
X12509Y93309D1*
X12356Y93506D1*
X12231Y93723D1*
X12139Y93955D1*
X12080Y94198D1*
X12074Y94240D1*
X9694Y89567D1*
X7425Y83655D1*
X5787Y77538D1*
X4797Y71284D1*
X4523Y66055D1*
X4621Y66171D1*
X4805Y66341D1*
X5010Y66483D1*
X5234Y66595D1*
X5471Y66673D1*
X5717Y66718D1*
X5966Y66728D1*
X6215Y66702D1*
X6457Y66641D1*
X6688Y66547D1*
X6904Y66421D1*
X7100Y66266D1*
X7272Y66085D1*
X7416Y65881D1*
X7531Y65659D1*
X7613Y65423D1*
X7660Y65178D1*
X7674Y64964D1*
X7669Y64839D1*
X69998Y65254D2*
X69968Y65459D1*
X69950Y65903D1*
X69983Y66340D1*
X70071Y66761D1*
X70174Y67043D1*
X70241Y67189D1*
X70264Y67339D1*
X70262Y71969D1*
X70043Y72187D1*
X69769Y72071D1*
X69532Y71989D1*
X69291Y71924D1*
X69046Y71876D1*
X68798Y71844D1*
X68548Y71830D1*
X68299Y71832D1*
X68049Y71852D1*
X67802Y71889D1*
X67558Y71943D1*
X67318Y72014D1*
X67084Y72101D1*
X66856Y72203D1*
X66721Y72274D1*
X66724Y71233D1*
X66992Y71001D1*
X67167Y70823D1*
X67330Y70633D1*
X67480Y70433D1*
X67615Y70223D1*
X67736Y70004D1*
X67841Y69777D1*
X67931Y69544D1*
X68004Y69305D1*
X68061Y69062D1*
X68101Y68815D1*
X68123Y68566D1*
X68129Y68316D1*
X68117Y68066D1*
X68089Y67818D1*
X68043Y67572D1*
X67965Y67282D1*
X69996Y65253D1*
X69968Y65459D1*
X67206Y60657D2*
X67217Y60421D1*
X67213Y60561D1*
X67214Y60550D1*
Y60371D1*
X67179Y60013D1*
X67111Y59740D1*
X67073Y59620D1*
X66941Y59343D1*
X66999Y59214D1*
X67075Y59046D1*
X67164Y58723D1*
X67196Y58532D1*
X67217Y58171D1*
X67196Y57889D1*
X67164Y57699D1*
X67073Y57370D1*
X66943Y57096D1*
X66882Y56989D1*
X66809Y56889D1*
X66634Y56702D1*
X66483Y56573D1*
X66311Y56472D1*
X66166Y56415D1*
X65972Y56357D1*
X65813Y56330D1*
X65651Y56327D1*
X65490Y56347D1*
X65288Y56403D1*
X65089Y56480D1*
X64993Y56443D1*
X64722Y56357D1*
X64563Y56330D1*
X64401Y56327D1*
X64240Y56347D1*
X64038Y56403D1*
X63849Y56475D1*
X63708Y56556D1*
X63580Y56655D1*
X63361Y56883D1*
X63247Y57050D1*
X63139Y57262D1*
X63090Y57376D1*
X63001Y57699D1*
X62970Y57889D1*
X62949Y58250D1*
X62970Y58532D1*
X63001Y58723D1*
X63092Y59051D1*
X63224Y59328D1*
X63167Y59457D1*
X63090Y59626D1*
X63001Y59949D1*
X62970Y60139D1*
X62949Y60500D1*
X62970Y60782D1*
X63001Y60973D1*
X63092Y61301D1*
X63222Y61575D1*
X63283Y61682D1*
X63356Y61782D1*
X63532Y61969D1*
X63683Y62098D1*
X63854Y62199D1*
X63999Y62256D1*
X64193Y62314D1*
X64353Y62341D1*
X64515Y62344D1*
X64675Y62325D1*
X64878Y62268D1*
X65076Y62192D1*
X65173Y62229D1*
X65443Y62314D1*
X65603Y62341D1*
X65765Y62344D1*
X65925Y62325D1*
X66128Y62268D1*
X66317Y62196D1*
X66457Y62116D1*
X66585Y62016D1*
X66805Y61788D1*
X66918Y61622D1*
X67026Y61409D1*
X67075Y61296D1*
X67164Y60973D1*
X67196Y60782D1*
X67206Y60657D1*
D18*
X71458Y65836D3*
Y63336D3*
D19*
X65708Y60461D3*
X64458D3*
X65708Y58211D3*
X64458D3*
G36*
X67333Y78336D2*
X71333D1*
Y74336D1*
X67333D1*
Y78336D1*
G37*
G36*
X61083D2*
X65083D1*
Y74336D1*
X61083D1*
Y78336D1*
G37*
D20*
X71458Y11399D3*
G36*
X70083Y12461D2*
X70833D1*
Y10336D1*
X70083D1*
Y12461D1*
G37*
D20*
X59520Y11336D3*
G36*
X58145Y12398D2*
X58895D1*
Y10273D1*
X58145D1*
Y12398D1*
G37*
D18*
X59083Y60461D3*
Y57961D3*
G36*
X57333Y61461D2*
X58083D1*
Y59336D1*
X57333D1*
Y61461D1*
G37*
M02*
