G04 DipTrace 2.3.1.0*
%INBottomSilk_58742_rev6_Blackpoint.gbr*%
%MOIN*%
%ADD21C,0.03*%
%ADD22C,0.02*%
%ADD23C,0.0216*%
%ADD24C,0.0154*%
%ADD25C,0.0124*%
%FSLAX44Y44*%
G04*
G70*
G90*
G75*
G01*
%LNBotSilk*%
%LPD*%
X69958Y8648D2*
D21*
G02X69958Y7148I1000J-750D01*
G01*
Y8711D2*
Y7211D1*
X64583Y61586D2*
D22*
X64833Y63586D1*
X65583Y61586D2*
X65208Y63586D1*
X71853Y82325D2*
D23*
X71718Y82393D1*
X71517Y82593D1*
Y81188D1*
X71017Y82258D2*
Y82325D1*
X70950Y82460D1*
X70884Y82526D1*
X70749Y82593D1*
X70481D1*
X70348Y82526D1*
X70282Y82460D1*
X70214Y82325D1*
Y82192D1*
X70282Y82057D1*
X70415Y81858D1*
X71085Y81188D1*
X70147D1*
X69715Y82594D2*
X69179Y81188D1*
X68644Y82594D1*
X68212D2*
Y81188D1*
X67743D1*
X67542Y81256D1*
X67407Y81389D1*
X67340Y81523D1*
X67274Y81723D1*
Y82059D1*
X67340Y82260D1*
X67407Y82393D1*
X67542Y82528D1*
X67743Y82594D1*
X68212D1*
X65837Y82260D2*
X65904Y82393D1*
X66038Y82528D1*
X66171Y82594D1*
X66439D1*
X66574Y82528D1*
X66707Y82393D1*
X66775Y82260D1*
X66841Y82059D1*
Y81723D1*
X66775Y81523D1*
X66707Y81389D1*
X66574Y81256D1*
X66439Y81188D1*
X66171D1*
X66038Y81256D1*
X65904Y81389D1*
X65837Y81523D1*
X64044Y82325D2*
X63909Y82393D1*
X63708Y82593D1*
Y81188D1*
X63208Y82258D2*
Y82325D1*
X63141Y82460D1*
X63075Y82526D1*
X62940Y82593D1*
X62672D1*
X62539Y82526D1*
X62473Y82460D1*
X62405Y82325D1*
Y82192D1*
X62473Y82057D1*
X62606Y81858D1*
X63276Y81188D1*
X62338D1*
X60833D2*
X61370Y82594D1*
X61906Y81188D1*
X61705Y81657D2*
X61035D1*
X58357Y76515D2*
X57583D1*
X73812Y76993D2*
Y75787D1*
X74414Y76389D2*
X73208D1*
X73014Y13127D2*
D24*
Y12266D1*
X73444Y12696D2*
X72583D1*
X69011D2*
X68458D1*
X74429Y11267D2*
D25*
Y10463D1*
X73970D1*
X73226Y11267D2*
X73723D1*
Y10463D1*
X73226D1*
X73723Y10884D2*
X73417D1*
X72979Y11267D2*
Y10463D1*
X72711D1*
X72596Y10502D1*
X72519Y10578D1*
X72481Y10655D1*
X72443Y10769D1*
Y10961D1*
X72481Y11076D1*
X72519Y11152D1*
X72596Y11229D1*
X72711Y11267D1*
X72979D1*
X75256Y64634D2*
X74912D1*
X74797Y64673D1*
X74758Y64711D1*
X74720Y64787D1*
Y64864D1*
X74758Y64940D1*
X74797Y64979D1*
X74912Y65017D1*
X75256D1*
Y64213D1*
X74988Y64634D2*
X74720Y64213D1*
X73976Y65017D2*
X74473D1*
Y64213D1*
X73976D1*
X74473Y64634D2*
X74167D1*
X73193Y64902D2*
X73269Y64979D1*
X73384Y65017D1*
X73537D1*
X73652Y64979D1*
X73729Y64902D1*
Y64826D1*
X73690Y64749D1*
X73652Y64711D1*
X73576Y64673D1*
X73346Y64596D1*
X73269Y64558D1*
X73231Y64519D1*
X73193Y64443D1*
Y64328D1*
X73269Y64252D1*
X73384Y64213D1*
X73537D1*
X73652Y64252D1*
X73729Y64328D1*
X75193Y59874D2*
D24*
Y59061D1*
X75145Y58918D1*
X75049Y58869D1*
X74954D1*
X75336Y59539D2*
X75002D1*
X74645Y59874D2*
Y58869D1*
Y59348D2*
X74501Y59492D1*
X74405Y59539D1*
X74262D1*
X74167Y59492D1*
X74119Y59348D1*
Y58869D1*
X73810Y59252D2*
X73237D1*
Y59348D1*
X73284Y59444D1*
X73332Y59492D1*
X73428Y59539D1*
X73571D1*
X73667Y59492D1*
X73763Y59395D1*
X73810Y59252D1*
Y59157D1*
X73763Y59013D1*
X73667Y58918D1*
X73571Y58869D1*
X73428D1*
X73332Y58918D1*
X73237Y59013D1*
X72928Y59539D2*
Y58869D1*
Y59252D2*
X72879Y59395D1*
X72784Y59492D1*
X72688Y59539D1*
X72544D1*
X72235D2*
Y58869D1*
Y59348D2*
X72092Y59492D1*
X71996Y59539D1*
X71853D1*
X71757Y59492D1*
X71709Y59348D1*
Y58869D1*
Y59348D2*
X71566Y59492D1*
X71469Y59539D1*
X71327D1*
X71231Y59492D1*
X71182Y59348D1*
Y58869D1*
X70873Y59874D2*
X70826Y59827D1*
X70777Y59874D1*
X70826Y59923D1*
X70873Y59874D1*
X70826Y59539D2*
Y58869D1*
X69942Y59395D2*
X69990Y59492D1*
X70133Y59539D1*
X70277D1*
X70421Y59492D1*
X70468Y59395D1*
X70421Y59300D1*
X70325Y59252D1*
X70086Y59204D1*
X69990Y59157D1*
X69942Y59061D1*
Y59013D1*
X69990Y58918D1*
X70133Y58869D1*
X70277D1*
X70421Y58918D1*
X70468Y59013D1*
X69490Y59874D2*
Y59061D1*
X69442Y58918D1*
X69346Y58869D1*
X69251D1*
X69633Y59539D2*
X69298D1*
X68703D2*
X68798Y59492D1*
X68894Y59395D1*
X68942Y59252D1*
Y59157D1*
X68894Y59013D1*
X68798Y58918D1*
X68703Y58869D1*
X68560D1*
X68463Y58918D1*
X68368Y59013D1*
X68320Y59157D1*
Y59252D1*
X68368Y59395D1*
X68463Y59492D1*
X68560Y59539D1*
X68703D1*
X68011D2*
Y58869D1*
Y59252D2*
X67962Y59395D1*
X67867Y59492D1*
X67771Y59539D1*
X67627D1*
X62392Y59205D2*
D25*
X62048D1*
X61933Y59244D1*
X61894Y59282D1*
X61856Y59358D1*
Y59435D1*
X61894Y59511D1*
X61933Y59550D1*
X62048Y59588D1*
X62392D1*
Y58784D1*
X62124Y59205D2*
X61856Y58784D1*
X61112Y59588D2*
X61609D1*
Y58784D1*
X61112D1*
X61609Y59205D2*
X61303D1*
X60329Y59473D2*
X60405Y59550D1*
X60520Y59588D1*
X60673D1*
X60788Y59550D1*
X60865Y59473D1*
Y59397D1*
X60826Y59320D1*
X60788Y59282D1*
X60712Y59244D1*
X60482Y59167D1*
X60405Y59129D1*
X60367Y59090D1*
X60329Y59014D1*
Y58899D1*
X60405Y58823D1*
X60520Y58784D1*
X60673D1*
X60788Y58823D1*
X60865Y58899D1*
X61139Y13127D2*
D24*
Y12266D1*
X61569Y12696D2*
X60708D1*
X57136D2*
X56583D1*
X62554Y11267D2*
D25*
Y10463D1*
X62095D1*
X61351Y11267D2*
X61848D1*
Y10463D1*
X61351D1*
X61848Y10884D2*
X61542D1*
X61104Y11267D2*
Y10463D1*
X60836D1*
X60721Y10502D1*
X60644Y10578D1*
X60606Y10655D1*
X60568Y10769D1*
Y10961D1*
X60606Y11076D1*
X60644Y11152D1*
X60721Y11229D1*
X60836Y11267D1*
X61104D1*
X57958Y8648D2*
D21*
G02X57958Y7148I1000J-750D01*
G01*
Y8648D2*
Y7148D1*
X54523Y60882D2*
D24*
Y59877D1*
X55193Y60882D1*
Y59877D1*
X53593Y60882D2*
X54214D1*
Y59877D1*
X53593D1*
X54214Y60403D2*
X53832D1*
X52567Y60643D2*
X52614Y60738D1*
X52711Y60834D1*
X52806Y60882D1*
X52997D1*
X53093Y60834D1*
X53188Y60738D1*
X53237Y60643D1*
X53284Y60499D1*
Y60259D1*
X53237Y60117D1*
X53188Y60021D1*
X53093Y59925D1*
X52997Y59877D1*
X52806D1*
X52711Y59925D1*
X52614Y60021D1*
X52567Y60117D1*
Y60259D1*
X52806D1*
X51492Y59877D2*
X51876Y60882D1*
X52258Y59877D1*
X52114Y60212D2*
X51636D1*
X50848Y60882D2*
Y59877D1*
X51183Y60882D2*
X50513D1*
X50205D2*
Y59877D1*
X49896Y60882D2*
X49513Y59877D1*
X49131Y60882D1*
X48201D2*
X48822D1*
Y59877D1*
X48201D1*
X48822Y60403D2*
X48440D1*
X46920Y60882D2*
Y59877D1*
X46250Y60882D2*
Y59877D1*
X46920Y60403D2*
X46250D1*
X45654Y60882D2*
X45750Y60834D1*
X45845Y60738D1*
X45894Y60643D1*
X45941Y60499D1*
Y60259D1*
X45894Y60117D1*
X45845Y60021D1*
X45750Y59925D1*
X45654Y59877D1*
X45463D1*
X45368Y59925D1*
X45272Y60021D1*
X45224Y60117D1*
X45177Y60259D1*
Y60499D1*
X45224Y60643D1*
X45272Y60738D1*
X45368Y60834D1*
X45463Y60882D1*
X45654D1*
X44533D2*
Y59877D1*
X44868Y60882D2*
X44198D1*
X42296D2*
X42917D1*
Y59877D1*
X42296D1*
X42917Y60403D2*
X42535D1*
X41317Y60882D2*
Y59877D1*
X41987Y60882D1*
Y59877D1*
X41008Y60882D2*
Y59877D1*
X40673D1*
X40530Y59925D1*
X40434Y60021D1*
X40386Y60117D1*
X40339Y60259D1*
Y60499D1*
X40386Y60643D1*
X40434Y60738D1*
X40530Y60834D1*
X40673Y60882D1*
X41008D1*
X39058D2*
Y59877D1*
X38484D1*
X37554Y60882D2*
X38175D1*
Y59877D1*
X37554D1*
X38175Y60403D2*
X37793D1*
X37245Y60882D2*
Y59877D1*
X36910D1*
X36767Y59925D1*
X36670Y60021D1*
X36623Y60117D1*
X36575Y60259D1*
Y60499D1*
X36623Y60643D1*
X36670Y60738D1*
X36767Y60834D1*
X36910Y60882D1*
X37245D1*
M02*
