M48
INCH
T01C0.038
T02C0.126
T03C0.126
%
T01
X+065589Y+120651
X+066464Y+120589
X+067276Y+120589
X+068214Y+120464
X+069089Y+120464
X+069964Y+120339
X+064714Y+120589
X+064494Y+068360
X+065397Y+068139
X+063546Y+068191
X+062657Y+067728
X+061892Y+067030
X+061333Y+066147
X+061061Y+065095
T02
X+064964Y+064964
T03
X+005909Y+064964
X+013820Y+094491
X+035436Y+116107
X+064964Y+124019
X+094491Y+116107
X+116107Y+094491
X+124019Y+064964
X+116107Y+035436
X+094491Y+013820
X+070964Y+007909
X+064964Y+005909
X+058964Y+007904
X+035436Y+013820
X+013820Y+035436
T00
M30
